<?xml version='1.0' encoding='UTF-8' standalone='no'?>
<!DOCTYPE score-partwise PUBLIC "-//Recordare//DTD MusicXML 3.0 Partwise//EN" "http://www.musicxml.org/dtds/partwise.dtd">
<score-partwise version="3.0">
  <work>
    <work-title>Perisan Halin</work-title>
  </work>
  <part-list>
    <score-part id="P1">
      <part-name>Music</part-name>
    </score-part>
  </part-list>
  <part id="P1">
    <measure number="1">
      <direction placement="above">
        <direction-type>
          <words default-y="35">Makam: Bestenigar, Usul: Aksak</words>
        </direction-type>
        <sound tempo="65"/>
      </direction>
      <attributes>
        <divisions>96</divisions>
        <key>
          <key-step>D</key-step>
          <key-alter>-3</key-alter>
          <key-accidental>slash-flat</key-accidental>
          <key-step>B</key-step>
          <key-alter>-2</key-alter>
          <key-accidental>quarter-flat</key-accidental>
        </key>
        <time>
          <beats>9</beats>
          <beat-type>8</beat-type>
        </time>
      </attributes>
      <note>
        <pitch>
          <step>B</step>
          <alter>-0.5</alter>
          <octave>4</octave>
        </pitch>
        <duration>48</duration>
        <type>eighth</type>
        <accidental>quarter-flat</accidental>
        <lyric name="VOCAL_SECTION">
          <syllabic>begin</syllabic>
          <text>Pe</text>
        </lyric>
      </note>
      <note>
        <pitch>
          <step>C</step>
          <octave>5</octave>
        </pitch>
        <duration>144</duration>
        <type>quarter</type>
        <dot/>
        <lyric>
          <syllabic>end</syllabic>
          <text>rî</text>
        </lyric>
      </note>
      <note>
        <pitch>
          <step>D</step>
          <octave>5</octave>
        </pitch>
        <duration>96</duration>
        <type>quarter</type>
        <accidental>slash-flat</accidental>
        <lyric>
          <syllabic>single</syllabic>
          <text>şân </text>
        </lyric>
      </note>
      <note>
        <pitch>
          <step>E</step>
          <octave>5</octave>
        </pitch>
        <duration>144</duration>
        <type>quarter</type>
        <dot/>
        <lyric>
          <syllabic>begin</syllabic>
          <text>ha</text>
        </lyric>
      </note>
    </measure>
    <measure number="2">
      <attributes/>
      <note>
        <pitch>
          <step>G</step>
          <octave>5</octave>
        </pitch>
        <duration>48</duration>
        <type>eighth</type>
        <lyric>
          <syllabic>end</syllabic>
          <text>lin_</text>
        </lyric>
      </note>
      <note>
        <pitch>
          <step>F</step>
          <octave>5</octave>
        </pitch>
        <duration>96</duration>
        <type>quarter</type>
        <lyric>
          <syllabic>begin</syllabic>
          <text>ol</text>
        </lyric>
      </note>
      <note>
        <pitch>
          <step>E</step>
          <octave>5</octave>
        </pitch>
        <duration>48</duration>
        <type>eighth</type>
        <lyric>
          <text></text>
        </lyric>
      </note>
      <note>
        <pitch>
          <step>E</step>
          <octave>5</octave>
        </pitch>
        <duration>24</duration>
        <type>16th</type>
        <lyric>
          <syllabic>end</syllabic>
          <text>dum </text>
        </lyric>
      </note>
      <note>
        <pitch>
          <step>D</step>
          <octave>5</octave>
        </pitch>
        <duration>24</duration>
        <type>16th</type>
        <accidental>slash-flat</accidental>
        <lyric>
          <text></text>
        </lyric>
      </note>
      <note>
        <pitch>
          <step>D</step>
          <octave>5</octave>
        </pitch>
        <duration>24</duration>
        <type>16th</type>
        <accidental>slash-flat</accidental>
        <lyric>
          <text></text>
        </lyric>
      </note>
      <note>
        <pitch>
          <step>C</step>
          <octave>5</octave>
        </pitch>
        <duration>24</duration>
        <type>16th</type>
        <lyric>
          <text></text>
        </lyric>
      </note>
      <note>
        <pitch>
          <step>C</step>
          <octave>5</octave>
        </pitch>
        <duration>144</duration>
        <type>quarter</type>
        <dot/>
        <lyric>
          <syllabic>begin</syllabic>
          <text>sor</text>
        </lyric>
      </note>
    </measure>
    <measure number="3">
      <attributes/>
      <note>
        <pitch>
          <step>C</step>
          <octave>5</octave>
        </pitch>
        <duration>48</duration>
        <type>eighth</type>
        <lyric>
          <syllabic>end</syllabic>
          <text>ma</text>
        </lyric>
      </note>
      <note>
        <pitch>
          <step>C</step>
          <octave>5</octave>
        </pitch>
        <duration>96</duration>
        <type>quarter</type>
        <lyric>
          <syllabic>single</syllabic>
          <text>dın </text>
        </lyric>
      </note>
      <note>
        <pitch>
          <step>D</step>
          <octave>5</octave>
        </pitch>
        <duration>48</duration>
        <type>eighth</type>
        <accidental>slash-flat</accidental>
        <lyric>
          <text></text>
        </lyric>
      </note>
      <note>
        <pitch>
          <step>E</step>
          <octave>5</octave>
        </pitch>
        <duration>48</duration>
        <type>eighth</type>
        <lyric>
          <syllabic>begin</syllabic>
          <text>hal_</text>
        </lyric>
      </note>
      <note>
        <pitch>
          <step>F</step>
          <octave>5</octave>
        </pitch>
        <duration>48</duration>
        <type>eighth</type>
        <lyric>
          <text></text>
        </lyric>
      </note>
      <note>
        <pitch>
          <step>G</step>
          <octave>5</octave>
        </pitch>
        <duration>48</duration>
        <type>eighth</type>
        <lyric>
          <syllabic>end</syllabic>
          <text>i </text>
        </lyric>
      </note>
      <note>
        <pitch>
          <step>A</step>
          <octave>5</octave>
        </pitch>
        <duration>24</duration>
        <type>16th</type>
        <accidental>slash-flat</accidental>
        <lyric>
          <text></text>
        </lyric>
      </note>
      <note>
        <pitch>
          <step>G</step>
          <octave>5</octave>
        </pitch>
        <duration>24</duration>
        <type>16th</type>
        <lyric>
          <text></text>
        </lyric>
      </note>
      <note>
        <pitch>
          <step>F</step>
          <octave>5</octave>
        </pitch>
        <duration>48</duration>
        <type>eighth</type>
        <lyric>
          <text></text>
        </lyric>
      </note>
    </measure>
    <measure number="4">
      <attributes/>
      <note>
        <pitch>
          <step>G</step>
          <octave>5</octave>
        </pitch>
        <duration>48</duration>
        <type>eighth</type>
        <lyric>
          <syllabic>begin</syllabic>
          <text>pe</text>
        </lyric>
      </note>
      <note>
        <pitch>
          <step>A</step>
          <octave>5</octave>
        </pitch>
        <duration>96</duration>
        <type>quarter</type>
        <accidental>slash-flat</accidental>
        <lyric>
          <syllabic>end</syllabic>
          <text>rî</text>
        </lyric>
      </note>
      <note>
        <pitch>
          <step>G</step>
          <octave>5</octave>
        </pitch>
        <duration>24</duration>
        <type>16th</type>
        <lyric>
          <text></text>
        </lyric>
      </note>
      <note>
        <pitch>
          <step>F</step>
          <octave>5</octave>
        </pitch>
        <duration>24</duration>
        <type>16th</type>
        <lyric>
          <text></text>
        </lyric>
      </note>
      <note>
        <pitch>
          <step>E</step>
          <octave>5</octave>
        </pitch>
        <duration>24</duration>
        <type>16th</type>
        <lyric>
          <syllabic>begin</syllabic>
          <text>şâ</text>
        </lyric>
      </note>
      <note>
        <pitch>
          <step>D</step>
          <octave>5</octave>
        </pitch>
        <duration>24</duration>
        <type>16th</type>
        <accidental>slash-flat</accidental>
        <lyric>
          <text></text>
        </lyric>
      </note>
      <note>
        <pitch>
          <step>C</step>
          <octave>5</octave>
        </pitch>
        <duration>24</duration>
        <type>16th</type>
        <lyric>
          <text></text>
        </lyric>
      </note>
      <note>
        <pitch>
          <step>B</step>
          <alter>-0.5</alter>
          <octave>4</octave>
        </pitch>
        <duration>24</duration>
        <type>16th</type>
        <accidental>quarter-flat</accidental>
        <lyric>
          <text></text>
        </lyric>
      </note>
      <note>
        <pitch>
          <step>C</step>
          <octave>5</octave>
        </pitch>
        <duration>144</duration>
        <type>quarter</type>
        <dot/>
        <lyric>
          <syllabic>end</syllabic>
          <text>nım  </text>
          <end-line/>
        </lyric>
      </note>
    </measure>
    <measure number="5">
      <attributes/>
      <note>
        <pitch>
          <step>B</step>
          <alter>-0.5</alter>
          <octave>4</octave>
        </pitch>
        <duration>48</duration>
        <type>eighth</type>
        <accidental>quarter-flat</accidental>
        <lyric name="VOCAL_SECTION">
          <syllabic>begin</syllabic>
          <text>Pe</text>
        </lyric>
      </note>
      <note>
        <pitch>
          <step>C</step>
          <octave>5</octave>
        </pitch>
        <duration>144</duration>
        <type>quarter</type>
        <dot/>
        <lyric>
          <syllabic>end</syllabic>
          <text>rî</text>
        </lyric>
      </note>
      <note>
        <pitch>
          <step>D</step>
          <octave>5</octave>
        </pitch>
        <duration>96</duration>
        <type>quarter</type>
        <accidental>slash-flat</accidental>
        <lyric>
          <syllabic>single</syllabic>
          <text>şân </text>
        </lyric>
      </note>
      <note>
        <pitch>
          <step>E</step>
          <octave>5</octave>
        </pitch>
        <duration>144</duration>
        <type>quarter</type>
        <dot/>
        <lyric>
          <syllabic>begin</syllabic>
          <text>ha</text>
        </lyric>
      </note>
    </measure>
    <measure number="6">
      <attributes/>
      <note>
        <pitch>
          <step>G</step>
          <octave>5</octave>
        </pitch>
        <duration>48</duration>
        <type>eighth</type>
        <lyric>
          <syllabic>end</syllabic>
          <text>lin_</text>
        </lyric>
      </note>
      <note>
        <pitch>
          <step>F</step>
          <octave>5</octave>
        </pitch>
        <duration>96</duration>
        <type>quarter</type>
        <lyric>
          <syllabic>begin</syllabic>
          <text>ol</text>
        </lyric>
      </note>
      <note>
        <pitch>
          <step>E</step>
          <octave>5</octave>
        </pitch>
        <duration>48</duration>
        <type>eighth</type>
        <lyric>
          <text></text>
        </lyric>
      </note>
      <note>
        <pitch>
          <step>E</step>
          <octave>5</octave>
        </pitch>
        <duration>24</duration>
        <type>16th</type>
        <lyric>
          <syllabic>end</syllabic>
          <text>dum </text>
        </lyric>
      </note>
      <note>
        <pitch>
          <step>D</step>
          <octave>5</octave>
        </pitch>
        <duration>24</duration>
        <type>16th</type>
        <accidental>slash-flat</accidental>
        <lyric>
          <text></text>
        </lyric>
      </note>
      <note>
        <pitch>
          <step>D</step>
          <octave>5</octave>
        </pitch>
        <duration>24</duration>
        <type>16th</type>
        <accidental>slash-flat</accidental>
        <lyric>
          <text></text>
        </lyric>
      </note>
      <note>
        <pitch>
          <step>C</step>
          <octave>5</octave>
        </pitch>
        <duration>24</duration>
        <type>16th</type>
        <lyric>
          <text></text>
        </lyric>
      </note>
      <note>
        <pitch>
          <step>C</step>
          <octave>5</octave>
        </pitch>
        <duration>144</duration>
        <type>quarter</type>
        <dot/>
        <lyric>
          <syllabic>begin</syllabic>
          <text>sor</text>
        </lyric>
      </note>
    </measure>
    <measure number="7">
      <attributes/>
      <note>
        <pitch>
          <step>C</step>
          <octave>5</octave>
        </pitch>
        <duration>48</duration>
        <type>eighth</type>
        <lyric>
          <syllabic>end</syllabic>
          <text>ma</text>
        </lyric>
      </note>
      <note>
        <pitch>
          <step>C</step>
          <octave>5</octave>
        </pitch>
        <duration>96</duration>
        <type>quarter</type>
        <lyric>
          <syllabic>single</syllabic>
          <text>dın </text>
        </lyric>
      </note>
      <note>
        <pitch>
          <step>D</step>
          <octave>5</octave>
        </pitch>
        <duration>48</duration>
        <type>eighth</type>
        <accidental>slash-flat</accidental>
        <lyric>
          <text></text>
        </lyric>
      </note>
      <note>
        <pitch>
          <step>E</step>
          <octave>5</octave>
        </pitch>
        <duration>48</duration>
        <type>eighth</type>
        <lyric>
          <syllabic>begin</syllabic>
          <text>hal_</text>
        </lyric>
      </note>
      <note>
        <pitch>
          <step>F</step>
          <octave>5</octave>
        </pitch>
        <duration>48</duration>
        <type>eighth</type>
        <lyric>
          <text></text>
        </lyric>
      </note>
      <note>
        <pitch>
          <step>G</step>
          <octave>5</octave>
        </pitch>
        <duration>48</duration>
        <type>eighth</type>
        <lyric>
          <syllabic>end</syllabic>
          <text>i </text>
        </lyric>
      </note>
      <note>
        <pitch>
          <step>A</step>
          <octave>5</octave>
        </pitch>
        <duration>24</duration>
        <type>16th</type>
        <accidental>slash-flat</accidental>
        <lyric>
          <text></text>
        </lyric>
      </note>
      <note>
        <pitch>
          <step>G</step>
          <octave>5</octave>
        </pitch>
        <duration>24</duration>
        <type>16th</type>
        <lyric>
          <text>50</text>
        </lyric>
      </note>
      <note>
        <pitch>
          <step>F</step>
          <octave>5</octave>
        </pitch>
        <duration>48</duration>
        <type>eighth</type>
        <lyric>
          <text></text>
        </lyric>
      </note>
    </measure>
    <measure number="8">
      <attributes/>
      <note>
        <pitch>
          <step>G</step>
          <octave>5</octave>
        </pitch>
        <duration>48</duration>
        <type>eighth</type>
        <lyric>
          <syllabic>begin</syllabic>
          <text>pe</text>
        </lyric>
      </note>
      <note>
        <pitch>
          <step>A</step>
          <octave>5</octave>
        </pitch>
        <duration>96</duration>
        <type>quarter</type>
        <accidental>slash-flat</accidental>
        <lyric>
          <syllabic>end</syllabic>
          <text>rî</text>
        </lyric>
      </note>
      <note>
        <pitch>
          <step>G</step>
          <octave>5</octave>
        </pitch>
        <duration>24</duration>
        <type>16th</type>
        <lyric>
          <text></text>
        </lyric>
      </note>
      <note>
        <pitch>
          <step>F</step>
          <octave>5</octave>
        </pitch>
        <duration>24</duration>
        <type>16th</type>
        <lyric>
          <text></text>
        </lyric>
      </note>
      <note>
        <pitch>
          <step>E</step>
          <octave>5</octave>
        </pitch>
        <duration>24</duration>
        <type>16th</type>
        <lyric>
          <syllabic>begin</syllabic>
          <text>şâ</text>
        </lyric>
      </note>
      <note>
        <pitch>
          <step>D</step>
          <octave>5</octave>
        </pitch>
        <duration>24</duration>
        <type>16th</type>
        <accidental>slash-flat</accidental>
        <lyric>
          <text></text>
        </lyric>
      </note>
      <note>
        <pitch>
          <step>C</step>
          <octave>5</octave>
        </pitch>
        <duration>24</duration>
        <type>16th</type>
        <lyric>
          <text></text>
        </lyric>
      </note>
      <note>
        <pitch>
          <step>B</step>
          <alter>-0.5</alter>
          <octave>4</octave>
        </pitch>
        <duration>24</duration>
        <type>16th</type>
        <accidental>quarter-flat</accidental>
        <lyric>
          <text></text>
        </lyric>
      </note>
      <note>
        <pitch>
          <step>C</step>
          <octave>5</octave>
        </pitch>
        <duration>144</duration>
        <type>quarter</type>
        <dot/>
        <lyric>
          <syllabic>end</syllabic>
          <text>nım  </text>
          <end-line/>
        </lyric>
      </note>
    </measure>
    <measure number="9">
      <attributes/>
      <note>
        <pitch>
          <step>E</step>
          <octave>5</octave>
        </pitch>
        <duration>48</duration>
        <type>eighth</type>
        <lyric name="VOCAL_SECTION">
          <syllabic>begin</syllabic>
          <text>Ga</text>
        </lyric>
      </note>
      <note>
        <pitch>
          <step>D</step>
          <octave>5</octave>
        </pitch>
        <duration>96</duration>
        <type>quarter</type>
        <accidental>slash-flat</accidental>
        <lyric>
          <syllabic>end</syllabic>
          <text>mın</text>
        </lyric>
      </note>
      <note>
        <pitch>
          <step>C</step>
          <octave>5</octave>
        </pitch>
        <duration>48</duration>
        <type>eighth</type>
        <lyric>
          <text></text>
        </lyric>
      </note>
      <note>
        <pitch>
          <step>B</step>
          <alter>-0.5</alter>
          <octave>4</octave>
        </pitch>
        <duration>96</duration>
        <type>quarter</type>
        <accidental>quarter-flat</accidental>
        <lyric>
          <syllabic>single</syllabic>
          <text>dan </text>
        </lyric>
      </note>
      <note>
        <pitch>
          <step>D</step>
          <octave>5</octave>
        </pitch>
        <duration>144</duration>
        <type>quarter</type>
        <dot/>
        <accidental>slash-flat</accidental>
        <lyric>
          <syllabic>begin</syllabic>
          <text>der</text>
        </lyric>
      </note>
    </measure>
    <measure number="10">
      <attributes/>
      <note>
        <pitch>
          <step>C</step>
          <octave>5</octave>
        </pitch>
        <duration>48</duration>
        <type>eighth</type>
        <lyric>
          <syllabic>end</syllabic>
          <text>de </text>
        </lyric>
      </note>
      <note>
        <pitch>
          <step>D</step>
          <octave>5</octave>
        </pitch>
        <duration>48</duration>
        <type>eighth</type>
        <accidental>slash-flat</accidental>
        <lyric>
          <syllabic>begin</syllabic>
          <text>düş</text>
        </lyric>
      </note>
      <note>
        <pitch>
          <step>E</step>
          <octave>5</octave>
        </pitch>
        <duration>48</duration>
        <type>eighth</type>
        <lyric>
          <text></text>
        </lyric>
      </note>
      <note>
        <pitch>
          <step>F</step>
          <octave>5</octave>
        </pitch>
        <duration>48</duration>
        <type>eighth</type>
        <lyric>
          <text></text>
        </lyric>
      </note>
      <note>
        <pitch>
          <step>A</step>
          <octave>5</octave>
        </pitch>
        <duration>24</duration>
        <type>16th</type>
        <accidental>slash-flat</accidental>
        <lyric>
          <syllabic>end</syllabic>
          <text>tüm </text>
        </lyric>
      </note>
      <note>
        <pitch>
          <step>G</step>
          <octave>5</octave>
        </pitch>
        <duration>24</duration>
        <type>16th</type>
        <lyric>
          <text></text>
        </lyric>
      </note>
      <note>
        <pitch>
          <step>F</step>
          <octave>5</octave>
        </pitch>
        <duration>24</duration>
        <type>16th</type>
        <lyric>
          <text></text>
        </lyric>
      </note>
      <note>
        <pitch>
          <step>E</step>
          <octave>5</octave>
        </pitch>
        <duration>24</duration>
        <type>16th</type>
        <lyric>
          <text></text>
        </lyric>
      </note>
      <note>
        <pitch>
          <step>F</step>
          <octave>5</octave>
        </pitch>
        <duration>144</duration>
        <type>quarter</type>
        <dot/>
        <lyric>
          <syllabic>begin</syllabic>
          <text>kıl</text>
        </lyric>
      </note>
    </measure>
    <measure number="11">
      <attributes/>
      <note>
        <pitch>
          <step>F</step>
          <octave>5</octave>
        </pitch>
        <duration>48</duration>
        <type>eighth</type>
        <lyric>
          <syllabic>end</syllabic>
          <text>ma</text>
        </lyric>
      </note>
      <note>
        <pitch>
          <step>C</step>
          <octave>6</octave>
        </pitch>
        <duration>144</duration>
        <type>quarter</type>
        <dot/>
        <lyric>
          <syllabic>single</syllabic>
          <text>dın </text>
        </lyric>
      </note>
      <note>
        <pitch>
          <step>B</step>
          <alter>-0.5</alter>
          <octave>5</octave>
        </pitch>
        <duration>96</duration>
        <type>quarter</type>
        <accidental>quarter-flat</accidental>
        <lyric>
          <syllabic>begin</syllabic>
          <text>ted</text>
        </lyric>
      </note>
      <note>
        <pitch>
          <step>A</step>
          <octave>5</octave>
        </pitch>
        <duration>96</duration>
        <type>quarter</type>
        <accidental>slash-flat</accidental>
        <lyric>
          <syllabic>end</syllabic>
          <text>bîr_</text>
        </lyric>
      </note>
      <note>
        <pitch>
          <step>G</step>
          <octave>5</octave>
        </pitch>
        <duration>24</duration>
        <type>16th</type>
        <lyric>
          <text></text>
        </lyric>
      </note>
      <note>
        <pitch>
          <step>F</step>
          <octave>5</octave>
        </pitch>
        <duration>24</duration>
        <type>16th</type>
        <lyric>
          <text></text>
        </lyric>
      </note>
    </measure>
    <measure number="12">
      <attributes/>
      <note>
        <pitch>
          <step>G</step>
          <octave>5</octave>
        </pitch>
        <duration>48</duration>
        <type>eighth</type>
        <lyric>
          <syllabic>single</syllabic>
          <text>i </text>
        </lyric>
      </note>
      <note>
        <pitch>
          <step>A</step>
          <octave>5</octave>
        </pitch>
        <duration>96</duration>
        <type>quarter</type>
        <accidental>slash-flat</accidental>
        <lyric>
          <syllabic>begin</syllabic>
          <text>der</text>
        </lyric>
      </note>
      <note>
        <pitch>
          <step>G</step>
          <octave>5</octave>
        </pitch>
        <duration>48</duration>
        <type>eighth</type>
        <lyric>
          <text></text>
        </lyric>
      </note>
      <note>
        <pitch>
          <step>G</step>
          <octave>5</octave>
        </pitch>
        <duration>24</duration>
        <type>16th</type>
        <lyric>
          <syllabic>end</syllabic>
          <text>mâ</text>
        </lyric>
      </note>
      <note>
        <pitch>
          <step>F</step>
          <octave>5</octave>
        </pitch>
        <duration>24</duration>
        <type>16th</type>
        <lyric>
          <text></text>
        </lyric>
      </note>
      <note>
        <pitch>
          <step>F</step>
          <octave>5</octave>
        </pitch>
        <duration>24</duration>
        <type>16th</type>
        <lyric>
          <text></text>
        </lyric>
      </note>
      <note>
        <pitch>
          <step>E</step>
          <octave>5</octave>
        </pitch>
        <duration>24</duration>
        <type>16th</type>
        <lyric>
          <text></text>
        </lyric>
      </note>
      <note>
        <pitch>
          <step>E</step>
          <octave>5</octave>
        </pitch>
        <duration>144</duration>
        <type>quarter</type>
        <dot/>
        <lyric>
          <syllabic>single</syllabic>
          <text>nım  </text>
          <end-line/>
        </lyric>
      </note>
    </measure>
    <measure number="13">
      <attributes/>
      <note>
        <pitch>
          <step>E</step>
          <octave>5</octave>
        </pitch>
        <duration>48</duration>
        <type>eighth</type>
        <lyric name="VOCAL_SECTION">
          <syllabic>begin</syllabic>
          <text>Ga</text>
        </lyric>
      </note>
      <note>
        <pitch>
          <step>D</step>
          <octave>5</octave>
        </pitch>
        <duration>96</duration>
        <type>quarter</type>
        <accidental>slash-flat</accidental>
        <lyric>
          <syllabic>end</syllabic>
          <text>mın</text>
        </lyric>
      </note>
      <note>
        <pitch>
          <step>C</step>
          <octave>5</octave>
        </pitch>
        <duration>48</duration>
        <type>eighth</type>
        <lyric>
          <text></text>
        </lyric>
      </note>
      <note>
        <pitch>
          <step>B</step>
          <alter>-0.5</alter>
          <octave>4</octave>
        </pitch>
        <duration>96</duration>
        <type>quarter</type>
        <accidental>quarter-flat</accidental>
        <lyric>
          <syllabic>single</syllabic>
          <text>dan </text>
        </lyric>
      </note>
      <note>
        <pitch>
          <step>D</step>
          <octave>5</octave>
        </pitch>
        <duration>144</duration>
        <type>quarter</type>
        <dot/>
        <accidental>slash-flat</accidental>
        <lyric>
          <syllabic>begin</syllabic>
          <text>der</text>
        </lyric>
      </note>
    </measure>
    <measure number="14">
      <attributes/>
      <note>
        <pitch>
          <step>B</step>
          <alter>-0.5</alter>
          <octave>4</octave>
        </pitch>
        <duration>48</duration>
        <type>eighth</type>
        <accidental>quarter-flat</accidental>
        <lyric>
          <syllabic>end</syllabic>
          <text>de </text>
        </lyric>
      </note>
      <note>
        <pitch>
          <step>C</step>
          <octave>5</octave>
        </pitch>
        <duration>96</duration>
        <type>quarter</type>
        <lyric>
          <syllabic>begin</syllabic>
          <text>düş</text>
        </lyric>
      </note>
      <note>
        <pitch>
          <step>D</step>
          <octave>5</octave>
        </pitch>
        <duration>48</duration>
        <type>eighth</type>
        <accidental>slash-flat</accidental>
        <lyric>
          <text></text>
        </lyric>
      </note>
      <note>
        <pitch>
          <step>C</step>
          <octave>5</octave>
        </pitch>
        <duration>24</duration>
        <type>16th</type>
        <lyric>
          <syllabic>end</syllabic>
          <text>tüm </text>
        </lyric>
      </note>
      <note>
        <pitch>
          <step>B</step>
          <alter>-0.5</alter>
          <octave>4</octave>
        </pitch>
        <duration>24</duration>
        <type>16th</type>
        <accidental>quarter-flat</accidental>
        <lyric>
          <text></text>
        </lyric>
      </note>
      <note>
        <pitch>
          <step>B</step>
          <alter>-0.5</alter>
          <octave>4</octave>
        </pitch>
        <duration>24</duration>
        <type>16th</type>
        <accidental>quarter-flat</accidental>
        <lyric>
          <text></text>
        </lyric>
      </note>
      <note>
        <pitch>
          <step>A</step>
          <octave>4</octave>
        </pitch>
        <duration>24</duration>
        <type>16th</type>
        <lyric>
          <text>100</text>
        </lyric>
      </note>
      <note>
        <pitch>
          <step>A</step>
          <octave>4</octave>
        </pitch>
        <duration>96</duration>
        <type>quarter</type>
        <lyric>
          <syllabic>begin</syllabic>
          <text>kıl</text>
        </lyric>
      </note>
      <note>
        <pitch>
          <step>G</step>
          <octave>4</octave>
        </pitch>
        <duration>24</duration>
        <type>16th</type>
        <lyric>
          <text></text>
        </lyric>
      </note>
      <note>
        <pitch>
          <step>F</step>
          <alter>+1</alter>
          <octave>4</octave>
        </pitch>
        <duration>24</duration>
        <type>16th</type>
        <accidental>sharp</accidental>
        <lyric>
          <text></text>
        </lyric>
      </note>
    </measure>
    <measure number="15">
      <attributes/>
      <note>
        <pitch>
          <step>F</step>
          <alter>+1</alter>
          <octave>4</octave>
        </pitch>
        <duration>48</duration>
        <type>eighth</type>
        <accidental>sharp</accidental>
        <lyric>
          <syllabic>end</syllabic>
          <text>ma</text>
        </lyric>
      </note>
      <note>
        <pitch>
          <step>D</step>
          <octave>5</octave>
        </pitch>
        <duration>144</duration>
        <type>quarter</type>
        <dot/>
        <accidental>slash-flat</accidental>
        <lyric>
          <syllabic>single</syllabic>
          <text>dın </text>
        </lyric>
      </note>
      <note>
        <pitch>
          <step>C</step>
          <octave>5</octave>
        </pitch>
        <duration>96</duration>
        <type>quarter</type>
        <lyric>
          <syllabic>begin</syllabic>
          <text>ted</text>
        </lyric>
      </note>
      <note>
        <pitch>
          <step>B</step>
          <alter>-0.5</alter>
          <octave>4</octave>
        </pitch>
        <duration>144</duration>
        <type>quarter</type>
        <dot/>
        <accidental>quarter-flat</accidental>
        <lyric>
          <syllabic>end</syllabic>
          <text>bîr_</text>
        </lyric>
      </note>
    </measure>
    <measure number="16">
      <attributes/>
      <note>
        <pitch>
          <step>A</step>
          <octave>4</octave>
        </pitch>
        <duration>48</duration>
        <type>eighth</type>
        <lyric>
          <syllabic>single</syllabic>
          <text>i </text>
        </lyric>
      </note>
      <note>
        <pitch>
          <step>C</step>
          <octave>5</octave>
        </pitch>
        <duration>96</duration>
        <type>quarter</type>
        <lyric>
          <syllabic>begin</syllabic>
          <text>der</text>
        </lyric>
      </note>
      <note>
        <pitch>
          <step>B</step>
          <alter>-0.5</alter>
          <octave>4</octave>
        </pitch>
        <duration>24</duration>
        <type>16th</type>
        <accidental>quarter-flat</accidental>
        <lyric>
          <text></text>
        </lyric>
      </note>
      <note>
        <pitch>
          <step>A</step>
          <octave>4</octave>
        </pitch>
        <duration>24</duration>
        <type>16th</type>
        <lyric>
          <text></text>
        </lyric>
      </note>
      <note>
        <pitch>
          <step>A</step>
          <octave>4</octave>
        </pitch>
        <duration>24</duration>
        <type>16th</type>
        <lyric>
          <syllabic>end</syllabic>
          <text>mâ</text>
        </lyric>
      </note>
      <note>
        <pitch>
          <step>G</step>
          <octave>4</octave>
        </pitch>
        <duration>24</duration>
        <type>16th</type>
        <lyric>
          <text></text>
        </lyric>
      </note>
      <note>
        <pitch>
          <step>F</step>
          <alter>+1</alter>
          <octave>4</octave>
        </pitch>
        <duration>24</duration>
        <type>16th</type>
        <accidental>sharp</accidental>
        <lyric>
          <text></text>
        </lyric>
      </note>
      <note>
        <pitch>
          <step>E</step>
          <alter>+1</alter>
          <octave>4</octave>
        </pitch>
        <duration>24</duration>
        <type>16th</type>
        <accidental>sharp</accidental>
        <lyric>
          <text></text>
        </lyric>
      </note>
      <note>
        <pitch>
          <step>F</step>
          <alter>+1</alter>
          <octave>4</octave>
        </pitch>
        <duration>144</duration>
        <type>quarter</type>
        <dot/>
        <accidental>sharp</accidental>
        <lyric>
          <syllabic>single</syllabic>
          <text>nım  </text>
          <end-line/>
        </lyric>
      </note>
    </measure>
    <measure number="17">
      <attributes/>
      <note>
        <pitch>
          <step>F</step>
          <alter>+1</alter>
          <octave>5</octave>
        </pitch>
        <duration>48</duration>
        <type>eighth</type>
        <accidental>sharp</accidental>
        <lyric name="VOCAL_SECTION">
          <syllabic>single</syllabic>
          <text>Ne </text>
        </lyric>
      </note>
      <note>
        <pitch>
          <step>F</step>
          <alter>+1</alter>
          <octave>5</octave>
        </pitch>
        <duration>144</duration>
        <type>quarter</type>
        <dot/>
        <accidental>sharp</accidental>
        <lyric>
          <syllabic>begin</syllabic>
          <text>der</text>
        </lyric>
      </note>
      <note>
        <pitch>
          <step>G</step>
          <octave>5</octave>
        </pitch>
        <duration>96</duration>
        <type>quarter</type>
        <lyric>
          <syllabic>end</syllabic>
          <text>sin </text>
        </lyric>
      </note>
      <note>
        <pitch>
          <step>A</step>
          <octave>5</octave>
        </pitch>
        <duration>144</duration>
        <type>quarter</type>
        <dot/>
        <lyric>
          <syllabic>begin</syllabic>
          <text>mih</text>
        </lyric>
      </note>
    </measure>
    <measure number="18">
      <attributes/>
      <note>
        <pitch>
          <step>B</step>
          <octave>5</octave>
        </pitch>
        <duration>48</duration>
        <type>eighth</type>
        <lyric>
          <syllabic>end</syllabic>
          <text>ri</text>
        </lyric>
      </note>
      <note>
        <pitch>
          <step>C</step>
          <octave>6</octave>
        </pitch>
        <duration>96</duration>
        <type>quarter</type>
        <lyric>
          <syllabic>begin</syllabic>
          <text>bâ</text>
        </lyric>
      </note>
      <note>
        <pitch>
          <step>B</step>
          <octave>5</octave>
        </pitch>
        <duration>48</duration>
        <type>eighth</type>
        <lyric>
          <text></text>
        </lyric>
      </note>
      <note>
        <pitch>
          <step>B</step>
          <octave>5</octave>
        </pitch>
        <duration>24</duration>
        <type>16th</type>
        <lyric>
          <syllabic>end</syllabic>
          <text>nım </text>
        </lyric>
      </note>
      <note>
        <pitch>
          <step>A</step>
          <octave>5</octave>
        </pitch>
        <duration>24</duration>
        <type>16th</type>
        <lyric>
          <text></text>
        </lyric>
      </note>
      <note>
        <pitch>
          <step>A</step>
          <octave>5</octave>
        </pitch>
        <duration>24</duration>
        <type>16th</type>
        <lyric>
          <text></text>
        </lyric>
      </note>
      <note>
        <pitch>
          <step>G</step>
          <alter>+1</alter>
          <octave>5</octave>
        </pitch>
        <duration>24</duration>
        <type>16th</type>
        <accidental>sharp</accidental>
        <lyric>
          <text></text>
        </lyric>
      </note>
      <note>
        <pitch>
          <step>A</step>
          <octave>5</octave>
        </pitch>
        <duration>144</duration>
        <type>quarter</type>
        <dot/>
        <lyric>
          <syllabic>begin</syllabic>
          <text>böy</text>
        </lyric>
      </note>
    </measure>
    <measure number="19">
      <attributes/>
      <note>
        <pitch>
          <step>A</step>
          <octave>5</octave>
        </pitch>
        <duration>48</duration>
        <type>eighth</type>
        <lyric>
          <syllabic>end</syllabic>
          <text>le </text>
        </lyric>
      </note>
      <note>
        <pitch>
          <step>D</step>
          <octave>6</octave>
        </pitch>
        <duration>144</duration>
        <type>quarter</type>
        <dot/>
        <lyric>
          <syllabic>single</syllabic>
          <text>mi </text>
        </lyric>
      </note>
      <note>
        <pitch>
          <step>C</step>
          <octave>6</octave>
        </pitch>
        <duration>96</duration>
        <type>quarter</type>
        <lyric>
          <syllabic>begin</syllabic>
          <text>geç</text>
        </lyric>
      </note>
      <note>
        <pitch>
          <step>B</step>
          <octave>5</octave>
        </pitch>
        <duration>96</duration>
        <type>quarter</type>
        <lyric>
          <syllabic>end</syllabic>
          <text>sin </text>
        </lyric>
      </note>
      <note>
        <pitch>
          <step>A</step>
          <octave>5</octave>
        </pitch>
        <duration>48</duration>
        <type>eighth</type>
        <lyric>
          <text></text>
        </lyric>
      </note>
    </measure>
    <measure number="20">
      <attributes/>
      <note>
        <pitch>
          <step>B</step>
          <octave>5</octave>
        </pitch>
        <duration>48</duration>
        <type>eighth</type>
        <lyric>
          <syllabic>begin</syllabic>
          <text>gü</text>
        </lyric>
      </note>
      <note>
        <pitch>
          <step>C</step>
          <octave>6</octave>
        </pitch>
        <duration>96</duration>
        <type>quarter</type>
        <lyric>
          <syllabic>end</syllabic>
          <text>zel </text>
        </lyric>
      </note>
      <note>
        <pitch>
          <step>B</step>
          <octave>5</octave>
        </pitch>
        <duration>48</duration>
        <type>eighth</type>
        <lyric>
          <text></text>
        </lyric>
      </note>
      <note>
        <pitch>
          <step>B</step>
          <octave>5</octave>
        </pitch>
        <duration>24</duration>
        <type>16th</type>
        <lyric>
          <syllabic>begin</syllabic>
          <text>ça</text>
        </lyric>
      </note>
      <note>
        <pitch>
          <step>A</step>
          <octave>5</octave>
        </pitch>
        <duration>24</duration>
        <type>16th</type>
        <lyric>
          <text></text>
        </lyric>
      </note>
      <note>
        <pitch>
          <step>A</step>
          <octave>5</octave>
        </pitch>
        <duration>24</duration>
        <type>16th</type>
        <lyric>
          <text></text>
        </lyric>
      </note>
      <note>
        <pitch>
          <step>G</step>
          <alter>+1</alter>
          <octave>5</octave>
        </pitch>
        <duration>24</duration>
        <type>16th</type>
        <accidental>sharp</accidental>
        <lyric>
          <text></text>
        </lyric>
      </note>
      <note>
        <pitch>
          <step>A</step>
          <octave>5</octave>
        </pitch>
        <duration>144</duration>
        <type>quarter</type>
        <dot/>
        <lyric>
          <syllabic>end</syllabic>
          <text>ğım  </text>
          <end-line/>
        </lyric>
      </note>
    </measure>
    <measure number="21">
      <attributes/>
      <note>
        <pitch>
          <step>A</step>
          <octave>5</octave>
        </pitch>
        <duration>48</duration>
        <type>eighth</type>
        <lyric name="VOCAL_SECTION">
          <syllabic>single</syllabic>
          <text>Ne </text>
        </lyric>
      </note>
      <note>
        <pitch>
          <step>G</step>
          <octave>5</octave>
        </pitch>
        <duration>96</duration>
        <type>quarter</type>
        <lyric>
          <syllabic>begin</syllabic>
          <text>der</text>
        </lyric>
      </note>
      <note>
        <pitch>
          <step>F</step>
          <alter>+1</alter>
          <octave>5</octave>
        </pitch>
        <duration>48</duration>
        <type>eighth</type>
        <accidental>sharp</accidental>
        <lyric>
          <text></text>
        </lyric>
      </note>
      <note>
        <pitch>
          <step>E</step>
          <alter>+1</alter>
          <octave>5</octave>
        </pitch>
        <duration>48</duration>
        <type>eighth</type>
        <accidental>sharp</accidental>
        <lyric>
          <syllabic>end</syllabic>
          <text>sin </text>
        </lyric>
      </note>
      <note>
        <pitch>
          <step>F</step>
          <alter>+1</alter>
          <octave>5</octave>
        </pitch>
        <duration>48</duration>
        <type>eighth</type>
        <accidental>sharp</accidental>
        <lyric>
          <text></text>
        </lyric>
      </note>
      <note>
        <pitch>
          <step>A</step>
          <octave>5</octave>
        </pitch>
        <duration>24</duration>
        <type>16th</type>
        <lyric>
          <syllabic>begin</syllabic>
          <text>mih</text>
        </lyric>
      </note>
      <note>
        <pitch>
          <step>G</step>
          <octave>5</octave>
        </pitch>
        <duration>24</duration>
        <type>16th</type>
        <lyric>
          <text></text>
        </lyric>
      </note>
      <note>
        <pitch>
          <step>F</step>
          <alter>+1</alter>
          <octave>5</octave>
        </pitch>
        <duration>24</duration>
        <type>16th</type>
        <accidental>sharp</accidental>
        <lyric>
          <text></text>
        </lyric>
      </note>
      <note>
        <pitch>
          <step>E</step>
          <alter>+1</alter>
          <octave>5</octave>
        </pitch>
        <duration>24</duration>
        <type>16th</type>
        <accidental>sharp</accidental>
        <lyric>
          <text>150</text>
        </lyric>
      </note>
      <note>
        <pitch>
          <step>D</step>
          <octave>5</octave>
        </pitch>
        <duration>48</duration>
        <type>eighth</type>
        <accidental>slash-flat</accidental>
        <lyric>
          <text></text>
        </lyric>
      </note>
    </measure>
    <measure number="22">
      <attributes/>
      <note>
        <pitch>
          <step>E</step>
          <octave>5</octave>
        </pitch>
        <duration>48</duration>
        <type>eighth</type>
        <lyric>
          <syllabic>end</syllabic>
          <text>ri</text>
        </lyric>
      </note>
      <note>
        <pitch>
          <step>F</step>
          <octave>5</octave>
        </pitch>
        <duration>48</duration>
        <type>eighth</type>
        <lyric>
          <syllabic>begin</syllabic>
          <text>bâ</text>
        </lyric>
      </note>
      <note>
        <pitch>
          <step>E</step>
          <octave>5</octave>
        </pitch>
        <duration>48</duration>
        <type>eighth</type>
        <lyric>
          <text></text>
        </lyric>
      </note>
      <note>
        <pitch>
          <step>F</step>
          <octave>5</octave>
        </pitch>
        <duration>48</duration>
        <type>eighth</type>
        <lyric>
          <text></text>
        </lyric>
      </note>
      <note>
        <pitch>
          <step>E</step>
          <octave>5</octave>
        </pitch>
        <duration>24</duration>
        <type>16th</type>
        <lyric>
          <syllabic>end</syllabic>
          <text>nım </text>
        </lyric>
      </note>
      <note>
        <pitch>
          <step>D</step>
          <octave>5</octave>
        </pitch>
        <duration>24</duration>
        <type>16th</type>
        <accidental>slash-flat</accidental>
        <lyric>
          <text></text>
        </lyric>
      </note>
      <note>
        <pitch>
          <step>C</step>
          <octave>5</octave>
        </pitch>
        <duration>24</duration>
        <type>16th</type>
        <lyric>
          <text></text>
        </lyric>
      </note>
      <note>
        <pitch>
          <step>B</step>
          <alter>-0.5</alter>
          <octave>4</octave>
        </pitch>
        <duration>24</duration>
        <type>16th</type>
        <accidental>quarter-flat</accidental>
        <lyric>
          <text></text>
        </lyric>
      </note>
      <note>
        <pitch>
          <step>C</step>
          <octave>5</octave>
        </pitch>
        <duration>144</duration>
        <type>quarter</type>
        <dot/>
        <lyric>
          <syllabic>begin</syllabic>
          <text>böy</text>
        </lyric>
      </note>
    </measure>
    <measure number="23">
      <attributes/>
      <note>
        <pitch>
          <step>C</step>
          <octave>5</octave>
        </pitch>
        <duration>48</duration>
        <type>eighth</type>
        <lyric>
          <syllabic>end</syllabic>
          <text>le </text>
        </lyric>
      </note>
      <note>
        <pitch>
          <step>C</step>
          <octave>5</octave>
        </pitch>
        <duration>96</duration>
        <type>quarter</type>
        <lyric>
          <syllabic>single</syllabic>
          <text>mi </text>
        </lyric>
      </note>
      <note>
        <pitch>
          <step>D</step>
          <octave>5</octave>
        </pitch>
        <duration>48</duration>
        <type>eighth</type>
        <accidental>slash-flat</accidental>
        <lyric>
          <text></text>
        </lyric>
      </note>
      <note>
        <pitch>
          <step>E</step>
          <octave>5</octave>
        </pitch>
        <duration>48</duration>
        <type>eighth</type>
        <lyric>
          <syllabic>begin</syllabic>
          <text>geç</text>
        </lyric>
      </note>
      <note>
        <pitch>
          <step>F</step>
          <octave>5</octave>
        </pitch>
        <duration>48</duration>
        <type>eighth</type>
        <lyric>
          <text></text>
        </lyric>
      </note>
      <note>
        <pitch>
          <step>G</step>
          <octave>5</octave>
        </pitch>
        <duration>48</duration>
        <type>eighth</type>
        <lyric>
          <syllabic>end</syllabic>
          <text>sin </text>
        </lyric>
      </note>
      <note>
        <pitch>
          <step>A</step>
          <octave>5</octave>
        </pitch>
        <duration>24</duration>
        <type>16th</type>
        <accidental>slash-flat</accidental>
        <lyric>
          <text></text>
        </lyric>
      </note>
      <note>
        <pitch>
          <step>G</step>
          <octave>5</octave>
        </pitch>
        <duration>24</duration>
        <type>16th</type>
        <lyric>
          <text></text>
        </lyric>
      </note>
      <note>
        <pitch>
          <step>F</step>
          <octave>5</octave>
        </pitch>
        <duration>48</duration>
        <type>eighth</type>
        <lyric>
          <text></text>
        </lyric>
      </note>
    </measure>
    <measure number="24">
      <attributes/>
      <note>
        <pitch>
          <step>G</step>
          <octave>5</octave>
        </pitch>
        <duration>48</duration>
        <type>eighth</type>
        <lyric>
          <syllabic>begin</syllabic>
          <text>gü</text>
        </lyric>
      </note>
      <note>
        <pitch>
          <step>A</step>
          <octave>5</octave>
        </pitch>
        <duration>96</duration>
        <type>quarter</type>
        <accidental>slash-flat</accidental>
        <lyric>
          <syllabic>end</syllabic>
          <text>zel </text>
        </lyric>
      </note>
      <note>
        <pitch>
          <step>G</step>
          <octave>5</octave>
        </pitch>
        <duration>24</duration>
        <type>16th</type>
        <lyric>
          <text></text>
        </lyric>
      </note>
      <note>
        <pitch>
          <step>F</step>
          <octave>5</octave>
        </pitch>
        <duration>24</duration>
        <type>16th</type>
        <lyric>
          <text></text>
        </lyric>
      </note>
      <note>
        <pitch>
          <step>E</step>
          <octave>5</octave>
        </pitch>
        <duration>24</duration>
        <type>16th</type>
        <lyric>
          <syllabic>begin</syllabic>
          <text>ça</text>
        </lyric>
      </note>
      <note>
        <pitch>
          <step>D</step>
          <octave>5</octave>
        </pitch>
        <duration>24</duration>
        <type>16th</type>
        <accidental>slash-flat</accidental>
        <lyric>
          <text></text>
        </lyric>
      </note>
      <note>
        <pitch>
          <step>C</step>
          <octave>5</octave>
        </pitch>
        <duration>24</duration>
        <type>16th</type>
        <lyric>
          <text></text>
        </lyric>
      </note>
      <note>
        <pitch>
          <step>B</step>
          <alter>-0.5</alter>
          <octave>4</octave>
        </pitch>
        <duration>24</duration>
        <type>16th</type>
        <accidental>quarter-flat</accidental>
        <lyric>
          <text></text>
        </lyric>
      </note>
      <note>
        <pitch>
          <step>C</step>
          <octave>5</octave>
        </pitch>
        <duration>144</duration>
        <type>quarter</type>
        <dot/>
        <lyric>
          <syllabic>end</syllabic>
          <text>ğım  </text>
          <end-line/>
        </lyric>
      </note>
    </measure>
    <measure number="25">
      <attributes/>
      <note>
        <pitch>
          <step>E</step>
          <octave>5</octave>
        </pitch>
        <duration>48</duration>
        <type>eighth</type>
        <lyric name="VOCAL_SECTION">
          <syllabic>begin</syllabic>
          <text>Ga</text>
        </lyric>
      </note>
      <note>
        <pitch>
          <step>D</step>
          <octave>5</octave>
        </pitch>
        <duration>96</duration>
        <type>quarter</type>
        <accidental>slash-flat</accidental>
        <lyric>
          <syllabic>end</syllabic>
          <text>mın</text>
        </lyric>
      </note>
      <note>
        <pitch>
          <step>C</step>
          <octave>5</octave>
        </pitch>
        <duration>48</duration>
        <type>eighth</type>
        <lyric>
          <text></text>
        </lyric>
      </note>
      <note>
        <pitch>
          <step>B</step>
          <alter>-0.5</alter>
          <octave>4</octave>
        </pitch>
        <duration>96</duration>
        <type>quarter</type>
        <accidental>quarter-flat</accidental>
        <lyric>
          <syllabic>single</syllabic>
          <text>dan </text>
        </lyric>
      </note>
      <note>
        <pitch>
          <step>D</step>
          <octave>5</octave>
        </pitch>
        <duration>144</duration>
        <type>quarter</type>
        <dot/>
        <accidental>slash-flat</accidental>
        <lyric>
          <syllabic>begin</syllabic>
          <text>der</text>
        </lyric>
      </note>
    </measure>
    <measure number="26">
      <attributes/>
      <note>
        <pitch>
          <step>C</step>
          <octave>5</octave>
        </pitch>
        <duration>48</duration>
        <type>eighth</type>
        <lyric>
          <syllabic>end</syllabic>
          <text>de </text>
        </lyric>
      </note>
      <note>
        <pitch>
          <step>D</step>
          <octave>5</octave>
        </pitch>
        <duration>48</duration>
        <type>eighth</type>
        <accidental>slash-flat</accidental>
        <lyric>
          <syllabic>begin</syllabic>
          <text>düş</text>
        </lyric>
      </note>
      <note>
        <pitch>
          <step>E</step>
          <octave>5</octave>
        </pitch>
        <duration>48</duration>
        <type>eighth</type>
        <lyric>
          <text></text>
        </lyric>
      </note>
      <note>
        <pitch>
          <step>F</step>
          <octave>5</octave>
        </pitch>
        <duration>48</duration>
        <type>eighth</type>
        <lyric>
          <text></text>
        </lyric>
      </note>
      <note>
        <pitch>
          <step>A</step>
          <octave>5</octave>
        </pitch>
        <duration>24</duration>
        <type>16th</type>
        <accidental>slash-flat</accidental>
        <lyric>
          <syllabic>end</syllabic>
          <text>tüm </text>
        </lyric>
      </note>
      <note>
        <pitch>
          <step>G</step>
          <octave>5</octave>
        </pitch>
        <duration>24</duration>
        <type>16th</type>
        <lyric>
          <text></text>
        </lyric>
      </note>
      <note>
        <pitch>
          <step>F</step>
          <octave>5</octave>
        </pitch>
        <duration>24</duration>
        <type>16th</type>
        <lyric>
          <text></text>
        </lyric>
      </note>
      <note>
        <pitch>
          <step>E</step>
          <octave>5</octave>
        </pitch>
        <duration>24</duration>
        <type>16th</type>
        <lyric>
          <text></text>
        </lyric>
      </note>
      <note>
        <pitch>
          <step>F</step>
          <octave>5</octave>
        </pitch>
        <duration>144</duration>
        <type>quarter</type>
        <dot/>
        <lyric>
          <syllabic>begin</syllabic>
          <text>kıl</text>
        </lyric>
      </note>
    </measure>
    <measure number="27">
      <attributes/>
      <note>
        <pitch>
          <step>F</step>
          <octave>5</octave>
        </pitch>
        <duration>48</duration>
        <type>eighth</type>
        <lyric>
          <syllabic>end</syllabic>
          <text>ma</text>
        </lyric>
      </note>
      <note>
        <pitch>
          <step>C</step>
          <octave>6</octave>
        </pitch>
        <duration>144</duration>
        <type>quarter</type>
        <dot/>
        <lyric>
          <syllabic>single</syllabic>
          <text>dın </text>
        </lyric>
      </note>
      <note>
        <pitch>
          <step>B</step>
          <alter>-0.5</alter>
          <octave>5</octave>
        </pitch>
        <duration>96</duration>
        <type>quarter</type>
        <accidental>quarter-flat</accidental>
        <lyric>
          <syllabic>begin</syllabic>
          <text>ted</text>
        </lyric>
      </note>
      <note>
        <pitch>
          <step>A</step>
          <octave>5</octave>
        </pitch>
        <duration>96</duration>
        <type>quarter</type>
        <accidental>slash-flat</accidental>
        <lyric>
          <syllabic>end</syllabic>
          <text>bîr_</text>
        </lyric>
      </note>
      <note>
        <pitch>
          <step>G</step>
          <octave>5</octave>
        </pitch>
        <duration>24</duration>
        <type>16th</type>
        <lyric>
          <text></text>
        </lyric>
      </note>
      <note>
        <pitch>
          <step>F</step>
          <octave>5</octave>
        </pitch>
        <duration>24</duration>
        <type>16th</type>
        <lyric>
          <text></text>
        </lyric>
      </note>
    </measure>
    <measure number="28">
      <attributes/>
      <note>
        <pitch>
          <step>G</step>
          <octave>5</octave>
        </pitch>
        <duration>48</duration>
        <type>eighth</type>
        <lyric>
          <syllabic>single</syllabic>
          <text>i </text>
        </lyric>
      </note>
      <note>
        <pitch>
          <step>A</step>
          <octave>5</octave>
        </pitch>
        <duration>96</duration>
        <type>quarter</type>
        <accidental>slash-flat</accidental>
        <lyric>
          <syllabic>begin</syllabic>
          <text>200</text>
        </lyric>
      </note>
      <note>
        <pitch>
          <step>G</step>
          <octave>5</octave>
        </pitch>
        <duration>48</duration>
        <type>eighth</type>
        <lyric>
          <text></text>
        </lyric>
      </note>
      <note>
        <pitch>
          <step>G</step>
          <octave>5</octave>
        </pitch>
        <duration>24</duration>
        <type>16th</type>
        <lyric>
          <syllabic>end</syllabic>
          <text>mâ</text>
        </lyric>
      </note>
      <note>
        <pitch>
          <step>F</step>
          <octave>5</octave>
        </pitch>
        <duration>24</duration>
        <type>16th</type>
        <lyric>
          <text></text>
        </lyric>
      </note>
      <note>
        <pitch>
          <step>F</step>
          <octave>5</octave>
        </pitch>
        <duration>24</duration>
        <type>16th</type>
        <lyric>
          <text></text>
        </lyric>
      </note>
      <note>
        <pitch>
          <step>E</step>
          <octave>5</octave>
        </pitch>
        <duration>24</duration>
        <type>16th</type>
        <lyric>
          <text></text>
        </lyric>
      </note>
      <note>
        <pitch>
          <step>E</step>
          <octave>5</octave>
        </pitch>
        <duration>144</duration>
        <type>quarter</type>
        <dot/>
        <lyric>
          <syllabic>single</syllabic>
          <text>nım  </text>
          <end-line/>
        </lyric>
      </note>
    </measure>
    <measure number="29">
      <attributes/>
      <note>
        <pitch>
          <step>E</step>
          <octave>5</octave>
        </pitch>
        <duration>48</duration>
        <type>eighth</type>
        <lyric name="VOCAL_SECTION">
          <syllabic>begin</syllabic>
          <text>Ga</text>
        </lyric>
      </note>
      <note>
        <pitch>
          <step>D</step>
          <octave>5</octave>
        </pitch>
        <duration>96</duration>
        <type>quarter</type>
        <accidental>slash-flat</accidental>
        <lyric>
          <syllabic>end</syllabic>
          <text>mın</text>
        </lyric>
      </note>
      <note>
        <pitch>
          <step>C</step>
          <octave>5</octave>
        </pitch>
        <duration>48</duration>
        <type>eighth</type>
        <lyric>
          <text></text>
        </lyric>
      </note>
      <note>
        <pitch>
          <step>B</step>
          <alter>-0.5</alter>
          <octave>4</octave>
        </pitch>
        <duration>96</duration>
        <type>quarter</type>
        <accidental>quarter-flat</accidental>
        <lyric>
          <syllabic>single</syllabic>
          <text>dan </text>
        </lyric>
      </note>
      <note>
        <pitch>
          <step>D</step>
          <octave>5</octave>
        </pitch>
        <duration>144</duration>
        <type>quarter</type>
        <dot/>
        <accidental>slash-flat</accidental>
        <lyric>
          <syllabic>begin</syllabic>
          <text>der</text>
        </lyric>
      </note>
    </measure>
    <measure number="30">
      <attributes/>
      <note>
        <pitch>
          <step>B</step>
          <alter>-0.5</alter>
          <octave>4</octave>
        </pitch>
        <duration>48</duration>
        <type>eighth</type>
        <accidental>quarter-flat</accidental>
        <lyric>
          <syllabic>end</syllabic>
          <text>de </text>
        </lyric>
      </note>
      <note>
        <pitch>
          <step>C</step>
          <octave>5</octave>
        </pitch>
        <duration>96</duration>
        <type>quarter</type>
        <lyric>
          <syllabic>begin</syllabic>
          <text>düş</text>
        </lyric>
      </note>
      <note>
        <pitch>
          <step>D</step>
          <octave>5</octave>
        </pitch>
        <duration>48</duration>
        <type>eighth</type>
        <accidental>slash-flat</accidental>
        <lyric>
          <text></text>
        </lyric>
      </note>
      <note>
        <pitch>
          <step>C</step>
          <octave>5</octave>
        </pitch>
        <duration>24</duration>
        <type>16th</type>
        <lyric>
          <syllabic>end</syllabic>
          <text>tüm </text>
        </lyric>
      </note>
      <note>
        <pitch>
          <step>B</step>
          <alter>-0.5</alter>
          <octave>4</octave>
        </pitch>
        <duration>24</duration>
        <type>16th</type>
        <accidental>quarter-flat</accidental>
        <lyric>
          <text></text>
        </lyric>
      </note>
      <note>
        <pitch>
          <step>B</step>
          <alter>-0.5</alter>
          <octave>4</octave>
        </pitch>
        <duration>24</duration>
        <type>16th</type>
        <accidental>quarter-flat</accidental>
        <lyric>
          <text></text>
        </lyric>
      </note>
      <note>
        <pitch>
          <step>A</step>
          <octave>4</octave>
        </pitch>
        <duration>24</duration>
        <type>16th</type>
        <lyric>
          <text></text>
        </lyric>
      </note>
      <note>
        <pitch>
          <step>A</step>
          <octave>4</octave>
        </pitch>
        <duration>96</duration>
        <type>quarter</type>
        <lyric>
          <syllabic>begin</syllabic>
          <text>kıl</text>
        </lyric>
      </note>
      <note>
        <pitch>
          <step>G</step>
          <octave>4</octave>
        </pitch>
        <duration>24</duration>
        <type>16th</type>
        <lyric>
          <text></text>
        </lyric>
      </note>
      <note>
        <pitch>
          <step>F</step>
          <alter>+1</alter>
          <octave>4</octave>
        </pitch>
        <duration>24</duration>
        <type>16th</type>
        <accidental>sharp</accidental>
        <lyric>
          <text></text>
        </lyric>
      </note>
    </measure>
    <measure number="31">
      <attributes/>
      <note>
        <pitch>
          <step>F</step>
          <alter>+1</alter>
          <octave>4</octave>
        </pitch>
        <duration>48</duration>
        <type>eighth</type>
        <accidental>sharp</accidental>
        <lyric>
          <syllabic>end</syllabic>
          <text>ma</text>
        </lyric>
      </note>
      <note>
        <pitch>
          <step>D</step>
          <octave>5</octave>
        </pitch>
        <duration>144</duration>
        <type>quarter</type>
        <dot/>
        <accidental>slash-flat</accidental>
        <lyric>
          <syllabic>single</syllabic>
          <text>dın </text>
        </lyric>
      </note>
      <note>
        <pitch>
          <step>C</step>
          <octave>5</octave>
        </pitch>
        <duration>96</duration>
        <type>quarter</type>
        <lyric>
          <syllabic>begin</syllabic>
          <text>ted</text>
        </lyric>
      </note>
      <note>
        <pitch>
          <step>B</step>
          <alter>-0.5</alter>
          <octave>4</octave>
        </pitch>
        <duration>144</duration>
        <type>quarter</type>
        <dot/>
        <accidental>quarter-flat</accidental>
        <lyric>
          <syllabic>end</syllabic>
          <text>bîr_</text>
        </lyric>
      </note>
    </measure>
    <measure number="32">
      <attributes/>
      <note>
        <pitch>
          <step>A</step>
          <octave>4</octave>
        </pitch>
        <duration>48</duration>
        <type>eighth</type>
        <lyric>
          <syllabic>single</syllabic>
          <text>i </text>
        </lyric>
      </note>
      <note>
        <pitch>
          <step>C</step>
          <octave>5</octave>
        </pitch>
        <duration>96</duration>
        <type>quarter</type>
        <lyric>
          <syllabic>begin</syllabic>
          <text>der</text>
        </lyric>
      </note>
      <note>
        <pitch>
          <step>B</step>
          <alter>-0.5</alter>
          <octave>4</octave>
        </pitch>
        <duration>24</duration>
        <type>16th</type>
        <accidental>quarter-flat</accidental>
        <lyric>
          <text></text>
        </lyric>
      </note>
      <note>
        <pitch>
          <step>A</step>
          <octave>4</octave>
        </pitch>
        <duration>24</duration>
        <type>16th</type>
        <lyric>
          <text></text>
        </lyric>
      </note>
      <note>
        <pitch>
          <step>A</step>
          <octave>4</octave>
        </pitch>
        <duration>24</duration>
        <type>16th</type>
        <lyric>
          <syllabic>end</syllabic>
          <text>mâ</text>
        </lyric>
      </note>
      <note>
        <pitch>
          <step>G</step>
          <octave>4</octave>
        </pitch>
        <duration>24</duration>
        <type>16th</type>
        <lyric>
          <text></text>
        </lyric>
      </note>
      <note>
        <pitch>
          <step>F</step>
          <alter>+1</alter>
          <octave>4</octave>
        </pitch>
        <duration>24</duration>
        <type>16th</type>
        <accidental>sharp</accidental>
        <lyric>
          <text></text>
        </lyric>
      </note>
      <note>
        <pitch>
          <step>E</step>
          <alter>+1</alter>
          <octave>4</octave>
        </pitch>
        <duration>24</duration>
        <type>16th</type>
        <accidental>sharp</accidental>
        <lyric>
          <text></text>
        </lyric>
      </note>
      <note>
        <pitch>
          <step>F</step>
          <alter>+1</alter>
          <octave>4</octave>
        </pitch>
        <duration>144</duration>
        <type>quarter</type>
        <dot/>
        <accidental>sharp</accidental>
        <lyric>
          <syllabic>single</syllabic>
          <text>nım  </text>
          <end-line/>
        </lyric>
      </note>
    </measure>
    <measure number="33">
      <attributes/>
    </measure>
  </part>
</score-partwise>
