<?xml version='1.0' encoding='UTF-8' standalone='no'?>
<!DOCTYPE score-partwise PUBLIC "-//Recordare//DTD MusicXML 3.0 Partwise//EN" "http://www.musicxml.org/dtds/partwise.dtd">
<score-partwise version="3.0">
  <work>
    <work-title>Bûselik Aranağme (Yürüksemâî)</work-title>
  </work>
  <identification>
    <relation>https://musicbrainz.org/work/984dd672-21f3-4fbe-b29c-ca7fc69f97cd</relation>
  </identification>
  <part-list>
    <score-part id="P1">
      <part-name>Music</part-name>
    </score-part>
  </part-list>
  <part id="P1">
    <measure number="1">
      <direction placement="above">
        <direction-type>
          <words default-y="35">Makam: Bûselik, Usul: Yürüksemâî II</words>
        </direction-type>
        <sound tempo="84"/>
      </direction>
      <attributes>
        <divisions>96</divisions>
        <key/>
        <time>
          <beats>6</beats>
          <beat-type>8</beat-type>
        </time>
      </attributes>
      <note>
        <!--symbtr_txt_note_index 2-->
        <pitch>
          <step>G</step>
          <octave>4</octave>
        </pitch>
        <duration>48</duration>
        <type>eighth</type>
        <lyric>
          <text>ARANAĞME</text>
        </lyric>
      </note>
      <note>
        <!--symbtr_txt_note_index 3-->
        <pitch>
          <step>C</step>
          <octave>5</octave>
        </pitch>
        <duration>48</duration>
        <type>eighth</type>
        <lyric>
          <text>.</text>
        </lyric>
      </note>
      <note>
        <!--symbtr_txt_note_index 4-->
        <pitch>
          <step>B</step>
          <octave>4</octave>
        </pitch>
        <duration>48</duration>
        <type>eighth</type>
        <lyric>
          <text>.</text>
        </lyric>
      </note>
      <note>
        <!--symbtr_txt_note_index 5-->
        <pitch>
          <step>C</step>
          <octave>5</octave>
        </pitch>
        <duration>48</duration>
        <type>eighth</type>
        <lyric>
          <text>.</text>
        </lyric>
      </note>
      <note>
        <!--symbtr_txt_note_index 6-->
        <pitch>
          <step>E</step>
          <octave>5</octave>
        </pitch>
        <duration>48</duration>
        <type>eighth</type>
        <lyric>
          <text>.</text>
        </lyric>
      </note>
      <note>
        <!--symbtr_txt_note_index 7-->
        <pitch>
          <step>D</step>
          <octave>5</octave>
        </pitch>
        <duration>48</duration>
        <type>eighth</type>
        <lyric>
          <text>.</text>
        </lyric>
      </note>
    </measure>
    <measure number="2">
      <attributes/>
      <note>
        <!--symbtr_txt_note_index 8-->
        <grace steal-time-following="10"/>
        <pitch>
          <step>E</step>
          <octave>5</octave>
        </pitch>
        <lyric>
          <text>.</text>
        </lyric>
      </note>
      <note>
        <!--symbtr_txt_note_index 9-->
        <pitch>
          <step>D</step>
          <octave>5</octave>
        </pitch>
        <duration>48</duration>
        <type>eighth</type>
        <lyric>
          <text>.</text>
        </lyric>
      </note>
      <note>
        <!--symbtr_txt_note_index 10-->
        <pitch>
          <step>C</step>
          <octave>5</octave>
        </pitch>
        <duration>48</duration>
        <type>eighth</type>
        <lyric>
          <text>.</text>
        </lyric>
      </note>
      <note>
        <!--symbtr_txt_note_index 11-->
        <pitch>
          <step>B</step>
          <octave>4</octave>
        </pitch>
        <duration>48</duration>
        <type>eighth</type>
        <lyric>
          <text>.</text>
        </lyric>
      </note>
      <note>
        <!--symbtr_txt_note_index 12-->
        <pitch>
          <step>C</step>
          <octave>5</octave>
        </pitch>
        <duration>96</duration>
        <type>quarter</type>
        <lyric>
          <text>.</text>
        </lyric>
      </note>
      <note>
        <!--symbtr_txt_note_index 13-->
        <rest/>
        <duration>48</duration>
        <type>eighth</type>
        <lyric>
          <text>.</text>
        </lyric>
      </note>
    </measure>
    <measure number="3">
      <attributes/>
      <note>
        <!--symbtr_txt_note_index 14-->
        <pitch>
          <step>G</step>
          <octave>4</octave>
        </pitch>
        <duration>48</duration>
        <type>eighth</type>
        <lyric>
          <text>.</text>
        </lyric>
      </note>
      <note>
        <!--symbtr_txt_note_index 15-->
        <pitch>
          <step>C</step>
          <octave>5</octave>
        </pitch>
        <duration>48</duration>
        <type>eighth</type>
        <lyric>
          <text>.</text>
        </lyric>
      </note>
      <note>
        <!--symbtr_txt_note_index 16-->
        <pitch>
          <step>E</step>
          <octave>5</octave>
        </pitch>
        <duration>48</duration>
        <type>eighth</type>
        <lyric>
          <text>.</text>
        </lyric>
      </note>
      <note>
        <!--symbtr_txt_note_index 17-->
        <pitch>
          <step>G</step>
          <octave>5</octave>
        </pitch>
        <duration>48</duration>
        <type>eighth</type>
        <lyric>
          <text>.</text>
        </lyric>
      </note>
      <note>
        <!--symbtr_txt_note_index 18-->
        <pitch>
          <step>A</step>
          <octave>5</octave>
        </pitch>
        <duration>48</duration>
        <type>eighth</type>
        <lyric>
          <text>.</text>
        </lyric>
      </note>
      <note>
        <!--symbtr_txt_note_index 19-->
        <pitch>
          <step>G</step>
          <octave>5</octave>
        </pitch>
        <duration>48</duration>
        <type>eighth</type>
        <lyric>
          <text>.</text>
        </lyric>
      </note>
    </measure>
    <measure number="4">
      <attributes/>
      <note>
        <!--symbtr_txt_note_index 20-->
        <grace steal-time-previous="10"/>
        <pitch>
          <step>B</step>
          <octave>5</octave>
        </pitch>
        <lyric>
          <text>.</text>
        </lyric>
      </note>
      <note>
        <!--symbtr_txt_note_index 21-->
        <pitch>
          <step>A</step>
          <octave>5</octave>
        </pitch>
        <duration>48</duration>
        <type>eighth</type>
        <lyric>
          <text>.</text>
        </lyric>
      </note>
      <note>
        <!--symbtr_txt_note_index 22-->
        <pitch>
          <step>F</step>
          <octave>5</octave>
        </pitch>
        <duration>48</duration>
        <type>eighth</type>
        <lyric>
          <text>.</text>
        </lyric>
      </note>
      <note>
        <!--symbtr_txt_note_index 23-->
        <pitch>
          <step>D</step>
          <octave>5</octave>
        </pitch>
        <duration>48</duration>
        <type>eighth</type>
        <lyric>
          <text>.</text>
        </lyric>
      </note>
      <note>
        <!--symbtr_txt_note_index 24-->
        <pitch>
          <step>E</step>
          <octave>5</octave>
        </pitch>
        <duration>96</duration>
        <type>quarter</type>
        <lyric>
          <text>.</text>
        </lyric>
      </note>
      <note>
        <!--symbtr_txt_note_index 25-->
        <rest/>
        <duration>48</duration>
        <type>eighth</type>
        <lyric>
          <text>.</text>
        </lyric>
      </note>
    </measure>
    <measure number="5">
      <attributes/>
      <note>
        <!--symbtr_txt_note_index 26-->
        <pitch>
          <step>D</step>
          <octave>5</octave>
        </pitch>
        <duration>48</duration>
        <type>eighth</type>
        <notations>
          <ornaments>
            <mordent placement="above"/>
          </ornaments>
        </notations>
        <lyric>
          <text>.</text>
        </lyric>
      </note>
      <note>
        <!--symbtr_txt_note_index 27-->
        <pitch>
          <step>E</step>
          <octave>5</octave>
        </pitch>
        <duration>48</duration>
        <type>eighth</type>
        <lyric>
          <text>.</text>
        </lyric>
      </note>
      <note>
        <!--symbtr_txt_note_index 28-->
        <pitch>
          <step>F</step>
          <octave>5</octave>
        </pitch>
        <duration>48</duration>
        <type>eighth</type>
        <lyric>
          <text>.</text>
        </lyric>
      </note>
      <note>
        <!--symbtr_txt_note_index 29-->
        <pitch>
          <step>E</step>
          <octave>5</octave>
        </pitch>
        <duration>48</duration>
        <type>eighth</type>
        <lyric>
          <text>.</text>
        </lyric>
      </note>
      <note>
        <!--symbtr_txt_note_index 30-->
        <pitch>
          <step>C</step>
          <octave>5</octave>
        </pitch>
        <duration>48</duration>
        <type>eighth</type>
        <lyric>
          <text>.</text>
        </lyric>
      </note>
      <note>
        <!--symbtr_txt_note_index 31-->
        <pitch>
          <step>A</step>
          <octave>4</octave>
        </pitch>
        <duration>48</duration>
        <type>eighth</type>
        <lyric>
          <text>.</text>
        </lyric>
      </note>
    </measure>
    <measure number="6">
      <attributes/>
      <note>
        <!--symbtr_txt_note_index 32-->
        <pitch>
          <step>D</step>
          <octave>5</octave>
        </pitch>
        <duration>96</duration>
        <type>quarter</type>
        <lyric>
          <text>.</text>
        </lyric>
      </note>
      <note>
        <!--symbtr_txt_note_index 33-->
        <pitch>
          <step>C</step>
          <alter>+1</alter>
          <octave>5</octave>
        </pitch>
        <duration>48</duration>
        <type>eighth</type>
        <accidental>sharp</accidental>
        <lyric>
          <text>.</text>
        </lyric>
      </note>
      <note>
        <!--symbtr_txt_note_index 34-->
        <pitch>
          <step>D</step>
          <octave>5</octave>
        </pitch>
        <duration>96</duration>
        <type>quarter</type>
        <lyric>
          <text>.</text>
        </lyric>
      </note>
      <note>
        <!--symbtr_txt_note_index 35-->
        <rest/>
        <duration>48</duration>
        <type>eighth</type>
        <lyric>
          <text>.</text>
        </lyric>
      </note>
    </measure>
    <measure number="7">
      <attributes/>
      <note>
        <!--symbtr_txt_note_index 36-->
        <pitch>
          <step>B</step>
          <octave>4</octave>
        </pitch>
        <duration>48</duration>
        <type>eighth</type>
        <lyric>
          <text>.</text>
        </lyric>
      </note>
      <note>
        <!--symbtr_txt_note_index 37-->
        <pitch>
          <step>C</step>
          <octave>5</octave>
        </pitch>
        <duration>48</duration>
        <type>eighth</type>
        <lyric>
          <text>.</text>
        </lyric>
      </note>
      <note>
        <!--symbtr_txt_note_index 38-->
        <pitch>
          <step>B</step>
          <octave>4</octave>
        </pitch>
        <duration>48</duration>
        <type>eighth</type>
        <lyric>
          <text>.</text>
        </lyric>
      </note>
      <note>
        <!--symbtr_txt_note_index 39-->
        <pitch>
          <step>C</step>
          <octave>5</octave>
        </pitch>
        <duration>24</duration>
        <type>16th</type>
        <lyric>
          <text>.</text>
        </lyric>
      </note>
      <note>
        <!--symbtr_txt_note_index 40-->
        <pitch>
          <step>B</step>
          <octave>4</octave>
        </pitch>
        <duration>24</duration>
        <type>16th</type>
        <lyric>
          <text>.</text>
        </lyric>
      </note>
      <note>
        <!--symbtr_txt_note_index 41-->
        <pitch>
          <step>A</step>
          <octave>4</octave>
        </pitch>
        <duration>48</duration>
        <type>eighth</type>
        <lyric>
          <text>.</text>
        </lyric>
      </note>
      <note>
        <!--symbtr_txt_note_index 42-->
        <pitch>
          <step>A</step>
          <octave>4</octave>
        </pitch>
        <duration>24</duration>
        <type>16th</type>
        <lyric>
          <text>.</text>
        </lyric>
      </note>
      <note>
        <!--symbtr_txt_note_index 43-->
        <pitch>
          <step>G</step>
          <alter>+1</alter>
          <octave>4</octave>
        </pitch>
        <duration>24</duration>
        <type>16th</type>
        <accidental>sharp</accidental>
        <lyric>
          <text>.</text>
        </lyric>
      </note>
    </measure>
    <measure number="8">
      <attributes/>
      <note>
        <!--symbtr_txt_note_index 44-->
        <pitch>
          <step>A</step>
          <octave>4</octave>
        </pitch>
        <duration>288</duration>
        <type>half</type>
        <dot/>
        <lyric>
          <text>.</text>
        </lyric>
      </note>
    </measure>
    <measure number="9">
      <attributes/>
      <note>
        <!--symbtr_txt_note_index 45-->
        <pitch>
          <step>G</step>
          <octave>4</octave>
        </pitch>
        <duration>48</duration>
        <type>eighth</type>
        <lyric name="ARANAĞME">
          <text>ARANAĞME</text>
        </lyric>
      </note>
      <note>
        <!--symbtr_txt_note_index 46-->
        <pitch>
          <step>C</step>
          <octave>5</octave>
        </pitch>
        <duration>48</duration>
        <type>eighth</type>
        <lyric>
          <text>.</text>
        </lyric>
      </note>
      <note>
        <!--symbtr_txt_note_index 47-->
        <pitch>
          <step>B</step>
          <octave>4</octave>
        </pitch>
        <duration>48</duration>
        <type>eighth</type>
        <lyric>
          <text>.</text>
        </lyric>
      </note>
      <note>
        <!--symbtr_txt_note_index 48-->
        <pitch>
          <step>C</step>
          <octave>5</octave>
        </pitch>
        <duration>48</duration>
        <type>eighth</type>
        <lyric>
          <text>.</text>
        </lyric>
      </note>
      <note>
        <!--symbtr_txt_note_index 49-->
        <pitch>
          <step>E</step>
          <octave>5</octave>
        </pitch>
        <duration>48</duration>
        <type>eighth</type>
        <lyric>
          <text>.</text>
        </lyric>
      </note>
      <note>
        <!--symbtr_txt_note_index 50-->
        <pitch>
          <step>D</step>
          <octave>5</octave>
        </pitch>
        <duration>48</duration>
        <type>eighth</type>
        <lyric>
          <text>.</text>
        </lyric>
      </note>
    </measure>
    <measure number="10">
      <attributes/>
      <note>
        <!--symbtr_txt_note_index 51-->
        <grace steal-time-previous="10"/>
        <pitch>
          <step>E</step>
          <octave>5</octave>
        </pitch>
        <lyric>
          <text>.</text>
        </lyric>
      </note>
      <note>
        <!--symbtr_txt_note_index 52-->
        <pitch>
          <step>D</step>
          <octave>5</octave>
        </pitch>
        <duration>48</duration>
        <type>eighth</type>
        <lyric>
          <text>.</text>
        </lyric>
      </note>
      <note>
        <!--symbtr_txt_note_index 53-->
        <pitch>
          <step>C</step>
          <octave>5</octave>
        </pitch>
        <duration>48</duration>
        <type>eighth</type>
        <lyric>
          <text>.</text>
        </lyric>
      </note>
      <note>
        <!--symbtr_txt_note_index 54-->
        <pitch>
          <step>B</step>
          <octave>4</octave>
        </pitch>
        <duration>48</duration>
        <type>eighth</type>
        <lyric>
          <text>.</text>
        </lyric>
      </note>
      <note>
        <!--symbtr_txt_note_index 55-->
        <pitch>
          <step>C</step>
          <octave>5</octave>
        </pitch>
        <duration>96</duration>
        <type>quarter</type>
        <lyric>
          <text>.</text>
        </lyric>
      </note>
      <note>
        <!--symbtr_txt_note_index 56-->
        <rest/>
        <duration>48</duration>
        <type>eighth</type>
        <lyric>
          <text>.</text>
        </lyric>
      </note>
    </measure>
    <measure number="11">
      <attributes/>
      <note>
        <!--symbtr_txt_note_index 57-->
        <pitch>
          <step>G</step>
          <octave>4</octave>
        </pitch>
        <duration>48</duration>
        <type>eighth</type>
        <lyric>
          <text>.</text>
        </lyric>
      </note>
      <note>
        <!--symbtr_txt_note_index 58-->
        <pitch>
          <step>C</step>
          <octave>5</octave>
        </pitch>
        <duration>48</duration>
        <type>eighth</type>
        <lyric>
          <text>.</text>
        </lyric>
      </note>
      <note>
        <!--symbtr_txt_note_index 59-->
        <pitch>
          <step>E</step>
          <octave>5</octave>
        </pitch>
        <duration>48</duration>
        <type>eighth</type>
        <lyric>
          <text>.</text>
        </lyric>
      </note>
      <note>
        <!--symbtr_txt_note_index 60-->
        <pitch>
          <step>G</step>
          <octave>5</octave>
        </pitch>
        <duration>48</duration>
        <type>eighth</type>
        <lyric>
          <text>.</text>
        </lyric>
      </note>
      <note>
        <!--symbtr_txt_note_index 61-->
        <pitch>
          <step>A</step>
          <octave>5</octave>
        </pitch>
        <duration>48</duration>
        <type>eighth</type>
        <lyric>
          <text>.</text>
        </lyric>
      </note>
      <note>
        <!--symbtr_txt_note_index 62-->
        <pitch>
          <step>G</step>
          <octave>5</octave>
        </pitch>
        <duration>48</duration>
        <type>eighth</type>
        <lyric>
          <text>.</text>
        </lyric>
      </note>
    </measure>
    <measure number="12">
      <attributes/>
      <note>
        <!--symbtr_txt_note_index 63-->
        <grace steal-time-previous="10"/>
        <pitch>
          <step>B</step>
          <octave>5</octave>
        </pitch>
        <lyric>
          <text>.</text>
        </lyric>
      </note>
      <note>
        <!--symbtr_txt_note_index 64-->
        <pitch>
          <step>A</step>
          <octave>5</octave>
        </pitch>
        <duration>48</duration>
        <type>eighth</type>
        <lyric>
          <text>.</text>
        </lyric>
      </note>
      <note>
        <!--symbtr_txt_note_index 65-->
        <pitch>
          <step>F</step>
          <octave>5</octave>
        </pitch>
        <duration>48</duration>
        <type>eighth</type>
        <lyric>
          <text>.</text>
        </lyric>
      </note>
      <note>
        <!--symbtr_txt_note_index 66-->
        <pitch>
          <step>D</step>
          <octave>5</octave>
        </pitch>
        <duration>48</duration>
        <type>eighth</type>
        <lyric>
          <text>.</text>
        </lyric>
      </note>
      <note>
        <!--symbtr_txt_note_index 67-->
        <pitch>
          <step>E</step>
          <octave>5</octave>
        </pitch>
        <duration>96</duration>
        <type>quarter</type>
        <lyric>
          <text>.</text>
        </lyric>
      </note>
      <note>
        <!--symbtr_txt_note_index 68-->
        <rest/>
        <duration>48</duration>
        <type>eighth</type>
        <lyric>
          <text>.</text>
        </lyric>
      </note>
    </measure>
    <measure number="13">
      <attributes/>
      <note>
        <!--symbtr_txt_note_index 69-->
        <pitch>
          <step>D</step>
          <octave>5</octave>
        </pitch>
        <duration>48</duration>
        <type>eighth</type>
        <notations>
          <ornaments>
            <mordent placement="above"/>
          </ornaments>
        </notations>
        <lyric>
          <text>.</text>
        </lyric>
      </note>
      <note>
        <!--symbtr_txt_note_index 70-->
        <pitch>
          <step>E</step>
          <octave>5</octave>
        </pitch>
        <duration>48</duration>
        <type>eighth</type>
        <lyric>
          <text>.</text>
        </lyric>
      </note>
      <note>
        <!--symbtr_txt_note_index 71-->
        <pitch>
          <step>F</step>
          <octave>5</octave>
        </pitch>
        <duration>48</duration>
        <type>eighth</type>
        <lyric>
          <text>.</text>
        </lyric>
      </note>
      <note>
        <!--symbtr_txt_note_index 72-->
        <pitch>
          <step>E</step>
          <octave>5</octave>
        </pitch>
        <duration>48</duration>
        <type>eighth</type>
        <lyric>
          <text>.</text>
        </lyric>
      </note>
      <note>
        <!--symbtr_txt_note_index 73-->
        <pitch>
          <step>C</step>
          <octave>5</octave>
        </pitch>
        <duration>48</duration>
        <type>eighth</type>
        <lyric>
          <text>.</text>
        </lyric>
      </note>
      <note>
        <!--symbtr_txt_note_index 74-->
        <pitch>
          <step>A</step>
          <octave>4</octave>
        </pitch>
        <duration>48</duration>
        <type>eighth</type>
        <lyric>
          <text>.</text>
        </lyric>
      </note>
    </measure>
    <measure number="14">
      <attributes/>
      <note>
        <!--symbtr_txt_note_index 75-->
        <pitch>
          <step>D</step>
          <octave>5</octave>
        </pitch>
        <duration>96</duration>
        <type>quarter</type>
        <lyric>
          <text>.</text>
        </lyric>
      </note>
      <note>
        <!--symbtr_txt_note_index 76-->
        <pitch>
          <step>C</step>
          <alter>+1</alter>
          <octave>5</octave>
        </pitch>
        <duration>48</duration>
        <type>eighth</type>
        <accidental>sharp</accidental>
        <lyric>
          <text>.</text>
        </lyric>
      </note>
      <note>
        <!--symbtr_txt_note_index 77-->
        <pitch>
          <step>D</step>
          <octave>5</octave>
        </pitch>
        <duration>96</duration>
        <type>quarter</type>
        <lyric>
          <text>.</text>
        </lyric>
      </note>
      <note>
        <!--symbtr_txt_note_index 78-->
        <rest/>
        <duration>48</duration>
        <type>eighth</type>
        <lyric>
          <text>.</text>
        </lyric>
      </note>
    </measure>
    <measure number="15">
      <attributes/>
      <note>
        <!--symbtr_txt_note_index 79-->
        <pitch>
          <step>B</step>
          <octave>4</octave>
        </pitch>
        <duration>48</duration>
        <type>eighth</type>
        <lyric>
          <text>.</text>
        </lyric>
      </note>
      <note>
        <!--symbtr_txt_note_index 80-->
        <pitch>
          <step>C</step>
          <octave>5</octave>
        </pitch>
        <duration>48</duration>
        <type>eighth</type>
        <lyric>
          <text>.</text>
        </lyric>
      </note>
      <note>
        <!--symbtr_txt_note_index 81-->
        <pitch>
          <step>B</step>
          <octave>4</octave>
        </pitch>
        <duration>48</duration>
        <type>eighth</type>
        <lyric>
          <text>.</text>
        </lyric>
      </note>
      <note>
        <!--symbtr_txt_note_index 82-->
        <pitch>
          <step>C</step>
          <octave>5</octave>
        </pitch>
        <duration>24</duration>
        <type>16th</type>
        <lyric>
          <text>.</text>
        </lyric>
      </note>
      <note>
        <!--symbtr_txt_note_index 83-->
        <pitch>
          <step>B</step>
          <octave>4</octave>
        </pitch>
        <duration>24</duration>
        <type>16th</type>
        <lyric>
          <text>.</text>
        </lyric>
      </note>
      <note>
        <!--symbtr_txt_note_index 84-->
        <pitch>
          <step>A</step>
          <octave>4</octave>
        </pitch>
        <duration>48</duration>
        <type>eighth</type>
        <lyric>
          <text>.</text>
        </lyric>
      </note>
      <note>
        <!--symbtr_txt_note_index 85-->
        <pitch>
          <step>A</step>
          <octave>4</octave>
        </pitch>
        <duration>24</duration>
        <type>16th</type>
        <lyric>
          <text>.</text>
        </lyric>
      </note>
      <note>
        <!--symbtr_txt_note_index 86-->
        <pitch>
          <step>G</step>
          <alter>+1</alter>
          <octave>4</octave>
        </pitch>
        <duration>24</duration>
        <type>16th</type>
        <accidental>sharp</accidental>
        <lyric>
          <text>.</text>
        </lyric>
      </note>
    </measure>
    <measure number="16">
      <attributes/>
      <note>
        <!--symbtr_txt_note_index 87-->
        <pitch>
          <step>A</step>
          <octave>4</octave>
        </pitch>
        <duration>288</duration>
        <type>half</type>
        <dot/>
        <lyric>
          <text>.</text>
        </lyric>
      </note>
    </measure>
    <measure number="17">
      <attributes/>
    </measure>
  </part>
</score-partwise>
