<?xml version='1.0' encoding='UTF-8' standalone='no'?>
<!DOCTYPE score-partwise PUBLIC "-//Recordare//DTD MusicXML 3.0 Partwise//EN" "http://www.musicxml.org/dtds/partwise.dtd">
<score-partwise version="3.0">
  <work>
    <work-title>Ihtiyatlar Silah</work-title>
  </work>
  <part-list>
    <score-part id="P1">
      <part-name>Music</part-name>
    </score-part>
  </part-list>
  <part id="P1">
    <measure number="1">
      <direction placement="above">
        <direction-type>
          <words default-y="35">Makam: Hicaz, Usul: Aksak</words>
        </direction-type>
        <sound tempo="81"/>
      </direction>
      <attributes>
        <divisions>96</divisions>
        <key>
          <key-step>C</key-step>
          <key-alter>+4</key-alter>
          <key-accidental>sharp</key-accidental>
          <key-step>F</key-step>
          <key-alter>+4</key-alter>
          <key-accidental>sharp</key-accidental>
          <key-step>B</key-step>
          <key-alter>-4</key-alter>
          <key-accidental>slash-flat</key-accidental>
        </key>
        <time>
          <beats>9</beats>
          <beat-type>8</beat-type>
        </time>
      </attributes>
      <note>
        <rest/>
        <duration>192</duration>
        <type>half</type>
        <lyric name="ARANAĞME">
          <text>ARANAĞME</text>
        </lyric>
      </note>
      <note>
        <pitch>
          <step>F</step>
          <alter>+1</alter>
          <octave>4</octave>
        </pitch>
        <duration>24</duration>
        <type>16th</type>
        <accidental>sharp</accidental>
        <lyric>
          <text></text>
        </lyric>
      </note>
      <note>
        <pitch>
          <step>G</step>
          <octave>4</octave>
        </pitch>
        <duration>24</duration>
        <type>16th</type>
        <lyric>
          <text>.</text>
        </lyric>
      </note>
      <note>
        <pitch>
          <step>F</step>
          <alter>+1</alter>
          <octave>4</octave>
        </pitch>
        <duration>24</duration>
        <type>16th</type>
        <accidental>sharp</accidental>
        <lyric>
          <text>.</text>
        </lyric>
      </note>
      <note>
        <pitch>
          <step>G</step>
          <octave>4</octave>
        </pitch>
        <duration>24</duration>
        <type>16th</type>
        <lyric>
          <text>.</text>
        </lyric>
      </note>
      <note>
        <pitch>
          <step>A</step>
          <octave>4</octave>
        </pitch>
        <duration>48</duration>
        <type>eighth</type>
        <lyric>
          <text>.</text>
        </lyric>
      </note>
      <note>
        <pitch>
          <step>B</step>
          <octave>4</octave>
        </pitch>
        <duration>48</duration>
        <type>eighth</type>
        <accidental>slash-flat</accidental>
        <lyric>
          <text>.</text>
        </lyric>
      </note>
      <note>
        <pitch>
          <step>G</step>
          <octave>4</octave>
        </pitch>
        <duration>48</duration>
        <type>eighth</type>
        <lyric>
          <text>.</text>
        </lyric>
      </note>
    </measure>
    <measure number="2">
      <attributes/>
      <note>
        <pitch>
          <step>A</step>
          <octave>4</octave>
        </pitch>
        <duration>48</duration>
        <type>eighth</type>
        <lyric>
          <text>.</text>
        </lyric>
      </note>
      <note>
        <pitch>
          <step>A</step>
          <octave>4</octave>
        </pitch>
        <duration>24</duration>
        <type>16th</type>
        <lyric>
          <text>.</text>
        </lyric>
      </note>
      <note>
        <pitch>
          <step>G</step>
          <octave>4</octave>
        </pitch>
        <duration>24</duration>
        <type>16th</type>
        <lyric>
          <text>.</text>
        </lyric>
      </note>
      <note>
        <pitch>
          <step>F</step>
          <alter>+1</alter>
          <octave>4</octave>
        </pitch>
        <duration>24</duration>
        <type>16th</type>
        <accidental>sharp</accidental>
        <lyric>
          <text>.</text>
        </lyric>
      </note>
      <note>
        <pitch>
          <step>G</step>
          <octave>4</octave>
        </pitch>
        <duration>24</duration>
        <type>16th</type>
        <lyric>
          <text>.</text>
        </lyric>
      </note>
      <note>
        <pitch>
          <step>A</step>
          <octave>4</octave>
        </pitch>
        <duration>48</duration>
        <type>eighth</type>
        <lyric>
          <text>.</text>
        </lyric>
      </note>
      <note>
        <pitch>
          <step>F</step>
          <alter>+1</alter>
          <octave>4</octave>
        </pitch>
        <duration>24</duration>
        <type>16th</type>
        <accidental>sharp</accidental>
        <lyric>
          <text>.</text>
        </lyric>
      </note>
      <note>
        <pitch>
          <step>G</step>
          <octave>4</octave>
        </pitch>
        <duration>24</duration>
        <type>16th</type>
        <lyric>
          <text>.</text>
        </lyric>
      </note>
      <note>
        <pitch>
          <step>F</step>
          <alter>+1</alter>
          <octave>4</octave>
        </pitch>
        <duration>24</duration>
        <type>16th</type>
        <accidental>sharp</accidental>
        <lyric>
          <text>.</text>
        </lyric>
      </note>
      <note>
        <pitch>
          <step>G</step>
          <octave>4</octave>
        </pitch>
        <duration>24</duration>
        <type>16th</type>
        <lyric>
          <text>.</text>
        </lyric>
      </note>
      <note>
        <pitch>
          <step>A</step>
          <octave>4</octave>
        </pitch>
        <duration>48</duration>
        <type>eighth</type>
        <lyric>
          <text>.</text>
        </lyric>
      </note>
      <note>
        <pitch>
          <step>B</step>
          <octave>4</octave>
        </pitch>
        <duration>48</duration>
        <type>eighth</type>
        <accidental>slash-flat</accidental>
        <lyric>
          <text>.</text>
        </lyric>
      </note>
      <note>
        <pitch>
          <step>G</step>
          <octave>4</octave>
        </pitch>
        <duration>48</duration>
        <type>eighth</type>
        <lyric>
          <text>.</text>
        </lyric>
      </note>
    </measure>
    <measure number="3">
      <attributes/>
      <note>
        <pitch>
          <step>A</step>
          <octave>4</octave>
        </pitch>
        <duration>96</duration>
        <type>quarter</type>
        <lyric>
          <text>.</text>
        </lyric>
      </note>
      <note>
        <pitch>
          <step>A</step>
          <octave>4</octave>
        </pitch>
        <duration>48</duration>
        <type>eighth</type>
        <lyric>
          <text>.</text>
        </lyric>
      </note>
      <note>
        <rest/>
        <duration>48</duration>
        <type>eighth</type>
        <lyric>
          <text>.</text>
        </lyric>
      </note>
      <note>
        <pitch>
          <step>F</step>
          <alter>+1</alter>
          <octave>4</octave>
        </pitch>
        <duration>24</duration>
        <type>16th</type>
        <accidental>sharp</accidental>
        <lyric>
          <text>.</text>
        </lyric>
      </note>
      <note>
        <pitch>
          <step>G</step>
          <octave>4</octave>
        </pitch>
        <duration>24</duration>
        <type>16th</type>
        <lyric>
          <text>.</text>
        </lyric>
      </note>
      <note>
        <pitch>
          <step>F</step>
          <alter>+1</alter>
          <octave>4</octave>
        </pitch>
        <duration>24</duration>
        <type>16th</type>
        <accidental>sharp</accidental>
        <lyric>
          <text>.</text>
        </lyric>
      </note>
      <note>
        <pitch>
          <step>G</step>
          <octave>4</octave>
        </pitch>
        <duration>24</duration>
        <type>16th</type>
        <lyric>
          <text>.</text>
        </lyric>
      </note>
      <note>
        <pitch>
          <step>A</step>
          <octave>4</octave>
        </pitch>
        <duration>48</duration>
        <type>eighth</type>
        <lyric>
          <text>.</text>
        </lyric>
      </note>
      <note>
        <pitch>
          <step>B</step>
          <octave>4</octave>
        </pitch>
        <duration>48</duration>
        <type>eighth</type>
        <accidental>slash-flat</accidental>
        <lyric>
          <text>.</text>
        </lyric>
      </note>
      <note>
        <pitch>
          <step>G</step>
          <octave>4</octave>
        </pitch>
        <duration>48</duration>
        <type>eighth</type>
        <lyric>
          <text>.</text>
        </lyric>
      </note>
    </measure>
    <measure number="4">
      <attributes/>
      <note>
        <pitch>
          <step>A</step>
          <octave>4</octave>
        </pitch>
        <duration>48</duration>
        <type>eighth</type>
        <lyric>
          <text>.</text>
        </lyric>
      </note>
      <note>
        <pitch>
          <step>A</step>
          <octave>4</octave>
        </pitch>
        <duration>24</duration>
        <type>16th</type>
        <lyric>
          <text>.</text>
        </lyric>
      </note>
      <note>
        <pitch>
          <step>G</step>
          <octave>4</octave>
        </pitch>
        <duration>24</duration>
        <type>16th</type>
        <lyric>
          <text>.</text>
        </lyric>
      </note>
      <note>
        <pitch>
          <step>F</step>
          <alter>+1</alter>
          <octave>4</octave>
        </pitch>
        <duration>24</duration>
        <type>16th</type>
        <accidental>sharp</accidental>
        <lyric>
          <text>.</text>
        </lyric>
      </note>
      <note>
        <pitch>
          <step>G</step>
          <octave>4</octave>
        </pitch>
        <duration>24</duration>
        <type>16th</type>
        <lyric>
          <text>.</text>
        </lyric>
      </note>
      <note>
        <pitch>
          <step>A</step>
          <octave>4</octave>
        </pitch>
        <duration>48</duration>
        <type>eighth</type>
        <lyric>
          <text>.</text>
        </lyric>
      </note>
      <note>
        <pitch>
          <step>F</step>
          <alter>+1</alter>
          <octave>4</octave>
        </pitch>
        <duration>24</duration>
        <type>16th</type>
        <accidental>sharp</accidental>
        <lyric>
          <text>.</text>
        </lyric>
      </note>
      <note>
        <pitch>
          <step>G</step>
          <octave>4</octave>
        </pitch>
        <duration>24</duration>
        <type>16th</type>
        <lyric>
          <text>.</text>
        </lyric>
      </note>
      <note>
        <pitch>
          <step>F</step>
          <alter>+1</alter>
          <octave>4</octave>
        </pitch>
        <duration>24</duration>
        <type>16th</type>
        <accidental>sharp</accidental>
        <lyric>
          <text>.</text>
        </lyric>
      </note>
      <note>
        <pitch>
          <step>G</step>
          <octave>4</octave>
        </pitch>
        <duration>24</duration>
        <type>16th</type>
        <lyric>
          <text>.</text>
        </lyric>
      </note>
      <note>
        <pitch>
          <step>A</step>
          <octave>4</octave>
        </pitch>
        <duration>48</duration>
        <type>eighth</type>
        <lyric>
          <text>.</text>
        </lyric>
      </note>
      <note>
        <pitch>
          <step>B</step>
          <octave>4</octave>
        </pitch>
        <duration>48</duration>
        <type>eighth</type>
        <accidental>slash-flat</accidental>
        <lyric>
          <text>.</text>
        </lyric>
      </note>
      <note>
        <pitch>
          <step>G</step>
          <octave>4</octave>
        </pitch>
        <duration>48</duration>
        <type>eighth</type>
        <lyric>
          <text>.</text>
        </lyric>
      </note>
    </measure>
    <measure number="5">
      <attributes/>
      <note>
        <pitch>
          <step>A</step>
          <octave>4</octave>
        </pitch>
        <duration>144</duration>
        <type>quarter</type>
        <dot/>
        <lyric>
          <text>.</text>
        </lyric>
      </note>
      <note>
        <pitch>
          <step>E</step>
          <octave>5</octave>
        </pitch>
        <duration>24</duration>
        <type>16th</type>
        <lyric>
          <text>.</text>
        </lyric>
      </note>
      <note>
        <pitch>
          <step>F</step>
          <octave>5</octave>
        </pitch>
        <duration>24</duration>
        <type>16th</type>
        <lyric>
          <text>.</text>
        </lyric>
      </note>
      <note>
        <pitch>
          <step>E</step>
          <octave>5</octave>
        </pitch>
        <duration>24</duration>
        <type>16th</type>
        <lyric>
          <text>.</text>
        </lyric>
      </note>
      <note>
        <pitch>
          <step>D</step>
          <octave>5</octave>
        </pitch>
        <duration>24</duration>
        <type>16th</type>
        <lyric>
          <text>.</text>
        </lyric>
      </note>
      <note>
        <pitch>
          <step>C</step>
          <alter>+1</alter>
          <octave>5</octave>
        </pitch>
        <duration>24</duration>
        <type>16th</type>
        <accidental>sharp</accidental>
        <lyric>
          <text>50</text>
        </lyric>
      </note>
      <note>
        <pitch>
          <step>D</step>
          <octave>5</octave>
        </pitch>
        <duration>24</duration>
        <type>16th</type>
        <lyric>
          <text>.</text>
        </lyric>
      </note>
      <note>
        <pitch>
          <step>E</step>
          <octave>5</octave>
        </pitch>
        <duration>72</duration>
        <type>eighth</type>
        <dot/>
        <lyric>
          <text>.</text>
        </lyric>
      </note>
      <note>
        <pitch>
          <step>F</step>
          <octave>5</octave>
        </pitch>
        <duration>24</duration>
        <type>16th</type>
        <lyric>
          <text>.</text>
        </lyric>
      </note>
      <note>
        <pitch>
          <step>E</step>
          <octave>5</octave>
        </pitch>
        <duration>24</duration>
        <type>16th</type>
        <lyric>
          <text>.</text>
        </lyric>
      </note>
      <note>
        <pitch>
          <step>D</step>
          <octave>5</octave>
        </pitch>
        <duration>24</duration>
        <type>16th</type>
        <lyric>
          <text>.</text>
        </lyric>
      </note>
    </measure>
    <measure number="6">
      <attributes/>
      <note>
        <pitch>
          <step>E</step>
          <octave>5</octave>
        </pitch>
        <duration>96</duration>
        <type>quarter</type>
        <lyric name="VOCAL_SECTION">
          <text>.</text>
        </lyric>
      </note>
      <note>
        <pitch>
          <step>C</step>
          <alter>+1</alter>
          <octave>5</octave>
        </pitch>
        <duration>48</duration>
        <type>eighth</type>
        <accidental>sharp</accidental>
        <lyric>
          <syllabic>begin</syllabic>
          <text>İh</text>
        </lyric>
      </note>
      <note>
        <pitch>
          <step>D</step>
          <octave>5</octave>
        </pitch>
        <duration>48</duration>
        <type>eighth</type>
        <lyric>
          <syllabic>end</syllabic>
          <text>ti</text>
        </lyric>
      </note>
      <note>
        <pitch>
          <step>E</step>
          <octave>5</octave>
        </pitch>
        <duration>96</duration>
        <type>quarter</type>
        <lyric>
          <syllabic>begin</syllabic>
          <text>yat</text>
        </lyric>
      </note>
      <note>
        <pitch>
          <step>E</step>
          <octave>5</octave>
        </pitch>
        <duration>144</duration>
        <type>quarter</type>
        <dot/>
        <lyric>
          <syllabic>end</syllabic>
          <text>lar </text>
        </lyric>
      </note>
    </measure>
    <measure number="7">
      <attributes/>
      <note>
        <pitch>
          <step>E</step>
          <octave>5</octave>
        </pitch>
        <duration>48</duration>
        <type>eighth</type>
        <lyric>
          <syllabic>begin</syllabic>
          <text>si</text>
        </lyric>
      </note>
      <note>
        <pitch>
          <step>E</step>
          <octave>5</octave>
        </pitch>
        <duration>48</duration>
        <type>eighth</type>
        <lyric>
          <syllabic>end</syllabic>
          <text>lah </text>
        </lyric>
      </note>
      <note>
        <pitch>
          <step>E</step>
          <octave>5</octave>
        </pitch>
        <duration>48</duration>
        <type>eighth</type>
        <lyric>
          <syllabic>begin</syllabic>
          <text>si</text>
        </lyric>
      </note>
      <note>
        <pitch>
          <step>G</step>
          <octave>5</octave>
        </pitch>
        <duration>48</duration>
        <type>eighth</type>
        <lyric>
          <syllabic>end</syllabic>
          <text>lah </text>
        </lyric>
      </note>
      <note>
        <pitch>
          <step>F</step>
          <octave>5</octave>
        </pitch>
        <duration>48</duration>
        <type>eighth</type>
        <lyric>
          <syllabic>begin</syllabic>
          <text>çat</text>
        </lyric>
      </note>
      <note>
        <pitch>
          <step>E</step>
          <octave>5</octave>
        </pitch>
        <duration>48</duration>
        <type>eighth</type>
        <lyric>
          <text></text>
        </lyric>
      </note>
      <note>
        <pitch>
          <step>D</step>
          <octave>5</octave>
        </pitch>
        <duration>96</duration>
        <type>quarter</type>
        <lyric>
          <syllabic>end</syllabic>
          <text>mış </text>
        </lyric>
      </note>
      <note>
        <pitch>
          <step>C</step>
          <alter>+1</alter>
          <octave>5</octave>
        </pitch>
        <duration>48</duration>
        <type>eighth</type>
        <accidental>sharp</accidental>
        <lyric>
          <text></text>
        </lyric>
      </note>
    </measure>
    <measure number="8">
      <attributes/>
      <note>
        <pitch>
          <step>D</step>
          <octave>5</octave>
        </pitch>
        <duration>96</duration>
        <type>quarter</type>
        <lyric>
          <syllabic>single</syllabic>
          <text>ah </text>
        </lyric>
      </note>
      <note>
        <pitch>
          <step>E</step>
          <octave>5</octave>
        </pitch>
        <duration>48</duration>
        <type>eighth</type>
        <lyric>
          <syllabic>begin</syllabic>
          <text>yo</text>
        </lyric>
      </note>
      <note>
        <pitch>
          <step>F</step>
          <alter>+1</alter>
          <octave>5</octave>
        </pitch>
        <duration>48</duration>
        <type>eighth</type>
        <accidental>sharp</accidental>
        <lyric>
          <syllabic>end</syllabic>
          <text>lun_</text>
        </lyric>
      </note>
      <note>
        <pitch>
          <step>G</step>
          <octave>5</octave>
        </pitch>
        <duration>96</duration>
        <type>quarter</type>
        <lyric>
          <syllabic>begin</syllabic>
          <text>üs</text>
        </lyric>
      </note>
      <note>
        <pitch>
          <step>F</step>
          <alter>+1</alter>
          <octave>5</octave>
        </pitch>
        <duration>96</duration>
        <type>quarter</type>
        <accidental>sharp</accidental>
        <lyric>
          <syllabic>end</syllabic>
          <text>tü</text>
        </lyric>
      </note>
      <note>
        <pitch>
          <step>E</step>
          <octave>5</octave>
        </pitch>
        <duration>48</duration>
        <type>eighth</type>
        <lyric>
          <syllabic>single</syllabic>
          <text>ne  </text>
          <end-line/>
        </lyric>
      </note>
    </measure>
    <measure number="9">
      <attributes/>
      <note>
        <pitch>
          <step>A</step>
          <octave>5</octave>
        </pitch>
        <duration>144</duration>
        <type>quarter</type>
        <dot/>
        <lyric name="VOCAL_SECTION">
          <syllabic>begin</syllabic>
          <text>hey_</text>
        </lyric>
      </note>
      <note>
        <pitch>
          <step>G</step>
          <octave>5</octave>
        </pitch>
        <duration>48</duration>
        <type>eighth</type>
        <lyric>
          <syllabic>end</syllabic>
          <text>a</text>
        </lyric>
      </note>
      <note>
        <pitch>
          <step>F</step>
          <alter>+1</alter>
          <octave>5</octave>
        </pitch>
        <duration>48</duration>
        <type>eighth</type>
        <accidental>sharp</accidental>
        <lyric>
          <syllabic>begin</syllabic>
          <text>man_</text>
        </lyric>
      </note>
      <note>
        <pitch>
          <step>E</step>
          <octave>5</octave>
        </pitch>
        <duration>24</duration>
        <type>16th</type>
        <lyric>
          <text></text>
        </lyric>
      </note>
      <note>
        <pitch>
          <step>F</step>
          <alter>+1</alter>
          <octave>5</octave>
        </pitch>
        <duration>24</duration>
        <type>16th</type>
        <accidental>sharp</accidental>
        <lyric>
          <text></text>
        </lyric>
      </note>
      <note>
        <pitch>
          <step>G</step>
          <octave>5</octave>
        </pitch>
        <duration>96</duration>
        <type>quarter</type>
        <lyric>
          <text></text>
        </lyric>
      </note>
      <note>
        <pitch>
          <step>F</step>
          <alter>+1</alter>
          <octave>5</octave>
        </pitch>
        <duration>24</duration>
        <type>16th</type>
        <accidental>sharp</accidental>
        <lyric>
          <syllabic>end</syllabic>
          <text>a</text>
        </lyric>
      </note>
      <note>
        <pitch>
          <step>E</step>
          <octave>5</octave>
        </pitch>
        <duration>24</duration>
        <type>16th</type>
        <lyric>
          <syllabic>single</syllabic>
          <text>man  </text>
          <end-line/>
        </lyric>
      </note>
    </measure>
    <measure number="10">
      <attributes/>
      <note>
        <pitch>
          <step>E</step>
          <octave>5</octave>
        </pitch>
        <duration>144</duration>
        <type>quarter</type>
        <dot/>
        <lyric name="SAZ">
          <text>SAZ</text>
        </lyric>
      </note>
      <note>
        <pitch>
          <step>E</step>
          <octave>5</octave>
        </pitch>
        <duration>24</duration>
        <type>16th</type>
        <lyric>
          <text>.</text>
        </lyric>
      </note>
      <note>
        <pitch>
          <step>F</step>
          <octave>5</octave>
        </pitch>
        <duration>24</duration>
        <type>16th</type>
        <lyric>
          <text>.</text>
        </lyric>
      </note>
      <note>
        <pitch>
          <step>E</step>
          <octave>5</octave>
        </pitch>
        <duration>24</duration>
        <type>16th</type>
        <lyric>
          <text>.</text>
        </lyric>
      </note>
      <note>
        <pitch>
          <step>D</step>
          <octave>5</octave>
        </pitch>
        <duration>24</duration>
        <type>16th</type>
        <lyric>
          <text>.</text>
        </lyric>
      </note>
      <note>
        <pitch>
          <step>C</step>
          <alter>+1</alter>
          <octave>5</octave>
        </pitch>
        <duration>24</duration>
        <type>16th</type>
        <accidental>sharp</accidental>
        <lyric>
          <text>.</text>
        </lyric>
      </note>
      <note>
        <pitch>
          <step>D</step>
          <octave>5</octave>
        </pitch>
        <duration>24</duration>
        <type>16th</type>
        <lyric>
          <text>.</text>
        </lyric>
      </note>
      <note>
        <pitch>
          <step>E</step>
          <octave>5</octave>
        </pitch>
        <duration>72</duration>
        <type>eighth</type>
        <dot/>
        <lyric>
          <text>.</text>
        </lyric>
      </note>
      <note>
        <pitch>
          <step>F</step>
          <octave>5</octave>
        </pitch>
        <duration>24</duration>
        <type>16th</type>
        <lyric>
          <text>.</text>
        </lyric>
      </note>
      <note>
        <pitch>
          <step>E</step>
          <octave>5</octave>
        </pitch>
        <duration>24</duration>
        <type>16th</type>
        <lyric>
          <text>.</text>
        </lyric>
      </note>
      <note>
        <pitch>
          <step>D</step>
          <octave>5</octave>
        </pitch>
        <duration>24</duration>
        <type>16th</type>
        <lyric>
          <text>.</text>
        </lyric>
      </note>
    </measure>
    <measure number="11">
      <attributes/>
      <note>
        <pitch>
          <step>E</step>
          <octave>5</octave>
        </pitch>
        <duration>96</duration>
        <type>quarter</type>
        <lyric name="VOCAL_SECTION">
          <text>.</text>
        </lyric>
      </note>
      <note>
        <pitch>
          <step>C</step>
          <alter>+1</alter>
          <octave>5</octave>
        </pitch>
        <duration>48</duration>
        <type>eighth</type>
        <accidental>sharp</accidental>
        <lyric>
          <syllabic>begin</syllabic>
          <text>İh</text>
        </lyric>
      </note>
      <note>
        <pitch>
          <step>D</step>
          <octave>5</octave>
        </pitch>
        <duration>48</duration>
        <type>eighth</type>
        <lyric>
          <syllabic>end</syllabic>
          <text>ti</text>
        </lyric>
      </note>
      <note>
        <pitch>
          <step>E</step>
          <octave>5</octave>
        </pitch>
        <duration>96</duration>
        <type>quarter</type>
        <lyric>
          <syllabic>begin</syllabic>
          <text>yat</text>
        </lyric>
      </note>
      <note>
        <pitch>
          <step>E</step>
          <octave>5</octave>
        </pitch>
        <duration>144</duration>
        <type>quarter</type>
        <dot/>
        <lyric>
          <syllabic>end</syllabic>
          <text>lar </text>
        </lyric>
      </note>
    </measure>
    <measure number="12">
      <attributes/>
      <note>
        <pitch>
          <step>E</step>
          <octave>5</octave>
        </pitch>
        <duration>48</duration>
        <type>eighth</type>
        <lyric>
          <syllabic>begin</syllabic>
          <text>si</text>
        </lyric>
      </note>
      <note>
        <pitch>
          <step>E</step>
          <octave>5</octave>
        </pitch>
        <duration>48</duration>
        <type>eighth</type>
        <lyric>
          <syllabic>end</syllabic>
          <text>100</text>
        </lyric>
      </note>
      <note>
        <pitch>
          <step>E</step>
          <octave>5</octave>
        </pitch>
        <duration>48</duration>
        <type>eighth</type>
        <lyric>
          <syllabic>begin</syllabic>
          <text>si</text>
        </lyric>
      </note>
      <note>
        <pitch>
          <step>G</step>
          <octave>5</octave>
        </pitch>
        <duration>48</duration>
        <type>eighth</type>
        <lyric>
          <syllabic>end</syllabic>
          <text>lah </text>
        </lyric>
      </note>
      <note>
        <pitch>
          <step>F</step>
          <octave>5</octave>
        </pitch>
        <duration>48</duration>
        <type>eighth</type>
        <lyric>
          <syllabic>begin</syllabic>
          <text>çat</text>
        </lyric>
      </note>
      <note>
        <pitch>
          <step>E</step>
          <octave>5</octave>
        </pitch>
        <duration>48</duration>
        <type>eighth</type>
        <lyric>
          <text></text>
        </lyric>
      </note>
      <note>
        <pitch>
          <step>D</step>
          <octave>5</octave>
        </pitch>
        <duration>96</duration>
        <type>quarter</type>
        <lyric>
          <syllabic>end</syllabic>
          <text>mış </text>
        </lyric>
      </note>
      <note>
        <pitch>
          <step>C</step>
          <alter>+1</alter>
          <octave>5</octave>
        </pitch>
        <duration>48</duration>
        <type>eighth</type>
        <accidental>sharp</accidental>
        <lyric>
          <text></text>
        </lyric>
      </note>
    </measure>
    <measure number="13">
      <attributes/>
      <note>
        <pitch>
          <step>D</step>
          <octave>5</octave>
        </pitch>
        <duration>96</duration>
        <type>quarter</type>
        <lyric>
          <syllabic>single</syllabic>
          <text>ah </text>
        </lyric>
      </note>
      <note>
        <pitch>
          <step>E</step>
          <octave>5</octave>
        </pitch>
        <duration>48</duration>
        <type>eighth</type>
        <lyric>
          <syllabic>begin</syllabic>
          <text>yo</text>
        </lyric>
      </note>
      <note>
        <pitch>
          <step>F</step>
          <alter>+1</alter>
          <octave>5</octave>
        </pitch>
        <duration>48</duration>
        <type>eighth</type>
        <accidental>sharp</accidental>
        <lyric>
          <syllabic>end</syllabic>
          <text>lun_</text>
        </lyric>
      </note>
      <note>
        <pitch>
          <step>G</step>
          <octave>5</octave>
        </pitch>
        <duration>96</duration>
        <type>quarter</type>
        <lyric>
          <syllabic>begin</syllabic>
          <text>üs</text>
        </lyric>
      </note>
      <note>
        <pitch>
          <step>F</step>
          <alter>+1</alter>
          <octave>5</octave>
        </pitch>
        <duration>96</duration>
        <type>quarter</type>
        <accidental>sharp</accidental>
        <lyric>
          <syllabic>end</syllabic>
          <text>tü</text>
        </lyric>
      </note>
      <note>
        <pitch>
          <step>E</step>
          <octave>5</octave>
        </pitch>
        <duration>48</duration>
        <type>eighth</type>
        <lyric>
          <syllabic>single</syllabic>
          <text>ne  </text>
          <end-line/>
        </lyric>
      </note>
    </measure>
    <measure number="14">
      <attributes/>
      <note>
        <pitch>
          <step>A</step>
          <octave>5</octave>
        </pitch>
        <duration>144</duration>
        <type>quarter</type>
        <dot/>
        <lyric name="VOCAL_SECTION">
          <syllabic>begin</syllabic>
          <text>hey_</text>
        </lyric>
      </note>
      <note>
        <pitch>
          <step>G</step>
          <octave>5</octave>
        </pitch>
        <duration>48</duration>
        <type>eighth</type>
        <lyric>
          <syllabic>end</syllabic>
          <text>a</text>
        </lyric>
      </note>
      <note>
        <pitch>
          <step>F</step>
          <alter>+1</alter>
          <octave>5</octave>
        </pitch>
        <duration>48</duration>
        <type>eighth</type>
        <accidental>sharp</accidental>
        <lyric>
          <syllabic>begin</syllabic>
          <text>man_</text>
        </lyric>
      </note>
      <note>
        <pitch>
          <step>E</step>
          <octave>5</octave>
        </pitch>
        <duration>24</duration>
        <type>16th</type>
        <lyric>
          <text></text>
        </lyric>
      </note>
      <note>
        <pitch>
          <step>F</step>
          <alter>+1</alter>
          <octave>5</octave>
        </pitch>
        <duration>24</duration>
        <type>16th</type>
        <accidental>sharp</accidental>
        <lyric>
          <text></text>
        </lyric>
      </note>
      <note>
        <pitch>
          <step>G</step>
          <octave>5</octave>
        </pitch>
        <duration>96</duration>
        <type>quarter</type>
        <lyric>
          <text></text>
        </lyric>
      </note>
      <note>
        <pitch>
          <step>F</step>
          <alter>+1</alter>
          <octave>5</octave>
        </pitch>
        <duration>24</duration>
        <type>16th</type>
        <accidental>sharp</accidental>
        <lyric>
          <syllabic>end</syllabic>
          <text>a</text>
        </lyric>
      </note>
      <note>
        <pitch>
          <step>E</step>
          <octave>5</octave>
        </pitch>
        <duration>24</duration>
        <type>16th</type>
        <lyric>
          <syllabic>single</syllabic>
          <text>man  </text>
          <end-line/>
        </lyric>
      </note>
    </measure>
    <measure number="15">
      <attributes/>
      <note>
        <pitch>
          <step>E</step>
          <octave>5</octave>
        </pitch>
        <duration>144</duration>
        <type>quarter</type>
        <dot/>
        <lyric name="SAZ">
          <text>SAZ</text>
        </lyric>
      </note>
      <note>
        <pitch>
          <step>E</step>
          <octave>5</octave>
        </pitch>
        <duration>24</duration>
        <type>16th</type>
        <lyric>
          <text>.</text>
        </lyric>
      </note>
      <note>
        <pitch>
          <step>F</step>
          <octave>5</octave>
        </pitch>
        <duration>24</duration>
        <type>16th</type>
        <lyric>
          <text>.</text>
        </lyric>
      </note>
      <note>
        <pitch>
          <step>E</step>
          <octave>5</octave>
        </pitch>
        <duration>24</duration>
        <type>16th</type>
        <lyric>
          <text>.</text>
        </lyric>
      </note>
      <note>
        <pitch>
          <step>D</step>
          <octave>5</octave>
        </pitch>
        <duration>24</duration>
        <type>16th</type>
        <lyric>
          <text>.</text>
        </lyric>
      </note>
      <note>
        <pitch>
          <step>C</step>
          <alter>+1</alter>
          <octave>5</octave>
        </pitch>
        <duration>24</duration>
        <type>16th</type>
        <accidental>sharp</accidental>
        <lyric>
          <text>.</text>
        </lyric>
      </note>
      <note>
        <pitch>
          <step>D</step>
          <octave>5</octave>
        </pitch>
        <duration>24</duration>
        <type>16th</type>
        <lyric>
          <text>.</text>
        </lyric>
      </note>
      <note>
        <pitch>
          <step>E</step>
          <octave>5</octave>
        </pitch>
        <duration>72</duration>
        <type>eighth</type>
        <dot/>
        <lyric>
          <text>.</text>
        </lyric>
      </note>
      <note>
        <pitch>
          <step>F</step>
          <octave>5</octave>
        </pitch>
        <duration>24</duration>
        <type>16th</type>
        <lyric>
          <text>.</text>
        </lyric>
      </note>
      <note>
        <pitch>
          <step>E</step>
          <octave>5</octave>
        </pitch>
        <duration>24</duration>
        <type>16th</type>
        <lyric>
          <text>.</text>
        </lyric>
      </note>
      <note>
        <pitch>
          <step>D</step>
          <octave>5</octave>
        </pitch>
        <duration>24</duration>
        <type>16th</type>
        <lyric>
          <text>.</text>
        </lyric>
      </note>
    </measure>
    <measure number="16">
      <attributes/>
      <note>
        <pitch>
          <step>E</step>
          <octave>5</octave>
        </pitch>
        <duration>96</duration>
        <type>quarter</type>
        <lyric name="VOCAL_SECTION">
          <text>.</text>
        </lyric>
      </note>
      <note>
        <pitch>
          <step>A</step>
          <octave>5</octave>
        </pitch>
        <duration>48</duration>
        <type>eighth</type>
        <lyric>
          <syllabic>begin</syllabic>
          <text>Naz</text>
        </lyric>
      </note>
      <note>
        <pitch>
          <step>A</step>
          <octave>5</octave>
        </pitch>
        <duration>48</duration>
        <type>eighth</type>
        <lyric>
          <syllabic>end</syllabic>
          <text>lı </text>
        </lyric>
      </note>
      <note>
        <pitch>
          <step>A</step>
          <octave>5</octave>
        </pitch>
        <duration>96</duration>
        <type>quarter</type>
        <lyric>
          <syllabic>begin</syllabic>
          <text>yâ</text>
        </lyric>
      </note>
      <note>
        <pitch>
          <step>A</step>
          <octave>5</octave>
        </pitch>
        <duration>96</duration>
        <type>quarter</type>
        <lyric>
          <syllabic>end</syllabic>
          <text>rim </text>
        </lyric>
      </note>
      <note>
        <pitch>
          <step>G</step>
          <octave>5</octave>
        </pitch>
        <duration>48</duration>
        <type>eighth</type>
        <lyric>
          <text></text>
        </lyric>
      </note>
    </measure>
    <measure number="17">
      <attributes/>
      <note>
        <pitch>
          <step>G</step>
          <octave>5</octave>
        </pitch>
        <duration>48</duration>
        <type>eighth</type>
        <lyric>
          <syllabic>begin</syllabic>
          <text>ge</text>
        </lyric>
      </note>
      <note>
        <pitch>
          <step>G</step>
          <octave>5</octave>
        </pitch>
        <duration>48</duration>
        <type>eighth</type>
        <lyric>
          <syllabic>end</syllabic>
          <text>li </text>
        </lyric>
      </note>
      <note>
        <pitch>
          <step>G</step>
          <octave>5</octave>
        </pitch>
        <duration>48</duration>
        <type>eighth</type>
        <lyric>
          <syllabic>begin</syllabic>
          <text>ge</text>
        </lyric>
      </note>
      <note>
        <pitch>
          <step>F</step>
          <alter>+1</alter>
          <octave>5</octave>
        </pitch>
        <duration>48</duration>
        <type>eighth</type>
        <accidental>sharp</accidental>
        <lyric>
          <syllabic>end</syllabic>
          <text>li</text>
        </lyric>
      </note>
      <note>
        <pitch>
          <step>F</step>
          <alter>+1</alter>
          <octave>5</octave>
        </pitch>
        <duration>48</duration>
        <type>eighth</type>
        <accidental>sharp</accidental>
        <lyric>
          <syllabic>begin</syllabic>
          <text>ver</text>
        </lyric>
      </note>
      <note>
        <pitch>
          <step>E</step>
          <octave>5</octave>
        </pitch>
        <duration>24</duration>
        <type>16th</type>
        <lyric>
          <text></text>
        </lyric>
      </note>
      <note>
        <pitch>
          <step>F</step>
          <alter>+1</alter>
          <octave>5</octave>
        </pitch>
        <duration>24</duration>
        <type>16th</type>
        <accidental>sharp</accidental>
        <lyric>
          <text></text>
        </lyric>
      </note>
      <note>
        <pitch>
          <step>A</step>
          <octave>5</octave>
        </pitch>
        <duration>24</duration>
        <type>16th</type>
        <lyric>
          <syllabic>end</syllabic>
          <text>miş </text>
        </lyric>
      </note>
      <note>
        <pitch>
          <step>G</step>
          <octave>5</octave>
        </pitch>
        <duration>24</duration>
        <type>16th</type>
        <lyric>
          <text></text>
        </lyric>
      </note>
      <note>
        <pitch>
          <step>F</step>
          <octave>5</octave>
        </pitch>
        <duration>24</duration>
        <type>16th</type>
        <lyric>
          <text></text>
        </lyric>
      </note>
      <note>
        <pitch>
          <step>E</step>
          <octave>5</octave>
        </pitch>
        <duration>24</duration>
        <type>16th</type>
        <lyric>
          <text></text>
        </lyric>
      </note>
      <note>
        <pitch>
          <step>D</step>
          <octave>5</octave>
        </pitch>
        <duration>48</duration>
        <type>eighth</type>
        <lyric>
          <text></text>
        </lyric>
      </note>
    </measure>
    <measure number="18">
      <attributes/>
      <note>
        <pitch>
          <step>E</step>
          <octave>5</octave>
        </pitch>
        <duration>48</duration>
        <type>eighth</type>
        <lyric>
          <syllabic>single</syllabic>
          <text>150</text>
        </lyric>
      </note>
      <note>
        <pitch>
          <step>F</step>
          <octave>5</octave>
        </pitch>
        <duration>24</duration>
        <type>16th</type>
        <lyric>
          <text></text>
        </lyric>
      </note>
      <note>
        <pitch>
          <step>G</step>
          <octave>5</octave>
        </pitch>
        <duration>24</duration>
        <type>16th</type>
        <lyric>
          <text></text>
        </lyric>
      </note>
      <note>
        <pitch>
          <step>E</step>
          <octave>5</octave>
        </pitch>
        <duration>48</duration>
        <type>eighth</type>
        <lyric>
          <syllabic>begin</syllabic>
          <text>di</text>
        </lyric>
      </note>
      <note>
        <pitch>
          <step>D</step>
          <octave>5</octave>
        </pitch>
        <duration>48</duration>
        <type>eighth</type>
        <lyric>
          <syllabic>end</syllabic>
          <text>zin_</text>
        </lyric>
      </note>
      <note>
        <pitch>
          <step>C</step>
          <alter>+1</alter>
          <octave>5</octave>
        </pitch>
        <duration>48</duration>
        <type>eighth</type>
        <accidental>sharp</accidental>
        <lyric>
          <syllabic>begin</syllabic>
          <text>üs</text>
        </lyric>
      </note>
      <note>
        <pitch>
          <step>B</step>
          <octave>4</octave>
        </pitch>
        <duration>48</duration>
        <type>eighth</type>
        <accidental>slash-flat</accidental>
        <lyric>
          <text></text>
        </lyric>
      </note>
      <note>
        <pitch>
          <step>A</step>
          <octave>4</octave>
        </pitch>
        <duration>96</duration>
        <type>quarter</type>
        <lyric>
          <syllabic>end</syllabic>
          <text>tü</text>
        </lyric>
      </note>
      <note>
        <pitch>
          <step>A</step>
          <octave>4</octave>
        </pitch>
        <duration>48</duration>
        <type>eighth</type>
        <lyric>
          <syllabic>single</syllabic>
          <text>ne  </text>
          <end-line/>
        </lyric>
      </note>
    </measure>
    <measure number="19">
      <attributes/>
      <note>
        <pitch>
          <step>B</step>
          <octave>4</octave>
        </pitch>
        <duration>48</duration>
        <type>eighth</type>
        <accidental>slash-flat</accidental>
        <lyric name="VOCAL_SECTION">
          <syllabic>begin</syllabic>
          <text>a</text>
        </lyric>
      </note>
      <note>
        <pitch>
          <step>A</step>
          <octave>4</octave>
        </pitch>
        <duration>48</duration>
        <type>eighth</type>
        <lyric>
          <syllabic>end</syllabic>
          <text>daş_</text>
        </lyric>
      </note>
      <note>
        <pitch>
          <step>B</step>
          <octave>4</octave>
        </pitch>
        <duration>48</duration>
        <type>eighth</type>
        <accidental>slash-flat</accidental>
        <lyric>
          <syllabic>begin</syllabic>
          <text>a</text>
        </lyric>
      </note>
      <note>
        <pitch>
          <step>D</step>
          <octave>5</octave>
        </pitch>
        <duration>48</duration>
        <type>eighth</type>
        <lyric>
          <syllabic>end</syllabic>
          <text>man_</text>
        </lyric>
      </note>
      <note>
        <pitch>
          <step>C</step>
          <alter>+1</alter>
          <octave>5</octave>
        </pitch>
        <duration>48</duration>
        <type>eighth</type>
        <accidental>sharp</accidental>
        <lyric>
          <syllabic>begin</syllabic>
          <text>am</text>
        </lyric>
      </note>
      <note>
        <pitch>
          <step>B</step>
          <octave>4</octave>
        </pitch>
        <duration>24</duration>
        <type>16th</type>
        <accidental>slash-flat</accidental>
        <lyric>
          <text></text>
        </lyric>
      </note>
      <note>
        <pitch>
          <step>A</step>
          <octave>4</octave>
        </pitch>
        <duration>24</duration>
        <type>16th</type>
        <lyric>
          <text></text>
        </lyric>
      </note>
      <note>
        <pitch>
          <step>D</step>
          <octave>5</octave>
        </pitch>
        <duration>24</duration>
        <type>16th</type>
        <lyric>
          <syllabic>end</syllabic>
          <text>man  </text>
          <end-line/>
        </lyric>
      </note>
      <note>
        <pitch>
          <step>C</step>
          <alter>+1</alter>
          <octave>5</octave>
        </pitch>
        <duration>24</duration>
        <type>16th</type>
        <accidental>sharp</accidental>
        <lyric>
          <text></text>
        </lyric>
      </note>
      <note>
        <pitch>
          <step>B</step>
          <octave>4</octave>
        </pitch>
        <duration>24</duration>
        <type>16th</type>
        <accidental>slash-flat</accidental>
        <lyric>
          <text></text>
        </lyric>
      </note>
      <note>
        <pitch>
          <step>A</step>
          <octave>4</octave>
        </pitch>
        <duration>24</duration>
        <type>16th</type>
        <lyric>
          <text></text>
        </lyric>
      </note>
      <note>
        <pitch>
          <step>G</step>
          <octave>4</octave>
        </pitch>
        <duration>24</duration>
        <type>16th</type>
        <lyric>
          <text></text>
        </lyric>
      </note>
      <note>
        <pitch>
          <step>F</step>
          <alter>+1</alter>
          <octave>4</octave>
        </pitch>
        <duration>24</duration>
        <type>16th</type>
        <accidental>sharp</accidental>
        <lyric>
          <text></text>
        </lyric>
      </note>
    </measure>
    <measure number="20">
      <attributes/>
      <note>
        <pitch>
          <step>G</step>
          <octave>4</octave>
        </pitch>
        <duration>96</duration>
        <type>quarter</type>
        <lyric name="VOCAL_SECTION">
          <text></text>
        </lyric>
      </note>
      <note>
        <pitch>
          <step>F</step>
          <alter>+1</alter>
          <octave>4</octave>
        </pitch>
        <duration>48</duration>
        <type>eighth</type>
        <accidental>sharp</accidental>
        <lyric>
          <syllabic>begin</syllabic>
          <text>Naz</text>
        </lyric>
      </note>
      <note>
        <pitch>
          <step>G</step>
          <octave>4</octave>
        </pitch>
        <duration>48</duration>
        <type>eighth</type>
        <lyric>
          <syllabic>end</syllabic>
          <text>lı </text>
        </lyric>
      </note>
      <note>
        <pitch>
          <step>A</step>
          <octave>4</octave>
        </pitch>
        <duration>96</duration>
        <type>quarter</type>
        <lyric>
          <syllabic>begin</syllabic>
          <text>yâ</text>
        </lyric>
      </note>
      <note>
        <pitch>
          <step>A</step>
          <octave>4</octave>
        </pitch>
        <duration>144</duration>
        <type>quarter</type>
        <dot/>
        <lyric>
          <syllabic>end</syllabic>
          <text>rim </text>
        </lyric>
      </note>
    </measure>
    <measure number="21">
      <attributes/>
      <note>
        <pitch>
          <step>G</step>
          <octave>5</octave>
        </pitch>
        <duration>48</duration>
        <type>eighth</type>
        <lyric>
          <syllabic>begin</syllabic>
          <text>ge</text>
        </lyric>
      </note>
      <note>
        <pitch>
          <step>G</step>
          <octave>5</octave>
        </pitch>
        <duration>48</duration>
        <type>eighth</type>
        <lyric>
          <syllabic>end</syllabic>
          <text>li </text>
        </lyric>
      </note>
      <note>
        <pitch>
          <step>G</step>
          <octave>5</octave>
        </pitch>
        <duration>48</duration>
        <type>eighth</type>
        <lyric>
          <syllabic>begin</syllabic>
          <text>ge</text>
        </lyric>
      </note>
      <note>
        <pitch>
          <step>F</step>
          <alter>+1</alter>
          <octave>5</octave>
        </pitch>
        <duration>48</duration>
        <type>eighth</type>
        <accidental>sharp</accidental>
        <lyric>
          <syllabic>end</syllabic>
          <text>li</text>
        </lyric>
      </note>
      <note>
        <pitch>
          <step>F</step>
          <alter>+1</alter>
          <octave>5</octave>
        </pitch>
        <duration>48</duration>
        <type>eighth</type>
        <accidental>sharp</accidental>
        <lyric>
          <syllabic>begin</syllabic>
          <text>ver</text>
        </lyric>
      </note>
      <note>
        <pitch>
          <step>E</step>
          <octave>5</octave>
        </pitch>
        <duration>24</duration>
        <type>16th</type>
        <lyric>
          <text></text>
        </lyric>
      </note>
      <note>
        <pitch>
          <step>F</step>
          <alter>+1</alter>
          <octave>5</octave>
        </pitch>
        <duration>24</duration>
        <type>16th</type>
        <accidental>sharp</accidental>
        <lyric>
          <text></text>
        </lyric>
      </note>
      <note>
        <pitch>
          <step>A</step>
          <octave>5</octave>
        </pitch>
        <duration>24</duration>
        <type>16th</type>
        <lyric>
          <syllabic>end</syllabic>
          <text>miş </text>
        </lyric>
      </note>
      <note>
        <pitch>
          <step>G</step>
          <octave>5</octave>
        </pitch>
        <duration>24</duration>
        <type>16th</type>
        <lyric>
          <text></text>
        </lyric>
      </note>
      <note>
        <pitch>
          <step>F</step>
          <octave>5</octave>
        </pitch>
        <duration>24</duration>
        <type>16th</type>
        <lyric>
          <text></text>
        </lyric>
      </note>
      <note>
        <pitch>
          <step>E</step>
          <octave>5</octave>
        </pitch>
        <duration>24</duration>
        <type>16th</type>
        <lyric>
          <text></text>
        </lyric>
      </note>
      <note>
        <pitch>
          <step>D</step>
          <octave>5</octave>
        </pitch>
        <duration>48</duration>
        <type>eighth</type>
        <lyric>
          <text></text>
        </lyric>
      </note>
    </measure>
    <measure number="22">
      <attributes/>
      <note>
        <pitch>
          <step>E</step>
          <octave>5</octave>
        </pitch>
        <duration>48</duration>
        <type>eighth</type>
        <lyric>
          <syllabic>single</syllabic>
          <text>sol </text>
        </lyric>
      </note>
      <note>
        <pitch>
          <step>F</step>
          <octave>5</octave>
        </pitch>
        <duration>24</duration>
        <type>16th</type>
        <lyric>
          <text></text>
        </lyric>
      </note>
      <note>
        <pitch>
          <step>G</step>
          <octave>5</octave>
        </pitch>
        <duration>24</duration>
        <type>16th</type>
        <lyric>
          <text></text>
        </lyric>
      </note>
      <note>
        <pitch>
          <step>E</step>
          <octave>5</octave>
        </pitch>
        <duration>48</duration>
        <type>eighth</type>
        <lyric>
          <syllabic>begin</syllabic>
          <text>di</text>
        </lyric>
      </note>
      <note>
        <pitch>
          <step>D</step>
          <octave>5</octave>
        </pitch>
        <duration>48</duration>
        <type>eighth</type>
        <lyric>
          <syllabic>end</syllabic>
          <text>zin_</text>
        </lyric>
      </note>
      <note>
        <pitch>
          <step>C</step>
          <alter>+1</alter>
          <octave>5</octave>
        </pitch>
        <duration>48</duration>
        <type>eighth</type>
        <accidental>sharp</accidental>
        <lyric>
          <syllabic>begin</syllabic>
          <text>üs</text>
        </lyric>
      </note>
      <note>
        <pitch>
          <step>B</step>
          <octave>4</octave>
        </pitch>
        <duration>48</duration>
        <type>eighth</type>
        <accidental>slash-flat</accidental>
        <lyric>
          <text></text>
        </lyric>
      </note>
      <note>
        <pitch>
          <step>D</step>
          <octave>5</octave>
        </pitch>
        <duration>24</duration>
        <type>16th</type>
        <lyric>
          <syllabic>end</syllabic>
          <text>tü</text>
        </lyric>
      </note>
      <note>
        <pitch>
          <step>C</step>
          <alter>+1</alter>
          <octave>5</octave>
        </pitch>
        <duration>24</duration>
        <type>16th</type>
        <accidental>sharp</accidental>
        <lyric>
          <text></text>
        </lyric>
      </note>
      <note>
        <pitch>
          <step>B</step>
          <octave>4</octave>
        </pitch>
        <duration>48</duration>
        <type>eighth</type>
        <accidental>slash-flat</accidental>
        <lyric>
          <text></text>
        </lyric>
      </note>
      <note>
        <pitch>
          <step>B</step>
          <octave>4</octave>
        </pitch>
        <duration>24</duration>
        <type>16th</type>
        <accidental>slash-flat</accidental>
        <lyric>
          <text></text>
        </lyric>
      </note>
      <note>
        <pitch>
          <step>A</step>
          <octave>4</octave>
        </pitch>
        <duration>24</duration>
        <type>16th</type>
        <lyric>
          <text>200</text>
        </lyric>
      </note>
    </measure>
    <measure number="23">
      <attributes/>
      <note>
        <pitch>
          <step>A</step>
          <octave>4</octave>
        </pitch>
        <duration>144</duration>
        <type>quarter</type>
        <dot/>
        <lyric>
          <syllabic>single</syllabic>
          <text>ne  </text>
          <end-line/>
        </lyric>
      </note>
      <note>
        <pitch>
          <step>E</step>
          <octave>5</octave>
        </pitch>
        <duration>24</duration>
        <type>16th</type>
        <lyric name="SAZ">
          <text>SAZ</text>
        </lyric>
      </note>
      <note>
        <pitch>
          <step>F</step>
          <octave>5</octave>
        </pitch>
        <duration>24</duration>
        <type>16th</type>
        <lyric>
          <text>.</text>
        </lyric>
      </note>
      <note>
        <pitch>
          <step>E</step>
          <octave>5</octave>
        </pitch>
        <duration>24</duration>
        <type>16th</type>
        <lyric>
          <text>.</text>
        </lyric>
      </note>
      <note>
        <pitch>
          <step>D</step>
          <octave>5</octave>
        </pitch>
        <duration>24</duration>
        <type>16th</type>
        <lyric>
          <text>.</text>
        </lyric>
      </note>
      <note>
        <pitch>
          <step>C</step>
          <alter>+1</alter>
          <octave>5</octave>
        </pitch>
        <duration>24</duration>
        <type>16th</type>
        <accidental>sharp</accidental>
        <lyric>
          <text>.</text>
        </lyric>
      </note>
      <note>
        <pitch>
          <step>D</step>
          <octave>5</octave>
        </pitch>
        <duration>24</duration>
        <type>16th</type>
        <lyric>
          <text>.</text>
        </lyric>
      </note>
      <note>
        <pitch>
          <step>E</step>
          <octave>5</octave>
        </pitch>
        <duration>72</duration>
        <type>eighth</type>
        <dot/>
        <lyric>
          <text>.</text>
        </lyric>
      </note>
      <note>
        <pitch>
          <step>F</step>
          <octave>5</octave>
        </pitch>
        <duration>24</duration>
        <type>16th</type>
        <lyric>
          <text>.</text>
        </lyric>
      </note>
      <note>
        <pitch>
          <step>E</step>
          <octave>5</octave>
        </pitch>
        <duration>24</duration>
        <type>16th</type>
        <lyric>
          <text>.</text>
        </lyric>
      </note>
      <note>
        <pitch>
          <step>D</step>
          <octave>5</octave>
        </pitch>
        <duration>24</duration>
        <type>16th</type>
        <lyric>
          <text>.</text>
        </lyric>
      </note>
    </measure>
    <measure number="24">
      <attributes/>
      <note>
        <pitch>
          <step>E</step>
          <octave>5</octave>
        </pitch>
        <duration>96</duration>
        <type>quarter</type>
        <lyric name="VOCAL_SECTION">
          <text>.</text>
        </lyric>
      </note>
      <note>
        <pitch>
          <step>C</step>
          <alter>+1</alter>
          <octave>5</octave>
        </pitch>
        <duration>48</duration>
        <type>eighth</type>
        <accidental>sharp</accidental>
        <lyric>
          <syllabic>begin</syllabic>
          <text>Gö</text>
        </lyric>
      </note>
      <note>
        <pitch>
          <step>D</step>
          <octave>5</octave>
        </pitch>
        <duration>48</duration>
        <type>eighth</type>
        <lyric>
          <syllabic>end</syllabic>
          <text>zün </text>
        </lyric>
      </note>
      <note>
        <pitch>
          <step>E</step>
          <octave>5</octave>
        </pitch>
        <duration>96</duration>
        <type>quarter</type>
        <lyric>
          <syllabic>begin</syllabic>
          <text>ya</text>
        </lyric>
      </note>
      <note>
        <pitch>
          <step>E</step>
          <octave>5</octave>
        </pitch>
        <duration>144</duration>
        <type>quarter</type>
        <dot/>
        <lyric>
          <syllabic>end</syllabic>
          <text>şı </text>
        </lyric>
      </note>
    </measure>
    <measure number="25">
      <attributes/>
      <note>
        <pitch>
          <step>E</step>
          <octave>5</octave>
        </pitch>
        <duration>96</duration>
        <type>quarter</type>
        <lyric>
          <syllabic>begin</syllabic>
          <text>dur</text>
        </lyric>
      </note>
      <note>
        <pitch>
          <step>E</step>
          <octave>5</octave>
        </pitch>
        <duration>48</duration>
        <type>eighth</type>
        <lyric>
          <syllabic>end</syllabic>
          <text>maz </text>
        </lyric>
      </note>
      <note>
        <pitch>
          <step>G</step>
          <octave>5</octave>
        </pitch>
        <duration>48</duration>
        <type>eighth</type>
        <lyric>
          <text></text>
        </lyric>
      </note>
      <note>
        <pitch>
          <step>F</step>
          <octave>5</octave>
        </pitch>
        <duration>48</duration>
        <type>eighth</type>
        <lyric>
          <syllabic>begin</syllabic>
          <text>a</text>
        </lyric>
      </note>
      <note>
        <pitch>
          <step>E</step>
          <octave>5</octave>
        </pitch>
        <duration>48</duration>
        <type>eighth</type>
        <lyric>
          <text></text>
        </lyric>
      </note>
      <note>
        <pitch>
          <step>D</step>
          <octave>5</octave>
        </pitch>
        <duration>96</duration>
        <type>quarter</type>
        <lyric>
          <syllabic>end</syllabic>
          <text>kar </text>
        </lyric>
      </note>
      <note>
        <pitch>
          <step>C</step>
          <alter>+1</alter>
          <octave>5</octave>
        </pitch>
        <duration>48</duration>
        <type>eighth</type>
        <accidental>sharp</accidental>
        <lyric>
          <text></text>
        </lyric>
      </note>
    </measure>
    <measure number="26">
      <attributes/>
      <note>
        <pitch>
          <step>D</step>
          <octave>5</octave>
        </pitch>
        <duration>96</duration>
        <type>quarter</type>
        <lyric>
          <syllabic>single</syllabic>
          <text>gül </text>
        </lyric>
      </note>
      <note>
        <pitch>
          <step>E</step>
          <octave>5</octave>
        </pitch>
        <duration>48</duration>
        <type>eighth</type>
        <lyric>
          <syllabic>begin</syllabic>
          <text>yü</text>
        </lyric>
      </note>
      <note>
        <pitch>
          <step>F</step>
          <alter>+1</alter>
          <octave>5</octave>
        </pitch>
        <duration>48</duration>
        <type>eighth</type>
        <accidental>sharp</accidental>
        <lyric>
          <syllabic>end</syllabic>
          <text>zün_</text>
        </lyric>
      </note>
      <note>
        <pitch>
          <step>G</step>
          <octave>5</octave>
        </pitch>
        <duration>96</duration>
        <type>quarter</type>
        <lyric>
          <syllabic>begin</syllabic>
          <text>üs</text>
        </lyric>
      </note>
      <note>
        <pitch>
          <step>F</step>
          <alter>+1</alter>
          <octave>5</octave>
        </pitch>
        <duration>96</duration>
        <type>quarter</type>
        <accidental>sharp</accidental>
        <lyric>
          <syllabic>end</syllabic>
          <text>tü</text>
        </lyric>
      </note>
      <note>
        <pitch>
          <step>E</step>
          <octave>5</octave>
        </pitch>
        <duration>48</duration>
        <type>eighth</type>
        <lyric>
          <syllabic>single</syllabic>
          <text>ne  </text>
          <end-line/>
        </lyric>
      </note>
    </measure>
    <measure number="27">
      <attributes/>
      <note>
        <pitch>
          <step>A</step>
          <octave>5</octave>
        </pitch>
        <duration>144</duration>
        <type>quarter</type>
        <dot/>
        <lyric name="VOCAL_SECTION">
          <syllabic>begin</syllabic>
          <text>hey_</text>
        </lyric>
      </note>
      <note>
        <pitch>
          <step>G</step>
          <octave>5</octave>
        </pitch>
        <duration>48</duration>
        <type>eighth</type>
        <lyric>
          <syllabic>end</syllabic>
          <text>a</text>
        </lyric>
      </note>
      <note>
        <pitch>
          <step>F</step>
          <alter>+1</alter>
          <octave>5</octave>
        </pitch>
        <duration>48</duration>
        <type>eighth</type>
        <accidental>sharp</accidental>
        <lyric>
          <syllabic>begin</syllabic>
          <text>man_</text>
        </lyric>
      </note>
      <note>
        <pitch>
          <step>E</step>
          <octave>5</octave>
        </pitch>
        <duration>24</duration>
        <type>16th</type>
        <lyric>
          <text></text>
        </lyric>
      </note>
      <note>
        <pitch>
          <step>F</step>
          <alter>+1</alter>
          <octave>5</octave>
        </pitch>
        <duration>24</duration>
        <type>16th</type>
        <accidental>sharp</accidental>
        <lyric>
          <text></text>
        </lyric>
      </note>
      <note>
        <pitch>
          <step>G</step>
          <octave>5</octave>
        </pitch>
        <duration>96</duration>
        <type>quarter</type>
        <lyric>
          <text></text>
        </lyric>
      </note>
      <note>
        <pitch>
          <step>F</step>
          <alter>+1</alter>
          <octave>5</octave>
        </pitch>
        <duration>24</duration>
        <type>16th</type>
        <accidental>sharp</accidental>
        <lyric>
          <syllabic>end</syllabic>
          <text>a</text>
        </lyric>
      </note>
      <note>
        <pitch>
          <step>E</step>
          <octave>5</octave>
        </pitch>
        <duration>24</duration>
        <type>16th</type>
        <lyric>
          <text></text>
        </lyric>
      </note>
    </measure>
    <measure number="28">
      <attributes/>
      <note>
        <pitch>
          <step>E</step>
          <octave>5</octave>
        </pitch>
        <duration>144</duration>
        <type>quarter</type>
        <dot/>
        <lyric>
          <syllabic>single</syllabic>
          <text>man  </text>
          <end-line/>
        </lyric>
      </note>
      <note>
        <pitch>
          <step>E</step>
          <octave>5</octave>
        </pitch>
        <duration>24</duration>
        <type>16th</type>
        <lyric name="SAZ">
          <text>SAZ</text>
        </lyric>
      </note>
      <note>
        <pitch>
          <step>F</step>
          <octave>5</octave>
        </pitch>
        <duration>24</duration>
        <type>16th</type>
        <lyric>
          <text>.</text>
        </lyric>
      </note>
      <note>
        <pitch>
          <step>E</step>
          <octave>5</octave>
        </pitch>
        <duration>24</duration>
        <type>16th</type>
        <lyric>
          <text>.</text>
        </lyric>
      </note>
      <note>
        <pitch>
          <step>D</step>
          <octave>5</octave>
        </pitch>
        <duration>24</duration>
        <type>16th</type>
        <lyric>
          <text>.</text>
        </lyric>
      </note>
      <note>
        <pitch>
          <step>C</step>
          <alter>+1</alter>
          <octave>5</octave>
        </pitch>
        <duration>24</duration>
        <type>16th</type>
        <accidental>sharp</accidental>
        <lyric>
          <text>.</text>
        </lyric>
      </note>
      <note>
        <pitch>
          <step>D</step>
          <octave>5</octave>
        </pitch>
        <duration>24</duration>
        <type>16th</type>
        <lyric>
          <text>.</text>
        </lyric>
      </note>
      <note>
        <pitch>
          <step>E</step>
          <octave>5</octave>
        </pitch>
        <duration>72</duration>
        <type>eighth</type>
        <dot/>
        <lyric>
          <text>.</text>
        </lyric>
      </note>
      <note>
        <pitch>
          <step>F</step>
          <octave>5</octave>
        </pitch>
        <duration>24</duration>
        <type>16th</type>
        <lyric>
          <text>.</text>
        </lyric>
      </note>
      <note>
        <pitch>
          <step>E</step>
          <octave>5</octave>
        </pitch>
        <duration>24</duration>
        <type>16th</type>
        <lyric>
          <text>.</text>
        </lyric>
      </note>
      <note>
        <pitch>
          <step>D</step>
          <octave>5</octave>
        </pitch>
        <duration>24</duration>
        <type>16th</type>
        <lyric>
          <text>.</text>
        </lyric>
      </note>
    </measure>
    <measure number="29">
      <attributes/>
      <note>
        <pitch>
          <step>E</step>
          <octave>5</octave>
        </pitch>
        <duration>96</duration>
        <type>quarter</type>
        <lyric name="VOCAL_SECTION">
          <text>.</text>
        </lyric>
      </note>
      <note>
        <pitch>
          <step>C</step>
          <alter>+1</alter>
          <octave>5</octave>
        </pitch>
        <duration>48</duration>
        <type>eighth</type>
        <accidental>sharp</accidental>
        <lyric>
          <syllabic>begin</syllabic>
          <text>250</text>
        </lyric>
      </note>
      <note>
        <pitch>
          <step>D</step>
          <octave>5</octave>
        </pitch>
        <duration>48</duration>
        <type>eighth</type>
        <lyric>
          <syllabic>end</syllabic>
          <text>zün </text>
        </lyric>
      </note>
      <note>
        <pitch>
          <step>E</step>
          <octave>5</octave>
        </pitch>
        <duration>96</duration>
        <type>quarter</type>
        <lyric>
          <syllabic>begin</syllabic>
          <text>ya</text>
        </lyric>
      </note>
      <note>
        <pitch>
          <step>E</step>
          <octave>5</octave>
        </pitch>
        <duration>144</duration>
        <type>quarter</type>
        <dot/>
        <lyric>
          <syllabic>end</syllabic>
          <text>şı </text>
        </lyric>
      </note>
    </measure>
    <measure number="30">
      <attributes/>
      <note>
        <pitch>
          <step>E</step>
          <octave>5</octave>
        </pitch>
        <duration>96</duration>
        <type>quarter</type>
        <lyric>
          <syllabic>begin</syllabic>
          <text>dur</text>
        </lyric>
      </note>
      <note>
        <pitch>
          <step>E</step>
          <octave>5</octave>
        </pitch>
        <duration>48</duration>
        <type>eighth</type>
        <lyric>
          <syllabic>end</syllabic>
          <text>maz </text>
        </lyric>
      </note>
      <note>
        <pitch>
          <step>G</step>
          <octave>5</octave>
        </pitch>
        <duration>48</duration>
        <type>eighth</type>
        <lyric>
          <text></text>
        </lyric>
      </note>
      <note>
        <pitch>
          <step>F</step>
          <octave>5</octave>
        </pitch>
        <duration>48</duration>
        <type>eighth</type>
        <lyric>
          <syllabic>begin</syllabic>
          <text>a</text>
        </lyric>
      </note>
      <note>
        <pitch>
          <step>E</step>
          <octave>5</octave>
        </pitch>
        <duration>48</duration>
        <type>eighth</type>
        <lyric>
          <text></text>
        </lyric>
      </note>
      <note>
        <pitch>
          <step>D</step>
          <octave>5</octave>
        </pitch>
        <duration>96</duration>
        <type>quarter</type>
        <lyric>
          <syllabic>end</syllabic>
          <text>kar </text>
        </lyric>
      </note>
      <note>
        <pitch>
          <step>C</step>
          <alter>+1</alter>
          <octave>5</octave>
        </pitch>
        <duration>48</duration>
        <type>eighth</type>
        <accidental>sharp</accidental>
        <lyric>
          <text></text>
        </lyric>
      </note>
    </measure>
    <measure number="31">
      <attributes/>
      <note>
        <pitch>
          <step>D</step>
          <octave>5</octave>
        </pitch>
        <duration>96</duration>
        <type>quarter</type>
        <lyric>
          <syllabic>single</syllabic>
          <text>gül </text>
        </lyric>
      </note>
      <note>
        <pitch>
          <step>E</step>
          <octave>5</octave>
        </pitch>
        <duration>48</duration>
        <type>eighth</type>
        <lyric>
          <syllabic>begin</syllabic>
          <text>yü</text>
        </lyric>
      </note>
      <note>
        <pitch>
          <step>F</step>
          <alter>+1</alter>
          <octave>5</octave>
        </pitch>
        <duration>48</duration>
        <type>eighth</type>
        <accidental>sharp</accidental>
        <lyric>
          <syllabic>end</syllabic>
          <text>zün_</text>
        </lyric>
      </note>
      <note>
        <pitch>
          <step>G</step>
          <octave>5</octave>
        </pitch>
        <duration>96</duration>
        <type>quarter</type>
        <lyric>
          <syllabic>begin</syllabic>
          <text>üs</text>
        </lyric>
      </note>
      <note>
        <pitch>
          <step>F</step>
          <alter>+1</alter>
          <octave>5</octave>
        </pitch>
        <duration>96</duration>
        <type>quarter</type>
        <accidental>sharp</accidental>
        <lyric>
          <syllabic>end</syllabic>
          <text>tü</text>
        </lyric>
      </note>
      <note>
        <pitch>
          <step>E</step>
          <octave>5</octave>
        </pitch>
        <duration>48</duration>
        <type>eighth</type>
        <lyric>
          <syllabic>single</syllabic>
          <text>ne  </text>
          <end-line/>
        </lyric>
      </note>
    </measure>
    <measure number="32">
      <attributes/>
      <note>
        <pitch>
          <step>A</step>
          <octave>5</octave>
        </pitch>
        <duration>144</duration>
        <type>quarter</type>
        <dot/>
        <lyric name="VOCAL_SECTION">
          <syllabic>begin</syllabic>
          <text>hey_</text>
        </lyric>
      </note>
      <note>
        <pitch>
          <step>G</step>
          <octave>5</octave>
        </pitch>
        <duration>48</duration>
        <type>eighth</type>
        <lyric>
          <syllabic>end</syllabic>
          <text>a</text>
        </lyric>
      </note>
      <note>
        <pitch>
          <step>F</step>
          <alter>+1</alter>
          <octave>5</octave>
        </pitch>
        <duration>48</duration>
        <type>eighth</type>
        <accidental>sharp</accidental>
        <lyric>
          <syllabic>begin</syllabic>
          <text>man_</text>
        </lyric>
      </note>
      <note>
        <pitch>
          <step>E</step>
          <octave>5</octave>
        </pitch>
        <duration>24</duration>
        <type>16th</type>
        <lyric>
          <text></text>
        </lyric>
      </note>
      <note>
        <pitch>
          <step>F</step>
          <alter>+1</alter>
          <octave>5</octave>
        </pitch>
        <duration>24</duration>
        <type>16th</type>
        <accidental>sharp</accidental>
        <lyric>
          <text></text>
        </lyric>
      </note>
      <note>
        <pitch>
          <step>G</step>
          <octave>5</octave>
        </pitch>
        <duration>96</duration>
        <type>quarter</type>
        <lyric>
          <text></text>
        </lyric>
      </note>
      <note>
        <pitch>
          <step>F</step>
          <alter>+1</alter>
          <octave>5</octave>
        </pitch>
        <duration>24</duration>
        <type>16th</type>
        <accidental>sharp</accidental>
        <lyric>
          <syllabic>end</syllabic>
          <text>a</text>
        </lyric>
      </note>
      <note>
        <pitch>
          <step>E</step>
          <octave>5</octave>
        </pitch>
        <duration>24</duration>
        <type>16th</type>
        <lyric>
          <text></text>
        </lyric>
      </note>
    </measure>
    <measure number="33">
      <attributes/>
      <note>
        <pitch>
          <step>E</step>
          <octave>5</octave>
        </pitch>
        <duration>144</duration>
        <type>quarter</type>
        <dot/>
        <lyric>
          <syllabic>single</syllabic>
          <text>man  </text>
          <end-line/>
        </lyric>
      </note>
      <note>
        <pitch>
          <step>E</step>
          <octave>5</octave>
        </pitch>
        <duration>24</duration>
        <type>16th</type>
        <lyric name="SAZ">
          <text>SAZ</text>
        </lyric>
      </note>
      <note>
        <pitch>
          <step>F</step>
          <octave>5</octave>
        </pitch>
        <duration>24</duration>
        <type>16th</type>
        <lyric>
          <text>.</text>
        </lyric>
      </note>
      <note>
        <pitch>
          <step>E</step>
          <octave>5</octave>
        </pitch>
        <duration>24</duration>
        <type>16th</type>
        <lyric>
          <text>.</text>
        </lyric>
      </note>
      <note>
        <pitch>
          <step>D</step>
          <octave>5</octave>
        </pitch>
        <duration>24</duration>
        <type>16th</type>
        <lyric>
          <text>.</text>
        </lyric>
      </note>
      <note>
        <pitch>
          <step>C</step>
          <alter>+1</alter>
          <octave>5</octave>
        </pitch>
        <duration>24</duration>
        <type>16th</type>
        <accidental>sharp</accidental>
        <lyric>
          <text>.</text>
        </lyric>
      </note>
      <note>
        <pitch>
          <step>D</step>
          <octave>5</octave>
        </pitch>
        <duration>24</duration>
        <type>16th</type>
        <lyric>
          <text>.</text>
        </lyric>
      </note>
      <note>
        <pitch>
          <step>E</step>
          <octave>5</octave>
        </pitch>
        <duration>72</duration>
        <type>eighth</type>
        <dot/>
        <lyric>
          <text>.</text>
        </lyric>
      </note>
      <note>
        <pitch>
          <step>F</step>
          <octave>5</octave>
        </pitch>
        <duration>24</duration>
        <type>16th</type>
        <lyric>
          <text>.</text>
        </lyric>
      </note>
      <note>
        <pitch>
          <step>E</step>
          <octave>5</octave>
        </pitch>
        <duration>24</duration>
        <type>16th</type>
        <lyric>
          <text>.</text>
        </lyric>
      </note>
      <note>
        <pitch>
          <step>D</step>
          <octave>5</octave>
        </pitch>
        <duration>24</duration>
        <type>16th</type>
        <lyric>
          <text>.</text>
        </lyric>
      </note>
    </measure>
    <measure number="34">
      <attributes/>
      <note>
        <pitch>
          <step>E</step>
          <octave>5</octave>
        </pitch>
        <duration>96</duration>
        <type>quarter</type>
        <lyric name="VOCAL_SECTION">
          <text>.</text>
        </lyric>
      </note>
      <note>
        <pitch>
          <step>A</step>
          <octave>5</octave>
        </pitch>
        <duration>48</duration>
        <type>eighth</type>
        <lyric>
          <syllabic>single</syllabic>
          <text>O </text>
        </lyric>
      </note>
      <note>
        <pitch>
          <step>A</step>
          <octave>5</octave>
        </pitch>
        <duration>48</duration>
        <type>eighth</type>
        <lyric>
          <syllabic>single</syllabic>
          <text>da </text>
        </lyric>
      </note>
      <note>
        <pitch>
          <step>A</step>
          <octave>5</octave>
        </pitch>
        <duration>96</duration>
        <type>quarter</type>
        <lyric>
          <syllabic>begin</syllabic>
          <text>be</text>
        </lyric>
      </note>
      <note>
        <pitch>
          <step>A</step>
          <octave>5</octave>
        </pitch>
        <duration>96</duration>
        <type>quarter</type>
        <lyric>
          <syllabic>end</syllabic>
          <text>nim </text>
        </lyric>
      </note>
      <note>
        <pitch>
          <step>G</step>
          <octave>5</octave>
        </pitch>
        <duration>48</duration>
        <type>eighth</type>
        <lyric>
          <text></text>
        </lyric>
      </note>
    </measure>
    <measure number="35">
      <attributes/>
      <note>
        <pitch>
          <step>G</step>
          <octave>5</octave>
        </pitch>
        <duration>96</duration>
        <type>quarter</type>
        <lyric>
          <syllabic>begin</syllabic>
          <text>naz</text>
        </lyric>
      </note>
      <note>
        <pitch>
          <step>G</step>
          <octave>5</octave>
        </pitch>
        <duration>48</duration>
        <type>eighth</type>
        <lyric>
          <syllabic>end</syllabic>
          <text>lı </text>
        </lyric>
      </note>
      <note>
        <pitch>
          <step>G</step>
          <octave>5</octave>
        </pitch>
        <duration>24</duration>
        <type>16th</type>
        <lyric>
          <syllabic>single</syllabic>
          <text>da </text>
        </lyric>
      </note>
      <note>
        <pitch>
          <step>F</step>
          <alter>+1</alter>
          <octave>5</octave>
        </pitch>
        <duration>24</duration>
        <type>16th</type>
        <accidental>sharp</accidental>
        <lyric>
          <text></text>
        </lyric>
      </note>
      <note>
        <pitch>
          <step>F</step>
          <alter>+1</alter>
          <octave>5</octave>
        </pitch>
        <duration>48</duration>
        <type>eighth</type>
        <accidental>sharp</accidental>
        <lyric>
          <syllabic>begin</syllabic>
          <text>yâ</text>
        </lyric>
      </note>
      <note>
        <pitch>
          <step>E</step>
          <octave>5</octave>
        </pitch>
        <duration>24</duration>
        <type>16th</type>
        <lyric>
          <text></text>
        </lyric>
      </note>
      <note>
        <pitch>
          <step>F</step>
          <alter>+1</alter>
          <octave>5</octave>
        </pitch>
        <duration>24</duration>
        <type>16th</type>
        <accidental>sharp</accidental>
        <lyric>
          <text></text>
        </lyric>
      </note>
      <note>
        <pitch>
          <step>A</step>
          <octave>5</octave>
        </pitch>
        <duration>24</duration>
        <type>16th</type>
        <lyric>
          <syllabic>end</syllabic>
          <text>rim </text>
        </lyric>
      </note>
      <note>
        <pitch>
          <step>G</step>
          <octave>5</octave>
        </pitch>
        <duration>24</duration>
        <type>16th</type>
        <lyric>
          <text>300</text>
        </lyric>
      </note>
      <note>
        <pitch>
          <step>F</step>
          <octave>5</octave>
        </pitch>
        <duration>24</duration>
        <type>16th</type>
        <lyric>
          <text></text>
        </lyric>
      </note>
      <note>
        <pitch>
          <step>E</step>
          <octave>5</octave>
        </pitch>
        <duration>24</duration>
        <type>16th</type>
        <lyric>
          <text></text>
        </lyric>
      </note>
      <note>
        <pitch>
          <step>D</step>
          <octave>5</octave>
        </pitch>
        <duration>48</duration>
        <type>eighth</type>
        <lyric>
          <text></text>
        </lyric>
      </note>
    </measure>
    <measure number="36">
      <attributes/>
      <note>
        <pitch>
          <step>E</step>
          <octave>5</octave>
        </pitch>
        <duration>48</duration>
        <type>eighth</type>
        <lyric>
          <syllabic>single</syllabic>
          <text>ne </text>
        </lyric>
      </note>
      <note>
        <pitch>
          <step>F</step>
          <octave>5</octave>
        </pitch>
        <duration>24</duration>
        <type>16th</type>
        <lyric>
          <text></text>
        </lyric>
      </note>
      <note>
        <pitch>
          <step>G</step>
          <octave>5</octave>
        </pitch>
        <duration>24</duration>
        <type>16th</type>
        <lyric>
          <text></text>
        </lyric>
      </note>
      <note>
        <pitch>
          <step>E</step>
          <octave>5</octave>
        </pitch>
        <duration>48</duration>
        <type>eighth</type>
        <lyric>
          <syllabic>begin</syllabic>
          <text>ol</text>
        </lyric>
      </note>
      <note>
        <pitch>
          <step>D</step>
          <octave>5</octave>
        </pitch>
        <duration>48</duration>
        <type>eighth</type>
        <lyric>
          <text></text>
        </lyric>
      </note>
      <note>
        <pitch>
          <step>C</step>
          <alter>+1</alter>
          <octave>5</octave>
        </pitch>
        <duration>48</duration>
        <type>eighth</type>
        <accidental>sharp</accidental>
        <lyric>
          <syllabic>end</syllabic>
          <text>du </text>
        </lyric>
      </note>
      <note>
        <pitch>
          <step>B</step>
          <octave>4</octave>
        </pitch>
        <duration>48</duration>
        <type>eighth</type>
        <accidental>slash-flat</accidental>
        <lyric>
          <text></text>
        </lyric>
      </note>
      <note>
        <pitch>
          <step>A</step>
          <octave>4</octave>
        </pitch>
        <duration>96</duration>
        <type>quarter</type>
        <lyric>
          <syllabic>begin</syllabic>
          <text>sa</text>
        </lyric>
      </note>
      <note>
        <pitch>
          <step>A</step>
          <octave>4</octave>
        </pitch>
        <duration>48</duration>
        <type>eighth</type>
        <lyric>
          <syllabic>end</syllabic>
          <text>na  </text>
          <end-line/>
        </lyric>
      </note>
    </measure>
    <measure number="37">
      <attributes/>
      <note>
        <pitch>
          <step>B</step>
          <octave>4</octave>
        </pitch>
        <duration>48</duration>
        <type>eighth</type>
        <accidental>slash-flat</accidental>
        <lyric name="VOCAL_SECTION">
          <syllabic>begin</syllabic>
          <text>a</text>
        </lyric>
      </note>
      <note>
        <pitch>
          <step>A</step>
          <octave>4</octave>
        </pitch>
        <duration>48</duration>
        <type>eighth</type>
        <lyric>
          <syllabic>end</syllabic>
          <text>daş_</text>
        </lyric>
      </note>
      <note>
        <pitch>
          <step>B</step>
          <octave>4</octave>
        </pitch>
        <duration>48</duration>
        <type>eighth</type>
        <accidental>slash-flat</accidental>
        <lyric>
          <syllabic>begin</syllabic>
          <text>a</text>
        </lyric>
      </note>
      <note>
        <pitch>
          <step>D</step>
          <octave>5</octave>
        </pitch>
        <duration>48</duration>
        <type>eighth</type>
        <lyric>
          <syllabic>end</syllabic>
          <text>man </text>
        </lyric>
      </note>
      <note>
        <pitch>
          <step>C</step>
          <alter>+1</alter>
          <octave>5</octave>
        </pitch>
        <duration>48</duration>
        <type>eighth</type>
        <accidental>sharp</accidental>
        <lyric>
          <syllabic>begin</syllabic>
          <text>a</text>
        </lyric>
      </note>
      <note>
        <pitch>
          <step>B</step>
          <octave>4</octave>
        </pitch>
        <duration>24</duration>
        <type>16th</type>
        <accidental>slash-flat</accidental>
        <lyric>
          <text></text>
        </lyric>
      </note>
      <note>
        <pitch>
          <step>A</step>
          <octave>4</octave>
        </pitch>
        <duration>24</duration>
        <type>16th</type>
        <lyric>
          <text></text>
        </lyric>
      </note>
      <note>
        <pitch>
          <step>D</step>
          <octave>5</octave>
        </pitch>
        <duration>24</duration>
        <type>16th</type>
        <lyric>
          <syllabic>end</syllabic>
          <text>man  </text>
          <end-line/>
        </lyric>
      </note>
      <note>
        <pitch>
          <step>C</step>
          <alter>+1</alter>
          <octave>5</octave>
        </pitch>
        <duration>24</duration>
        <type>16th</type>
        <accidental>sharp</accidental>
        <lyric>
          <text></text>
        </lyric>
      </note>
      <note>
        <pitch>
          <step>B</step>
          <octave>4</octave>
        </pitch>
        <duration>24</duration>
        <type>16th</type>
        <accidental>slash-flat</accidental>
        <lyric>
          <text></text>
        </lyric>
      </note>
      <note>
        <pitch>
          <step>A</step>
          <octave>4</octave>
        </pitch>
        <duration>24</duration>
        <type>16th</type>
        <lyric>
          <text></text>
        </lyric>
      </note>
      <note>
        <pitch>
          <step>G</step>
          <octave>4</octave>
        </pitch>
        <duration>24</duration>
        <type>16th</type>
        <lyric>
          <text></text>
        </lyric>
      </note>
      <note>
        <pitch>
          <step>F</step>
          <alter>+1</alter>
          <octave>4</octave>
        </pitch>
        <duration>24</duration>
        <type>16th</type>
        <accidental>sharp</accidental>
        <lyric>
          <text></text>
        </lyric>
      </note>
    </measure>
    <measure number="38">
      <attributes/>
      <note>
        <pitch>
          <step>G</step>
          <octave>4</octave>
        </pitch>
        <duration>96</duration>
        <type>quarter</type>
        <lyric name="VOCAL_SECTION">
          <text></text>
        </lyric>
      </note>
      <note>
        <pitch>
          <step>F</step>
          <alter>+1</alter>
          <octave>4</octave>
        </pitch>
        <duration>48</duration>
        <type>eighth</type>
        <accidental>sharp</accidental>
        <lyric>
          <syllabic>begin</syllabic>
          <text>Şim</text>
        </lyric>
      </note>
      <note>
        <pitch>
          <step>G</step>
          <octave>4</octave>
        </pitch>
        <duration>48</duration>
        <type>eighth</type>
        <lyric>
          <syllabic>end</syllabic>
          <text>den </text>
        </lyric>
      </note>
      <note>
        <pitch>
          <step>A</step>
          <octave>4</octave>
        </pitch>
        <duration>96</duration>
        <type>quarter</type>
        <lyric>
          <syllabic>begin</syllabic>
          <text>ge</text>
        </lyric>
      </note>
      <note>
        <pitch>
          <step>A</step>
          <octave>4</octave>
        </pitch>
        <duration>144</duration>
        <type>quarter</type>
        <dot/>
        <lyric>
          <syllabic>end</syllabic>
          <text>ru </text>
        </lyric>
      </note>
    </measure>
    <measure number="39">
      <attributes/>
      <note>
        <pitch>
          <step>G</step>
          <octave>5</octave>
        </pitch>
        <duration>48</duration>
        <type>eighth</type>
        <lyric>
          <syllabic>begin</syllabic>
          <text>ha</text>
        </lyric>
      </note>
      <note>
        <pitch>
          <step>G</step>
          <octave>5</octave>
        </pitch>
        <duration>48</duration>
        <type>eighth</type>
        <lyric>
          <syllabic>end</syllabic>
          <text>ram_</text>
        </lyric>
      </note>
      <note>
        <pitch>
          <step>G</step>
          <octave>5</octave>
        </pitch>
        <duration>48</duration>
        <type>eighth</type>
        <lyric>
          <text></text>
        </lyric>
      </note>
      <note>
        <pitch>
          <step>F</step>
          <alter>+1</alter>
          <octave>5</octave>
        </pitch>
        <duration>48</duration>
        <type>eighth</type>
        <accidental>sharp</accidental>
        <lyric>
          <text></text>
        </lyric>
      </note>
      <note>
        <pitch>
          <step>F</step>
          <alter>+1</alter>
          <octave>5</octave>
        </pitch>
        <duration>48</duration>
        <type>eighth</type>
        <accidental>sharp</accidental>
        <lyric>
          <syllabic>begin</syllabic>
          <text>ol</text>
        </lyric>
      </note>
      <note>
        <pitch>
          <step>E</step>
          <octave>5</octave>
        </pitch>
        <duration>24</duration>
        <type>16th</type>
        <lyric>
          <text></text>
        </lyric>
      </note>
      <note>
        <pitch>
          <step>F</step>
          <alter>+1</alter>
          <octave>5</octave>
        </pitch>
        <duration>24</duration>
        <type>16th</type>
        <accidental>sharp</accidental>
        <lyric>
          <text></text>
        </lyric>
      </note>
      <note>
        <pitch>
          <step>A</step>
          <octave>5</octave>
        </pitch>
        <duration>24</duration>
        <type>16th</type>
        <lyric>
          <syllabic>end</syllabic>
          <text>sun </text>
        </lyric>
      </note>
      <note>
        <pitch>
          <step>G</step>
          <octave>5</octave>
        </pitch>
        <duration>24</duration>
        <type>16th</type>
        <lyric>
          <text></text>
        </lyric>
      </note>
      <note>
        <pitch>
          <step>F</step>
          <octave>5</octave>
        </pitch>
        <duration>24</duration>
        <type>16th</type>
        <lyric>
          <text></text>
        </lyric>
      </note>
      <note>
        <pitch>
          <step>E</step>
          <octave>5</octave>
        </pitch>
        <duration>24</duration>
        <type>16th</type>
        <lyric>
          <text></text>
        </lyric>
      </note>
      <note>
        <pitch>
          <step>D</step>
          <octave>5</octave>
        </pitch>
        <duration>48</duration>
        <type>eighth</type>
        <lyric>
          <text></text>
        </lyric>
      </note>
    </measure>
    <measure number="40">
      <attributes/>
      <note>
        <pitch>
          <step>E</step>
          <octave>5</octave>
        </pitch>
        <duration>48</duration>
        <type>eighth</type>
        <lyric>
          <syllabic>single</syllabic>
          <text>şu </text>
        </lyric>
      </note>
      <note>
        <pitch>
          <step>F</step>
          <octave>5</octave>
        </pitch>
        <duration>24</duration>
        <type>16th</type>
        <lyric>
          <text></text>
        </lyric>
      </note>
      <note>
        <pitch>
          <step>G</step>
          <octave>5</octave>
        </pitch>
        <duration>24</duration>
        <type>16th</type>
        <lyric>
          <text></text>
        </lyric>
      </note>
      <note>
        <pitch>
          <step>E</step>
          <octave>5</octave>
        </pitch>
        <duration>48</duration>
        <type>eighth</type>
        <lyric>
          <syllabic>begin</syllabic>
          <text>yer</text>
        </lyric>
      </note>
      <note>
        <pitch>
          <step>D</step>
          <octave>5</octave>
        </pitch>
        <duration>48</duration>
        <type>eighth</type>
        <lyric>
          <text></text>
        </lyric>
      </note>
      <note>
        <pitch>
          <step>C</step>
          <alter>+1</alter>
          <octave>5</octave>
        </pitch>
        <duration>48</duration>
        <type>eighth</type>
        <accidental>sharp</accidental>
        <lyric>
          <syllabic>end</syllabic>
          <text>ler </text>
        </lyric>
      </note>
      <note>
        <pitch>
          <step>B</step>
          <octave>4</octave>
        </pitch>
        <duration>48</duration>
        <type>eighth</type>
        <accidental>slash-flat</accidental>
        <lyric>
          <text></text>
        </lyric>
      </note>
      <note>
        <pitch>
          <step>D</step>
          <octave>5</octave>
        </pitch>
        <duration>24</duration>
        <type>16th</type>
        <lyric>
          <syllabic>begin</syllabic>
          <text>350</text>
        </lyric>
      </note>
      <note>
        <pitch>
          <step>C</step>
          <alter>+1</alter>
          <octave>5</octave>
        </pitch>
        <duration>24</duration>
        <type>16th</type>
        <accidental>sharp</accidental>
        <lyric>
          <text></text>
        </lyric>
      </note>
      <note>
        <pitch>
          <step>B</step>
          <octave>4</octave>
        </pitch>
        <duration>48</duration>
        <type>eighth</type>
        <accidental>slash-flat</accidental>
        <lyric>
          <text></text>
        </lyric>
      </note>
      <note>
        <pitch>
          <step>B</step>
          <octave>4</octave>
        </pitch>
        <duration>24</duration>
        <type>16th</type>
        <accidental>slash-flat</accidental>
        <lyric>
          <text></text>
        </lyric>
      </note>
      <note>
        <pitch>
          <step>A</step>
          <octave>4</octave>
        </pitch>
        <duration>24</duration>
        <type>16th</type>
        <lyric>
          <text></text>
        </lyric>
      </note>
    </measure>
    <measure number="41">
      <attributes/>
      <note>
        <pitch>
          <step>A</step>
          <octave>4</octave>
        </pitch>
        <duration>384</duration>
        <type>whole</type>
        <lyric>
          <syllabic>end</syllabic>
          <text>na  </text>
          <end-line/>
        </lyric>
      </note>
      <note>
        <rest/>
        <duration>48</duration>
        <type>eighth</type>
        <lyric>
          <text></text>
        </lyric>
      </note>
    </measure>
    <measure number="42">
      <attributes/>
    </measure>
  </part>
</score-partwise>
