<?xml version='1.0' encoding='UTF-8'?>
<!DOCTYPE score-partwise PUBLIC "-//Recordare//DTD MusicXML 3.0 Partwise//EN" "http://www.musicxml.org/dtds/partwise.dtd">
<score-partwise version="3.0">
  <work>
    <work-title>Bir Hisminan</work-title>
  </work>
  <part-list>
    <score-part id="P1">
      <part-name>Music</part-name>
    </score-part>
  </part-list>
  <part id="P1">
    <measure number="1">
      <direction placement="above">
        <direction-type>
          <words default-y="35">Makam: Huseyni, Usul: Yuruksemai</words>
        </direction-type>
        <sound tempo="135.13513513513513"/>
      </direction>
      <attributes>
        <divisions>24</divisions>
        <time>
          <beats>6</beats>
          <beat-type>8</beat-type>
        </time>
        <key>
          <key-step>F</key-step>
          <key-accidental>sharp</key-accidental>
          <key-step>B</key-step>
          <key-accidental>quarter-flat</key-accidental>
        </key>
      </attributes>
      <note>
        <pitch>
          <step>G</step>
          <octave>5</octave>
        </pitch>
        <duration>12</duration>
        <type>eighth</type>
        <accidental/>
        <lyric>
          <text>Bir </text>
        </lyric>
      </note>
      <note>
        <pitch>
          <step>G</step>
          <octave>5</octave>
        </pitch>
        <duration>24</duration>
        <type>quarter</type>
        <accidental/>
        <lyric>
          <text>hış</text>
        </lyric>
      </note>
      <note>
        <pitch>
          <step>G</step>
          <octave>5</octave>
        </pitch>
        <duration>12</duration>
        <type>eighth</type>
        <accidental/>
        <lyric>
          <text>mı</text>
        </lyric>
      </note>
      <note>
        <pitch>
          <step>G</step>
          <octave>5</octave>
        </pitch>
        <duration>24</duration>
        <type>quarter</type>
        <accidental/>
        <lyric>
          <text>nan </text>
        </lyric>
      </note>
    </measure>
    <measure number="2">
      <note>
        <pitch>
          <step>G</step>
          <octave>5</octave>
        </pitch>
        <duration>24</duration>
        <type>quarter</type>
        <accidental/>
        <lyric>
          <text>gel</text>
        </lyric>
      </note>
      <note>
        <pitch>
          <step>G</step>
          <octave>5</octave>
        </pitch>
        <duration>12</duration>
        <type>eighth</type>
        <accidental/>
        <lyric>
          <text>di </text>
        </lyric>
      </note>
      <note>
        <pitch>
          <step>G</step>
          <octave>5</octave>
        </pitch>
        <duration>12</duration>
        <type>eighth</type>
        <accidental/>
        <lyric>
          <text>geç</text>
        </lyric>
      </note>
      <note>
        <pitch>
          <step>G</step>
          <octave>5</octave>
        </pitch>
        <duration>24</duration>
        <type>quarter</type>
        <accidental/>
        <lyric>
          <text>ti </text>
        </lyric>
      </note>
    </measure>
    <measure number="3">
      <note>
        <pitch>
          <step>E</step>
          <octave>5</octave>
        </pitch>
        <duration>24</duration>
        <type>quarter</type>
        <accidental/>
        <lyric>
          <text>peh </text>
        </lyric>
      </note>
      <note>
        <pitch>
          <step>D</step>
          <octave>5</octave>
        </pitch>
        <duration>12</duration>
        <type>eighth</type>
        <accidental/>
        <lyric>
          <text></text>
        </lyric>
      </note>
      <note>
        <pitch>
          <step>C</step>
          <octave>5</octave>
        </pitch>
        <duration>24</duration>
        <type>quarter</type>
        <accidental/>
        <lyric>
          <text>peh </text>
        </lyric>
      </note>
      <note>
        <pitch>
          <step>B</step>
          <octave>4</octave>
          <alter>-0.5</alter>
        </pitch>
        <duration>12</duration>
        <type>eighth</type>
        <accidental>quarter-flat</accidental>
        <lyric>
          <text></text>
        </lyric>
      </note>
    </measure>
    <measure number="4">
      <note>
        <pitch>
          <step>B</step>
          <octave>4</octave>
          <alter>-0.5</alter>
        </pitch>
        <duration>24</duration>
        <type>quarter</type>
        <accidental>quarter-flat</accidental>
        <lyric>
          <text>peh </text>
        </lyric>
      </note>
      <note>
        <pitch>
          <step>A</step>
          <octave>4</octave>
        </pitch>
        <duration>12</duration>
        <type>eighth</type>
        <accidental/>
        <lyric>
          <text></text>
        </lyric>
      </note>
      <note>
        <pitch>
          <step>A</step>
          <octave>4</octave>
        </pitch>
        <duration>36</duration>
        <type>quarter</type>
        <dot/>
        <accidental/>
        <lyric>
          <text>peh  </text>
        </lyric>
      </note>
    </measure>
    <measure number="5">
      <note>
        <pitch>
          <step>G</step>
          <octave>5</octave>
        </pitch>
        <duration>12</duration>
        <type>eighth</type>
        <accidental/>
        <lyric>
          <text>Ki</text>
        </lyric>
      </note>
      <note>
        <pitch>
          <step>G</step>
          <octave>5</octave>
        </pitch>
        <duration>12</duration>
        <type>eighth</type>
        <accidental/>
        <lyric>
          <text>zir_</text>
        </lyric>
      </note>
      <note>
        <pitch>
          <step>E</step>
          <octave>5</octave>
        </pitch>
        <duration>12</duration>
        <type>eighth</type>
        <accidental/>
        <lyric>
          <text></text>
        </lyric>
      </note>
      <note>
        <pitch>
          <step>E</step>
          <octave>5</octave>
        </pitch>
        <duration>24</duration>
        <type>quarter</type>
        <accidental/>
        <lyric>
          <text>oğ</text>
        </lyric>
      </note>
      <note>
        <pitch>
          <step>E</step>
          <octave>5</octave>
        </pitch>
        <duration>12</duration>
        <type>eighth</type>
        <accidental/>
        <lyric>
          <text>lu </text>
        </lyric>
      </note>
    </measure>
    <measure number="6">
      <note>
        <pitch>
          <step>E</step>
          <octave>5</octave>
        </pitch>
        <duration>24</duration>
        <type>quarter</type>
        <accidental/>
        <lyric>
          <text>Mus</text>
        </lyric>
      </note>
      <note>
        <pitch>
          <step>E</step>
          <octave>5</octave>
        </pitch>
        <duration>12</duration>
        <type>eighth</type>
        <accidental/>
        <lyric>
          <text>ta</text>
        </lyric>
      </note>
      <note>
        <pitch>
          <step>E</step>
          <octave>5</octave>
        </pitch>
        <duration>12</duration>
        <type>eighth</type>
        <accidental/>
        <lyric>
          <text>fa </text>
        </lyric>
      </note>
      <note>
        <pitch>
          <step>E</step>
          <octave>5</octave>
        </pitch>
        <duration>24</duration>
        <type>quarter</type>
        <accidental/>
        <lyric>
          <text>bey </text>
        </lyric>
      </note>
    </measure>
    <measure number="7">
      <note>
        <pitch>
          <step>G</step>
          <octave>5</octave>
        </pitch>
        <duration>4</duration>
        <type>16th</type>
        <time-modification>
          <actual-notes>3</actual-notes>
          <normal-notes>2</normal-notes>
        </time-modification>
        <notations>
          <tuplet type="start" bracket="yes"/>
        </notations>
        <accidental/>
        <lyric>
          <text>hey </text>
        </lyric>
      </note>
      <note>
        <pitch>
          <step>F</step>
          <octave>5</octave>
          <alter>1</alter>
        </pitch>
        <duration>4</duration>
        <type>16th</type>
        <time-modification>
          <actual-notes>3</actual-notes>
          <normal-notes>2</normal-notes>
        </time-modification>
        <accidental>sharp</accidental>
        <lyric>
          <text></text>
        </lyric>
      </note>
      <note>
        <pitch>
          <step>G</step>
          <octave>5</octave>
        </pitch>
        <duration>4</duration>
        <type>16th</type>
        <time-modification>
          <actual-notes>3</actual-notes>
          <normal-notes>2</normal-notes>
        </time-modification>
        <notations>
          <tuplet type="stop"/>
        </notations>
        <accidental/>
        <lyric>
          <text></text>
        </lyric>
      </note>
      <note>
        <pitch>
          <step>E</step>
          <octave>5</octave>
        </pitch>
        <duration>24</duration>
        <type>quarter</type>
        <accidental/>
        <lyric>
          <text></text>
        </lyric>
      </note>
      <note>
        <pitch>
          <step>G</step>
          <octave>5</octave>
        </pitch>
        <duration>4</duration>
        <type>16th</type>
        <time-modification>
          <actual-notes>3</actual-notes>
          <normal-notes>2</normal-notes>
        </time-modification>
        <notations>
          <tuplet type="start" bracket="yes"/>
        </notations>
        <accidental/>
        <lyric>
          <text>hey </text>
        </lyric>
      </note>
      <note>
        <pitch>
          <step>F</step>
          <octave>5</octave>
          <alter>1</alter>
        </pitch>
        <duration>4</duration>
        <type>16th</type>
        <time-modification>
          <actual-notes>3</actual-notes>
          <normal-notes>2</normal-notes>
        </time-modification>
        <accidental>sharp</accidental>
        <lyric>
          <text></text>
        </lyric>
      </note>
      <note>
        <pitch>
          <step>G</step>
          <octave>5</octave>
        </pitch>
        <duration>4</duration>
        <type>16th</type>
        <time-modification>
          <actual-notes>3</actual-notes>
          <normal-notes>2</normal-notes>
        </time-modification>
        <notations>
          <tuplet type="stop"/>
        </notations>
        <accidental/>
        <lyric>
          <text></text>
        </lyric>
      </note>
      <note>
        <pitch>
          <step>E</step>
          <octave>5</octave>
        </pitch>
        <duration>24</duration>
        <type>quarter</type>
        <accidental/>
        <lyric>
          <text>hey </text>
        </lyric>
      </note>
    </measure>
    <measure number="8">
      <note>
        <pitch>
          <step>G</step>
          <octave>5</octave>
        </pitch>
        <duration>4</duration>
        <type>16th</type>
        <time-modification>
          <actual-notes>3</actual-notes>
          <normal-notes>2</normal-notes>
        </time-modification>
        <notations>
          <tuplet type="start" bracket="yes"/>
        </notations>
        <accidental/>
        <lyric>
          <text>hey  </text>
        </lyric>
      </note>
      <note>
        <pitch>
          <step>F</step>
          <octave>5</octave>
          <alter>1</alter>
        </pitch>
        <duration>4</duration>
        <type>16th</type>
        <time-modification>
          <actual-notes>3</actual-notes>
          <normal-notes>2</normal-notes>
        </time-modification>
        <accidental>sharp</accidental>
        <lyric>
          <text></text>
        </lyric>
      </note>
      <note>
        <pitch>
          <step>G</step>
          <octave>5</octave>
        </pitch>
        <duration>4</duration>
        <type>16th</type>
        <time-modification>
          <actual-notes>3</actual-notes>
          <normal-notes>2</normal-notes>
        </time-modification>
        <notations>
          <tuplet type="stop"/>
        </notations>
        <accidental/>
        <lyric>
          <text></text>
        </lyric>
      </note>
      <note>
        <pitch>
          <step>E</step>
          <octave>5</octave>
        </pitch>
        <duration>60</duration>
        <type>half</type>
        <dot/>
        <accidental/>
        <lyric>
          <text></text>
        </lyric>
      </note>
    </measure>
    <measure number="9">
      <note>
        <pitch>
          <step>E</step>
          <octave>5</octave>
        </pitch>
        <duration>72</duration>
        <type>half</type>
        <dot/>
        <accidental/>
        <lyric>
          <text></text>
        </lyric>
      </note>
    </measure>
    <measure number="10">
      <note>
        <pitch>
          <step>G</step>
          <octave>5</octave>
        </pitch>
        <duration>24</duration>
        <type>quarter</type>
        <accidental/>
        <lyric>
          <text>Hış</text>
        </lyric>
      </note>
      <note>
        <pitch>
          <step>E</step>
          <octave>5</octave>
        </pitch>
        <duration>12</duration>
        <type>eighth</type>
        <accidental/>
        <lyric>
          <text>mı </text>
        </lyric>
      </note>
      <note>
        <pitch>
          <step>E</step>
          <octave>5</octave>
        </pitch>
        <duration>12</duration>
        <type>eighth</type>
        <accidental/>
        <lyric>
          <text>da</text>
        </lyric>
      </note>
      <note>
        <pitch>
          <step>E</step>
          <octave>5</octave>
        </pitch>
        <duration>12</duration>
        <type>eighth</type>
        <accidental/>
        <lyric>
          <text>ğı </text>
        </lyric>
      </note>
      <note>
        <pitch>
          <step>E</step>
          <octave>5</octave>
        </pitch>
        <duration>12</duration>
        <type>eighth</type>
        <accidental/>
        <lyric>
          <text></text>
        </lyric>
      </note>
    </measure>
    <measure number="11">
      <note>
        <pitch>
          <step>E</step>
          <octave>5</octave>
        </pitch>
        <duration>24</duration>
        <type>quarter</type>
        <accidental/>
        <lyric>
          <text>del</text>
        </lyric>
      </note>
      <note>
        <pitch>
          <step>E</step>
          <octave>5</octave>
        </pitch>
        <duration>12</duration>
        <type>eighth</type>
        <accidental/>
        <lyric>
          <text>di </text>
        </lyric>
      </note>
      <note>
        <pitch>
          <step>E</step>
          <octave>5</octave>
        </pitch>
        <duration>12</duration>
        <type>eighth</type>
        <accidental/>
        <lyric>
          <text>geç</text>
        </lyric>
      </note>
      <note>
        <pitch>
          <step>E</step>
          <octave>5</octave>
        </pitch>
        <duration>24</duration>
        <type>quarter</type>
        <accidental/>
        <lyric>
          <text>ti  </text>
        </lyric>
      </note>
    </measure>
    <measure number="12">
      <note>
        <pitch>
          <step>D</step>
          <octave>5</octave>
        </pitch>
        <duration>12</duration>
        <type>eighth</type>
        <accidental/>
        <lyric>
          <text>A</text>
        </lyric>
      </note>
      <note>
        <pitch>
          <step>E</step>
          <octave>5</octave>
        </pitch>
        <duration>12</duration>
        <type>eighth</type>
        <accidental/>
        <lyric>
          <text>ğam </text>
        </lyric>
      </note>
      <note>
        <pitch>
          <step>D</step>
          <octave>5</octave>
        </pitch>
        <duration>12</duration>
        <type>eighth</type>
        <accidental/>
        <lyric>
          <text></text>
        </lyric>
      </note>
      <note>
        <pitch>
          <step>E</step>
          <octave>5</octave>
        </pitch>
        <duration>12</duration>
        <type>eighth</type>
        <accidental/>
        <lyric>
          <text>kim </text>
        </lyric>
      </note>
      <note>
        <rest/>
        <duration>24</duration>
        <type>quarter</type>
        <lyric>
          <text></text>
        </lyric>
      </note>
    </measure>
    <measure number="13">
      <note>
        <pitch>
          <step>D</step>
          <octave>5</octave>
        </pitch>
        <duration>12</duration>
        <type>eighth</type>
        <accidental/>
        <lyric>
          <text>pa</text>
        </lyric>
      </note>
      <note>
        <pitch>
          <step>E</step>
          <octave>5</octave>
        </pitch>
        <duration>12</duration>
        <type>eighth</type>
        <accidental/>
        <lyric>
          <text>şam </text>
        </lyric>
      </note>
      <note>
        <pitch>
          <step>D</step>
          <octave>5</octave>
        </pitch>
        <duration>12</duration>
        <type>eighth</type>
        <accidental/>
        <lyric>
          <text></text>
        </lyric>
      </note>
      <note>
        <pitch>
          <step>E</step>
          <octave>5</octave>
        </pitch>
        <duration>12</duration>
        <type>eighth</type>
        <accidental/>
        <lyric>
          <text>kim  </text>
        </lyric>
      </note>
      <note>
        <rest/>
        <duration>24</duration>
        <type>quarter</type>
        <lyric>
          <text></text>
        </lyric>
      </note>
    </measure>
    <measure number="14">
      <note>
        <pitch>
          <step>D</step>
          <octave>5</octave>
        </pitch>
        <duration>12</duration>
        <type>eighth</type>
        <accidental/>
        <lyric>
          <text>Ni</text>
        </lyric>
      </note>
      <note>
        <pitch>
          <step>E</step>
          <octave>5</octave>
        </pitch>
        <duration>12</duration>
        <type>eighth</type>
        <accidental/>
        <lyric>
          <text>gâr </text>
        </lyric>
      </note>
      <note>
        <pitch>
          <step>D</step>
          <octave>5</octave>
        </pitch>
        <duration>12</duration>
        <type>eighth</type>
        <accidental/>
        <lyric>
          <text></text>
        </lyric>
      </note>
      <note>
        <pitch>
          <step>E</step>
          <octave>5</octave>
        </pitch>
        <duration>12</duration>
        <type>eighth</type>
        <accidental/>
        <lyric>
          <text>kim </text>
        </lyric>
      </note>
      <note>
        <rest/>
        <duration>24</duration>
        <type>quarter</type>
        <lyric>
          <text></text>
        </lyric>
      </note>
    </measure>
    <measure number="15">
      <note>
        <pitch>
          <step>D</step>
          <octave>5</octave>
        </pitch>
        <duration>12</duration>
        <type>eighth</type>
        <accidental/>
        <lyric>
          <text>ha</text>
        </lyric>
      </note>
      <note>
        <pitch>
          <step>E</step>
          <octave>5</octave>
        </pitch>
        <duration>12</duration>
        <type>eighth</type>
        <accidental/>
        <lyric>
          <text>nım </text>
        </lyric>
      </note>
      <note>
        <pitch>
          <step>D</step>
          <octave>5</octave>
        </pitch>
        <duration>12</duration>
        <type>eighth</type>
        <accidental/>
        <lyric>
          <text></text>
        </lyric>
      </note>
      <note>
        <pitch>
          <step>E</step>
          <octave>5</octave>
        </pitch>
        <duration>12</duration>
        <type>eighth</type>
        <accidental/>
        <lyric>
          <text>kim  </text>
        </lyric>
      </note>
      <note>
        <rest/>
        <duration>24</duration>
        <type>quarter</type>
        <lyric>
          <text></text>
        </lyric>
      </note>
    </measure>
    <measure number="16">
      <note>
        <pitch>
          <step>E</step>
          <octave>5</octave>
        </pitch>
        <duration>12</duration>
        <type>eighth</type>
        <accidental/>
        <lyric>
          <text>Kim </text>
        </lyric>
      </note>
      <note>
        <pitch>
          <step>E</step>
          <octave>5</octave>
        </pitch>
        <duration>12</duration>
        <type>eighth</type>
        <accidental/>
        <lyric>
          <text></text>
        </lyric>
      </note>
      <note>
        <pitch>
          <step>D</step>
          <octave>5</octave>
        </pitch>
        <duration>12</duration>
        <type>eighth</type>
        <accidental/>
        <lyric>
          <text></text>
        </lyric>
      </note>
      <note>
        <pitch>
          <step>E</step>
          <octave>5</octave>
        </pitch>
        <duration>12</duration>
        <type>eighth</type>
        <accidental/>
        <lyric>
          <text>kim </text>
        </lyric>
      </note>
      <note>
        <pitch>
          <step>E</step>
          <octave>5</octave>
        </pitch>
        <duration>12</duration>
        <type>eighth</type>
        <accidental/>
        <lyric>
          <text></text>
        </lyric>
      </note>
      <note>
        <pitch>
          <step>D</step>
          <octave>5</octave>
        </pitch>
        <duration>12</duration>
        <type>eighth</type>
        <accidental/>
        <lyric>
          <text></text>
        </lyric>
      </note>
    </measure>
    <measure number="17">
      <note>
        <pitch>
          <step>E</step>
          <octave>5</octave>
        </pitch>
        <duration>12</duration>
        <type>eighth</type>
        <accidental/>
        <lyric>
          <text>kim </text>
        </lyric>
      </note>
      <note>
        <pitch>
          <step>E</step>
          <octave>5</octave>
        </pitch>
        <duration>12</duration>
        <type>eighth</type>
        <accidental/>
        <lyric>
          <text></text>
        </lyric>
      </note>
      <note>
        <pitch>
          <step>D</step>
          <octave>5</octave>
        </pitch>
        <duration>12</duration>
        <type>eighth</type>
        <accidental/>
        <lyric>
          <text></text>
        </lyric>
      </note>
      <note>
        <pitch>
          <step>E</step>
          <octave>5</octave>
        </pitch>
        <duration>8</duration>
        <type>eighth</type>
        <time-modification>
          <actual-notes>3</actual-notes>
          <normal-notes>2</normal-notes>
        </time-modification>
        <notations>
          <tuplet type="start" bracket="yes"/>
        </notations>
        <accidental/>
        <lyric>
          <text>kim  </text>
        </lyric>
      </note>
      <note>
        <pitch>
          <step>E</step>
          <octave>5</octave>
        </pitch>
        <duration>8</duration>
        <type>eighth</type>
        <time-modification>
          <actual-notes>3</actual-notes>
          <normal-notes>2</normal-notes>
        </time-modification>
        <accidental/>
        <lyric>
          <text></text>
        </lyric>
      </note>
      <note>
        <pitch>
          <step>E</step>
          <octave>5</octave>
        </pitch>
        <duration>8</duration>
        <type>eighth</type>
        <time-modification>
          <actual-notes>3</actual-notes>
          <normal-notes>2</normal-notes>
        </time-modification>
        <notations>
          <tuplet type="stop"/>
        </notations>
        <accidental/>
        <lyric>
          <text></text>
        </lyric>
      </note>
      <note>
        <pitch>
          <step>D</step>
          <octave>5</octave>
        </pitch>
        <duration>12</duration>
        <type>eighth</type>
        <accidental/>
        <lyric>
          <text></text>
        </lyric>
      </note>
    </measure>
    <measure number="18">
      <note>
        <pitch>
          <step>D</step>
          <octave>5</octave>
        </pitch>
        <duration>12</duration>
        <type>eighth</type>
        <accidental/>
        <lyric>
          <text>Ki</text>
        </lyric>
      </note>
      <note>
        <pitch>
          <step>D</step>
          <octave>5</octave>
        </pitch>
        <duration>24</duration>
        <type>quarter</type>
        <accidental/>
        <lyric>
          <text>zir_</text>
        </lyric>
      </note>
      <note>
        <pitch>
          <step>D</step>
          <octave>5</octave>
        </pitch>
        <duration>24</duration>
        <type>quarter</type>
        <accidental/>
        <lyric>
          <text>oğ</text>
        </lyric>
      </note>
      <note>
        <pitch>
          <step>D</step>
          <octave>5</octave>
        </pitch>
        <duration>12</duration>
        <type>eighth</type>
        <accidental/>
        <lyric>
          <text>lu </text>
        </lyric>
      </note>
    </measure>
    <measure number="19">
      <note>
        <pitch>
          <step>D</step>
          <octave>5</octave>
        </pitch>
        <duration>24</duration>
        <type>quarter</type>
        <accidental/>
        <lyric>
          <text>Mus</text>
        </lyric>
      </note>
      <note>
        <pitch>
          <step>C</step>
          <octave>5</octave>
        </pitch>
        <duration>12</duration>
        <type>eighth</type>
        <accidental/>
        <lyric>
          <text>ta</text>
        </lyric>
      </note>
      <note>
        <pitch>
          <step>E</step>
          <octave>5</octave>
        </pitch>
        <duration>12</duration>
        <type>eighth</type>
        <accidental/>
        <lyric>
          <text>fa </text>
        </lyric>
      </note>
      <note>
        <pitch>
          <step>E</step>
          <octave>5</octave>
        </pitch>
        <duration>12</duration>
        <type>eighth</type>
        <accidental/>
        <lyric>
          <text></text>
        </lyric>
      </note>
      <note>
        <pitch>
          <step>D</step>
          <octave>5</octave>
        </pitch>
        <duration>12</duration>
        <type>eighth</type>
        <accidental/>
        <lyric>
          <text></text>
        </lyric>
      </note>
    </measure>
    <measure number="20">
      <note>
        <pitch>
          <step>C</step>
          <octave>5</octave>
        </pitch>
        <duration>72</duration>
        <type>half</type>
        <dot/>
        <accidental/>
        <lyric>
          <text>bey  </text>
        </lyric>
      </note>
    </measure>
    <measure number="21">
      <note>
        <pitch>
          <step>C</step>
          <octave>5</octave>
        </pitch>
        <duration>12</duration>
        <type>eighth</type>
        <accidental/>
        <lyric>
          <text>Bir </text>
        </lyric>
      </note>
      <note>
        <pitch>
          <step>B</step>
          <octave>4</octave>
          <alter>-0.5</alter>
        </pitch>
        <duration>12</duration>
        <type>eighth</type>
        <accidental>quarter-flat</accidental>
        <lyric>
          <text></text>
        </lyric>
      </note>
      <note>
        <pitch>
          <step>C</step>
          <octave>5</octave>
        </pitch>
        <duration>12</duration>
        <type>eighth</type>
        <accidental/>
        <lyric>
          <text>be</text>
        </lyric>
      </note>
      <note>
        <pitch>
          <step>D</step>
          <octave>5</octave>
        </pitch>
        <duration>12</duration>
        <type>eighth</type>
        <accidental/>
        <lyric>
          <text>yin_</text>
        </lyric>
      </note>
      <note>
        <pitch>
          <step>C</step>
          <octave>5</octave>
        </pitch>
        <duration>12</duration>
        <type>eighth</type>
        <accidental/>
        <lyric>
          <text>oğ</text>
        </lyric>
      </note>
      <note>
        <pitch>
          <step>B</step>
          <octave>4</octave>
          <alter>-0.5</alter>
        </pitch>
        <duration>12</duration>
        <type>eighth</type>
        <accidental>quarter-flat</accidental>
        <lyric>
          <text></text>
        </lyric>
      </note>
    </measure>
    <measure number="22">
      <note>
        <pitch>
          <step>B</step>
          <octave>4</octave>
          <alter>-0.5</alter>
        </pitch>
        <duration>60</duration>
        <type>half</type>
        <dot/>
        <accidental>quarter-flat</accidental>
        <lyric>
          <text>lu </text>
        </lyric>
      </note>
      <note>
        <pitch>
          <step>A</step>
          <octave>4</octave>
        </pitch>
        <duration>12</duration>
        <type>eighth</type>
        <accidental/>
        <lyric>
          <text></text>
        </lyric>
      </note>
    </measure>
    <measure number="23">
      <note>
        <pitch>
          <step>A</step>
          <octave>4</octave>
        </pitch>
        <duration>24</duration>
        <type>quarter</type>
        <accidental/>
        <lyric>
          <text>zor </text>
        </lyric>
      </note>
      <note>
        <pitch>
          <step>C</step>
          <octave>5</octave>
        </pitch>
        <duration>12</duration>
        <type>eighth</type>
        <accidental/>
        <lyric>
          <text>be</text>
        </lyric>
      </note>
      <note>
        <pitch>
          <step>B</step>
          <octave>4</octave>
          <alter>-0.5</alter>
        </pitch>
        <duration>12</duration>
        <type>eighth</type>
        <accidental>quarter-flat</accidental>
        <lyric>
          <text>yin_</text>
        </lyric>
      </note>
      <note>
        <pitch>
          <step>B</step>
          <octave>4</octave>
          <alter>-0.5</alter>
        </pitch>
        <duration>12</duration>
        <type>eighth</type>
        <accidental>quarter-flat</accidental>
        <lyric>
          <text>oğ</text>
        </lyric>
      </note>
      <note>
        <pitch>
          <step>A</step>
          <octave>4</octave>
        </pitch>
        <duration>12</duration>
        <type>eighth</type>
        <accidental/>
        <lyric>
          <text></text>
        </lyric>
      </note>
    </measure>
    <measure number="24">
      <note>
        <pitch>
          <step>A</step>
          <octave>4</octave>
        </pitch>
        <duration>72</duration>
        <type>half</type>
        <dot/>
        <accidental/>
        <lyric>
          <text>lu  </text>
        </lyric>
      </note>
    </measure>
    <measure number="25">
      <note>
        <pitch>
          <step>D</step>
          <octave>5</octave>
        </pitch>
        <duration>12</duration>
        <type>eighth</type>
        <accidental/>
        <lyric>
          <text>Ki</text>
        </lyric>
      </note>
      <note>
        <pitch>
          <step>D</step>
          <octave>5</octave>
        </pitch>
        <duration>24</duration>
        <type>quarter</type>
        <accidental/>
        <lyric>
          <text>zir_</text>
        </lyric>
      </note>
      <note>
        <pitch>
          <step>D</step>
          <octave>5</octave>
        </pitch>
        <duration>24</duration>
        <type>quarter</type>
        <accidental/>
        <lyric>
          <text>oğ</text>
        </lyric>
      </note>
      <note>
        <pitch>
          <step>D</step>
          <octave>5</octave>
        </pitch>
        <duration>12</duration>
        <type>eighth</type>
        <accidental/>
        <lyric>
          <text>lu </text>
        </lyric>
      </note>
    </measure>
    <measure number="26">
      <note>
        <pitch>
          <step>D</step>
          <octave>5</octave>
        </pitch>
        <duration>24</duration>
        <type>quarter</type>
        <accidental/>
        <lyric>
          <text>Mus</text>
        </lyric>
      </note>
      <note>
        <pitch>
          <step>C</step>
          <octave>5</octave>
        </pitch>
        <duration>12</duration>
        <type>eighth</type>
        <accidental/>
        <lyric>
          <text>ta</text>
        </lyric>
      </note>
      <note>
        <pitch>
          <step>E</step>
          <octave>5</octave>
        </pitch>
        <duration>12</duration>
        <type>eighth</type>
        <accidental/>
        <lyric>
          <text>fa </text>
        </lyric>
      </note>
      <note>
        <pitch>
          <step>E</step>
          <octave>5</octave>
        </pitch>
        <duration>12</duration>
        <type>eighth</type>
        <accidental/>
        <lyric>
          <text></text>
        </lyric>
      </note>
      <note>
        <pitch>
          <step>D</step>
          <octave>5</octave>
        </pitch>
        <duration>12</duration>
        <type>eighth</type>
        <accidental/>
        <lyric>
          <text></text>
        </lyric>
      </note>
    </measure>
    <measure number="27">
      <note>
        <pitch>
          <step>C</step>
          <octave>5</octave>
        </pitch>
        <duration>72</duration>
        <type>half</type>
        <dot/>
        <accidental/>
        <lyric>
          <text>bey  </text>
        </lyric>
      </note>
    </measure>
    <measure number="28">
      <note>
        <pitch>
          <step>C</step>
          <octave>5</octave>
        </pitch>
        <duration>12</duration>
        <type>eighth</type>
        <accidental/>
        <lyric>
          <text>Bir </text>
        </lyric>
      </note>
      <note>
        <pitch>
          <step>B</step>
          <octave>4</octave>
          <alter>-0.5</alter>
        </pitch>
        <duration>12</duration>
        <type>eighth</type>
        <accidental>quarter-flat</accidental>
        <lyric>
          <text></text>
        </lyric>
      </note>
      <note>
        <pitch>
          <step>C</step>
          <octave>5</octave>
        </pitch>
        <duration>12</duration>
        <type>eighth</type>
        <accidental/>
        <lyric>
          <text>be</text>
        </lyric>
      </note>
      <note>
        <pitch>
          <step>D</step>
          <octave>5</octave>
        </pitch>
        <duration>12</duration>
        <type>eighth</type>
        <accidental/>
        <lyric>
          <text>yin_</text>
        </lyric>
      </note>
      <note>
        <pitch>
          <step>C</step>
          <octave>5</octave>
        </pitch>
        <duration>12</duration>
        <type>eighth</type>
        <accidental/>
        <lyric>
          <text>oğ</text>
        </lyric>
      </note>
      <note>
        <pitch>
          <step>B</step>
          <octave>4</octave>
          <alter>-0.5</alter>
        </pitch>
        <duration>12</duration>
        <type>eighth</type>
        <accidental>quarter-flat</accidental>
        <lyric>
          <text></text>
        </lyric>
      </note>
    </measure>
    <measure number="29">
      <note>
        <pitch>
          <step>B</step>
          <octave>4</octave>
          <alter>-0.5</alter>
        </pitch>
        <duration>60</duration>
        <type>half</type>
        <dot/>
        <accidental>quarter-flat</accidental>
        <lyric>
          <text>lu </text>
        </lyric>
      </note>
      <note>
        <pitch>
          <step>A</step>
          <octave>4</octave>
        </pitch>
        <duration>12</duration>
        <type>eighth</type>
        <accidental/>
        <lyric>
          <text></text>
        </lyric>
      </note>
    </measure>
    <measure number="30">
      <note>
        <pitch>
          <step>A</step>
          <octave>4</octave>
        </pitch>
        <duration>24</duration>
        <type>quarter</type>
        <accidental/>
        <lyric>
          <text>zor </text>
        </lyric>
      </note>
      <note>
        <pitch>
          <step>C</step>
          <octave>5</octave>
        </pitch>
        <duration>12</duration>
        <type>eighth</type>
        <accidental/>
        <lyric>
          <text>be</text>
        </lyric>
      </note>
      <note>
        <pitch>
          <step>B</step>
          <octave>4</octave>
          <alter>-0.5</alter>
        </pitch>
        <duration>12</duration>
        <type>eighth</type>
        <accidental>quarter-flat</accidental>
        <lyric>
          <text>yin_</text>
        </lyric>
      </note>
      <note>
        <pitch>
          <step>B</step>
          <octave>4</octave>
          <alter>-0.5</alter>
        </pitch>
        <duration>12</duration>
        <type>eighth</type>
        <accidental>quarter-flat</accidental>
        <lyric>
          <text>oğ</text>
        </lyric>
      </note>
      <note>
        <pitch>
          <step>A</step>
          <octave>4</octave>
        </pitch>
        <duration>12</duration>
        <type>eighth</type>
        <accidental/>
        <lyric>
          <text></text>
        </lyric>
      </note>
    </measure>
    <measure number="31">
      <note>
        <pitch>
          <step>A</step>
          <octave>4</octave>
        </pitch>
        <duration>72</duration>
        <type>half</type>
        <dot/>
        <accidental/>
        <lyric>
          <text>lu  </text>
        </lyric>
      </note>
    </measure>
    <measure number="32">
      <note>
        <pitch>
          <step>G</step>
          <octave>5</octave>
        </pitch>
        <duration>12</duration>
        <type>eighth</type>
        <accidental/>
        <lyric>
          <text>Bir </text>
        </lyric>
      </note>
      <note>
        <pitch>
          <step>G</step>
          <octave>5</octave>
        </pitch>
        <duration>24</duration>
        <type>quarter</type>
        <accidental/>
        <lyric>
          <text>hış</text>
        </lyric>
      </note>
      <note>
        <pitch>
          <step>G</step>
          <octave>5</octave>
        </pitch>
        <duration>12</duration>
        <type>eighth</type>
        <accidental/>
        <lyric>
          <text>mı</text>
        </lyric>
      </note>
      <note>
        <pitch>
          <step>G</step>
          <octave>5</octave>
        </pitch>
        <duration>24</duration>
        <type>quarter</type>
        <accidental/>
        <lyric>
          <text>nan </text>
        </lyric>
      </note>
    </measure>
    <measure number="33">
      <note>
        <pitch>
          <step>G</step>
          <octave>5</octave>
        </pitch>
        <duration>24</duration>
        <type>quarter</type>
        <accidental/>
        <lyric>
          <text>gel</text>
        </lyric>
      </note>
      <note>
        <pitch>
          <step>G</step>
          <octave>5</octave>
        </pitch>
        <duration>12</duration>
        <type>eighth</type>
        <accidental/>
        <lyric>
          <text>di </text>
        </lyric>
      </note>
      <note>
        <pitch>
          <step>G</step>
          <octave>5</octave>
        </pitch>
        <duration>12</duration>
        <type>eighth</type>
        <accidental/>
        <lyric>
          <text>geç</text>
        </lyric>
      </note>
      <note>
        <pitch>
          <step>G</step>
          <octave>5</octave>
        </pitch>
        <duration>24</duration>
        <type>quarter</type>
        <accidental/>
        <lyric>
          <text>ti </text>
        </lyric>
      </note>
    </measure>
    <measure number="34">
      <note>
        <pitch>
          <step>E</step>
          <octave>5</octave>
        </pitch>
        <duration>24</duration>
        <type>quarter</type>
        <accidental/>
        <lyric>
          <text>peh </text>
        </lyric>
      </note>
      <note>
        <pitch>
          <step>D</step>
          <octave>5</octave>
        </pitch>
        <duration>12</duration>
        <type>eighth</type>
        <accidental/>
        <lyric>
          <text></text>
        </lyric>
      </note>
      <note>
        <pitch>
          <step>C</step>
          <octave>5</octave>
        </pitch>
        <duration>24</duration>
        <type>quarter</type>
        <accidental/>
        <lyric>
          <text>peh </text>
        </lyric>
      </note>
      <note>
        <pitch>
          <step>B</step>
          <octave>4</octave>
          <alter>-0.5</alter>
        </pitch>
        <duration>12</duration>
        <type>eighth</type>
        <accidental>quarter-flat</accidental>
        <lyric>
          <text></text>
        </lyric>
      </note>
    </measure>
    <measure number="35">
      <note>
        <pitch>
          <step>B</step>
          <octave>4</octave>
          <alter>-0.5</alter>
        </pitch>
        <duration>24</duration>
        <type>quarter</type>
        <accidental>quarter-flat</accidental>
        <lyric>
          <text>peh </text>
        </lyric>
      </note>
      <note>
        <pitch>
          <step>A</step>
          <octave>4</octave>
        </pitch>
        <duration>12</duration>
        <type>eighth</type>
        <accidental/>
        <lyric>
          <text></text>
        </lyric>
      </note>
      <note>
        <pitch>
          <step>A</step>
          <octave>4</octave>
        </pitch>
        <duration>36</duration>
        <type>quarter</type>
        <dot/>
        <accidental/>
        <lyric>
          <text>peh  </text>
        </lyric>
      </note>
    </measure>
    <measure number="36">
      <note>
        <pitch>
          <step>G</step>
          <octave>5</octave>
        </pitch>
        <duration>12</duration>
        <type>eighth</type>
        <accidental/>
        <lyric>
          <text>Ki</text>
        </lyric>
      </note>
      <note>
        <pitch>
          <step>G</step>
          <octave>5</octave>
        </pitch>
        <duration>12</duration>
        <type>eighth</type>
        <accidental/>
        <lyric>
          <text>zir_</text>
        </lyric>
      </note>
      <note>
        <pitch>
          <step>E</step>
          <octave>5</octave>
        </pitch>
        <duration>12</duration>
        <type>eighth</type>
        <accidental/>
        <lyric>
          <text></text>
        </lyric>
      </note>
      <note>
        <pitch>
          <step>E</step>
          <octave>5</octave>
        </pitch>
        <duration>24</duration>
        <type>quarter</type>
        <accidental/>
        <lyric>
          <text>oğ</text>
        </lyric>
      </note>
      <note>
        <pitch>
          <step>E</step>
          <octave>5</octave>
        </pitch>
        <duration>12</duration>
        <type>eighth</type>
        <accidental/>
        <lyric>
          <text>lu </text>
        </lyric>
      </note>
    </measure>
    <measure number="37">
      <note>
        <pitch>
          <step>E</step>
          <octave>5</octave>
        </pitch>
        <duration>24</duration>
        <type>quarter</type>
        <accidental/>
        <lyric>
          <text>Mus</text>
        </lyric>
      </note>
      <note>
        <pitch>
          <step>E</step>
          <octave>5</octave>
        </pitch>
        <duration>12</duration>
        <type>eighth</type>
        <accidental/>
        <lyric>
          <text>ta</text>
        </lyric>
      </note>
      <note>
        <pitch>
          <step>E</step>
          <octave>5</octave>
        </pitch>
        <duration>12</duration>
        <type>eighth</type>
        <accidental/>
        <lyric>
          <text>fa </text>
        </lyric>
      </note>
      <note>
        <pitch>
          <step>E</step>
          <octave>5</octave>
        </pitch>
        <duration>24</duration>
        <type>quarter</type>
        <accidental/>
        <lyric>
          <text>bey </text>
        </lyric>
      </note>
    </measure>
    <measure number="38">
      <note>
        <pitch>
          <step>G</step>
          <octave>5</octave>
        </pitch>
        <duration>4</duration>
        <type>16th</type>
        <time-modification>
          <actual-notes>3</actual-notes>
          <normal-notes>2</normal-notes>
        </time-modification>
        <notations>
          <tuplet type="start" bracket="yes"/>
        </notations>
        <accidental/>
        <lyric>
          <text>hey </text>
        </lyric>
      </note>
      <note>
        <pitch>
          <step>F</step>
          <octave>5</octave>
          <alter>1</alter>
        </pitch>
        <duration>4</duration>
        <type>16th</type>
        <time-modification>
          <actual-notes>3</actual-notes>
          <normal-notes>2</normal-notes>
        </time-modification>
        <accidental>sharp</accidental>
        <lyric>
          <text></text>
        </lyric>
      </note>
      <note>
        <pitch>
          <step>G</step>
          <octave>5</octave>
        </pitch>
        <duration>4</duration>
        <type>16th</type>
        <time-modification>
          <actual-notes>3</actual-notes>
          <normal-notes>2</normal-notes>
        </time-modification>
        <notations>
          <tuplet type="stop"/>
        </notations>
        <accidental/>
        <lyric>
          <text></text>
        </lyric>
      </note>
      <note>
        <pitch>
          <step>E</step>
          <octave>5</octave>
        </pitch>
        <duration>24</duration>
        <type>quarter</type>
        <accidental/>
        <lyric>
          <text></text>
        </lyric>
      </note>
      <note>
        <pitch>
          <step>G</step>
          <octave>5</octave>
        </pitch>
        <duration>4</duration>
        <type>16th</type>
        <time-modification>
          <actual-notes>3</actual-notes>
          <normal-notes>2</normal-notes>
        </time-modification>
        <notations>
          <tuplet type="start" bracket="yes"/>
        </notations>
        <accidental/>
        <lyric>
          <text>hey </text>
        </lyric>
      </note>
      <note>
        <pitch>
          <step>F</step>
          <octave>5</octave>
          <alter>1</alter>
        </pitch>
        <duration>4</duration>
        <type>16th</type>
        <time-modification>
          <actual-notes>3</actual-notes>
          <normal-notes>2</normal-notes>
        </time-modification>
        <accidental>sharp</accidental>
        <lyric>
          <text></text>
        </lyric>
      </note>
      <note>
        <pitch>
          <step>G</step>
          <octave>5</octave>
        </pitch>
        <duration>4</duration>
        <type>16th</type>
        <time-modification>
          <actual-notes>3</actual-notes>
          <normal-notes>2</normal-notes>
        </time-modification>
        <notations>
          <tuplet type="stop"/>
        </notations>
        <accidental/>
        <lyric>
          <text></text>
        </lyric>
      </note>
      <note>
        <pitch>
          <step>E</step>
          <octave>5</octave>
        </pitch>
        <duration>24</duration>
        <type>quarter</type>
        <accidental/>
        <lyric>
          <text>hey </text>
        </lyric>
      </note>
    </measure>
    <measure number="39">
      <note>
        <pitch>
          <step>G</step>
          <octave>5</octave>
        </pitch>
        <duration>4</duration>
        <type>16th</type>
        <time-modification>
          <actual-notes>3</actual-notes>
          <normal-notes>2</normal-notes>
        </time-modification>
        <notations>
          <tuplet type="start" bracket="yes"/>
        </notations>
        <accidental/>
        <lyric>
          <text>hey  </text>
        </lyric>
      </note>
      <note>
        <pitch>
          <step>F</step>
          <octave>5</octave>
          <alter>1</alter>
        </pitch>
        <duration>4</duration>
        <type>16th</type>
        <time-modification>
          <actual-notes>3</actual-notes>
          <normal-notes>2</normal-notes>
        </time-modification>
        <accidental>sharp</accidental>
        <lyric>
          <text></text>
        </lyric>
      </note>
      <note>
        <pitch>
          <step>G</step>
          <octave>5</octave>
        </pitch>
        <duration>4</duration>
        <type>16th</type>
        <time-modification>
          <actual-notes>3</actual-notes>
          <normal-notes>2</normal-notes>
        </time-modification>
        <notations>
          <tuplet type="stop"/>
        </notations>
        <accidental/>
        <lyric>
          <text></text>
        </lyric>
      </note>
      <note>
        <pitch>
          <step>E</step>
          <octave>5</octave>
        </pitch>
        <duration>60</duration>
        <type>half</type>
        <dot/>
        <accidental/>
        <lyric>
          <text></text>
        </lyric>
      </note>
    </measure>
    <measure number="40">
      <note>
        <pitch>
          <step>E</step>
          <octave>5</octave>
        </pitch>
        <duration>72</duration>
        <type>half</type>
        <dot/>
        <accidental/>
        <lyric>
          <text></text>
        </lyric>
      </note>
    </measure>
    <measure number="41">
      <note>
        <pitch>
          <step>G</step>
          <octave>5</octave>
        </pitch>
        <duration>24</duration>
        <type>quarter</type>
        <accidental/>
        <lyric>
          <text>Hış</text>
        </lyric>
      </note>
      <note>
        <pitch>
          <step>E</step>
          <octave>5</octave>
        </pitch>
        <duration>12</duration>
        <type>eighth</type>
        <accidental/>
        <lyric>
          <text>mı </text>
        </lyric>
      </note>
      <note>
        <pitch>
          <step>E</step>
          <octave>5</octave>
        </pitch>
        <duration>12</duration>
        <type>eighth</type>
        <accidental/>
        <lyric>
          <text>da</text>
        </lyric>
      </note>
      <note>
        <pitch>
          <step>E</step>
          <octave>5</octave>
        </pitch>
        <duration>12</duration>
        <type>eighth</type>
        <accidental/>
        <lyric>
          <text>ğı </text>
        </lyric>
      </note>
      <note>
        <pitch>
          <step>E</step>
          <octave>5</octave>
        </pitch>
        <duration>12</duration>
        <type>eighth</type>
        <accidental/>
        <lyric>
          <text></text>
        </lyric>
      </note>
    </measure>
    <measure number="42">
      <note>
        <pitch>
          <step>E</step>
          <octave>5</octave>
        </pitch>
        <duration>24</duration>
        <type>quarter</type>
        <accidental/>
        <lyric>
          <text>del</text>
        </lyric>
      </note>
      <note>
        <pitch>
          <step>E</step>
          <octave>5</octave>
        </pitch>
        <duration>12</duration>
        <type>eighth</type>
        <accidental/>
        <lyric>
          <text>di </text>
        </lyric>
      </note>
      <note>
        <pitch>
          <step>E</step>
          <octave>5</octave>
        </pitch>
        <duration>12</duration>
        <type>eighth</type>
        <accidental/>
        <lyric>
          <text>geç</text>
        </lyric>
      </note>
      <note>
        <pitch>
          <step>E</step>
          <octave>5</octave>
        </pitch>
        <duration>24</duration>
        <type>quarter</type>
        <accidental/>
        <lyric>
          <text>ti  </text>
        </lyric>
      </note>
    </measure>
    <measure number="43">
      <note>
        <pitch>
          <step>D</step>
          <octave>5</octave>
        </pitch>
        <duration>12</duration>
        <type>eighth</type>
        <accidental/>
        <lyric>
          <text>A</text>
        </lyric>
      </note>
      <note>
        <pitch>
          <step>E</step>
          <octave>5</octave>
        </pitch>
        <duration>12</duration>
        <type>eighth</type>
        <accidental/>
        <lyric>
          <text>ğam </text>
        </lyric>
      </note>
      <note>
        <pitch>
          <step>D</step>
          <octave>5</octave>
        </pitch>
        <duration>12</duration>
        <type>eighth</type>
        <accidental/>
        <lyric>
          <text></text>
        </lyric>
      </note>
      <note>
        <pitch>
          <step>E</step>
          <octave>5</octave>
        </pitch>
        <duration>12</duration>
        <type>eighth</type>
        <accidental/>
        <lyric>
          <text>kim </text>
        </lyric>
      </note>
      <note>
        <rest/>
        <duration>24</duration>
        <type>quarter</type>
        <lyric>
          <text></text>
        </lyric>
      </note>
    </measure>
    <measure number="44">
      <note>
        <pitch>
          <step>D</step>
          <octave>5</octave>
        </pitch>
        <duration>12</duration>
        <type>eighth</type>
        <accidental/>
        <lyric>
          <text>pa</text>
        </lyric>
      </note>
      <note>
        <pitch>
          <step>E</step>
          <octave>5</octave>
        </pitch>
        <duration>12</duration>
        <type>eighth</type>
        <accidental/>
        <lyric>
          <text>şam </text>
        </lyric>
      </note>
      <note>
        <pitch>
          <step>D</step>
          <octave>5</octave>
        </pitch>
        <duration>12</duration>
        <type>eighth</type>
        <accidental/>
        <lyric>
          <text></text>
        </lyric>
      </note>
      <note>
        <pitch>
          <step>E</step>
          <octave>5</octave>
        </pitch>
        <duration>12</duration>
        <type>eighth</type>
        <accidental/>
        <lyric>
          <text>kim  </text>
        </lyric>
      </note>
      <note>
        <rest/>
        <duration>24</duration>
        <type>quarter</type>
        <lyric>
          <text></text>
        </lyric>
      </note>
    </measure>
    <measure number="45">
      <note>
        <pitch>
          <step>D</step>
          <octave>5</octave>
        </pitch>
        <duration>12</duration>
        <type>eighth</type>
        <accidental/>
        <lyric>
          <text>Ni</text>
        </lyric>
      </note>
      <note>
        <pitch>
          <step>E</step>
          <octave>5</octave>
        </pitch>
        <duration>12</duration>
        <type>eighth</type>
        <accidental/>
        <lyric>
          <text>gâr </text>
        </lyric>
      </note>
      <note>
        <pitch>
          <step>D</step>
          <octave>5</octave>
        </pitch>
        <duration>12</duration>
        <type>eighth</type>
        <accidental/>
        <lyric>
          <text></text>
        </lyric>
      </note>
      <note>
        <pitch>
          <step>E</step>
          <octave>5</octave>
        </pitch>
        <duration>12</duration>
        <type>eighth</type>
        <accidental/>
        <lyric>
          <text>kim </text>
        </lyric>
      </note>
      <note>
        <rest/>
        <duration>24</duration>
        <type>quarter</type>
        <lyric>
          <text></text>
        </lyric>
      </note>
    </measure>
    <measure number="46">
      <note>
        <pitch>
          <step>D</step>
          <octave>5</octave>
        </pitch>
        <duration>12</duration>
        <type>eighth</type>
        <accidental/>
        <lyric>
          <text>ha</text>
        </lyric>
      </note>
      <note>
        <pitch>
          <step>E</step>
          <octave>5</octave>
        </pitch>
        <duration>12</duration>
        <type>eighth</type>
        <accidental/>
        <lyric>
          <text>nım </text>
        </lyric>
      </note>
      <note>
        <pitch>
          <step>D</step>
          <octave>5</octave>
        </pitch>
        <duration>12</duration>
        <type>eighth</type>
        <accidental/>
        <lyric>
          <text></text>
        </lyric>
      </note>
      <note>
        <pitch>
          <step>E</step>
          <octave>5</octave>
        </pitch>
        <duration>12</duration>
        <type>eighth</type>
        <accidental/>
        <lyric>
          <text>kim  </text>
        </lyric>
      </note>
      <note>
        <rest/>
        <duration>24</duration>
        <type>quarter</type>
        <lyric>
          <text></text>
        </lyric>
      </note>
    </measure>
    <measure number="47">
      <note>
        <pitch>
          <step>E</step>
          <octave>5</octave>
        </pitch>
        <duration>12</duration>
        <type>eighth</type>
        <accidental/>
        <lyric>
          <text>Kim </text>
        </lyric>
      </note>
      <note>
        <pitch>
          <step>E</step>
          <octave>5</octave>
        </pitch>
        <duration>12</duration>
        <type>eighth</type>
        <accidental/>
        <lyric>
          <text></text>
        </lyric>
      </note>
      <note>
        <pitch>
          <step>D</step>
          <octave>5</octave>
        </pitch>
        <duration>12</duration>
        <type>eighth</type>
        <accidental/>
        <lyric>
          <text></text>
        </lyric>
      </note>
      <note>
        <pitch>
          <step>E</step>
          <octave>5</octave>
        </pitch>
        <duration>12</duration>
        <type>eighth</type>
        <accidental/>
        <lyric>
          <text>kim </text>
        </lyric>
      </note>
      <note>
        <pitch>
          <step>E</step>
          <octave>5</octave>
        </pitch>
        <duration>12</duration>
        <type>eighth</type>
        <accidental/>
        <lyric>
          <text></text>
        </lyric>
      </note>
      <note>
        <pitch>
          <step>D</step>
          <octave>5</octave>
        </pitch>
        <duration>12</duration>
        <type>eighth</type>
        <accidental/>
        <lyric>
          <text></text>
        </lyric>
      </note>
    </measure>
    <measure number="48">
      <note>
        <pitch>
          <step>E</step>
          <octave>5</octave>
        </pitch>
        <duration>12</duration>
        <type>eighth</type>
        <accidental/>
        <lyric>
          <text>kim </text>
        </lyric>
      </note>
      <note>
        <pitch>
          <step>E</step>
          <octave>5</octave>
        </pitch>
        <duration>12</duration>
        <type>eighth</type>
        <accidental/>
        <lyric>
          <text></text>
        </lyric>
      </note>
      <note>
        <pitch>
          <step>D</step>
          <octave>5</octave>
        </pitch>
        <duration>12</duration>
        <type>eighth</type>
        <accidental/>
        <lyric>
          <text></text>
        </lyric>
      </note>
      <note>
        <pitch>
          <step>E</step>
          <octave>5</octave>
        </pitch>
        <duration>8</duration>
        <type>eighth</type>
        <time-modification>
          <actual-notes>3</actual-notes>
          <normal-notes>2</normal-notes>
        </time-modification>
        <notations>
          <tuplet type="start" bracket="yes"/>
        </notations>
        <accidental/>
        <lyric>
          <text>kim  </text>
        </lyric>
      </note>
      <note>
        <pitch>
          <step>E</step>
          <octave>5</octave>
        </pitch>
        <duration>8</duration>
        <type>eighth</type>
        <time-modification>
          <actual-notes>3</actual-notes>
          <normal-notes>2</normal-notes>
        </time-modification>
        <accidental/>
        <lyric>
          <text></text>
        </lyric>
      </note>
      <note>
        <pitch>
          <step>E</step>
          <octave>5</octave>
        </pitch>
        <duration>8</duration>
        <type>eighth</type>
        <time-modification>
          <actual-notes>3</actual-notes>
          <normal-notes>2</normal-notes>
        </time-modification>
        <notations>
          <tuplet type="stop"/>
        </notations>
        <accidental/>
        <lyric>
          <text></text>
        </lyric>
      </note>
      <note>
        <pitch>
          <step>D</step>
          <octave>5</octave>
        </pitch>
        <duration>12</duration>
        <type>eighth</type>
        <accidental/>
        <lyric>
          <text></text>
        </lyric>
      </note>
    </measure>
    <measure number="49">
      <note>
        <pitch>
          <step>D</step>
          <octave>5</octave>
        </pitch>
        <duration>12</duration>
        <type>eighth</type>
        <accidental/>
        <lyric>
          <text>Ki</text>
        </lyric>
      </note>
      <note>
        <pitch>
          <step>D</step>
          <octave>5</octave>
        </pitch>
        <duration>24</duration>
        <type>quarter</type>
        <accidental/>
        <lyric>
          <text>zir_</text>
        </lyric>
      </note>
      <note>
        <pitch>
          <step>D</step>
          <octave>5</octave>
        </pitch>
        <duration>24</duration>
        <type>quarter</type>
        <accidental/>
        <lyric>
          <text>oğ</text>
        </lyric>
      </note>
      <note>
        <pitch>
          <step>D</step>
          <octave>5</octave>
        </pitch>
        <duration>12</duration>
        <type>eighth</type>
        <accidental/>
        <lyric>
          <text>lu </text>
        </lyric>
      </note>
    </measure>
    <measure number="50">
      <note>
        <pitch>
          <step>D</step>
          <octave>5</octave>
        </pitch>
        <duration>24</duration>
        <type>quarter</type>
        <accidental/>
        <lyric>
          <text>Mus</text>
        </lyric>
      </note>
      <note>
        <pitch>
          <step>C</step>
          <octave>5</octave>
        </pitch>
        <duration>12</duration>
        <type>eighth</type>
        <accidental/>
        <lyric>
          <text>ta</text>
        </lyric>
      </note>
      <note>
        <pitch>
          <step>E</step>
          <octave>5</octave>
        </pitch>
        <duration>12</duration>
        <type>eighth</type>
        <accidental/>
        <lyric>
          <text>fa </text>
        </lyric>
      </note>
      <note>
        <pitch>
          <step>E</step>
          <octave>5</octave>
        </pitch>
        <duration>12</duration>
        <type>eighth</type>
        <accidental/>
        <lyric>
          <text></text>
        </lyric>
      </note>
      <note>
        <pitch>
          <step>D</step>
          <octave>5</octave>
        </pitch>
        <duration>12</duration>
        <type>eighth</type>
        <accidental/>
        <lyric>
          <text></text>
        </lyric>
      </note>
    </measure>
    <measure number="51">
      <note>
        <pitch>
          <step>C</step>
          <octave>5</octave>
        </pitch>
        <duration>72</duration>
        <type>half</type>
        <dot/>
        <accidental/>
        <lyric>
          <text>bey  </text>
        </lyric>
      </note>
    </measure>
    <measure number="52">
      <note>
        <pitch>
          <step>C</step>
          <octave>5</octave>
        </pitch>
        <duration>12</duration>
        <type>eighth</type>
        <accidental/>
        <lyric>
          <text>Bir </text>
        </lyric>
      </note>
      <note>
        <pitch>
          <step>B</step>
          <octave>4</octave>
          <alter>-0.5</alter>
        </pitch>
        <duration>12</duration>
        <type>eighth</type>
        <accidental>quarter-flat</accidental>
        <lyric>
          <text></text>
        </lyric>
      </note>
      <note>
        <pitch>
          <step>C</step>
          <octave>5</octave>
        </pitch>
        <duration>12</duration>
        <type>eighth</type>
        <accidental/>
        <lyric>
          <text>be</text>
        </lyric>
      </note>
      <note>
        <pitch>
          <step>D</step>
          <octave>5</octave>
        </pitch>
        <duration>12</duration>
        <type>eighth</type>
        <accidental/>
        <lyric>
          <text>yin_</text>
        </lyric>
      </note>
      <note>
        <pitch>
          <step>C</step>
          <octave>5</octave>
        </pitch>
        <duration>12</duration>
        <type>eighth</type>
        <accidental/>
        <lyric>
          <text>oğ</text>
        </lyric>
      </note>
      <note>
        <pitch>
          <step>B</step>
          <octave>4</octave>
          <alter>-0.5</alter>
        </pitch>
        <duration>12</duration>
        <type>eighth</type>
        <accidental>quarter-flat</accidental>
        <lyric>
          <text></text>
        </lyric>
      </note>
    </measure>
    <measure number="53">
      <note>
        <pitch>
          <step>B</step>
          <octave>4</octave>
          <alter>-0.5</alter>
        </pitch>
        <duration>60</duration>
        <type>half</type>
        <dot/>
        <accidental>quarter-flat</accidental>
        <lyric>
          <text>lu </text>
        </lyric>
      </note>
      <note>
        <pitch>
          <step>A</step>
          <octave>4</octave>
        </pitch>
        <duration>12</duration>
        <type>eighth</type>
        <accidental/>
        <lyric>
          <text></text>
        </lyric>
      </note>
    </measure>
    <measure number="54">
      <note>
        <pitch>
          <step>A</step>
          <octave>4</octave>
        </pitch>
        <duration>24</duration>
        <type>quarter</type>
        <accidental/>
        <lyric>
          <text>zor </text>
        </lyric>
      </note>
      <note>
        <pitch>
          <step>C</step>
          <octave>5</octave>
        </pitch>
        <duration>12</duration>
        <type>eighth</type>
        <accidental/>
        <lyric>
          <text>be</text>
        </lyric>
      </note>
      <note>
        <pitch>
          <step>B</step>
          <octave>4</octave>
          <alter>-0.5</alter>
        </pitch>
        <duration>12</duration>
        <type>eighth</type>
        <accidental>quarter-flat</accidental>
        <lyric>
          <text>yin_</text>
        </lyric>
      </note>
      <note>
        <pitch>
          <step>B</step>
          <octave>4</octave>
          <alter>-0.5</alter>
        </pitch>
        <duration>12</duration>
        <type>eighth</type>
        <accidental>quarter-flat</accidental>
        <lyric>
          <text>oğ</text>
        </lyric>
      </note>
      <note>
        <pitch>
          <step>A</step>
          <octave>4</octave>
        </pitch>
        <duration>12</duration>
        <type>eighth</type>
        <accidental/>
        <lyric>
          <text></text>
        </lyric>
      </note>
    </measure>
    <measure number="55">
      <note>
        <pitch>
          <step>A</step>
          <octave>4</octave>
        </pitch>
        <duration>72</duration>
        <type>half</type>
        <dot/>
        <accidental/>
        <lyric>
          <text>lu  </text>
        </lyric>
      </note>
    </measure>
    <measure number="56">
      <note>
        <pitch>
          <step>D</step>
          <octave>5</octave>
        </pitch>
        <duration>12</duration>
        <type>eighth</type>
        <accidental/>
        <lyric>
          <text>Ki</text>
        </lyric>
      </note>
      <note>
        <pitch>
          <step>D</step>
          <octave>5</octave>
        </pitch>
        <duration>24</duration>
        <type>quarter</type>
        <accidental/>
        <lyric>
          <text>zir_</text>
        </lyric>
      </note>
      <note>
        <pitch>
          <step>D</step>
          <octave>5</octave>
        </pitch>
        <duration>24</duration>
        <type>quarter</type>
        <accidental/>
        <lyric>
          <text>oğ</text>
        </lyric>
      </note>
      <note>
        <pitch>
          <step>D</step>
          <octave>5</octave>
        </pitch>
        <duration>12</duration>
        <type>eighth</type>
        <accidental/>
        <lyric>
          <text>lu </text>
        </lyric>
      </note>
    </measure>
    <measure number="57">
      <note>
        <pitch>
          <step>D</step>
          <octave>5</octave>
        </pitch>
        <duration>24</duration>
        <type>quarter</type>
        <accidental/>
        <lyric>
          <text>Mus</text>
        </lyric>
      </note>
      <note>
        <pitch>
          <step>C</step>
          <octave>5</octave>
        </pitch>
        <duration>12</duration>
        <type>eighth</type>
        <accidental/>
        <lyric>
          <text>ta</text>
        </lyric>
      </note>
      <note>
        <pitch>
          <step>E</step>
          <octave>5</octave>
        </pitch>
        <duration>12</duration>
        <type>eighth</type>
        <accidental/>
        <lyric>
          <text>fa </text>
        </lyric>
      </note>
      <note>
        <pitch>
          <step>E</step>
          <octave>5</octave>
        </pitch>
        <duration>12</duration>
        <type>eighth</type>
        <accidental/>
        <lyric>
          <text></text>
        </lyric>
      </note>
      <note>
        <pitch>
          <step>D</step>
          <octave>5</octave>
        </pitch>
        <duration>12</duration>
        <type>eighth</type>
        <accidental/>
        <lyric>
          <text></text>
        </lyric>
      </note>
    </measure>
    <measure number="58">
      <note>
        <pitch>
          <step>C</step>
          <octave>5</octave>
        </pitch>
        <duration>72</duration>
        <type>half</type>
        <dot/>
        <accidental/>
        <lyric>
          <text>bey  </text>
        </lyric>
      </note>
    </measure>
    <measure number="59">
      <note>
        <pitch>
          <step>C</step>
          <octave>5</octave>
        </pitch>
        <duration>12</duration>
        <type>eighth</type>
        <accidental/>
        <lyric>
          <text>Bir </text>
        </lyric>
      </note>
      <note>
        <pitch>
          <step>B</step>
          <octave>4</octave>
          <alter>-0.5</alter>
        </pitch>
        <duration>12</duration>
        <type>eighth</type>
        <accidental>quarter-flat</accidental>
        <lyric>
          <text></text>
        </lyric>
      </note>
      <note>
        <pitch>
          <step>C</step>
          <octave>5</octave>
        </pitch>
        <duration>12</duration>
        <type>eighth</type>
        <accidental/>
        <lyric>
          <text>be</text>
        </lyric>
      </note>
      <note>
        <pitch>
          <step>D</step>
          <octave>5</octave>
        </pitch>
        <duration>12</duration>
        <type>eighth</type>
        <accidental/>
        <lyric>
          <text>yin_</text>
        </lyric>
      </note>
      <note>
        <pitch>
          <step>C</step>
          <octave>5</octave>
        </pitch>
        <duration>12</duration>
        <type>eighth</type>
        <accidental/>
        <lyric>
          <text>oğ</text>
        </lyric>
      </note>
      <note>
        <pitch>
          <step>B</step>
          <octave>4</octave>
          <alter>-0.5</alter>
        </pitch>
        <duration>12</duration>
        <type>eighth</type>
        <accidental>quarter-flat</accidental>
        <lyric>
          <text></text>
        </lyric>
      </note>
    </measure>
    <measure number="60">
      <note>
        <pitch>
          <step>B</step>
          <octave>4</octave>
          <alter>-0.5</alter>
        </pitch>
        <duration>60</duration>
        <type>half</type>
        <dot/>
        <accidental>quarter-flat</accidental>
        <lyric>
          <text>lu </text>
        </lyric>
      </note>
      <note>
        <pitch>
          <step>A</step>
          <octave>4</octave>
        </pitch>
        <duration>12</duration>
        <type>eighth</type>
        <accidental/>
        <lyric>
          <text></text>
        </lyric>
      </note>
    </measure>
    <measure number="61">
      <note>
        <pitch>
          <step>A</step>
          <octave>4</octave>
        </pitch>
        <duration>24</duration>
        <type>quarter</type>
        <accidental/>
        <lyric>
          <text>zor </text>
        </lyric>
      </note>
      <note>
        <pitch>
          <step>C</step>
          <octave>5</octave>
        </pitch>
        <duration>12</duration>
        <type>eighth</type>
        <accidental/>
        <lyric>
          <text>be</text>
        </lyric>
      </note>
      <note>
        <pitch>
          <step>B</step>
          <octave>4</octave>
          <alter>-0.5</alter>
        </pitch>
        <duration>12</duration>
        <type>eighth</type>
        <accidental>quarter-flat</accidental>
        <lyric>
          <text>yin_</text>
        </lyric>
      </note>
      <note>
        <pitch>
          <step>B</step>
          <octave>4</octave>
          <alter>-0.5</alter>
        </pitch>
        <duration>12</duration>
        <type>eighth</type>
        <accidental>quarter-flat</accidental>
        <lyric>
          <text>oğ</text>
        </lyric>
      </note>
      <note>
        <pitch>
          <step>A</step>
          <octave>4</octave>
        </pitch>
        <duration>12</duration>
        <type>eighth</type>
        <accidental/>
        <lyric>
          <text></text>
        </lyric>
      </note>
    </measure>
    <measure number="62">
      <note>
        <pitch>
          <step>A</step>
          <octave>4</octave>
        </pitch>
        <duration>72</duration>
        <type>half</type>
        <dot/>
        <accidental/>
        <lyric>
          <text>lu  </text>
        </lyric>
      </note>
    </measure>
    <measure number="63"/>
  </part>
</score-partwise>
