<?xml version='1.0' encoding='UTF-8' standalone='no'?>
<!DOCTYPE score-partwise PUBLIC "-//Recordare//DTD MusicXML 3.0 Partwise//EN" "http://www.musicxml.org/dtds/partwise.dtd">
<score-partwise version="3.0">
  <work>
    <work-title>Bu Kis</work-title>
  </work>
  <part-list>
    <score-part id="P1">
      <part-name>Music</part-name>
    </score-part>
  </part-list>
  <part id="P1">
    <measure number="1">
      <direction placement="above">
        <direction-type>
          <words default-y="35">Makam: Karcigar, Usul: Aksak</words>
        </direction-type>
        <sound tempo="102"/>
      </direction>
      <attributes>
        <divisions>96</divisions>
        <key>
          <key-step>F</key-step>
          <key-alter>+3</key-alter>
          <key-accidental>sharp</key-accidental>
          <key-step>E</key-step>
          <key-alter>-3</key-alter>
          <key-accidental>slash-flat</key-accidental>
          <key-step>B</key-step>
          <key-alter>-2</key-alter>
          <key-accidental>quarter-flat</key-accidental>
        </key>
        <time>
          <beats>9</beats>
          <beat-type>8</beat-type>
        </time>
      </attributes>
      <note>
        <pitch>
          <step>D</step>
          <octave>5</octave>
        </pitch>
        <duration>72</duration>
        <type>eighth</type>
        <dot/>
        <lyric name="ARANAĞME">
          <text>ARANAĞME</text>
        </lyric>
      </note>
      <note>
        <pitch>
          <step>C</step>
          <octave>5</octave>
        </pitch>
        <duration>24</duration>
        <type>16th</type>
        <lyric>
          <text>.</text>
        </lyric>
      </note>
      <note>
        <pitch>
          <step>B</step>
          <alter>-0.5</alter>
          <octave>4</octave>
        </pitch>
        <duration>48</duration>
        <type>eighth</type>
        <accidental>quarter-flat</accidental>
        <lyric>
          <text>.</text>
        </lyric>
      </note>
      <note>
        <pitch>
          <step>A</step>
          <octave>4</octave>
        </pitch>
        <duration>48</duration>
        <type>eighth</type>
        <lyric>
          <text>.</text>
        </lyric>
      </note>
      <note>
        <pitch>
          <step>B</step>
          <alter>-0.5</alter>
          <octave>4</octave>
        </pitch>
        <duration>48</duration>
        <type>eighth</type>
        <accidental>quarter-flat</accidental>
        <lyric>
          <text>.</text>
        </lyric>
      </note>
      <note>
        <pitch>
          <step>C</step>
          <octave>5</octave>
        </pitch>
        <duration>48</duration>
        <type>eighth</type>
        <lyric>
          <text>.</text>
        </lyric>
      </note>
      <note>
        <pitch>
          <step>D</step>
          <octave>5</octave>
        </pitch>
        <duration>144</duration>
        <type>quarter</type>
        <dot/>
        <lyric>
          <text>.</text>
        </lyric>
      </note>
    </measure>
    <measure number="2">
      <attributes/>
      <note>
        <pitch>
          <step>D</step>
          <octave>5</octave>
        </pitch>
        <duration>72</duration>
        <type>eighth</type>
        <dot/>
        <lyric>
          <text>.</text>
        </lyric>
      </note>
      <note>
        <pitch>
          <step>C</step>
          <octave>5</octave>
        </pitch>
        <duration>24</duration>
        <type>16th</type>
        <lyric>
          <text>.</text>
        </lyric>
      </note>
      <note>
        <pitch>
          <step>B</step>
          <alter>-0.5</alter>
          <octave>4</octave>
        </pitch>
        <duration>48</duration>
        <type>eighth</type>
        <accidental>quarter-flat</accidental>
        <lyric>
          <text>.</text>
        </lyric>
      </note>
      <note>
        <pitch>
          <step>A</step>
          <octave>4</octave>
        </pitch>
        <duration>48</duration>
        <type>eighth</type>
        <lyric>
          <text>.</text>
        </lyric>
      </note>
      <note>
        <pitch>
          <step>B</step>
          <alter>-0.5</alter>
          <octave>4</octave>
        </pitch>
        <duration>48</duration>
        <type>eighth</type>
        <accidental>quarter-flat</accidental>
        <lyric>
          <text>.</text>
        </lyric>
      </note>
      <note>
        <pitch>
          <step>C</step>
          <octave>5</octave>
        </pitch>
        <duration>48</duration>
        <type>eighth</type>
        <lyric>
          <text>.</text>
        </lyric>
      </note>
      <note>
        <pitch>
          <step>D</step>
          <octave>5</octave>
        </pitch>
        <duration>144</duration>
        <type>quarter</type>
        <dot/>
        <lyric>
          <text>.</text>
        </lyric>
      </note>
    </measure>
    <measure number="3">
      <attributes/>
      <note>
        <pitch>
          <step>D</step>
          <octave>5</octave>
        </pitch>
        <duration>96</duration>
        <type>quarter</type>
        <lyric>
          <text>.</text>
        </lyric>
      </note>
      <note>
        <pitch>
          <step>D</step>
          <octave>5</octave>
        </pitch>
        <duration>48</duration>
        <type>eighth</type>
        <lyric>
          <text>.</text>
        </lyric>
      </note>
      <note>
        <pitch>
          <step>E</step>
          <octave>5</octave>
        </pitch>
        <duration>48</duration>
        <type>eighth</type>
        <accidental>slash-flat</accidental>
        <lyric>
          <text>.</text>
        </lyric>
      </note>
      <note>
        <pitch>
          <step>G</step>
          <octave>5</octave>
        </pitch>
        <duration>48</duration>
        <type>eighth</type>
        <lyric>
          <text>.</text>
        </lyric>
      </note>
      <note>
        <pitch>
          <step>F</step>
          <alter>+1</alter>
          <octave>5</octave>
        </pitch>
        <duration>48</duration>
        <type>eighth</type>
        <accidental>sharp</accidental>
        <lyric>
          <text>.</text>
        </lyric>
      </note>
      <note>
        <pitch>
          <step>E</step>
          <octave>5</octave>
        </pitch>
        <duration>48</duration>
        <type>eighth</type>
        <accidental>slash-flat</accidental>
        <lyric>
          <text>.</text>
        </lyric>
      </note>
      <note>
        <pitch>
          <step>D</step>
          <octave>5</octave>
        </pitch>
        <duration>48</duration>
        <type>eighth</type>
        <lyric>
          <text>.</text>
        </lyric>
      </note>
      <note>
        <pitch>
          <step>C</step>
          <octave>5</octave>
        </pitch>
        <duration>48</duration>
        <type>eighth</type>
        <lyric>
          <text>.</text>
        </lyric>
      </note>
    </measure>
    <measure number="4">
      <attributes/>
      <note>
        <pitch>
          <step>C</step>
          <octave>5</octave>
        </pitch>
        <duration>48</duration>
        <type>eighth</type>
        <lyric>
          <text>.</text>
        </lyric>
      </note>
      <note>
        <pitch>
          <step>B</step>
          <alter>-0.5</alter>
          <octave>4</octave>
        </pitch>
        <duration>48</duration>
        <type>eighth</type>
        <accidental>quarter-flat</accidental>
        <lyric>
          <text>.</text>
        </lyric>
      </note>
      <note>
        <pitch>
          <step>B</step>
          <alter>-0.5</alter>
          <octave>4</octave>
        </pitch>
        <duration>48</duration>
        <type>eighth</type>
        <accidental>quarter-flat</accidental>
        <lyric>
          <text>.</text>
        </lyric>
      </note>
      <note>
        <pitch>
          <step>A</step>
          <octave>4</octave>
        </pitch>
        <duration>48</duration>
        <type>eighth</type>
        <lyric>
          <text>.</text>
        </lyric>
      </note>
      <note>
        <pitch>
          <step>A</step>
          <octave>4</octave>
        </pitch>
        <duration>96</duration>
        <type>quarter</type>
        <lyric>
          <text>.</text>
        </lyric>
      </note>
      <note>
        <pitch>
          <step>D</step>
          <octave>5</octave>
        </pitch>
        <duration>144</duration>
        <type>quarter</type>
        <dot/>
        <lyric>
          <text>.</text>
        </lyric>
      </note>
    </measure>
    <measure number="5">
      <attributes/>
      <note>
        <pitch>
          <step>D</step>
          <octave>5</octave>
        </pitch>
        <duration>72</duration>
        <type>eighth</type>
        <dot/>
        <lyric name="ARANAĞME">
          <text>ARANAĞME</text>
        </lyric>
      </note>
      <note>
        <pitch>
          <step>C</step>
          <octave>5</octave>
        </pitch>
        <duration>24</duration>
        <type>16th</type>
        <lyric>
          <text>.</text>
        </lyric>
      </note>
      <note>
        <pitch>
          <step>B</step>
          <alter>-0.5</alter>
          <octave>4</octave>
        </pitch>
        <duration>48</duration>
        <type>eighth</type>
        <accidental>quarter-flat</accidental>
        <lyric>
          <text>.</text>
        </lyric>
      </note>
      <note>
        <pitch>
          <step>A</step>
          <octave>4</octave>
        </pitch>
        <duration>48</duration>
        <type>eighth</type>
        <lyric>
          <text>.</text>
        </lyric>
      </note>
      <note>
        <pitch>
          <step>B</step>
          <alter>-0.5</alter>
          <octave>4</octave>
        </pitch>
        <duration>48</duration>
        <type>eighth</type>
        <accidental>quarter-flat</accidental>
        <lyric>
          <text>.</text>
        </lyric>
      </note>
      <note>
        <pitch>
          <step>C</step>
          <octave>5</octave>
        </pitch>
        <duration>48</duration>
        <type>eighth</type>
        <lyric>
          <text>.</text>
        </lyric>
      </note>
      <note>
        <pitch>
          <step>D</step>
          <octave>5</octave>
        </pitch>
        <duration>144</duration>
        <type>quarter</type>
        <dot/>
        <lyric>
          <text>.</text>
        </lyric>
      </note>
    </measure>
    <measure number="6">
      <attributes/>
      <note>
        <pitch>
          <step>D</step>
          <octave>5</octave>
        </pitch>
        <duration>72</duration>
        <type>eighth</type>
        <dot/>
        <lyric>
          <text>.</text>
        </lyric>
      </note>
      <note>
        <pitch>
          <step>C</step>
          <octave>5</octave>
        </pitch>
        <duration>24</duration>
        <type>16th</type>
        <lyric>
          <text>.</text>
        </lyric>
      </note>
      <note>
        <pitch>
          <step>B</step>
          <alter>-0.5</alter>
          <octave>4</octave>
        </pitch>
        <duration>48</duration>
        <type>eighth</type>
        <accidental>quarter-flat</accidental>
        <lyric>
          <text>.</text>
        </lyric>
      </note>
      <note>
        <pitch>
          <step>A</step>
          <octave>4</octave>
        </pitch>
        <duration>48</duration>
        <type>eighth</type>
        <lyric>
          <text>.</text>
        </lyric>
      </note>
      <note>
        <pitch>
          <step>B</step>
          <alter>-0.5</alter>
          <octave>4</octave>
        </pitch>
        <duration>48</duration>
        <type>eighth</type>
        <accidental>quarter-flat</accidental>
        <lyric>
          <text>.</text>
        </lyric>
      </note>
      <note>
        <pitch>
          <step>C</step>
          <octave>5</octave>
        </pitch>
        <duration>48</duration>
        <type>eighth</type>
        <lyric>
          <text>.</text>
        </lyric>
      </note>
      <note>
        <pitch>
          <step>D</step>
          <octave>5</octave>
        </pitch>
        <duration>144</duration>
        <type>quarter</type>
        <dot/>
        <lyric>
          <text>.</text>
        </lyric>
      </note>
    </measure>
    <measure number="7">
      <attributes/>
      <note>
        <pitch>
          <step>D</step>
          <octave>5</octave>
        </pitch>
        <duration>96</duration>
        <type>quarter</type>
        <lyric>
          <text>.</text>
        </lyric>
      </note>
      <note>
        <pitch>
          <step>D</step>
          <octave>5</octave>
        </pitch>
        <duration>48</duration>
        <type>eighth</type>
        <lyric>
          <text>.</text>
        </lyric>
      </note>
      <note>
        <pitch>
          <step>E</step>
          <octave>5</octave>
        </pitch>
        <duration>48</duration>
        <type>eighth</type>
        <accidental>slash-flat</accidental>
        <lyric>
          <text>.</text>
        </lyric>
      </note>
      <note>
        <pitch>
          <step>G</step>
          <octave>5</octave>
        </pitch>
        <duration>48</duration>
        <type>eighth</type>
        <lyric>
          <text>.</text>
        </lyric>
      </note>
      <note>
        <pitch>
          <step>F</step>
          <alter>+1</alter>
          <octave>5</octave>
        </pitch>
        <duration>48</duration>
        <type>eighth</type>
        <accidental>sharp</accidental>
        <lyric>
          <text>.</text>
        </lyric>
      </note>
      <note>
        <pitch>
          <step>E</step>
          <octave>5</octave>
        </pitch>
        <duration>48</duration>
        <type>eighth</type>
        <accidental>slash-flat</accidental>
        <lyric>
          <text>.</text>
        </lyric>
      </note>
      <note>
        <pitch>
          <step>D</step>
          <octave>5</octave>
        </pitch>
        <duration>48</duration>
        <type>eighth</type>
        <lyric>
          <text>.</text>
        </lyric>
      </note>
      <note>
        <pitch>
          <step>C</step>
          <octave>5</octave>
        </pitch>
        <duration>48</duration>
        <type>eighth</type>
        <lyric>
          <text>50</text>
        </lyric>
      </note>
    </measure>
    <measure number="8">
      <attributes/>
      <note>
        <pitch>
          <step>C</step>
          <octave>5</octave>
        </pitch>
        <duration>48</duration>
        <type>eighth</type>
        <lyric>
          <text>.</text>
        </lyric>
      </note>
      <note>
        <pitch>
          <step>B</step>
          <alter>-0.5</alter>
          <octave>4</octave>
        </pitch>
        <duration>48</duration>
        <type>eighth</type>
        <accidental>quarter-flat</accidental>
        <lyric>
          <text>.</text>
        </lyric>
      </note>
      <note>
        <pitch>
          <step>B</step>
          <alter>-0.5</alter>
          <octave>4</octave>
        </pitch>
        <duration>48</duration>
        <type>eighth</type>
        <accidental>quarter-flat</accidental>
        <lyric>
          <text>.</text>
        </lyric>
      </note>
      <note>
        <pitch>
          <step>A</step>
          <octave>4</octave>
        </pitch>
        <duration>48</duration>
        <type>eighth</type>
        <lyric>
          <text>.</text>
        </lyric>
      </note>
      <note>
        <pitch>
          <step>A</step>
          <octave>4</octave>
        </pitch>
        <duration>96</duration>
        <type>quarter</type>
        <lyric>
          <text>.</text>
        </lyric>
      </note>
      <note>
        <pitch>
          <step>A</step>
          <octave>5</octave>
        </pitch>
        <duration>24</duration>
        <type>16th</type>
        <lyric>
          <text>.</text>
        </lyric>
      </note>
      <note>
        <pitch>
          <step>B</step>
          <alter>-1</alter>
          <octave>5</octave>
        </pitch>
        <duration>24</duration>
        <type>16th</type>
        <accidental>flat</accidental>
        <lyric>
          <text>.</text>
        </lyric>
      </note>
      <note>
        <pitch>
          <step>A</step>
          <octave>5</octave>
        </pitch>
        <duration>24</duration>
        <type>16th</type>
        <lyric>
          <text>.</text>
        </lyric>
      </note>
      <note>
        <pitch>
          <step>G</step>
          <octave>5</octave>
        </pitch>
        <duration>24</duration>
        <type>16th</type>
        <lyric>
          <text>.</text>
        </lyric>
      </note>
      <note>
        <pitch>
          <step>F</step>
          <alter>+1</alter>
          <octave>5</octave>
        </pitch>
        <duration>24</duration>
        <type>16th</type>
        <accidental>sharp</accidental>
        <lyric>
          <text>.</text>
        </lyric>
      </note>
      <note>
        <pitch>
          <step>G</step>
          <octave>5</octave>
        </pitch>
        <duration>24</duration>
        <type>16th</type>
        <lyric>
          <text>.</text>
        </lyric>
      </note>
    </measure>
    <measure number="9">
      <attributes/>
      <note>
        <pitch>
          <step>A</step>
          <octave>5</octave>
        </pitch>
        <duration>96</duration>
        <type>quarter</type>
        <lyric name="VOCAL_SECTION">
          <text>.</text>
        </lyric>
      </note>
      <note>
        <pitch>
          <step>F</step>
          <alter>+1</alter>
          <octave>5</octave>
        </pitch>
        <duration>48</duration>
        <type>eighth</type>
        <accidental>sharp</accidental>
        <lyric>
          <syllabic>single</syllabic>
          <text>Bu </text>
        </lyric>
      </note>
      <note>
        <pitch>
          <step>G</step>
          <octave>5</octave>
        </pitch>
        <duration>48</duration>
        <type>eighth</type>
        <lyric>
          <syllabic>single</syllabic>
          <text>kış </text>
        </lyric>
      </note>
      <note>
        <pitch>
          <step>A</step>
          <octave>5</octave>
        </pitch>
        <duration>96</duration>
        <type>quarter</type>
        <lyric>
          <syllabic>begin</syllabic>
          <text>ha</text>
        </lyric>
      </note>
      <note>
        <pitch>
          <step>A</step>
          <octave>5</octave>
        </pitch>
        <duration>144</duration>
        <type>quarter</type>
        <dot/>
        <lyric>
          <syllabic>end</syllabic>
          <text>nım </text>
        </lyric>
      </note>
    </measure>
    <measure number="10">
      <attributes/>
      <note>
        <pitch>
          <step>A</step>
          <octave>5</octave>
        </pitch>
        <duration>96</duration>
        <type>quarter</type>
        <lyric>
          <syllabic>begin</syllabic>
          <text>İs</text>
        </lyric>
      </note>
      <note>
        <pitch>
          <step>A</step>
          <octave>5</octave>
        </pitch>
        <duration>48</duration>
        <type>eighth</type>
        <lyric>
          <syllabic>end</syllabic>
          <text>tan</text>
        </lyric>
      </note>
      <note>
        <pitch>
          <step>B</step>
          <alter>-1</alter>
          <octave>5</octave>
        </pitch>
        <duration>48</duration>
        <type>eighth</type>
        <accidental>flat</accidental>
        <lyric>
          <text></text>
        </lyric>
      </note>
      <note>
        <pitch>
          <step>C</step>
          <octave>6</octave>
        </pitch>
        <duration>48</duration>
        <type>eighth</type>
        <lyric>
          <syllabic>begin</syllabic>
          <text>bul_</text>
        </lyric>
      </note>
      <note>
        <pitch>
          <step>B</step>
          <alter>-1</alter>
          <octave>5</octave>
        </pitch>
        <duration>48</duration>
        <type>eighth</type>
        <accidental>flat</accidental>
        <lyric>
          <text></text>
        </lyric>
      </note>
      <note>
        <pitch>
          <step>A</step>
          <octave>5</octave>
        </pitch>
        <duration>48</duration>
        <type>eighth</type>
        <lyric>
          <syllabic>end</syllabic>
          <text>a </text>
        </lyric>
      </note>
      <note>
        <pitch>
          <step>G</step>
          <octave>5</octave>
        </pitch>
        <duration>48</duration>
        <type>eighth</type>
        <lyric>
          <text></text>
        </lyric>
      </note>
      <note>
        <pitch>
          <step>F</step>
          <alter>+1</alter>
          <octave>5</octave>
        </pitch>
        <duration>48</duration>
        <type>eighth</type>
        <accidental>sharp</accidental>
        <lyric>
          <text></text>
        </lyric>
      </note>
    </measure>
    <measure number="11">
      <attributes/>
      <note>
        <pitch>
          <step>F</step>
          <alter>+1</alter>
          <octave>5</octave>
        </pitch>
        <duration>48</duration>
        <type>eighth</type>
        <accidental>sharp</accidental>
        <lyric>
          <syllabic>begin</syllabic>
          <text>ta</text>
        </lyric>
      </note>
      <note>
        <pitch>
          <step>E</step>
          <octave>5</octave>
        </pitch>
        <duration>48</duration>
        <type>eighth</type>
        <accidental>slash-flat</accidental>
        <lyric>
          <text></text>
        </lyric>
      </note>
      <note>
        <pitch>
          <step>E</step>
          <octave>5</octave>
        </pitch>
        <duration>48</duration>
        <type>eighth</type>
        <accidental>slash-flat</accidental>
        <lyric>
          <syllabic>end</syllabic>
          <text>şın </text>
        </lyric>
      </note>
      <note>
        <pitch>
          <step>D</step>
          <octave>5</octave>
        </pitch>
        <duration>48</duration>
        <type>eighth</type>
        <lyric>
          <text></text>
        </lyric>
      </note>
      <note>
        <pitch>
          <step>D</step>
          <octave>5</octave>
        </pitch>
        <duration>96</duration>
        <type>quarter</type>
        <lyric>
          <syllabic>single</syllabic>
          <text>da  </text>
          <end-line/>
        </lyric>
      </note>
      <note>
        <pitch>
          <step>A</step>
          <octave>5</octave>
        </pitch>
        <duration>24</duration>
        <type>16th</type>
        <lyric name="SAZ">
          <text>SAZ</text>
        </lyric>
      </note>
      <note>
        <pitch>
          <step>B</step>
          <alter>-1</alter>
          <octave>5</octave>
        </pitch>
        <duration>24</duration>
        <type>16th</type>
        <accidental>flat</accidental>
        <lyric>
          <text>.</text>
        </lyric>
      </note>
      <note>
        <pitch>
          <step>A</step>
          <octave>5</octave>
        </pitch>
        <duration>24</duration>
        <type>16th</type>
        <lyric>
          <text>.</text>
        </lyric>
      </note>
      <note>
        <pitch>
          <step>G</step>
          <octave>5</octave>
        </pitch>
        <duration>24</duration>
        <type>16th</type>
        <lyric>
          <text>.</text>
        </lyric>
      </note>
      <note>
        <pitch>
          <step>F</step>
          <alter>+1</alter>
          <octave>5</octave>
        </pitch>
        <duration>24</duration>
        <type>16th</type>
        <accidental>sharp</accidental>
        <lyric>
          <text>.</text>
        </lyric>
      </note>
      <note>
        <pitch>
          <step>G</step>
          <octave>5</octave>
        </pitch>
        <duration>24</duration>
        <type>16th</type>
        <lyric>
          <text>.</text>
        </lyric>
      </note>
    </measure>
    <measure number="12">
      <attributes/>
      <note>
        <pitch>
          <step>A</step>
          <octave>5</octave>
        </pitch>
        <duration>96</duration>
        <type>quarter</type>
        <lyric name="VOCAL_SECTION">
          <text>.</text>
        </lyric>
      </note>
      <note>
        <pitch>
          <step>F</step>
          <alter>+1</alter>
          <octave>5</octave>
        </pitch>
        <duration>48</duration>
        <type>eighth</type>
        <accidental>sharp</accidental>
        <lyric>
          <syllabic>single</syllabic>
          <text>Bu </text>
        </lyric>
      </note>
      <note>
        <pitch>
          <step>G</step>
          <octave>5</octave>
        </pitch>
        <duration>48</duration>
        <type>eighth</type>
        <lyric>
          <syllabic>single</syllabic>
          <text>kış </text>
        </lyric>
      </note>
      <note>
        <pitch>
          <step>A</step>
          <octave>5</octave>
        </pitch>
        <duration>96</duration>
        <type>quarter</type>
        <lyric>
          <syllabic>begin</syllabic>
          <text>ha</text>
        </lyric>
      </note>
      <note>
        <pitch>
          <step>A</step>
          <octave>5</octave>
        </pitch>
        <duration>144</duration>
        <type>quarter</type>
        <dot/>
        <lyric>
          <syllabic>end</syllabic>
          <text>nım </text>
        </lyric>
      </note>
    </measure>
    <measure number="13">
      <attributes/>
      <note>
        <pitch>
          <step>A</step>
          <octave>5</octave>
        </pitch>
        <duration>96</duration>
        <type>quarter</type>
        <lyric>
          <syllabic>begin</syllabic>
          <text>İs</text>
        </lyric>
      </note>
      <note>
        <pitch>
          <step>A</step>
          <octave>5</octave>
        </pitch>
        <duration>48</duration>
        <type>eighth</type>
        <lyric>
          <syllabic>end</syllabic>
          <text>tan</text>
        </lyric>
      </note>
      <note>
        <pitch>
          <step>B</step>
          <alter>-1</alter>
          <octave>5</octave>
        </pitch>
        <duration>48</duration>
        <type>eighth</type>
        <accidental>flat</accidental>
        <lyric>
          <text></text>
        </lyric>
      </note>
      <note>
        <pitch>
          <step>C</step>
          <octave>6</octave>
        </pitch>
        <duration>48</duration>
        <type>eighth</type>
        <lyric>
          <syllabic>begin</syllabic>
          <text>bul_</text>
        </lyric>
      </note>
      <note>
        <pitch>
          <step>B</step>
          <alter>-1</alter>
          <octave>5</octave>
        </pitch>
        <duration>48</duration>
        <type>eighth</type>
        <accidental>flat</accidental>
        <lyric>
          <text></text>
        </lyric>
      </note>
      <note>
        <pitch>
          <step>A</step>
          <octave>5</octave>
        </pitch>
        <duration>48</duration>
        <type>eighth</type>
        <lyric>
          <syllabic>end</syllabic>
          <text>a </text>
        </lyric>
      </note>
      <note>
        <pitch>
          <step>G</step>
          <octave>5</octave>
        </pitch>
        <duration>48</duration>
        <type>eighth</type>
        <lyric>
          <text></text>
        </lyric>
      </note>
      <note>
        <pitch>
          <step>F</step>
          <alter>+1</alter>
          <octave>5</octave>
        </pitch>
        <duration>48</duration>
        <type>eighth</type>
        <accidental>sharp</accidental>
        <lyric>
          <text></text>
        </lyric>
      </note>
    </measure>
    <measure number="14">
      <attributes/>
      <note>
        <pitch>
          <step>F</step>
          <alter>+1</alter>
          <octave>5</octave>
        </pitch>
        <duration>48</duration>
        <type>eighth</type>
        <accidental>sharp</accidental>
        <lyric>
          <syllabic>begin</syllabic>
          <text>ta</text>
        </lyric>
      </note>
      <note>
        <pitch>
          <step>E</step>
          <octave>5</octave>
        </pitch>
        <duration>48</duration>
        <type>eighth</type>
        <accidental>slash-flat</accidental>
        <lyric>
          <text>100</text>
        </lyric>
      </note>
      <note>
        <pitch>
          <step>E</step>
          <octave>5</octave>
        </pitch>
        <duration>48</duration>
        <type>eighth</type>
        <accidental>slash-flat</accidental>
        <lyric>
          <syllabic>end</syllabic>
          <text>şın </text>
        </lyric>
      </note>
      <note>
        <pitch>
          <step>D</step>
          <octave>5</octave>
        </pitch>
        <duration>48</duration>
        <type>eighth</type>
        <lyric>
          <text></text>
        </lyric>
      </note>
      <note>
        <pitch>
          <step>D</step>
          <octave>5</octave>
        </pitch>
        <duration>96</duration>
        <type>quarter</type>
        <lyric>
          <syllabic>single</syllabic>
          <text>da  </text>
          <end-line/>
        </lyric>
      </note>
      <note>
        <pitch>
          <step>D</step>
          <octave>5</octave>
        </pitch>
        <duration>144</duration>
        <type>quarter</type>
        <dot/>
        <lyric name="SAZ">
          <text>SAZ</text>
        </lyric>
      </note>
    </measure>
    <measure number="15">
      <attributes/>
      <note>
        <pitch>
          <step>D</step>
          <octave>5</octave>
        </pitch>
        <duration>72</duration>
        <type>eighth</type>
        <dot/>
        <lyric name="VOCAL_SECTION">
          <syllabic>begin</syllabic>
          <text>Eğ</text>
        </lyric>
      </note>
      <note>
        <pitch>
          <step>C</step>
          <octave>5</octave>
        </pitch>
        <duration>24</duration>
        <type>16th</type>
        <lyric>
          <text></text>
        </lyric>
      </note>
      <note>
        <pitch>
          <step>B</step>
          <alter>-0.5</alter>
          <octave>4</octave>
        </pitch>
        <duration>48</duration>
        <type>eighth</type>
        <accidental>quarter-flat</accidental>
        <lyric>
          <text></text>
        </lyric>
      </note>
      <note>
        <pitch>
          <step>A</step>
          <octave>4</octave>
        </pitch>
        <duration>48</duration>
        <type>eighth</type>
        <lyric>
          <syllabic>end</syllabic>
          <text>le</text>
        </lyric>
      </note>
      <note>
        <pitch>
          <step>B</step>
          <alter>-0.5</alter>
          <octave>4</octave>
        </pitch>
        <duration>48</duration>
        <type>eighth</type>
        <accidental>quarter-flat</accidental>
        <lyric>
          <syllabic>begin</syllabic>
          <text>ne</text>
        </lyric>
      </note>
      <note>
        <pitch>
          <step>C</step>
          <octave>5</octave>
        </pitch>
        <duration>48</duration>
        <type>eighth</type>
        <lyric>
          <text></text>
        </lyric>
      </note>
      <note>
        <pitch>
          <step>D</step>
          <octave>5</octave>
        </pitch>
        <duration>144</duration>
        <type>quarter</type>
        <dot/>
        <lyric>
          <syllabic>end</syllabic>
          <text>lim </text>
        </lyric>
      </note>
    </measure>
    <measure number="16">
      <attributes/>
      <note>
        <pitch>
          <step>D</step>
          <octave>5</octave>
        </pitch>
        <duration>72</duration>
        <type>eighth</type>
        <dot/>
        <lyric>
          <syllabic>begin</syllabic>
          <text>zevk_</text>
        </lyric>
      </note>
      <note>
        <pitch>
          <step>C</step>
          <octave>5</octave>
        </pitch>
        <duration>24</duration>
        <type>16th</type>
        <lyric>
          <text></text>
        </lyric>
      </note>
      <note>
        <pitch>
          <step>B</step>
          <alter>-0.5</alter>
          <octave>4</octave>
        </pitch>
        <duration>48</duration>
        <type>eighth</type>
        <accidental>quarter-flat</accidental>
        <lyric>
          <text></text>
        </lyric>
      </note>
      <note>
        <pitch>
          <step>A</step>
          <octave>4</octave>
        </pitch>
        <duration>48</duration>
        <type>eighth</type>
        <lyric>
          <syllabic>end</syllabic>
          <text>e</text>
        </lyric>
      </note>
      <note>
        <pitch>
          <step>B</step>
          <alter>-0.5</alter>
          <octave>4</octave>
        </pitch>
        <duration>48</duration>
        <type>eighth</type>
        <accidental>quarter-flat</accidental>
        <lyric>
          <syllabic>begin</syllabic>
          <text>de</text>
        </lyric>
      </note>
      <note>
        <pitch>
          <step>C</step>
          <octave>5</octave>
        </pitch>
        <duration>48</duration>
        <type>eighth</type>
        <lyric>
          <text></text>
        </lyric>
      </note>
      <note>
        <pitch>
          <step>D</step>
          <octave>5</octave>
        </pitch>
        <duration>144</duration>
        <type>quarter</type>
        <dot/>
        <lyric>
          <syllabic>end</syllabic>
          <text>lim </text>
        </lyric>
      </note>
    </measure>
    <measure number="17">
      <attributes/>
      <note>
        <pitch>
          <step>D</step>
          <octave>5</octave>
        </pitch>
        <duration>96</duration>
        <type>quarter</type>
        <lyric>
          <syllabic>begin</syllabic>
          <text>Kal</text>
        </lyric>
      </note>
      <note>
        <pitch>
          <step>D</step>
          <octave>5</octave>
        </pitch>
        <duration>48</duration>
        <type>eighth</type>
        <lyric>
          <syllabic>end</syllabic>
          <text>pak</text>
        </lyric>
      </note>
      <note>
        <pitch>
          <step>E</step>
          <octave>5</octave>
        </pitch>
        <duration>48</duration>
        <type>eighth</type>
        <accidental>slash-flat</accidental>
        <lyric>
          <text></text>
        </lyric>
      </note>
      <note>
        <pitch>
          <step>G</step>
          <octave>5</octave>
        </pitch>
        <duration>48</duration>
        <type>eighth</type>
        <lyric>
          <syllabic>begin</syllabic>
          <text>çı</text>
        </lyric>
      </note>
      <note>
        <pitch>
          <step>F</step>
          <alter>+1</alter>
          <octave>5</octave>
        </pitch>
        <duration>48</duration>
        <type>eighth</type>
        <accidental>sharp</accidental>
        <lyric>
          <text></text>
        </lyric>
      </note>
      <note>
        <pitch>
          <step>E</step>
          <octave>5</octave>
        </pitch>
        <duration>48</duration>
        <type>eighth</type>
        <accidental>slash-flat</accidental>
        <lyric>
          <syllabic>end</syllabic>
          <text>lar</text>
        </lyric>
      </note>
      <note>
        <pitch>
          <step>D</step>
          <octave>5</octave>
        </pitch>
        <duration>48</duration>
        <type>eighth</type>
        <lyric>
          <text></text>
        </lyric>
      </note>
      <note>
        <pitch>
          <step>C</step>
          <octave>5</octave>
        </pitch>
        <duration>48</duration>
        <type>eighth</type>
        <lyric>
          <text></text>
        </lyric>
      </note>
    </measure>
    <measure number="18">
      <attributes/>
      <note>
        <pitch>
          <step>C</step>
          <octave>5</octave>
        </pitch>
        <duration>48</duration>
        <type>eighth</type>
        <lyric>
          <syllabic>begin</syllabic>
          <text>ba</text>
        </lyric>
      </note>
      <note>
        <pitch>
          <step>B</step>
          <alter>-0.5</alter>
          <octave>4</octave>
        </pitch>
        <duration>48</duration>
        <type>eighth</type>
        <accidental>quarter-flat</accidental>
        <lyric>
          <text></text>
        </lyric>
      </note>
      <note>
        <pitch>
          <step>B</step>
          <alter>-0.5</alter>
          <octave>4</octave>
        </pitch>
        <duration>48</duration>
        <type>eighth</type>
        <accidental>quarter-flat</accidental>
        <lyric>
          <syllabic>end</syllabic>
          <text>şın</text>
        </lyric>
      </note>
      <note>
        <pitch>
          <step>A</step>
          <octave>4</octave>
        </pitch>
        <duration>48</duration>
        <type>eighth</type>
        <lyric>
          <text></text>
        </lyric>
      </note>
      <note>
        <pitch>
          <step>A</step>
          <octave>4</octave>
        </pitch>
        <duration>96</duration>
        <type>quarter</type>
        <lyric>
          <syllabic>single</syllabic>
          <text>da  </text>
          <end-line/>
        </lyric>
      </note>
      <note>
        <pitch>
          <step>D</step>
          <octave>5</octave>
        </pitch>
        <duration>144</duration>
        <type>quarter</type>
        <dot/>
        <lyric name="SAZ">
          <text>SAZ</text>
        </lyric>
      </note>
    </measure>
    <measure number="19">
      <attributes/>
      <note>
        <pitch>
          <step>D</step>
          <octave>5</octave>
        </pitch>
        <duration>72</duration>
        <type>eighth</type>
        <dot/>
        <lyric name="VOCAL_SECTION">
          <syllabic>begin</syllabic>
          <text>Eğ</text>
        </lyric>
      </note>
      <note>
        <pitch>
          <step>C</step>
          <octave>5</octave>
        </pitch>
        <duration>24</duration>
        <type>16th</type>
        <lyric>
          <text></text>
        </lyric>
      </note>
      <note>
        <pitch>
          <step>B</step>
          <alter>-0.5</alter>
          <octave>4</octave>
        </pitch>
        <duration>48</duration>
        <type>eighth</type>
        <accidental>quarter-flat</accidental>
        <lyric>
          <text></text>
        </lyric>
      </note>
      <note>
        <pitch>
          <step>A</step>
          <octave>4</octave>
        </pitch>
        <duration>48</duration>
        <type>eighth</type>
        <lyric>
          <syllabic>end</syllabic>
          <text>le</text>
        </lyric>
      </note>
      <note>
        <pitch>
          <step>B</step>
          <alter>-0.5</alter>
          <octave>4</octave>
        </pitch>
        <duration>48</duration>
        <type>eighth</type>
        <accidental>quarter-flat</accidental>
        <lyric>
          <syllabic>begin</syllabic>
          <text>ne</text>
        </lyric>
      </note>
      <note>
        <pitch>
          <step>C</step>
          <octave>5</octave>
        </pitch>
        <duration>48</duration>
        <type>eighth</type>
        <lyric>
          <text></text>
        </lyric>
      </note>
      <note>
        <pitch>
          <step>D</step>
          <octave>5</octave>
        </pitch>
        <duration>144</duration>
        <type>quarter</type>
        <dot/>
        <lyric>
          <syllabic>end</syllabic>
          <text>lim </text>
        </lyric>
      </note>
    </measure>
    <measure number="20">
      <attributes/>
      <note>
        <pitch>
          <step>D</step>
          <octave>5</octave>
        </pitch>
        <duration>72</duration>
        <type>eighth</type>
        <dot/>
        <lyric>
          <syllabic>begin</syllabic>
          <text>zevk_</text>
        </lyric>
      </note>
      <note>
        <pitch>
          <step>C</step>
          <octave>5</octave>
        </pitch>
        <duration>24</duration>
        <type>16th</type>
        <lyric>
          <text></text>
        </lyric>
      </note>
      <note>
        <pitch>
          <step>B</step>
          <alter>-0.5</alter>
          <octave>4</octave>
        </pitch>
        <duration>48</duration>
        <type>eighth</type>
        <accidental>quarter-flat</accidental>
        <lyric>
          <text></text>
        </lyric>
      </note>
      <note>
        <pitch>
          <step>A</step>
          <octave>4</octave>
        </pitch>
        <duration>48</duration>
        <type>eighth</type>
        <lyric>
          <syllabic>end</syllabic>
          <text>e</text>
        </lyric>
      </note>
      <note>
        <pitch>
          <step>B</step>
          <alter>-0.5</alter>
          <octave>4</octave>
        </pitch>
        <duration>48</duration>
        <type>eighth</type>
        <accidental>quarter-flat</accidental>
        <lyric>
          <syllabic>begin</syllabic>
          <text>de</text>
        </lyric>
      </note>
      <note>
        <pitch>
          <step>C</step>
          <octave>5</octave>
        </pitch>
        <duration>48</duration>
        <type>eighth</type>
        <lyric>
          <text></text>
        </lyric>
      </note>
      <note>
        <pitch>
          <step>D</step>
          <octave>5</octave>
        </pitch>
        <duration>144</duration>
        <type>quarter</type>
        <dot/>
        <lyric>
          <syllabic>end</syllabic>
          <text>lim </text>
        </lyric>
      </note>
    </measure>
    <measure number="21">
      <attributes/>
      <note>
        <pitch>
          <step>D</step>
          <octave>5</octave>
        </pitch>
        <duration>96</duration>
        <type>quarter</type>
        <lyric>
          <syllabic>begin</syllabic>
          <text>Kal</text>
        </lyric>
      </note>
      <note>
        <pitch>
          <step>D</step>
          <octave>5</octave>
        </pitch>
        <duration>48</duration>
        <type>eighth</type>
        <lyric>
          <syllabic>end</syllabic>
          <text>pak</text>
        </lyric>
      </note>
      <note>
        <pitch>
          <step>E</step>
          <octave>5</octave>
        </pitch>
        <duration>48</duration>
        <type>eighth</type>
        <accidental>slash-flat</accidental>
        <lyric>
          <text></text>
        </lyric>
      </note>
      <note>
        <pitch>
          <step>G</step>
          <octave>5</octave>
        </pitch>
        <duration>48</duration>
        <type>eighth</type>
        <lyric>
          <syllabic>begin</syllabic>
          <text>150</text>
        </lyric>
      </note>
      <note>
        <pitch>
          <step>F</step>
          <alter>+1</alter>
          <octave>5</octave>
        </pitch>
        <duration>48</duration>
        <type>eighth</type>
        <accidental>sharp</accidental>
        <lyric>
          <text></text>
        </lyric>
      </note>
      <note>
        <pitch>
          <step>E</step>
          <octave>5</octave>
        </pitch>
        <duration>48</duration>
        <type>eighth</type>
        <accidental>slash-flat</accidental>
        <lyric>
          <syllabic>end</syllabic>
          <text>lar</text>
        </lyric>
      </note>
      <note>
        <pitch>
          <step>D</step>
          <octave>5</octave>
        </pitch>
        <duration>48</duration>
        <type>eighth</type>
        <lyric>
          <text></text>
        </lyric>
      </note>
      <note>
        <pitch>
          <step>C</step>
          <octave>5</octave>
        </pitch>
        <duration>48</duration>
        <type>eighth</type>
        <lyric>
          <text></text>
        </lyric>
      </note>
    </measure>
    <measure number="22">
      <attributes/>
      <note>
        <pitch>
          <step>C</step>
          <octave>5</octave>
        </pitch>
        <duration>48</duration>
        <type>eighth</type>
        <lyric>
          <syllabic>begin</syllabic>
          <text>ba</text>
        </lyric>
      </note>
      <note>
        <pitch>
          <step>B</step>
          <alter>-0.5</alter>
          <octave>4</octave>
        </pitch>
        <duration>48</duration>
        <type>eighth</type>
        <accidental>quarter-flat</accidental>
        <lyric>
          <text></text>
        </lyric>
      </note>
      <note>
        <pitch>
          <step>B</step>
          <alter>-0.5</alter>
          <octave>4</octave>
        </pitch>
        <duration>48</duration>
        <type>eighth</type>
        <accidental>quarter-flat</accidental>
        <lyric>
          <syllabic>end</syllabic>
          <text>şın</text>
        </lyric>
      </note>
      <note>
        <pitch>
          <step>A</step>
          <octave>4</octave>
        </pitch>
        <duration>48</duration>
        <type>eighth</type>
        <lyric>
          <text></text>
        </lyric>
      </note>
      <note>
        <pitch>
          <step>A</step>
          <octave>4</octave>
        </pitch>
        <duration>96</duration>
        <type>quarter</type>
        <lyric>
          <syllabic>single</syllabic>
          <text>da  </text>
          <end-line/>
        </lyric>
      </note>
      <note>
        <pitch>
          <step>G</step>
          <octave>5</octave>
        </pitch>
        <duration>144</duration>
        <type>quarter</type>
        <dot/>
        <lyric name="SAZ">
          <text>SAZ</text>
        </lyric>
      </note>
    </measure>
    <measure number="23">
      <attributes/>
      <note>
        <rest/>
        <duration>96</duration>
        <type>quarter</type>
        <lyric name="VOCAL_SECTION">
          <text></text>
        </lyric>
      </note>
      <note>
        <pitch>
          <step>F</step>
          <octave>5</octave>
        </pitch>
        <duration>48</duration>
        <type>eighth</type>
        <lyric>
          <syllabic>begin</syllabic>
          <text>Gü</text>
        </lyric>
      </note>
      <note>
        <pitch>
          <step>G</step>
          <octave>5</octave>
        </pitch>
        <duration>48</duration>
        <type>eighth</type>
        <lyric>
          <syllabic>end</syllabic>
          <text>zel</text>
        </lyric>
      </note>
      <note>
        <pitch>
          <step>G</step>
          <octave>5</octave>
        </pitch>
        <duration>96</duration>
        <type>quarter</type>
        <lyric>
          <syllabic>single</syllabic>
          <text>ler </text>
        </lyric>
      </note>
      <note>
        <pitch>
          <step>G</step>
          <octave>5</octave>
        </pitch>
        <duration>144</duration>
        <type>quarter</type>
        <dot/>
        <lyric>
          <syllabic>single</syllabic>
          <text>var </text>
        </lyric>
      </note>
    </measure>
    <measure number="24">
      <attributes/>
      <note>
        <pitch>
          <step>F</step>
          <octave>5</octave>
        </pitch>
        <duration>48</duration>
        <type>eighth</type>
        <lyric>
          <syllabic>single</syllabic>
          <text>on </text>
        </lyric>
      </note>
      <note>
        <pitch>
          <step>G</step>
          <octave>5</octave>
        </pitch>
        <duration>48</duration>
        <type>eighth</type>
        <lyric>
          <text></text>
        </lyric>
      </note>
      <note>
        <pitch>
          <step>A</step>
          <octave>5</octave>
        </pitch>
        <duration>48</duration>
        <type>eighth</type>
        <lyric>
          <syllabic>single</syllabic>
          <text>üç </text>
        </lyric>
      </note>
      <note>
        <pitch>
          <step>B</step>
          <alter>-1</alter>
          <octave>5</octave>
        </pitch>
        <duration>48</duration>
        <type>eighth</type>
        <accidental>flat</accidental>
        <lyric>
          <text></text>
        </lyric>
      </note>
      <note>
        <pitch>
          <step>A</step>
          <octave>5</octave>
        </pitch>
        <duration>48</duration>
        <type>eighth</type>
        <lyric>
          <syllabic>single</syllabic>
          <text>on </text>
        </lyric>
      </note>
      <note>
        <pitch>
          <step>G</step>
          <octave>5</octave>
        </pitch>
        <duration>48</duration>
        <type>eighth</type>
        <lyric>
          <text></text>
        </lyric>
      </note>
      <note>
        <pitch>
          <step>G</step>
          <octave>5</octave>
        </pitch>
        <duration>48</duration>
        <type>eighth</type>
        <lyric>
          <syllabic>single</syllabic>
          <text>dört </text>
        </lyric>
      </note>
      <note>
        <pitch>
          <step>F</step>
          <octave>5</octave>
        </pitch>
        <duration>48</duration>
        <type>eighth</type>
        <lyric>
          <text></text>
        </lyric>
      </note>
      <note>
        <pitch>
          <step>E</step>
          <octave>5</octave>
        </pitch>
        <duration>48</duration>
        <type>eighth</type>
        <accidental>slash-flat</accidental>
        <lyric>
          <text></text>
        </lyric>
      </note>
    </measure>
    <measure number="25">
      <attributes/>
      <note>
        <pitch>
          <step>F</step>
          <alter>+1</alter>
          <octave>5</octave>
        </pitch>
        <duration>48</duration>
        <type>eighth</type>
        <accidental>sharp</accidental>
        <lyric>
          <syllabic>begin</syllabic>
          <text>ya</text>
        </lyric>
      </note>
      <note>
        <pitch>
          <step>E</step>
          <octave>5</octave>
        </pitch>
        <duration>48</duration>
        <type>eighth</type>
        <accidental>slash-flat</accidental>
        <lyric>
          <text></text>
        </lyric>
      </note>
      <note>
        <pitch>
          <step>E</step>
          <octave>5</octave>
        </pitch>
        <duration>48</duration>
        <type>eighth</type>
        <accidental>slash-flat</accidental>
        <lyric>
          <syllabic>end</syllabic>
          <text>şın</text>
        </lyric>
      </note>
      <note>
        <pitch>
          <step>D</step>
          <octave>5</octave>
        </pitch>
        <duration>48</duration>
        <type>eighth</type>
        <lyric>
          <text></text>
        </lyric>
      </note>
      <note>
        <pitch>
          <step>D</step>
          <octave>5</octave>
        </pitch>
        <duration>96</duration>
        <type>quarter</type>
        <lyric>
          <syllabic>single</syllabic>
          <text>da  </text>
          <end-line/>
        </lyric>
      </note>
      <note>
        <pitch>
          <step>G</step>
          <octave>5</octave>
        </pitch>
        <duration>144</duration>
        <type>quarter</type>
        <dot/>
        <lyric name="SAZ">
          <text>SAZ</text>
        </lyric>
      </note>
    </measure>
    <measure number="26">
      <attributes/>
      <note>
        <rest/>
        <duration>96</duration>
        <type>quarter</type>
        <lyric name="VOCAL_SECTION">
          <text></text>
        </lyric>
      </note>
      <note>
        <pitch>
          <step>F</step>
          <octave>5</octave>
        </pitch>
        <duration>48</duration>
        <type>eighth</type>
        <lyric>
          <syllabic>begin</syllabic>
          <text>Gü</text>
        </lyric>
      </note>
      <note>
        <pitch>
          <step>G</step>
          <octave>5</octave>
        </pitch>
        <duration>48</duration>
        <type>eighth</type>
        <lyric>
          <syllabic>end</syllabic>
          <text>zel</text>
        </lyric>
      </note>
      <note>
        <pitch>
          <step>G</step>
          <octave>5</octave>
        </pitch>
        <duration>96</duration>
        <type>quarter</type>
        <lyric>
          <syllabic>single</syllabic>
          <text>ler </text>
        </lyric>
      </note>
      <note>
        <pitch>
          <step>G</step>
          <octave>5</octave>
        </pitch>
        <duration>144</duration>
        <type>quarter</type>
        <dot/>
        <lyric>
          <syllabic>single</syllabic>
          <text>var </text>
        </lyric>
      </note>
    </measure>
    <measure number="27">
      <attributes/>
      <note>
        <pitch>
          <step>F</step>
          <octave>5</octave>
        </pitch>
        <duration>48</duration>
        <type>eighth</type>
        <lyric>
          <syllabic>single</syllabic>
          <text>on </text>
        </lyric>
      </note>
      <note>
        <pitch>
          <step>G</step>
          <octave>5</octave>
        </pitch>
        <duration>48</duration>
        <type>eighth</type>
        <lyric>
          <text></text>
        </lyric>
      </note>
      <note>
        <pitch>
          <step>A</step>
          <octave>5</octave>
        </pitch>
        <duration>48</duration>
        <type>eighth</type>
        <lyric>
          <syllabic>single</syllabic>
          <text>üç </text>
        </lyric>
      </note>
      <note>
        <pitch>
          <step>B</step>
          <alter>-1</alter>
          <octave>5</octave>
        </pitch>
        <duration>48</duration>
        <type>eighth</type>
        <accidental>flat</accidental>
        <lyric>
          <text></text>
        </lyric>
      </note>
      <note>
        <pitch>
          <step>A</step>
          <octave>5</octave>
        </pitch>
        <duration>48</duration>
        <type>eighth</type>
        <lyric>
          <syllabic>single</syllabic>
          <text>on </text>
        </lyric>
      </note>
      <note>
        <pitch>
          <step>G</step>
          <octave>5</octave>
        </pitch>
        <duration>48</duration>
        <type>eighth</type>
        <lyric>
          <text></text>
        </lyric>
      </note>
      <note>
        <pitch>
          <step>G</step>
          <octave>5</octave>
        </pitch>
        <duration>48</duration>
        <type>eighth</type>
        <lyric>
          <syllabic>single</syllabic>
          <text>dört </text>
        </lyric>
      </note>
      <note>
        <pitch>
          <step>F</step>
          <octave>5</octave>
        </pitch>
        <duration>48</duration>
        <type>eighth</type>
        <lyric>
          <text></text>
        </lyric>
      </note>
      <note>
        <pitch>
          <step>E</step>
          <octave>5</octave>
        </pitch>
        <duration>48</duration>
        <type>eighth</type>
        <accidental>slash-flat</accidental>
        <lyric>
          <text></text>
        </lyric>
      </note>
    </measure>
    <measure number="28">
      <attributes/>
      <note>
        <pitch>
          <step>F</step>
          <alter>+1</alter>
          <octave>5</octave>
        </pitch>
        <duration>48</duration>
        <type>eighth</type>
        <accidental>sharp</accidental>
        <lyric>
          <syllabic>begin</syllabic>
          <text>ya</text>
        </lyric>
      </note>
      <note>
        <pitch>
          <step>E</step>
          <octave>5</octave>
        </pitch>
        <duration>48</duration>
        <type>eighth</type>
        <accidental>slash-flat</accidental>
        <lyric>
          <text></text>
        </lyric>
      </note>
      <note>
        <pitch>
          <step>E</step>
          <octave>5</octave>
        </pitch>
        <duration>48</duration>
        <type>eighth</type>
        <accidental>slash-flat</accidental>
        <lyric>
          <syllabic>end</syllabic>
          <text>şın</text>
        </lyric>
      </note>
      <note>
        <pitch>
          <step>D</step>
          <octave>5</octave>
        </pitch>
        <duration>48</duration>
        <type>eighth</type>
        <lyric>
          <text></text>
        </lyric>
      </note>
      <note>
        <pitch>
          <step>D</step>
          <octave>5</octave>
        </pitch>
        <duration>192</duration>
        <type>half</type>
        <lyric>
          <syllabic>single</syllabic>
          <text>da  </text>
          <end-line/>
        </lyric>
      </note>
      <note>
        <rest/>
        <duration>48</duration>
        <type>eighth</type>
        <lyric>
          <text>200</text>
        </lyric>
      </note>
    </measure>
    <measure number="29">
      <attributes/>
      <note>
        <pitch>
          <step>D</step>
          <octave>5</octave>
        </pitch>
        <duration>72</duration>
        <type>eighth</type>
        <dot/>
        <lyric name="VOCAL_SECTION">
          <syllabic>begin</syllabic>
          <text>Eğ</text>
        </lyric>
      </note>
      <note>
        <pitch>
          <step>C</step>
          <octave>5</octave>
        </pitch>
        <duration>24</duration>
        <type>16th</type>
        <lyric>
          <text></text>
        </lyric>
      </note>
      <note>
        <pitch>
          <step>B</step>
          <alter>-0.5</alter>
          <octave>4</octave>
        </pitch>
        <duration>48</duration>
        <type>eighth</type>
        <accidental>quarter-flat</accidental>
        <lyric>
          <text></text>
        </lyric>
      </note>
      <note>
        <pitch>
          <step>A</step>
          <octave>4</octave>
        </pitch>
        <duration>48</duration>
        <type>eighth</type>
        <lyric>
          <syllabic>end</syllabic>
          <text>le</text>
        </lyric>
      </note>
      <note>
        <pitch>
          <step>B</step>
          <alter>-0.5</alter>
          <octave>4</octave>
        </pitch>
        <duration>48</duration>
        <type>eighth</type>
        <accidental>quarter-flat</accidental>
        <lyric>
          <syllabic>begin</syllabic>
          <text>ne</text>
        </lyric>
      </note>
      <note>
        <pitch>
          <step>C</step>
          <octave>5</octave>
        </pitch>
        <duration>48</duration>
        <type>eighth</type>
        <lyric>
          <text></text>
        </lyric>
      </note>
      <note>
        <pitch>
          <step>D</step>
          <octave>5</octave>
        </pitch>
        <duration>144</duration>
        <type>quarter</type>
        <dot/>
        <lyric>
          <syllabic>end</syllabic>
          <text>lim </text>
        </lyric>
      </note>
    </measure>
    <measure number="30">
      <attributes/>
      <note>
        <pitch>
          <step>D</step>
          <octave>5</octave>
        </pitch>
        <duration>72</duration>
        <type>eighth</type>
        <dot/>
        <lyric>
          <syllabic>begin</syllabic>
          <text>zevk_</text>
        </lyric>
      </note>
      <note>
        <pitch>
          <step>C</step>
          <octave>5</octave>
        </pitch>
        <duration>24</duration>
        <type>16th</type>
        <lyric>
          <text></text>
        </lyric>
      </note>
      <note>
        <pitch>
          <step>B</step>
          <alter>-0.5</alter>
          <octave>4</octave>
        </pitch>
        <duration>48</duration>
        <type>eighth</type>
        <accidental>quarter-flat</accidental>
        <lyric>
          <text></text>
        </lyric>
      </note>
      <note>
        <pitch>
          <step>A</step>
          <octave>4</octave>
        </pitch>
        <duration>48</duration>
        <type>eighth</type>
        <lyric>
          <syllabic>end</syllabic>
          <text>e</text>
        </lyric>
      </note>
      <note>
        <pitch>
          <step>B</step>
          <alter>-0.5</alter>
          <octave>4</octave>
        </pitch>
        <duration>48</duration>
        <type>eighth</type>
        <accidental>quarter-flat</accidental>
        <lyric>
          <syllabic>begin</syllabic>
          <text>de</text>
        </lyric>
      </note>
      <note>
        <pitch>
          <step>C</step>
          <octave>5</octave>
        </pitch>
        <duration>48</duration>
        <type>eighth</type>
        <lyric>
          <text></text>
        </lyric>
      </note>
      <note>
        <pitch>
          <step>D</step>
          <octave>5</octave>
        </pitch>
        <duration>144</duration>
        <type>quarter</type>
        <dot/>
        <lyric>
          <syllabic>end</syllabic>
          <text>lim </text>
        </lyric>
      </note>
    </measure>
    <measure number="31">
      <attributes/>
      <note>
        <pitch>
          <step>D</step>
          <octave>5</octave>
        </pitch>
        <duration>96</duration>
        <type>quarter</type>
        <lyric>
          <syllabic>begin</syllabic>
          <text>Kal</text>
        </lyric>
      </note>
      <note>
        <pitch>
          <step>D</step>
          <octave>5</octave>
        </pitch>
        <duration>48</duration>
        <type>eighth</type>
        <lyric>
          <syllabic>end</syllabic>
          <text>pak</text>
        </lyric>
      </note>
      <note>
        <pitch>
          <step>E</step>
          <octave>5</octave>
        </pitch>
        <duration>48</duration>
        <type>eighth</type>
        <accidental>slash-flat</accidental>
        <lyric>
          <text></text>
        </lyric>
      </note>
      <note>
        <pitch>
          <step>G</step>
          <octave>5</octave>
        </pitch>
        <duration>48</duration>
        <type>eighth</type>
        <lyric>
          <syllabic>begin</syllabic>
          <text>çı</text>
        </lyric>
      </note>
      <note>
        <pitch>
          <step>F</step>
          <alter>+1</alter>
          <octave>5</octave>
        </pitch>
        <duration>48</duration>
        <type>eighth</type>
        <accidental>sharp</accidental>
        <lyric>
          <text></text>
        </lyric>
      </note>
      <note>
        <pitch>
          <step>E</step>
          <octave>5</octave>
        </pitch>
        <duration>48</duration>
        <type>eighth</type>
        <accidental>slash-flat</accidental>
        <lyric>
          <syllabic>end</syllabic>
          <text>lar</text>
        </lyric>
      </note>
      <note>
        <pitch>
          <step>D</step>
          <octave>5</octave>
        </pitch>
        <duration>48</duration>
        <type>eighth</type>
        <lyric>
          <text></text>
        </lyric>
      </note>
      <note>
        <pitch>
          <step>C</step>
          <octave>5</octave>
        </pitch>
        <duration>48</duration>
        <type>eighth</type>
        <lyric>
          <text></text>
        </lyric>
      </note>
    </measure>
    <measure number="32">
      <attributes/>
      <note>
        <pitch>
          <step>C</step>
          <octave>5</octave>
        </pitch>
        <duration>48</duration>
        <type>eighth</type>
        <lyric>
          <syllabic>begin</syllabic>
          <text>ba</text>
        </lyric>
      </note>
      <note>
        <pitch>
          <step>B</step>
          <alter>-0.5</alter>
          <octave>4</octave>
        </pitch>
        <duration>48</duration>
        <type>eighth</type>
        <accidental>quarter-flat</accidental>
        <lyric>
          <text></text>
        </lyric>
      </note>
      <note>
        <pitch>
          <step>B</step>
          <alter>-0.5</alter>
          <octave>4</octave>
        </pitch>
        <duration>48</duration>
        <type>eighth</type>
        <accidental>quarter-flat</accidental>
        <lyric>
          <syllabic>end</syllabic>
          <text>şın</text>
        </lyric>
      </note>
      <note>
        <pitch>
          <step>A</step>
          <octave>4</octave>
        </pitch>
        <duration>48</duration>
        <type>eighth</type>
        <lyric>
          <text></text>
        </lyric>
      </note>
      <note>
        <pitch>
          <step>A</step>
          <octave>4</octave>
        </pitch>
        <duration>96</duration>
        <type>quarter</type>
        <lyric>
          <syllabic>single</syllabic>
          <text>da  </text>
          <end-line/>
        </lyric>
      </note>
      <note>
        <pitch>
          <step>D</step>
          <octave>5</octave>
        </pitch>
        <duration>144</duration>
        <type>quarter</type>
        <dot/>
        <lyric name="SAZ">
          <text>SAZ</text>
        </lyric>
      </note>
    </measure>
    <measure number="33">
      <attributes/>
      <note>
        <pitch>
          <step>D</step>
          <octave>5</octave>
        </pitch>
        <duration>72</duration>
        <type>eighth</type>
        <dot/>
        <lyric>
          <syllabic>begin</syllabic>
          <text>Eğ</text>
        </lyric>
      </note>
      <note>
        <pitch>
          <step>C</step>
          <octave>5</octave>
        </pitch>
        <duration>24</duration>
        <type>16th</type>
        <lyric>
          <text></text>
        </lyric>
      </note>
      <note>
        <pitch>
          <step>B</step>
          <alter>-0.5</alter>
          <octave>4</octave>
        </pitch>
        <duration>48</duration>
        <type>eighth</type>
        <accidental>quarter-flat</accidental>
        <lyric>
          <text></text>
        </lyric>
      </note>
      <note>
        <pitch>
          <step>A</step>
          <octave>4</octave>
        </pitch>
        <duration>48</duration>
        <type>eighth</type>
        <lyric>
          <syllabic>end</syllabic>
          <text>le</text>
        </lyric>
      </note>
      <note>
        <pitch>
          <step>B</step>
          <alter>-0.5</alter>
          <octave>4</octave>
        </pitch>
        <duration>48</duration>
        <type>eighth</type>
        <accidental>quarter-flat</accidental>
        <lyric>
          <syllabic>begin</syllabic>
          <text>ne</text>
        </lyric>
      </note>
      <note>
        <pitch>
          <step>C</step>
          <octave>5</octave>
        </pitch>
        <duration>48</duration>
        <type>eighth</type>
        <lyric>
          <text></text>
        </lyric>
      </note>
      <note>
        <pitch>
          <step>D</step>
          <octave>5</octave>
        </pitch>
        <duration>144</duration>
        <type>quarter</type>
        <dot/>
        <lyric>
          <syllabic>end</syllabic>
          <text>lim </text>
        </lyric>
      </note>
    </measure>
    <measure number="34">
      <attributes/>
      <note>
        <pitch>
          <step>D</step>
          <octave>5</octave>
        </pitch>
        <duration>72</duration>
        <type>eighth</type>
        <dot/>
        <lyric>
          <syllabic>begin</syllabic>
          <text>zevk_</text>
        </lyric>
      </note>
      <note>
        <pitch>
          <step>C</step>
          <octave>5</octave>
        </pitch>
        <duration>24</duration>
        <type>16th</type>
        <lyric>
          <text></text>
        </lyric>
      </note>
      <note>
        <pitch>
          <step>B</step>
          <alter>-0.5</alter>
          <octave>4</octave>
        </pitch>
        <duration>48</duration>
        <type>eighth</type>
        <accidental>quarter-flat</accidental>
        <lyric>
          <text></text>
        </lyric>
      </note>
      <note>
        <pitch>
          <step>A</step>
          <octave>4</octave>
        </pitch>
        <duration>48</duration>
        <type>eighth</type>
        <lyric>
          <syllabic>end</syllabic>
          <text>e</text>
        </lyric>
      </note>
      <note>
        <pitch>
          <step>B</step>
          <alter>-0.5</alter>
          <octave>4</octave>
        </pitch>
        <duration>48</duration>
        <type>eighth</type>
        <accidental>quarter-flat</accidental>
        <lyric>
          <syllabic>begin</syllabic>
          <text>de</text>
        </lyric>
      </note>
      <note>
        <pitch>
          <step>C</step>
          <octave>5</octave>
        </pitch>
        <duration>48</duration>
        <type>eighth</type>
        <lyric>
          <text></text>
        </lyric>
      </note>
      <note>
        <pitch>
          <step>D</step>
          <octave>5</octave>
        </pitch>
        <duration>144</duration>
        <type>quarter</type>
        <dot/>
        <lyric>
          <syllabic>end</syllabic>
          <text>lim </text>
        </lyric>
      </note>
    </measure>
    <measure number="35">
      <attributes/>
      <note>
        <pitch>
          <step>D</step>
          <octave>5</octave>
        </pitch>
        <duration>96</duration>
        <type>quarter</type>
        <lyric>
          <syllabic>begin</syllabic>
          <text>Kal</text>
        </lyric>
      </note>
      <note>
        <pitch>
          <step>D</step>
          <octave>5</octave>
        </pitch>
        <duration>48</duration>
        <type>eighth</type>
        <lyric>
          <syllabic>end</syllabic>
          <text>pak</text>
        </lyric>
      </note>
      <note>
        <pitch>
          <step>E</step>
          <octave>5</octave>
        </pitch>
        <duration>48</duration>
        <type>eighth</type>
        <accidental>slash-flat</accidental>
        <lyric>
          <text></text>
        </lyric>
      </note>
      <note>
        <pitch>
          <step>G</step>
          <octave>5</octave>
        </pitch>
        <duration>48</duration>
        <type>eighth</type>
        <lyric>
          <syllabic>begin</syllabic>
          <text>çı</text>
        </lyric>
      </note>
      <note>
        <pitch>
          <step>F</step>
          <alter>+1</alter>
          <octave>5</octave>
        </pitch>
        <duration>48</duration>
        <type>eighth</type>
        <accidental>sharp</accidental>
        <lyric>
          <text></text>
        </lyric>
      </note>
      <note>
        <pitch>
          <step>E</step>
          <octave>5</octave>
        </pitch>
        <duration>48</duration>
        <type>eighth</type>
        <accidental>slash-flat</accidental>
        <lyric>
          <syllabic>end</syllabic>
          <text>lar</text>
        </lyric>
      </note>
      <note>
        <pitch>
          <step>D</step>
          <octave>5</octave>
        </pitch>
        <duration>48</duration>
        <type>eighth</type>
        <lyric>
          <text></text>
        </lyric>
      </note>
      <note>
        <pitch>
          <step>C</step>
          <octave>5</octave>
        </pitch>
        <duration>48</duration>
        <type>eighth</type>
        <lyric>
          <text>250</text>
        </lyric>
      </note>
    </measure>
    <measure number="36">
      <attributes/>
      <note>
        <pitch>
          <step>C</step>
          <octave>5</octave>
        </pitch>
        <duration>48</duration>
        <type>eighth</type>
        <lyric name="VOCAL_SECTION">
          <syllabic>begin</syllabic>
          <text>ba</text>
        </lyric>
      </note>
      <note>
        <pitch>
          <step>B</step>
          <alter>-0.5</alter>
          <octave>4</octave>
        </pitch>
        <duration>48</duration>
        <type>eighth</type>
        <accidental>quarter-flat</accidental>
        <lyric name="KARAR">
          <text>KARAR</text>
        </lyric>
      </note>
      <note>
        <pitch>
          <step>B</step>
          <alter>-0.5</alter>
          <octave>4</octave>
        </pitch>
        <duration>48</duration>
        <type>eighth</type>
        <accidental>quarter-flat</accidental>
        <lyric>
          <syllabic>end</syllabic>
          <text>şın</text>
        </lyric>
      </note>
      <note>
        <pitch>
          <step>A</step>
          <octave>4</octave>
        </pitch>
        <duration>48</duration>
        <type>eighth</type>
        <lyric>
          <text></text>
        </lyric>
      </note>
      <note>
        <pitch>
          <step>A</step>
          <octave>4</octave>
        </pitch>
        <duration>192</duration>
        <type>half</type>
        <lyric>
          <syllabic>single</syllabic>
          <text>da  </text>
          <end-line/>
        </lyric>
      </note>
      <note>
        <rest/>
        <duration>48</duration>
        <type>eighth</type>
        <lyric>
          <text></text>
        </lyric>
      </note>
    </measure>
    <measure number="37">
      <attributes/>
    </measure>
  </part>
</score-partwise>
