<?xml version='1.0' encoding='UTF-8' standalone='no'?>
<!DOCTYPE score-partwise PUBLIC "-//Recordare//DTD MusicXML 3.0 Partwise//EN" "http://www.musicxml.org/dtds/partwise.dtd">
<score-partwise version="3.0">
  <work>
    <work-title>Bezme</work-title>
  </work>
  <part-list>
    <score-part id="P1">
      <part-name>Music</part-name>
    </score-part>
  </part-list>
  <part id="P1">
    <measure number="1">
      <direction placement="above">
        <direction-type>
          <words default-y="35">Makam: Kucek, Usul: Duyek</words>
        </direction-type>
        <sound tempo="56"/>
      </direction>
      <attributes>
        <divisions>96</divisions>
        <key>
          <key-step>D</key-step>
          <key-alter>-4</key-alter>
          <key-accidental>slash-flat</key-accidental>
          <key-step>B</key-step>
          <key-alter>-1</key-alter>
          <key-accidental>quarter-flat</key-accidental>
        </key>
        <time>
          <beats>8</beats>
          <beat-type>8</beat-type>
        </time>
      </attributes>
      <note>
        <rest/>
        <duration>96</duration>
        <type>quarter</type>
        <lyric name="VOCAL_SECTION">
          <text></text>
        </lyric>
      </note>
      <note>
        <pitch>
          <step>G</step>
          <octave>5</octave>
        </pitch>
        <duration>192</duration>
        <type>half</type>
        <lyric>
          <syllabic>begin</syllabic>
          <text>Bez</text>
        </lyric>
      </note>
      <note>
        <pitch>
          <step>G</step>
          <octave>5</octave>
        </pitch>
        <duration>48</duration>
        <type>eighth</type>
        <lyric>
          <syllabic>end</syllabic>
          <text>me </text>
        </lyric>
      </note>
      <note>
        <pitch>
          <step>A</step>
          <octave>5</octave>
        </pitch>
        <duration>48</duration>
        <type>eighth</type>
        <accidental>slash-flat</accidental>
        <lyric>
          <text></text>
        </lyric>
      </note>
    </measure>
    <measure number="2">
      <attributes/>
      <note>
        <pitch>
          <step>G</step>
          <octave>5</octave>
        </pitch>
        <duration>48</duration>
        <type>eighth</type>
        <notations>
          <ornaments>
            <trill-mark placement="above"/>
          </ornaments>
        </notations>
        <lyric>
          <syllabic>single</syllabic>
          <text>gel </text>
        </lyric>
      </note>
      <note>
        <pitch>
          <step>F</step>
          <octave>5</octave>
        </pitch>
        <duration>48</duration>
        <type>eighth</type>
        <lyric>
          <text></text>
        </lyric>
      </note>
      <note>
        <pitch>
          <step>E</step>
          <octave>5</octave>
        </pitch>
        <duration>48</duration>
        <type>eighth</type>
        <lyric>
          <text></text>
        </lyric>
      </note>
      <note>
        <pitch>
          <step>F</step>
          <octave>5</octave>
        </pitch>
        <duration>48</duration>
        <type>eighth</type>
        <lyric>
          <text></text>
        </lyric>
      </note>
      <note>
        <pitch>
          <step>G</step>
          <octave>5</octave>
        </pitch>
        <duration>48</duration>
        <type>eighth</type>
        <lyric>
          <syllabic>single</syllabic>
          <text>ey </text>
        </lyric>
      </note>
      <note>
        <pitch>
          <step>A</step>
          <octave>5</octave>
        </pitch>
        <duration>48</duration>
        <type>eighth</type>
        <accidental>slash-flat</accidental>
        <lyric>
          <text></text>
        </lyric>
      </note>
      <note>
        <pitch>
          <step>G</step>
          <octave>5</octave>
        </pitch>
        <duration>48</duration>
        <type>eighth</type>
        <lyric>
          <text></text>
        </lyric>
      </note>
      <note>
        <pitch>
          <step>A</step>
          <octave>5</octave>
        </pitch>
        <duration>48</duration>
        <type>eighth</type>
        <accidental>slash-flat</accidental>
        <lyric>
          <text></text>
        </lyric>
      </note>
    </measure>
    <measure number="3">
      <attributes/>
      <note>
        <pitch>
          <step>G</step>
          <octave>5</octave>
        </pitch>
        <duration>48</duration>
        <type>eighth</type>
        <lyric>
          <text></text>
        </lyric>
      </note>
      <note>
        <pitch>
          <step>F</step>
          <octave>5</octave>
        </pitch>
        <duration>48</duration>
        <type>eighth</type>
        <lyric>
          <text></text>
        </lyric>
      </note>
      <note>
        <pitch>
          <step>A</step>
          <octave>5</octave>
        </pitch>
        <duration>96</duration>
        <type>quarter</type>
        <accidental>slash-flat</accidental>
        <lyric>
          <syllabic>begin</syllabic>
          <text>mâh_</text>
        </lyric>
      </note>
      <note>
        <pitch>
          <step>G</step>
          <octave>5</octave>
        </pitch>
        <duration>96</duration>
        <type>quarter</type>
        <lyric>
          <text></text>
        </lyric>
      </note>
      <note>
        <pitch>
          <step>F</step>
          <octave>5</octave>
        </pitch>
        <duration>48</duration>
        <type>eighth</type>
        <lyric>
          <syllabic>end</syllabic>
          <text>ı </text>
        </lyric>
      </note>
      <note>
        <pitch>
          <step>E</step>
          <octave>5</octave>
        </pitch>
        <duration>48</duration>
        <type>eighth</type>
        <lyric>
          <text></text>
        </lyric>
      </note>
    </measure>
    <measure number="4">
      <attributes/>
      <note>
        <pitch>
          <step>E</step>
          <octave>5</octave>
        </pitch>
        <duration>48</duration>
        <type>eighth</type>
        <lyric>
          <syllabic>begin</syllabic>
          <text>rû</text>
        </lyric>
      </note>
      <note>
        <pitch>
          <step>F</step>
          <octave>5</octave>
        </pitch>
        <duration>48</duration>
        <type>eighth</type>
        <lyric>
          <text></text>
        </lyric>
      </note>
      <note>
        <pitch>
          <step>E</step>
          <octave>5</octave>
        </pitch>
        <duration>48</duration>
        <type>eighth</type>
        <lyric>
          <text></text>
        </lyric>
      </note>
      <note>
        <pitch>
          <step>D</step>
          <octave>5</octave>
        </pitch>
        <duration>48</duration>
        <type>eighth</type>
        <accidental>slash-flat</accidental>
        <lyric>
          <text></text>
        </lyric>
      </note>
      <note>
        <pitch>
          <step>E</step>
          <octave>5</octave>
        </pitch>
        <duration>72</duration>
        <type>eighth</type>
        <dot/>
        <notations>
          <ornaments>
            <trill-mark placement="above"/>
          </ornaments>
        </notations>
        <lyric>
          <syllabic>end</syllabic>
          <text>yim </text>
        </lyric>
      </note>
      <note>
        <pitch>
          <step>D</step>
          <octave>5</octave>
        </pitch>
        <duration>24</duration>
        <type>16th</type>
        <accidental>slash-flat</accidental>
        <lyric>
          <text></text>
        </lyric>
      </note>
      <note>
        <pitch>
          <step>C</step>
          <octave>5</octave>
        </pitch>
        <duration>96</duration>
        <type>quarter</type>
        <lyric>
          <text></text>
        </lyric>
      </note>
    </measure>
    <measure number="5">
      <attributes/>
      <note>
        <rest/>
        <duration>96</duration>
        <type>quarter</type>
        <lyric>
          <text></text>
        </lyric>
      </note>
      <note>
        <pitch>
          <step>C</step>
          <octave>5</octave>
        </pitch>
        <duration>48</duration>
        <type>eighth</type>
        <lyric>
          <syllabic>single</syllabic>
          <text>sen </text>
        </lyric>
      </note>
      <note>
        <pitch>
          <step>D</step>
          <octave>5</octave>
        </pitch>
        <duration>48</duration>
        <type>eighth</type>
        <accidental>slash-flat</accidental>
        <lyric>
          <text></text>
        </lyric>
      </note>
      <note>
        <pitch>
          <step>C</step>
          <octave>5</octave>
        </pitch>
        <duration>96</duration>
        <type>quarter</type>
        <lyric>
          <text></text>
        </lyric>
      </note>
      <note>
        <pitch>
          <step>D</step>
          <octave>5</octave>
        </pitch>
        <duration>96</duration>
        <type>quarter</type>
        <accidental>slash-flat</accidental>
        <lyric>
          <syllabic>begin</syllabic>
          <text>he</text>
        </lyric>
      </note>
    </measure>
    <measure number="6">
      <attributes/>
      <note>
        <pitch>
          <step>E</step>
          <octave>5</octave>
        </pitch>
        <duration>192</duration>
        <type>half</type>
        <lyric>
          <syllabic>end</syllabic>
          <text>mân </text>
        </lyric>
      </note>
      <note>
        <pitch>
          <step>E</step>
          <octave>5</octave>
        </pitch>
        <duration>48</duration>
        <type>eighth</type>
        <lyric>
          <syllabic>single</syllabic>
          <text>zevk </text>
        </lyric>
      </note>
      <note>
        <pitch>
          <step>F</step>
          <octave>5</octave>
        </pitch>
        <duration>48</duration>
        <type>eighth</type>
        <lyric>
          <text></text>
        </lyric>
      </note>
      <note>
        <pitch>
          <step>E</step>
          <octave>5</octave>
        </pitch>
        <duration>48</duration>
        <type>eighth</type>
        <lyric>
          <text></text>
        </lyric>
      </note>
      <note>
        <pitch>
          <step>F</step>
          <octave>5</octave>
        </pitch>
        <duration>48</duration>
        <type>eighth</type>
        <lyric>
          <text></text>
        </lyric>
      </note>
    </measure>
    <measure number="7">
      <attributes/>
      <note>
        <pitch>
          <step>E</step>
          <octave>5</octave>
        </pitch>
        <duration>48</duration>
        <type>eighth</type>
        <lyric>
          <text></text>
        </lyric>
      </note>
      <note>
        <pitch>
          <step>D</step>
          <octave>5</octave>
        </pitch>
        <duration>48</duration>
        <type>eighth</type>
        <accidental>slash-flat</accidental>
        <lyric>
          <text></text>
        </lyric>
      </note>
      <note>
        <pitch>
          <step>C</step>
          <octave>5</octave>
        </pitch>
        <duration>48</duration>
        <type>eighth</type>
        <lyric>
          <syllabic>begin</syllabic>
          <text>ey</text>
        </lyric>
      </note>
      <note>
        <pitch>
          <step>D</step>
          <octave>5</octave>
        </pitch>
        <duration>48</duration>
        <type>eighth</type>
        <accidental>slash-flat</accidental>
        <lyric>
          <text></text>
        </lyric>
      </note>
      <note>
        <pitch>
          <step>C</step>
          <octave>5</octave>
        </pitch>
        <duration>96</duration>
        <type>quarter</type>
        <lyric>
          <text></text>
        </lyric>
      </note>
      <note>
        <pitch>
          <step>B</step>
          <alter>-0.5</alter>
          <octave>4</octave>
        </pitch>
        <duration>48</duration>
        <type>eighth</type>
        <accidental>quarter-flat</accidental>
        <lyric>
          <syllabic>end</syllabic>
          <text>le </text>
        </lyric>
      </note>
      <note>
        <pitch>
          <step>A</step>
          <octave>4</octave>
        </pitch>
        <duration>48</duration>
        <type>eighth</type>
        <lyric>
          <text></text>
        </lyric>
      </note>
    </measure>
    <measure number="8">
      <attributes/>
      <note>
        <pitch>
          <step>B</step>
          <alter>-0.5</alter>
          <octave>4</octave>
        </pitch>
        <duration>48</duration>
        <type>eighth</type>
        <accidental>quarter-flat</accidental>
        <lyric>
          <syllabic>single</syllabic>
          <text>tek  </text>
          <end-line/>
        </lyric>
      </note>
      <note>
        <pitch>
          <step>C</step>
          <octave>5</octave>
        </pitch>
        <duration>48</duration>
        <type>eighth</type>
        <lyric>
          <text></text>
        </lyric>
      </note>
      <note>
        <pitch>
          <step>B</step>
          <alter>-0.5</alter>
          <octave>4</octave>
        </pitch>
        <duration>48</duration>
        <type>eighth</type>
        <accidental>quarter-flat</accidental>
        <lyric>
          <text></text>
        </lyric>
      </note>
      <note>
        <pitch>
          <step>A</step>
          <octave>4</octave>
        </pitch>
        <duration>48</duration>
        <type>eighth</type>
        <lyric>
          <text></text>
        </lyric>
      </note>
      <note>
        <pitch>
          <step>A</step>
          <octave>4</octave>
        </pitch>
        <duration>144</duration>
        <type>quarter</type>
        <dot/>
        <lyric>
          <text></text>
        </lyric>
      </note>
      <note>
        <rest/>
        <duration>48</duration>
        <type>eighth</type>
        <lyric>
          <text></text>
        </lyric>
      </note>
    </measure>
    <measure number="9">
      <attributes/>
      <note>
        <rest/>
        <duration>96</duration>
        <type>quarter</type>
        <lyric name="VOCAL_SECTION">
          <text></text>
        </lyric>
      </note>
      <note>
        <pitch>
          <step>A</step>
          <octave>4</octave>
        </pitch>
        <duration>48</duration>
        <type>eighth</type>
        <lyric>
          <syllabic>begin</syllabic>
          <text>50</text>
        </lyric>
      </note>
      <note>
        <pitch>
          <step>G</step>
          <octave>4</octave>
        </pitch>
        <duration>48</duration>
        <type>eighth</type>
        <lyric>
          <text></text>
        </lyric>
      </note>
      <note>
        <pitch>
          <step>A</step>
          <octave>4</octave>
        </pitch>
        <duration>96</duration>
        <type>quarter</type>
        <lyric>
          <text></text>
        </lyric>
      </note>
      <note>
        <pitch>
          <step>B</step>
          <alter>-0.5</alter>
          <octave>4</octave>
        </pitch>
        <duration>96</duration>
        <type>quarter</type>
        <accidental>quarter-flat</accidental>
        <lyric>
          <syllabic>end</syllabic>
          <text>rı</text>
        </lyric>
      </note>
    </measure>
    <measure number="10">
      <attributes/>
      <note>
        <pitch>
          <step>C</step>
          <octave>5</octave>
        </pitch>
        <duration>96</duration>
        <type>quarter</type>
        <lyric>
          <syllabic>single</syllabic>
          <text>bân </text>
        </lyric>
      </note>
      <note>
        <pitch>
          <step>D</step>
          <octave>5</octave>
        </pitch>
        <duration>96</duration>
        <type>quarter</type>
        <accidental>slash-flat</accidental>
        <lyric>
          <text></text>
        </lyric>
      </note>
      <note>
        <pitch>
          <step>D</step>
          <octave>5</octave>
        </pitch>
        <duration>48</duration>
        <type>eighth</type>
        <accidental>slash-flat</accidental>
        <lyric>
          <syllabic>begin</syllabic>
          <text>çal</text>
        </lyric>
      </note>
      <note>
        <pitch>
          <step>C</step>
          <octave>5</octave>
        </pitch>
        <duration>48</duration>
        <type>eighth</type>
        <lyric>
          <text></text>
        </lyric>
      </note>
      <note>
        <pitch>
          <step>B</step>
          <alter>-0.5</alter>
          <octave>4</octave>
        </pitch>
        <duration>48</duration>
        <type>eighth</type>
        <accidental>quarter-flat</accidental>
        <lyric>
          <text></text>
        </lyric>
      </note>
      <note>
        <pitch>
          <step>A</step>
          <octave>4</octave>
        </pitch>
        <duration>48</duration>
        <type>eighth</type>
        <lyric>
          <text></text>
        </lyric>
      </note>
    </measure>
    <measure number="11">
      <attributes/>
      <note>
        <pitch>
          <step>G</step>
          <octave>4</octave>
        </pitch>
        <duration>96</duration>
        <type>quarter</type>
        <lyric>
          <text></text>
        </lyric>
      </note>
      <note>
        <pitch>
          <step>A</step>
          <octave>4</octave>
        </pitch>
        <duration>48</duration>
        <type>eighth</type>
        <lyric>
          <syllabic>end</syllabic>
          <text>sın </text>
        </lyric>
      </note>
      <note>
        <pitch>
          <step>B</step>
          <alter>-0.5</alter>
          <octave>4</octave>
        </pitch>
        <duration>48</duration>
        <type>eighth</type>
        <accidental>quarter-flat</accidental>
        <lyric>
          <text></text>
        </lyric>
      </note>
      <note>
        <pitch>
          <step>A</step>
          <octave>4</octave>
        </pitch>
        <duration>96</duration>
        <type>quarter</type>
        <lyric>
          <text></text>
        </lyric>
      </note>
      <note>
        <pitch>
          <step>B</step>
          <alter>-0.5</alter>
          <octave>4</octave>
        </pitch>
        <duration>96</duration>
        <type>quarter</type>
        <accidental>quarter-flat</accidental>
        <lyric>
          <syllabic>begin</syllabic>
          <text>ça</text>
        </lyric>
      </note>
    </measure>
    <measure number="12">
      <attributes/>
      <note>
        <pitch>
          <step>C</step>
          <octave>5</octave>
        </pitch>
        <duration>96</duration>
        <type>quarter</type>
        <lyric>
          <syllabic>end</syllabic>
          <text>ğır</text>
        </lyric>
      </note>
      <note>
        <pitch>
          <step>D</step>
          <octave>5</octave>
        </pitch>
        <duration>96</duration>
        <type>quarter</type>
        <lyric>
          <text></text>
        </lyric>
      </note>
      <note>
        <pitch>
          <step>D</step>
          <octave>5</octave>
        </pitch>
        <duration>48</duration>
        <type>eighth</type>
        <lyric>
          <syllabic>single</syllabic>
          <text>sın </text>
        </lyric>
      </note>
      <note>
        <pitch>
          <step>C</step>
          <octave>5</octave>
        </pitch>
        <duration>48</duration>
        <type>eighth</type>
        <lyric>
          <text></text>
        </lyric>
      </note>
      <note>
        <pitch>
          <step>B</step>
          <alter>-0.5</alter>
          <octave>4</octave>
        </pitch>
        <duration>48</duration>
        <type>eighth</type>
        <accidental>quarter-flat</accidental>
        <lyric>
          <text></text>
        </lyric>
      </note>
      <note>
        <pitch>
          <step>A</step>
          <octave>4</octave>
        </pitch>
        <duration>48</duration>
        <type>eighth</type>
        <lyric>
          <text></text>
        </lyric>
      </note>
    </measure>
    <measure number="13">
      <attributes/>
      <note>
        <pitch>
          <step>G</step>
          <octave>4</octave>
        </pitch>
        <duration>96</duration>
        <type>quarter</type>
        <lyric>
          <text></text>
        </lyric>
      </note>
      <note>
        <pitch>
          <step>C</step>
          <octave>5</octave>
        </pitch>
        <duration>48</duration>
        <type>eighth</type>
        <lyric>
          <syllabic>begin</syllabic>
          <text>oy</text>
        </lyric>
      </note>
      <note>
        <pitch>
          <step>D</step>
          <octave>5</octave>
        </pitch>
        <duration>48</duration>
        <type>eighth</type>
        <lyric>
          <text></text>
        </lyric>
      </note>
      <note>
        <pitch>
          <step>C</step>
          <octave>5</octave>
        </pitch>
        <duration>96</duration>
        <type>quarter</type>
        <lyric>
          <text></text>
        </lyric>
      </note>
      <note>
        <pitch>
          <step>D</step>
          <octave>5</octave>
        </pitch>
        <duration>96</duration>
        <type>quarter</type>
        <lyric>
          <syllabic>end</syllabic>
          <text>na</text>
        </lyric>
      </note>
    </measure>
    <measure number="14">
      <attributes/>
      <note>
        <pitch>
          <step>E</step>
          <octave>5</octave>
        </pitch>
        <duration>48</duration>
        <type>eighth</type>
        <lyric>
          <syllabic>single</syllabic>
          <text>sın </text>
        </lyric>
      </note>
      <note>
        <pitch>
          <step>F</step>
          <octave>5</octave>
        </pitch>
        <duration>48</duration>
        <type>eighth</type>
        <lyric>
          <text></text>
        </lyric>
      </note>
      <note>
        <pitch>
          <step>E</step>
          <octave>5</octave>
        </pitch>
        <duration>48</duration>
        <type>eighth</type>
        <lyric>
          <text></text>
        </lyric>
      </note>
      <note>
        <pitch>
          <step>D</step>
          <octave>5</octave>
        </pitch>
        <duration>48</duration>
        <type>eighth</type>
        <lyric>
          <text></text>
        </lyric>
      </note>
      <note>
        <pitch>
          <step>C</step>
          <octave>5</octave>
        </pitch>
        <duration>96</duration>
        <type>quarter</type>
        <lyric>
          <syllabic>begin</syllabic>
          <text>rak</text>
        </lyric>
      </note>
      <note>
        <pitch>
          <step>B</step>
          <alter>-0.5</alter>
          <octave>4</octave>
        </pitch>
        <duration>96</duration>
        <type>quarter</type>
        <accidental>quarter-flat</accidental>
        <lyric>
          <text></text>
        </lyric>
      </note>
    </measure>
    <measure number="15">
      <attributes/>
      <note>
        <pitch>
          <step>A</step>
          <octave>4</octave>
        </pitch>
        <duration>96</duration>
        <type>quarter</type>
        <lyric>
          <text></text>
        </lyric>
      </note>
      <note>
        <pitch>
          <step>D</step>
          <octave>5</octave>
        </pitch>
        <duration>48</duration>
        <type>eighth</type>
        <lyric>
          <syllabic>end</syllabic>
          <text>kas </text>
        </lyric>
      </note>
      <note>
        <pitch>
          <step>D</step>
          <octave>5</octave>
        </pitch>
        <duration>48</duration>
        <type>eighth</type>
        <lyric>
          <text></text>
        </lyric>
      </note>
      <note>
        <pitch>
          <step>D</step>
          <octave>5</octave>
        </pitch>
        <duration>96</duration>
        <type>quarter</type>
        <lyric>
          <text></text>
        </lyric>
      </note>
      <note>
        <pitch>
          <step>C</step>
          <octave>5</octave>
        </pitch>
        <duration>48</duration>
        <type>eighth</type>
        <lyric>
          <syllabic>begin</syllabic>
          <text>Kû</text>
        </lyric>
      </note>
      <note>
        <pitch>
          <step>B</step>
          <alter>-0.5</alter>
          <octave>4</octave>
        </pitch>
        <duration>48</duration>
        <type>eighth</type>
        <accidental>quarter-flat</accidental>
        <lyric>
          <text></text>
        </lyric>
      </note>
    </measure>
    <measure number="16">
      <attributes/>
      <note>
        <pitch>
          <step>B</step>
          <alter>-0.5</alter>
          <octave>4</octave>
        </pitch>
        <duration>48</duration>
        <type>eighth</type>
        <accidental>quarter-flat</accidental>
        <lyric>
          <syllabic>end</syllabic>
          <text>çek  </text>
          <end-line/>
        </lyric>
      </note>
      <note>
        <pitch>
          <step>A</step>
          <octave>4</octave>
        </pitch>
        <duration>48</duration>
        <type>eighth</type>
        <lyric>
          <text></text>
        </lyric>
      </note>
      <note>
        <pitch>
          <step>B</step>
          <alter>-0.5</alter>
          <octave>4</octave>
        </pitch>
        <duration>48</duration>
        <type>eighth</type>
        <accidental>quarter-flat</accidental>
        <lyric>
          <text></text>
        </lyric>
      </note>
      <note>
        <pitch>
          <step>A</step>
          <octave>4</octave>
        </pitch>
        <duration>48</duration>
        <type>eighth</type>
        <lyric>
          <text></text>
        </lyric>
      </note>
      <note>
        <pitch>
          <step>A</step>
          <octave>4</octave>
        </pitch>
        <duration>144</duration>
        <type>quarter</type>
        <dot/>
        <lyric>
          <text></text>
        </lyric>
      </note>
      <note>
        <rest/>
        <duration>48</duration>
        <type>eighth</type>
        <lyric>
          <text></text>
        </lyric>
      </note>
    </measure>
    <measure number="17">
      <attributes/>
    </measure>
  </part>
</score-partwise>
