<?xml version='1.0' encoding='UTF-8'?>
<!DOCTYPE score-partwise PUBLIC "-//Recordare//DTD MusicXML 3.0 Partwise//EN" "http://www.musicxml.org/dtds/partwise.dtd">
<score-partwise version="3.0">
  <work>
    <work-title>Ankaranin Tasina</work-title>
  </work>
  <part-list>
    <score-part id="P1">
      <part-name>Music</part-name>
    </score-part>
  </part-list>
  <part id="P1">
    <measure number="1">
      <direction placement="above">
        <direction-type>
          <words default-y="35">Makam: Neva, Usul: Nimsofyan</words>
        </direction-type>
        <sound tempo="57.034220532319395"/>
      </direction>
      <attributes>
        <divisions>24</divisions>
        <time>
          <beats>2</beats>
          <beat-type>4</beat-type>
        </time>
        <key>
          <key-step>F</key-step>
          <key-accidental>sharp</key-accidental>
          <key-step>B</key-step>
          <key-accidental>quarter-flat</key-accidental>
        </key>
      </attributes>
      <note>
        <pitch>
          <step>D</step>
          <octave>5</octave>
        </pitch>
        <duration>12</duration>
        <type>eighth</type>
        <accidental/>
        <lyric name="ARANAĞME" id="0">
          <text>ARANAĞME</text>
        </lyric>
      </note>
      <note>
        <pitch>
          <step>C</step>
          <octave>5</octave>
        </pitch>
        <duration>6</duration>
        <type>16th</type>
        <accidental/>
        <lyric>
          <text>.</text>
        </lyric>
      </note>
      <note>
        <pitch>
          <step>D</step>
          <octave>5</octave>
        </pitch>
        <duration>6</duration>
        <type>16th</type>
        <accidental/>
        <lyric>
          <text>.</text>
        </lyric>
      </note>
      <note>
        <pitch>
          <step>E</step>
          <octave>5</octave>
        </pitch>
        <duration>18</duration>
        <type>eighth</type>
        <dot/>
        <accidental/>
        <lyric>
          <text>.</text>
        </lyric>
      </note>
      <note>
        <pitch>
          <step>D</step>
          <octave>5</octave>
        </pitch>
        <duration>6</duration>
        <type>16th</type>
        <accidental/>
        <lyric>
          <text>.</text>
        </lyric>
      </note>
    </measure>
    <measure number="2">
      <note>
        <pitch>
          <step>C</step>
          <octave>5</octave>
        </pitch>
        <duration>9</duration>
        <type>16th</type>
        <dot/>
        <accidental/>
        <lyric>
          <text>.</text>
        </lyric>
      </note>
      <note>
        <pitch>
          <step>B</step>
          <octave>4</octave>
          <alter>-0.5</alter>
        </pitch>
        <duration>3</duration>
        <type>32nd</type>
        <accidental>quarter-flat</accidental>
        <lyric>
          <text>.</text>
        </lyric>
      </note>
      <note>
        <pitch>
          <step>C</step>
          <octave>5</octave>
        </pitch>
        <duration>6</duration>
        <type>16th</type>
        <accidental/>
        <lyric>
          <text>.</text>
        </lyric>
      </note>
      <note>
        <pitch>
          <step>E</step>
          <octave>5</octave>
        </pitch>
        <duration>6</duration>
        <type>16th</type>
        <accidental/>
        <lyric>
          <text>.</text>
        </lyric>
      </note>
      <note>
        <pitch>
          <step>D</step>
          <octave>5</octave>
        </pitch>
        <duration>18</duration>
        <type>eighth</type>
        <dot/>
        <accidental/>
        <lyric>
          <text>.</text>
        </lyric>
      </note>
      <note>
        <pitch>
          <step>C</step>
          <octave>5</octave>
        </pitch>
        <duration>6</duration>
        <type>16th</type>
        <accidental/>
        <lyric>
          <text>.</text>
        </lyric>
      </note>
    </measure>
    <measure number="3">
      <note>
        <pitch>
          <step>B</step>
          <octave>4</octave>
          <alter>-0.5</alter>
        </pitch>
        <duration>9</duration>
        <type>16th</type>
        <dot/>
        <accidental>quarter-flat</accidental>
        <lyric>
          <text>.</text>
        </lyric>
      </note>
      <note>
        <pitch>
          <step>A</step>
          <octave>4</octave>
        </pitch>
        <duration>3</duration>
        <type>32nd</type>
        <accidental/>
        <lyric>
          <text>.</text>
        </lyric>
      </note>
      <note>
        <pitch>
          <step>B</step>
          <octave>4</octave>
          <alter>-0.5</alter>
        </pitch>
        <duration>6</duration>
        <type>16th</type>
        <accidental>quarter-flat</accidental>
        <lyric>
          <text>.</text>
        </lyric>
      </note>
      <note>
        <pitch>
          <step>D</step>
          <octave>5</octave>
        </pitch>
        <duration>6</duration>
        <type>16th</type>
        <accidental/>
        <lyric>
          <text>.</text>
        </lyric>
      </note>
      <note>
        <pitch>
          <step>C</step>
          <octave>5</octave>
        </pitch>
        <duration>18</duration>
        <type>eighth</type>
        <dot/>
        <accidental/>
        <lyric>
          <text>.</text>
        </lyric>
      </note>
      <note>
        <pitch>
          <step>B</step>
          <octave>4</octave>
          <alter>-0.5</alter>
        </pitch>
        <duration>6</duration>
        <type>16th</type>
        <accidental>quarter-flat</accidental>
        <lyric>
          <text>.</text>
        </lyric>
      </note>
    </measure>
    <measure number="4">
      <note>
        <pitch>
          <step>A</step>
          <octave>4</octave>
        </pitch>
        <duration>12</duration>
        <type>eighth</type>
        <accidental/>
        <lyric>
          <text>.</text>
        </lyric>
      </note>
      <note>
        <pitch>
          <step>A</step>
          <octave>4</octave>
        </pitch>
        <duration>6</duration>
        <type>16th</type>
        <accidental/>
        <lyric>
          <text>.</text>
        </lyric>
      </note>
      <note>
        <pitch>
          <step>C</step>
          <octave>5</octave>
        </pitch>
        <duration>6</duration>
        <type>16th</type>
        <accidental/>
        <lyric>
          <text>.</text>
        </lyric>
      </note>
      <note>
        <pitch>
          <step>B</step>
          <octave>4</octave>
          <alter>-0.5</alter>
        </pitch>
        <duration>18</duration>
        <type>eighth</type>
        <dot/>
        <accidental>quarter-flat</accidental>
        <lyric>
          <text>.</text>
        </lyric>
      </note>
      <note>
        <pitch>
          <step>A</step>
          <octave>4</octave>
        </pitch>
        <duration>6</duration>
        <type>16th</type>
        <accidental/>
        <lyric>
          <text>.</text>
        </lyric>
      </note>
    </measure>
    <measure number="5">
      <note>
        <pitch>
          <step>A</step>
          <octave>4</octave>
        </pitch>
        <duration>12</duration>
        <type>eighth</type>
        <accidental/>
        <lyric>
          <text>.</text>
        </lyric>
      </note>
      <note>
        <pitch>
          <step>D</step>
          <octave>5</octave>
        </pitch>
        <duration>6</duration>
        <type>16th</type>
        <accidental/>
        <lyric>
          <text>.</text>
        </lyric>
      </note>
      <note>
        <pitch>
          <step>D</step>
          <octave>5</octave>
        </pitch>
        <duration>6</duration>
        <type>16th</type>
        <accidental/>
        <lyric>
          <text>.</text>
        </lyric>
      </note>
      <note>
        <pitch>
          <step>A</step>
          <octave>4</octave>
        </pitch>
        <duration>12</duration>
        <type>eighth</type>
        <accidental/>
        <lyric>
          <text>.</text>
        </lyric>
      </note>
      <note>
        <rest/>
        <duration>12</duration>
        <type>eighth</type>
        <lyric>
          <text></text>
        </lyric>
      </note>
    </measure>
    <measure number="6">
      <note>
        <pitch>
          <step>D</step>
          <octave>5</octave>
        </pitch>
        <duration>12</duration>
        <type>eighth</type>
        <accidental/>
        <lyric name="ARANAĞME" id="1">
          <text>ARANAĞME</text>
        </lyric>
      </note>
      <note>
        <pitch>
          <step>C</step>
          <octave>5</octave>
        </pitch>
        <duration>6</duration>
        <type>16th</type>
        <accidental/>
        <lyric>
          <text>.</text>
        </lyric>
      </note>
      <note>
        <pitch>
          <step>D</step>
          <octave>5</octave>
        </pitch>
        <duration>6</duration>
        <type>16th</type>
        <accidental/>
        <lyric>
          <text>.</text>
        </lyric>
      </note>
      <note>
        <pitch>
          <step>E</step>
          <octave>5</octave>
        </pitch>
        <duration>18</duration>
        <type>eighth</type>
        <dot/>
        <accidental/>
        <lyric>
          <text>.</text>
        </lyric>
      </note>
      <note>
        <pitch>
          <step>D</step>
          <octave>5</octave>
        </pitch>
        <duration>6</duration>
        <type>16th</type>
        <accidental/>
        <lyric>
          <text>.</text>
        </lyric>
      </note>
    </measure>
    <measure number="7">
      <note>
        <pitch>
          <step>C</step>
          <octave>5</octave>
        </pitch>
        <duration>9</duration>
        <type>16th</type>
        <dot/>
        <accidental/>
        <lyric>
          <text>.</text>
        </lyric>
      </note>
      <note>
        <pitch>
          <step>B</step>
          <octave>4</octave>
          <alter>-0.5</alter>
        </pitch>
        <duration>3</duration>
        <type>32nd</type>
        <accidental>quarter-flat</accidental>
        <lyric>
          <text>.</text>
        </lyric>
      </note>
      <note>
        <pitch>
          <step>C</step>
          <octave>5</octave>
        </pitch>
        <duration>6</duration>
        <type>16th</type>
        <accidental/>
        <lyric>
          <text>.</text>
        </lyric>
      </note>
      <note>
        <pitch>
          <step>E</step>
          <octave>5</octave>
        </pitch>
        <duration>6</duration>
        <type>16th</type>
        <accidental/>
        <lyric>
          <text>.</text>
        </lyric>
      </note>
      <note>
        <pitch>
          <step>D</step>
          <octave>5</octave>
        </pitch>
        <duration>18</duration>
        <type>eighth</type>
        <dot/>
        <accidental/>
        <lyric>
          <text>.</text>
        </lyric>
      </note>
      <note>
        <pitch>
          <step>C</step>
          <octave>5</octave>
        </pitch>
        <duration>6</duration>
        <type>16th</type>
        <accidental/>
        <lyric>
          <text>.</text>
        </lyric>
      </note>
    </measure>
    <measure number="8">
      <note>
        <pitch>
          <step>B</step>
          <octave>4</octave>
          <alter>-0.5</alter>
        </pitch>
        <duration>9</duration>
        <type>16th</type>
        <dot/>
        <accidental>quarter-flat</accidental>
        <lyric>
          <text>.</text>
        </lyric>
      </note>
      <note>
        <pitch>
          <step>A</step>
          <octave>4</octave>
        </pitch>
        <duration>3</duration>
        <type>32nd</type>
        <accidental/>
        <lyric>
          <text>.</text>
        </lyric>
      </note>
      <note>
        <pitch>
          <step>B</step>
          <octave>4</octave>
          <alter>-0.5</alter>
        </pitch>
        <duration>6</duration>
        <type>16th</type>
        <accidental>quarter-flat</accidental>
        <lyric>
          <text>.</text>
        </lyric>
      </note>
      <note>
        <pitch>
          <step>D</step>
          <octave>5</octave>
        </pitch>
        <duration>6</duration>
        <type>16th</type>
        <accidental/>
        <lyric>
          <text>.</text>
        </lyric>
      </note>
      <note>
        <pitch>
          <step>C</step>
          <octave>5</octave>
        </pitch>
        <duration>18</duration>
        <type>eighth</type>
        <dot/>
        <accidental/>
        <lyric>
          <text>.</text>
        </lyric>
      </note>
      <note>
        <pitch>
          <step>B</step>
          <octave>4</octave>
          <alter>-0.5</alter>
        </pitch>
        <duration>6</duration>
        <type>16th</type>
        <accidental>quarter-flat</accidental>
        <lyric>
          <text>.</text>
        </lyric>
      </note>
    </measure>
    <measure number="9">
      <note>
        <pitch>
          <step>A</step>
          <octave>4</octave>
        </pitch>
        <duration>12</duration>
        <type>eighth</type>
        <accidental/>
        <lyric>
          <text>.</text>
        </lyric>
      </note>
      <note>
        <pitch>
          <step>A</step>
          <octave>4</octave>
        </pitch>
        <duration>6</duration>
        <type>16th</type>
        <accidental/>
        <lyric>
          <text>.</text>
        </lyric>
      </note>
      <note>
        <pitch>
          <step>C</step>
          <octave>5</octave>
        </pitch>
        <duration>6</duration>
        <type>16th</type>
        <accidental/>
        <lyric>
          <text>.</text>
        </lyric>
      </note>
      <note>
        <pitch>
          <step>B</step>
          <octave>4</octave>
          <alter>-0.5</alter>
        </pitch>
        <duration>18</duration>
        <type>eighth</type>
        <dot/>
        <accidental>quarter-flat</accidental>
        <lyric>
          <text>.</text>
        </lyric>
      </note>
      <note>
        <pitch>
          <step>A</step>
          <octave>4</octave>
        </pitch>
        <duration>6</duration>
        <type>16th</type>
        <accidental/>
        <lyric>
          <text>.</text>
        </lyric>
      </note>
    </measure>
    <measure number="10">
      <note>
        <pitch>
          <step>A</step>
          <octave>4</octave>
        </pitch>
        <duration>12</duration>
        <type>eighth</type>
        <accidental/>
        <lyric>
          <text>.</text>
        </lyric>
      </note>
      <note>
        <pitch>
          <step>D</step>
          <octave>5</octave>
        </pitch>
        <duration>6</duration>
        <type>16th</type>
        <accidental/>
        <lyric>
          <text>.</text>
        </lyric>
      </note>
      <note>
        <pitch>
          <step>D</step>
          <octave>5</octave>
        </pitch>
        <duration>6</duration>
        <type>16th</type>
        <accidental/>
        <lyric>
          <text>.</text>
        </lyric>
      </note>
      <note>
        <pitch>
          <step>A</step>
          <octave>4</octave>
        </pitch>
        <duration>12</duration>
        <type>eighth</type>
        <accidental/>
        <lyric>
          <text>.</text>
        </lyric>
      </note>
      <note>
        <rest/>
        <duration>12</duration>
        <type>eighth</type>
        <lyric>
          <text></text>
        </lyric>
      </note>
    </measure>
    <measure number="11">
      <note>
        <pitch>
          <step>D</step>
          <octave>5</octave>
        </pitch>
        <duration>12</duration>
        <type>eighth</type>
        <accidental/>
        <lyric>
          <text>An</text>
        </lyric>
      </note>
      <note>
        <pitch>
          <step>E</step>
          <octave>5</octave>
        </pitch>
        <duration>6</duration>
        <type>16th</type>
        <accidental/>
        <lyric>
          <text>ka</text>
        </lyric>
      </note>
      <note>
        <pitch>
          <step>F</step>
          <octave>5</octave>
          <alter>1</alter>
        </pitch>
        <duration>6</duration>
        <type>16th</type>
        <accidental>sharp</accidental>
        <lyric>
          <text>ra</text>
        </lyric>
      </note>
      <note>
        <pitch>
          <step>G</step>
          <octave>5</octave>
        </pitch>
        <duration>18</duration>
        <type>eighth</type>
        <dot/>
        <accidental/>
        <lyric>
          <text>nın </text>
        </lyric>
      </note>
      <note>
        <pitch>
          <step>F</step>
          <octave>5</octave>
          <alter>1</alter>
        </pitch>
        <duration>6</duration>
        <type>16th</type>
        <accidental>sharp</accidental>
        <lyric>
          <text></text>
        </lyric>
      </note>
    </measure>
    <measure number="12">
      <note>
        <pitch>
          <step>E</step>
          <octave>5</octave>
        </pitch>
        <duration>12</duration>
        <type>eighth</type>
        <accidental/>
        <lyric>
          <text>ta</text>
        </lyric>
      </note>
      <note>
        <pitch>
          <step>E</step>
          <octave>5</octave>
        </pitch>
        <duration>6</duration>
        <type>16th</type>
        <accidental/>
        <lyric>
          <text>şı</text>
        </lyric>
      </note>
      <note>
        <pitch>
          <step>G</step>
          <octave>5</octave>
        </pitch>
        <duration>6</duration>
        <type>16th</type>
        <accidental/>
        <lyric>
          <text>na </text>
        </lyric>
      </note>
      <note>
        <pitch>
          <step>F</step>
          <octave>5</octave>
          <alter>1</alter>
        </pitch>
        <duration>18</duration>
        <type>eighth</type>
        <dot/>
        <accidental>sharp</accidental>
        <lyric>
          <text>bak  </text>
        </lyric>
      </note>
      <note>
        <pitch>
          <step>E</step>
          <octave>5</octave>
        </pitch>
        <duration>6</duration>
        <type>16th</type>
        <accidental/>
        <lyric>
          <text></text>
        </lyric>
      </note>
    </measure>
    <measure number="13">
      <note>
        <pitch>
          <step>D</step>
          <octave>5</octave>
        </pitch>
        <duration>12</duration>
        <type>eighth</type>
        <accidental/>
        <lyric>
          <text>Göz</text>
        </lyric>
      </note>
      <note>
        <pitch>
          <step>E</step>
          <octave>5</octave>
        </pitch>
        <duration>6</duration>
        <type>16th</type>
        <accidental/>
        <lyric>
          <text>le</text>
        </lyric>
      </note>
      <note>
        <pitch>
          <step>E</step>
          <octave>5</octave>
        </pitch>
        <duration>6</duration>
        <type>16th</type>
        <accidental/>
        <lyric>
          <text>ri</text>
        </lyric>
      </note>
      <note>
        <pitch>
          <step>E</step>
          <octave>5</octave>
        </pitch>
        <duration>18</duration>
        <type>eighth</type>
        <dot/>
        <accidental/>
        <lyric>
          <text>min </text>
        </lyric>
      </note>
      <note>
        <pitch>
          <step>D</step>
          <octave>5</octave>
        </pitch>
        <duration>6</duration>
        <type>16th</type>
        <accidental/>
        <lyric>
          <text></text>
        </lyric>
      </note>
    </measure>
    <measure number="14">
      <note>
        <pitch>
          <step>D</step>
          <octave>5</octave>
        </pitch>
        <duration>12</duration>
        <type>eighth</type>
        <accidental/>
        <lyric>
          <text>ya</text>
        </lyric>
      </note>
      <note>
        <pitch>
          <step>G</step>
          <octave>5</octave>
        </pitch>
        <duration>6</duration>
        <type>16th</type>
        <accidental/>
        <lyric>
          <text>şı</text>
        </lyric>
      </note>
      <note>
        <pitch>
          <step>G</step>
          <octave>5</octave>
        </pitch>
        <duration>6</duration>
        <type>16th</type>
        <accidental/>
        <lyric>
          <text>na </text>
        </lyric>
      </note>
      <note>
        <pitch>
          <step>D</step>
          <octave>5</octave>
        </pitch>
        <duration>12</duration>
        <type>eighth</type>
        <accidental/>
        <lyric>
          <text>bak  </text>
        </lyric>
      </note>
      <note>
        <rest/>
        <duration>12</duration>
        <type>eighth</type>
        <lyric>
          <text></text>
        </lyric>
      </note>
    </measure>
    <measure number="15">
      <note>
        <pitch>
          <step>D</step>
          <octave>5</octave>
        </pitch>
        <duration>12</duration>
        <type>eighth</type>
        <accidental/>
        <lyric>
          <text>An</text>
        </lyric>
      </note>
      <note>
        <pitch>
          <step>E</step>
          <octave>5</octave>
        </pitch>
        <duration>6</duration>
        <type>16th</type>
        <accidental/>
        <lyric>
          <text>ka</text>
        </lyric>
      </note>
      <note>
        <pitch>
          <step>F</step>
          <octave>5</octave>
          <alter>1</alter>
        </pitch>
        <duration>6</duration>
        <type>16th</type>
        <accidental>sharp</accidental>
        <lyric>
          <text>ra</text>
        </lyric>
      </note>
      <note>
        <pitch>
          <step>G</step>
          <octave>5</octave>
        </pitch>
        <duration>18</duration>
        <type>eighth</type>
        <dot/>
        <accidental/>
        <lyric>
          <text>nın </text>
        </lyric>
      </note>
      <note>
        <pitch>
          <step>F</step>
          <octave>5</octave>
          <alter>1</alter>
        </pitch>
        <duration>6</duration>
        <type>16th</type>
        <accidental>sharp</accidental>
        <lyric>
          <text></text>
        </lyric>
      </note>
    </measure>
    <measure number="16">
      <note>
        <pitch>
          <step>E</step>
          <octave>5</octave>
        </pitch>
        <duration>12</duration>
        <type>eighth</type>
        <accidental/>
        <lyric>
          <text>ta</text>
        </lyric>
      </note>
      <note>
        <pitch>
          <step>E</step>
          <octave>5</octave>
        </pitch>
        <duration>6</duration>
        <type>16th</type>
        <accidental/>
        <lyric>
          <text>şı</text>
        </lyric>
      </note>
      <note>
        <pitch>
          <step>G</step>
          <octave>5</octave>
        </pitch>
        <duration>6</duration>
        <type>16th</type>
        <accidental/>
        <lyric>
          <text>na </text>
        </lyric>
      </note>
      <note>
        <pitch>
          <step>F</step>
          <octave>5</octave>
          <alter>1</alter>
        </pitch>
        <duration>18</duration>
        <type>eighth</type>
        <dot/>
        <accidental>sharp</accidental>
        <lyric>
          <text>bak  </text>
        </lyric>
      </note>
      <note>
        <pitch>
          <step>E</step>
          <octave>5</octave>
        </pitch>
        <duration>6</duration>
        <type>16th</type>
        <accidental/>
        <lyric>
          <text></text>
        </lyric>
      </note>
    </measure>
    <measure number="17">
      <note>
        <pitch>
          <step>D</step>
          <octave>5</octave>
        </pitch>
        <duration>12</duration>
        <type>eighth</type>
        <accidental/>
        <lyric>
          <text>Göz</text>
        </lyric>
      </note>
      <note>
        <pitch>
          <step>E</step>
          <octave>5</octave>
        </pitch>
        <duration>6</duration>
        <type>16th</type>
        <accidental/>
        <lyric>
          <text>le</text>
        </lyric>
      </note>
      <note>
        <pitch>
          <step>E</step>
          <octave>5</octave>
        </pitch>
        <duration>6</duration>
        <type>16th</type>
        <accidental/>
        <lyric>
          <text>ri</text>
        </lyric>
      </note>
      <note>
        <pitch>
          <step>E</step>
          <octave>5</octave>
        </pitch>
        <duration>18</duration>
        <type>eighth</type>
        <dot/>
        <accidental/>
        <lyric>
          <text>min </text>
        </lyric>
      </note>
      <note>
        <pitch>
          <step>D</step>
          <octave>5</octave>
        </pitch>
        <duration>6</duration>
        <type>16th</type>
        <accidental/>
        <lyric>
          <text></text>
        </lyric>
      </note>
    </measure>
    <measure number="18">
      <note>
        <pitch>
          <step>D</step>
          <octave>5</octave>
        </pitch>
        <duration>12</duration>
        <type>eighth</type>
        <accidental/>
        <lyric>
          <text>ya</text>
        </lyric>
      </note>
      <note>
        <pitch>
          <step>G</step>
          <octave>5</octave>
        </pitch>
        <duration>6</duration>
        <type>16th</type>
        <accidental/>
        <lyric>
          <text>şı</text>
        </lyric>
      </note>
      <note>
        <pitch>
          <step>G</step>
          <octave>5</octave>
        </pitch>
        <duration>6</duration>
        <type>16th</type>
        <accidental/>
        <lyric>
          <text>na </text>
        </lyric>
      </note>
      <note>
        <pitch>
          <step>D</step>
          <octave>5</octave>
        </pitch>
        <duration>12</duration>
        <type>eighth</type>
        <accidental/>
        <lyric>
          <text>bak  </text>
        </lyric>
      </note>
      <note>
        <rest/>
        <duration>12</duration>
        <type>eighth</type>
        <lyric>
          <text></text>
        </lyric>
      </note>
    </measure>
    <measure number="19">
      <note>
        <pitch>
          <step>D</step>
          <octave>5</octave>
        </pitch>
        <duration>12</duration>
        <type>eighth</type>
        <accidental/>
        <lyric>
          <text>Biz </text>
        </lyric>
      </note>
      <note>
        <pitch>
          <step>C</step>
          <octave>5</octave>
        </pitch>
        <duration>6</duration>
        <type>16th</type>
        <accidental/>
        <lyric>
          <text>düş</text>
        </lyric>
      </note>
      <note>
        <pitch>
          <step>D</step>
          <octave>5</octave>
        </pitch>
        <duration>6</duration>
        <type>16th</type>
        <accidental/>
        <lyric>
          <text>ma</text>
        </lyric>
      </note>
      <note>
        <pitch>
          <step>E</step>
          <octave>5</octave>
        </pitch>
        <duration>18</duration>
        <type>eighth</type>
        <dot/>
        <accidental/>
        <lyric>
          <text>nı </text>
        </lyric>
      </note>
      <note>
        <pitch>
          <step>D</step>
          <octave>5</octave>
        </pitch>
        <duration>6</duration>
        <type>16th</type>
        <accidental/>
        <lyric>
          <text></text>
        </lyric>
      </note>
    </measure>
    <measure number="20">
      <note>
        <pitch>
          <step>C</step>
          <octave>5</octave>
        </pitch>
        <duration>9</duration>
        <type>16th</type>
        <dot/>
        <accidental/>
        <lyric>
          <text>e</text>
        </lyric>
      </note>
      <note>
        <pitch>
          <step>B</step>
          <octave>4</octave>
          <alter>-0.5</alter>
        </pitch>
        <duration>3</duration>
        <type>32nd</type>
        <accidental>quarter-flat</accidental>
        <lyric>
          <text></text>
        </lyric>
      </note>
      <note>
        <pitch>
          <step>C</step>
          <octave>5</octave>
        </pitch>
        <duration>6</duration>
        <type>16th</type>
        <accidental/>
        <lyric>
          <text>sir </text>
        </lyric>
      </note>
      <note>
        <pitch>
          <step>E</step>
          <octave>5</octave>
        </pitch>
        <duration>6</duration>
        <type>16th</type>
        <accidental/>
        <lyric>
          <text>al</text>
        </lyric>
      </note>
      <note>
        <pitch>
          <step>D</step>
          <octave>5</octave>
        </pitch>
        <duration>18</duration>
        <type>eighth</type>
        <dot/>
        <accidental/>
        <lyric>
          <text>dık  </text>
        </lyric>
      </note>
      <note>
        <pitch>
          <step>C</step>
          <octave>5</octave>
        </pitch>
        <duration>6</duration>
        <type>16th</type>
        <accidental/>
        <lyric>
          <text></text>
        </lyric>
      </note>
    </measure>
    <measure number="21">
      <note>
        <pitch>
          <step>B</step>
          <octave>4</octave>
          <alter>-0.5</alter>
        </pitch>
        <duration>9</duration>
        <type>16th</type>
        <dot/>
        <accidental>quarter-flat</accidental>
        <lyric>
          <text>Şu </text>
        </lyric>
      </note>
      <note>
        <pitch>
          <step>A</step>
          <octave>4</octave>
        </pitch>
        <duration>3</duration>
        <type>32nd</type>
        <accidental/>
        <lyric>
          <text></text>
        </lyric>
      </note>
      <note>
        <pitch>
          <step>B</step>
          <octave>4</octave>
          <alter>-0.5</alter>
        </pitch>
        <duration>6</duration>
        <type>16th</type>
        <accidental>quarter-flat</accidental>
        <lyric>
          <text>fe</text>
        </lyric>
      </note>
      <note>
        <pitch>
          <step>D</step>
          <octave>5</octave>
        </pitch>
        <duration>6</duration>
        <type>16th</type>
        <accidental/>
        <lyric>
          <text>le</text>
        </lyric>
      </note>
      <note>
        <pitch>
          <step>C</step>
          <octave>5</octave>
        </pitch>
        <duration>18</duration>
        <type>eighth</type>
        <dot/>
        <accidental/>
        <lyric>
          <text>ğin </text>
        </lyric>
      </note>
      <note>
        <pitch>
          <step>B</step>
          <octave>4</octave>
          <alter>-0.5</alter>
        </pitch>
        <duration>6</duration>
        <type>16th</type>
        <accidental>quarter-flat</accidental>
        <lyric>
          <text></text>
        </lyric>
      </note>
    </measure>
    <measure number="22">
      <note>
        <pitch>
          <step>A</step>
          <octave>4</octave>
        </pitch>
        <duration>12</duration>
        <type>eighth</type>
        <accidental/>
        <lyric>
          <text>i</text>
        </lyric>
      </note>
      <note>
        <pitch>
          <step>A</step>
          <octave>4</octave>
        </pitch>
        <duration>6</duration>
        <type>16th</type>
        <accidental/>
        <lyric>
          <text>şi</text>
        </lyric>
      </note>
      <note>
        <pitch>
          <step>C</step>
          <octave>5</octave>
        </pitch>
        <duration>6</duration>
        <type>16th</type>
        <accidental/>
        <lyric>
          <text>ne </text>
        </lyric>
      </note>
      <note>
        <pitch>
          <step>B</step>
          <octave>4</octave>
          <alter>-0.5</alter>
        </pitch>
        <duration>18</duration>
        <type>eighth</type>
        <dot/>
        <accidental>quarter-flat</accidental>
        <lyric>
          <text>bak </text>
        </lyric>
      </note>
      <note>
        <pitch>
          <step>A</step>
          <octave>4</octave>
        </pitch>
        <duration>6</duration>
        <type>16th</type>
        <accidental/>
        <lyric>
          <text></text>
        </lyric>
      </note>
    </measure>
    <measure number="23">
      <note>
        <pitch>
          <step>A</step>
          <octave>4</octave>
        </pitch>
        <duration>12</duration>
        <type>eighth</type>
        <accidental/>
        <lyric>
          <text>i</text>
        </lyric>
      </note>
      <note>
        <pitch>
          <step>D</step>
          <octave>5</octave>
        </pitch>
        <duration>6</duration>
        <type>16th</type>
        <accidental/>
        <lyric>
          <text>şi</text>
        </lyric>
      </note>
      <note>
        <pitch>
          <step>D</step>
          <octave>5</octave>
        </pitch>
        <duration>6</duration>
        <type>16th</type>
        <accidental/>
        <lyric>
          <text>ne </text>
        </lyric>
      </note>
      <note>
        <pitch>
          <step>A</step>
          <octave>4</octave>
        </pitch>
        <duration>12</duration>
        <type>eighth</type>
        <accidental/>
        <lyric>
          <text>bak  </text>
        </lyric>
      </note>
      <note>
        <rest/>
        <duration>12</duration>
        <type>eighth</type>
        <lyric>
          <text></text>
        </lyric>
      </note>
    </measure>
    <measure number="24">
      <note>
        <pitch>
          <step>D</step>
          <octave>5</octave>
        </pitch>
        <duration>12</duration>
        <type>eighth</type>
        <accidental/>
        <lyric>
          <text>Biz </text>
        </lyric>
      </note>
      <note>
        <pitch>
          <step>C</step>
          <octave>5</octave>
        </pitch>
        <duration>6</duration>
        <type>16th</type>
        <accidental/>
        <lyric>
          <text>düş</text>
        </lyric>
      </note>
      <note>
        <pitch>
          <step>D</step>
          <octave>5</octave>
        </pitch>
        <duration>6</duration>
        <type>16th</type>
        <accidental/>
        <lyric>
          <text>ma</text>
        </lyric>
      </note>
      <note>
        <pitch>
          <step>E</step>
          <octave>5</octave>
        </pitch>
        <duration>18</duration>
        <type>eighth</type>
        <dot/>
        <accidental/>
        <lyric>
          <text>nı </text>
        </lyric>
      </note>
      <note>
        <pitch>
          <step>D</step>
          <octave>5</octave>
        </pitch>
        <duration>6</duration>
        <type>16th</type>
        <accidental/>
        <lyric>
          <text></text>
        </lyric>
      </note>
    </measure>
    <measure number="25">
      <note>
        <pitch>
          <step>C</step>
          <octave>5</octave>
        </pitch>
        <duration>9</duration>
        <type>16th</type>
        <dot/>
        <accidental/>
        <lyric>
          <text>e</text>
        </lyric>
      </note>
      <note>
        <pitch>
          <step>B</step>
          <octave>4</octave>
          <alter>-0.5</alter>
        </pitch>
        <duration>3</duration>
        <type>32nd</type>
        <accidental>quarter-flat</accidental>
        <lyric>
          <text></text>
        </lyric>
      </note>
      <note>
        <pitch>
          <step>C</step>
          <octave>5</octave>
        </pitch>
        <duration>6</duration>
        <type>16th</type>
        <accidental/>
        <lyric>
          <text>sir </text>
        </lyric>
      </note>
      <note>
        <pitch>
          <step>E</step>
          <octave>5</octave>
        </pitch>
        <duration>6</duration>
        <type>16th</type>
        <accidental/>
        <lyric>
          <text>al</text>
        </lyric>
      </note>
      <note>
        <pitch>
          <step>D</step>
          <octave>5</octave>
        </pitch>
        <duration>18</duration>
        <type>eighth</type>
        <dot/>
        <accidental/>
        <lyric>
          <text>dık  </text>
        </lyric>
      </note>
      <note>
        <pitch>
          <step>C</step>
          <octave>5</octave>
        </pitch>
        <duration>6</duration>
        <type>16th</type>
        <accidental/>
        <lyric>
          <text></text>
        </lyric>
      </note>
    </measure>
    <measure number="26">
      <note>
        <pitch>
          <step>B</step>
          <octave>4</octave>
          <alter>-0.5</alter>
        </pitch>
        <duration>9</duration>
        <type>16th</type>
        <dot/>
        <accidental>quarter-flat</accidental>
        <lyric>
          <text>Şu </text>
        </lyric>
      </note>
      <note>
        <pitch>
          <step>A</step>
          <octave>4</octave>
        </pitch>
        <duration>3</duration>
        <type>32nd</type>
        <accidental/>
        <lyric>
          <text></text>
        </lyric>
      </note>
      <note>
        <pitch>
          <step>B</step>
          <octave>4</octave>
          <alter>-0.5</alter>
        </pitch>
        <duration>6</duration>
        <type>16th</type>
        <accidental>quarter-flat</accidental>
        <lyric>
          <text>fe</text>
        </lyric>
      </note>
      <note>
        <pitch>
          <step>D</step>
          <octave>5</octave>
        </pitch>
        <duration>6</duration>
        <type>16th</type>
        <accidental/>
        <lyric>
          <text>le</text>
        </lyric>
      </note>
      <note>
        <pitch>
          <step>C</step>
          <octave>5</octave>
        </pitch>
        <duration>18</duration>
        <type>eighth</type>
        <dot/>
        <accidental/>
        <lyric>
          <text>ğin </text>
        </lyric>
      </note>
      <note>
        <pitch>
          <step>B</step>
          <octave>4</octave>
          <alter>-0.5</alter>
        </pitch>
        <duration>6</duration>
        <type>16th</type>
        <accidental>quarter-flat</accidental>
        <lyric>
          <text></text>
        </lyric>
      </note>
    </measure>
    <measure number="27">
      <note>
        <pitch>
          <step>A</step>
          <octave>4</octave>
        </pitch>
        <duration>12</duration>
        <type>eighth</type>
        <accidental/>
        <lyric>
          <text>i</text>
        </lyric>
      </note>
      <note>
        <pitch>
          <step>A</step>
          <octave>4</octave>
        </pitch>
        <duration>6</duration>
        <type>16th</type>
        <accidental/>
        <lyric>
          <text>şi</text>
        </lyric>
      </note>
      <note>
        <pitch>
          <step>C</step>
          <octave>5</octave>
        </pitch>
        <duration>6</duration>
        <type>16th</type>
        <accidental/>
        <lyric>
          <text>ne </text>
        </lyric>
      </note>
      <note>
        <pitch>
          <step>B</step>
          <octave>4</octave>
          <alter>-0.5</alter>
        </pitch>
        <duration>18</duration>
        <type>eighth</type>
        <dot/>
        <accidental>quarter-flat</accidental>
        <lyric>
          <text>bak </text>
        </lyric>
      </note>
      <note>
        <pitch>
          <step>A</step>
          <octave>4</octave>
        </pitch>
        <duration>6</duration>
        <type>16th</type>
        <accidental/>
        <lyric>
          <text></text>
        </lyric>
      </note>
    </measure>
    <measure number="28">
      <note>
        <pitch>
          <step>A</step>
          <octave>4</octave>
        </pitch>
        <duration>12</duration>
        <type>eighth</type>
        <accidental/>
        <lyric>
          <text>i</text>
        </lyric>
      </note>
      <note>
        <pitch>
          <step>D</step>
          <octave>5</octave>
        </pitch>
        <duration>6</duration>
        <type>16th</type>
        <accidental/>
        <lyric>
          <text>şi</text>
        </lyric>
      </note>
      <note>
        <pitch>
          <step>D</step>
          <octave>5</octave>
        </pitch>
        <duration>6</duration>
        <type>16th</type>
        <accidental/>
        <lyric>
          <text>ne </text>
        </lyric>
      </note>
      <note>
        <pitch>
          <step>A</step>
          <octave>4</octave>
        </pitch>
        <duration>12</duration>
        <type>eighth</type>
        <accidental/>
        <lyric>
          <text>bak  </text>
        </lyric>
      </note>
      <note>
        <rest/>
        <duration>12</duration>
        <type>eighth</type>
        <lyric>
          <text></text>
        </lyric>
      </note>
    </measure>
    <measure number="29">
      <note>
        <pitch>
          <step>D</step>
          <octave>5</octave>
        </pitch>
        <duration>12</duration>
        <type>eighth</type>
        <accidental/>
        <lyric name="ARANAĞME" id="2">
          <text>ARANAĞME</text>
        </lyric>
      </note>
      <note>
        <pitch>
          <step>C</step>
          <octave>5</octave>
        </pitch>
        <duration>6</duration>
        <type>16th</type>
        <accidental/>
        <lyric>
          <text>.</text>
        </lyric>
      </note>
      <note>
        <pitch>
          <step>D</step>
          <octave>5</octave>
        </pitch>
        <duration>6</duration>
        <type>16th</type>
        <accidental/>
        <lyric>
          <text>.</text>
        </lyric>
      </note>
      <note>
        <pitch>
          <step>E</step>
          <octave>5</octave>
        </pitch>
        <duration>18</duration>
        <type>eighth</type>
        <dot/>
        <accidental/>
        <lyric>
          <text>.</text>
        </lyric>
      </note>
      <note>
        <pitch>
          <step>D</step>
          <octave>5</octave>
        </pitch>
        <duration>6</duration>
        <type>16th</type>
        <accidental/>
        <lyric>
          <text>.</text>
        </lyric>
      </note>
    </measure>
    <measure number="30">
      <note>
        <pitch>
          <step>C</step>
          <octave>5</octave>
        </pitch>
        <duration>9</duration>
        <type>16th</type>
        <dot/>
        <accidental/>
        <lyric>
          <text>.</text>
        </lyric>
      </note>
      <note>
        <pitch>
          <step>B</step>
          <octave>4</octave>
          <alter>-0.5</alter>
        </pitch>
        <duration>3</duration>
        <type>32nd</type>
        <accidental>quarter-flat</accidental>
        <lyric>
          <text>.</text>
        </lyric>
      </note>
      <note>
        <pitch>
          <step>C</step>
          <octave>5</octave>
        </pitch>
        <duration>6</duration>
        <type>16th</type>
        <accidental/>
        <lyric>
          <text>.</text>
        </lyric>
      </note>
      <note>
        <pitch>
          <step>E</step>
          <octave>5</octave>
        </pitch>
        <duration>6</duration>
        <type>16th</type>
        <accidental/>
        <lyric>
          <text>.</text>
        </lyric>
      </note>
      <note>
        <pitch>
          <step>D</step>
          <octave>5</octave>
        </pitch>
        <duration>18</duration>
        <type>eighth</type>
        <dot/>
        <accidental/>
        <lyric>
          <text>.</text>
        </lyric>
      </note>
      <note>
        <pitch>
          <step>C</step>
          <octave>5</octave>
        </pitch>
        <duration>6</duration>
        <type>16th</type>
        <accidental/>
        <lyric>
          <text>.</text>
        </lyric>
      </note>
    </measure>
    <measure number="31">
      <note>
        <pitch>
          <step>B</step>
          <octave>4</octave>
          <alter>-0.5</alter>
        </pitch>
        <duration>9</duration>
        <type>16th</type>
        <dot/>
        <accidental>quarter-flat</accidental>
        <lyric>
          <text>.</text>
        </lyric>
      </note>
      <note>
        <pitch>
          <step>A</step>
          <octave>4</octave>
        </pitch>
        <duration>3</duration>
        <type>32nd</type>
        <accidental/>
        <lyric>
          <text>.</text>
        </lyric>
      </note>
      <note>
        <pitch>
          <step>B</step>
          <octave>4</octave>
          <alter>-0.5</alter>
        </pitch>
        <duration>6</duration>
        <type>16th</type>
        <accidental>quarter-flat</accidental>
        <lyric>
          <text>.</text>
        </lyric>
      </note>
      <note>
        <pitch>
          <step>D</step>
          <octave>5</octave>
        </pitch>
        <duration>6</duration>
        <type>16th</type>
        <accidental/>
        <lyric>
          <text>.</text>
        </lyric>
      </note>
      <note>
        <pitch>
          <step>C</step>
          <octave>5</octave>
        </pitch>
        <duration>18</duration>
        <type>eighth</type>
        <dot/>
        <accidental/>
        <lyric>
          <text>.</text>
        </lyric>
      </note>
      <note>
        <pitch>
          <step>B</step>
          <octave>4</octave>
          <alter>-0.5</alter>
        </pitch>
        <duration>6</duration>
        <type>16th</type>
        <accidental>quarter-flat</accidental>
        <lyric>
          <text>.</text>
        </lyric>
      </note>
    </measure>
    <measure number="32">
      <note>
        <pitch>
          <step>A</step>
          <octave>4</octave>
        </pitch>
        <duration>12</duration>
        <type>eighth</type>
        <accidental/>
        <lyric>
          <text>.</text>
        </lyric>
      </note>
      <note>
        <pitch>
          <step>A</step>
          <octave>4</octave>
        </pitch>
        <duration>6</duration>
        <type>16th</type>
        <accidental/>
        <lyric>
          <text>.</text>
        </lyric>
      </note>
      <note>
        <pitch>
          <step>C</step>
          <octave>5</octave>
        </pitch>
        <duration>6</duration>
        <type>16th</type>
        <accidental/>
        <lyric>
          <text>.</text>
        </lyric>
      </note>
      <note>
        <pitch>
          <step>B</step>
          <octave>4</octave>
          <alter>-0.5</alter>
        </pitch>
        <duration>18</duration>
        <type>eighth</type>
        <dot/>
        <accidental>quarter-flat</accidental>
        <lyric>
          <text>.</text>
        </lyric>
      </note>
      <note>
        <pitch>
          <step>A</step>
          <octave>4</octave>
        </pitch>
        <duration>6</duration>
        <type>16th</type>
        <accidental/>
        <lyric>
          <text>.</text>
        </lyric>
      </note>
    </measure>
    <measure number="33">
      <note>
        <pitch>
          <step>A</step>
          <octave>4</octave>
        </pitch>
        <duration>12</duration>
        <type>eighth</type>
        <accidental/>
        <lyric>
          <text>.</text>
        </lyric>
      </note>
      <note>
        <pitch>
          <step>D</step>
          <octave>5</octave>
        </pitch>
        <duration>6</duration>
        <type>16th</type>
        <accidental/>
        <lyric>
          <text>.</text>
        </lyric>
      </note>
      <note>
        <pitch>
          <step>D</step>
          <octave>5</octave>
        </pitch>
        <duration>6</duration>
        <type>16th</type>
        <accidental/>
        <lyric>
          <text>.</text>
        </lyric>
      </note>
      <note>
        <pitch>
          <step>A</step>
          <octave>4</octave>
        </pitch>
        <duration>12</duration>
        <type>eighth</type>
        <accidental/>
        <lyric>
          <text>.</text>
        </lyric>
      </note>
      <note>
        <rest/>
        <duration>12</duration>
        <type>eighth</type>
        <lyric>
          <text></text>
        </lyric>
      </note>
    </measure>
    <measure number="34">
      <note>
        <pitch>
          <step>D</step>
          <octave>5</octave>
        </pitch>
        <duration>12</duration>
        <type>eighth</type>
        <accidental/>
        <lyric name="ARANAĞME" id="3">
          <text>ARANAĞME</text>
        </lyric>
      </note>
      <note>
        <pitch>
          <step>C</step>
          <octave>5</octave>
        </pitch>
        <duration>6</duration>
        <type>16th</type>
        <accidental/>
        <lyric>
          <text>.</text>
        </lyric>
      </note>
      <note>
        <pitch>
          <step>D</step>
          <octave>5</octave>
        </pitch>
        <duration>6</duration>
        <type>16th</type>
        <accidental/>
        <lyric>
          <text>.</text>
        </lyric>
      </note>
      <note>
        <pitch>
          <step>E</step>
          <octave>5</octave>
        </pitch>
        <duration>18</duration>
        <type>eighth</type>
        <dot/>
        <accidental/>
        <lyric>
          <text>.</text>
        </lyric>
      </note>
      <note>
        <pitch>
          <step>D</step>
          <octave>5</octave>
        </pitch>
        <duration>6</duration>
        <type>16th</type>
        <accidental/>
        <lyric>
          <text>.</text>
        </lyric>
      </note>
    </measure>
    <measure number="35">
      <note>
        <pitch>
          <step>C</step>
          <octave>5</octave>
        </pitch>
        <duration>9</duration>
        <type>16th</type>
        <dot/>
        <accidental/>
        <lyric>
          <text>.</text>
        </lyric>
      </note>
      <note>
        <pitch>
          <step>B</step>
          <octave>4</octave>
          <alter>-0.5</alter>
        </pitch>
        <duration>3</duration>
        <type>32nd</type>
        <accidental>quarter-flat</accidental>
        <lyric>
          <text>.</text>
        </lyric>
      </note>
      <note>
        <pitch>
          <step>C</step>
          <octave>5</octave>
        </pitch>
        <duration>6</duration>
        <type>16th</type>
        <accidental/>
        <lyric>
          <text>.</text>
        </lyric>
      </note>
      <note>
        <pitch>
          <step>E</step>
          <octave>5</octave>
        </pitch>
        <duration>6</duration>
        <type>16th</type>
        <accidental/>
        <lyric>
          <text>.</text>
        </lyric>
      </note>
      <note>
        <pitch>
          <step>D</step>
          <octave>5</octave>
        </pitch>
        <duration>18</duration>
        <type>eighth</type>
        <dot/>
        <accidental/>
        <lyric>
          <text>.</text>
        </lyric>
      </note>
      <note>
        <pitch>
          <step>C</step>
          <octave>5</octave>
        </pitch>
        <duration>6</duration>
        <type>16th</type>
        <accidental/>
        <lyric>
          <text>.</text>
        </lyric>
      </note>
    </measure>
    <measure number="36">
      <note>
        <pitch>
          <step>B</step>
          <octave>4</octave>
          <alter>-0.5</alter>
        </pitch>
        <duration>9</duration>
        <type>16th</type>
        <dot/>
        <accidental>quarter-flat</accidental>
        <lyric>
          <text>.</text>
        </lyric>
      </note>
      <note>
        <pitch>
          <step>A</step>
          <octave>4</octave>
        </pitch>
        <duration>3</duration>
        <type>32nd</type>
        <accidental/>
        <lyric>
          <text>.</text>
        </lyric>
      </note>
      <note>
        <pitch>
          <step>B</step>
          <octave>4</octave>
          <alter>-0.5</alter>
        </pitch>
        <duration>6</duration>
        <type>16th</type>
        <accidental>quarter-flat</accidental>
        <lyric>
          <text>.</text>
        </lyric>
      </note>
      <note>
        <pitch>
          <step>D</step>
          <octave>5</octave>
        </pitch>
        <duration>6</duration>
        <type>16th</type>
        <accidental/>
        <lyric>
          <text>.</text>
        </lyric>
      </note>
      <note>
        <pitch>
          <step>C</step>
          <octave>5</octave>
        </pitch>
        <duration>18</duration>
        <type>eighth</type>
        <dot/>
        <accidental/>
        <lyric>
          <text>.</text>
        </lyric>
      </note>
      <note>
        <pitch>
          <step>B</step>
          <octave>4</octave>
          <alter>-0.5</alter>
        </pitch>
        <duration>6</duration>
        <type>16th</type>
        <accidental>quarter-flat</accidental>
        <lyric>
          <text>.</text>
        </lyric>
      </note>
    </measure>
    <measure number="37">
      <note>
        <pitch>
          <step>A</step>
          <octave>4</octave>
        </pitch>
        <duration>12</duration>
        <type>eighth</type>
        <accidental/>
        <lyric>
          <text>.</text>
        </lyric>
      </note>
      <note>
        <pitch>
          <step>A</step>
          <octave>4</octave>
        </pitch>
        <duration>6</duration>
        <type>16th</type>
        <accidental/>
        <lyric>
          <text>.</text>
        </lyric>
      </note>
      <note>
        <pitch>
          <step>C</step>
          <octave>5</octave>
        </pitch>
        <duration>6</duration>
        <type>16th</type>
        <accidental/>
        <lyric>
          <text>.</text>
        </lyric>
      </note>
      <note>
        <pitch>
          <step>B</step>
          <octave>4</octave>
          <alter>-0.5</alter>
        </pitch>
        <duration>18</duration>
        <type>eighth</type>
        <dot/>
        <accidental>quarter-flat</accidental>
        <lyric>
          <text>.</text>
        </lyric>
      </note>
      <note>
        <pitch>
          <step>A</step>
          <octave>4</octave>
        </pitch>
        <duration>6</duration>
        <type>16th</type>
        <accidental/>
        <lyric>
          <text>.</text>
        </lyric>
      </note>
    </measure>
    <measure number="38">
      <note>
        <pitch>
          <step>A</step>
          <octave>4</octave>
        </pitch>
        <duration>12</duration>
        <type>eighth</type>
        <accidental/>
        <lyric>
          <text>.</text>
        </lyric>
      </note>
      <note>
        <pitch>
          <step>D</step>
          <octave>5</octave>
        </pitch>
        <duration>6</duration>
        <type>16th</type>
        <accidental/>
        <lyric>
          <text>.</text>
        </lyric>
      </note>
      <note>
        <pitch>
          <step>D</step>
          <octave>5</octave>
        </pitch>
        <duration>6</duration>
        <type>16th</type>
        <accidental/>
        <lyric>
          <text>.</text>
        </lyric>
      </note>
      <note>
        <pitch>
          <step>A</step>
          <octave>4</octave>
        </pitch>
        <duration>12</duration>
        <type>eighth</type>
        <accidental/>
        <lyric>
          <text>.</text>
        </lyric>
      </note>
      <note>
        <rest/>
        <duration>12</duration>
        <type>eighth</type>
        <lyric>
          <text></text>
        </lyric>
      </note>
    </measure>
    <measure number="39">
      <note>
        <pitch>
          <step>D</step>
          <octave>5</octave>
        </pitch>
        <duration>12</duration>
        <type>eighth</type>
        <accidental/>
        <lyric>
          <text>An</text>
        </lyric>
      </note>
      <note>
        <pitch>
          <step>E</step>
          <octave>5</octave>
        </pitch>
        <duration>6</duration>
        <type>16th</type>
        <accidental/>
        <lyric>
          <text>ka</text>
        </lyric>
      </note>
      <note>
        <pitch>
          <step>F</step>
          <octave>5</octave>
          <alter>1</alter>
        </pitch>
        <duration>6</duration>
        <type>16th</type>
        <accidental>sharp</accidental>
        <lyric>
          <text>ra</text>
        </lyric>
      </note>
      <note>
        <pitch>
          <step>G</step>
          <octave>5</octave>
        </pitch>
        <duration>18</duration>
        <type>eighth</type>
        <dot/>
        <accidental/>
        <lyric>
          <text>nın </text>
        </lyric>
      </note>
      <note>
        <pitch>
          <step>F</step>
          <octave>5</octave>
          <alter>1</alter>
        </pitch>
        <duration>6</duration>
        <type>16th</type>
        <accidental>sharp</accidental>
        <lyric>
          <text></text>
        </lyric>
      </note>
    </measure>
    <measure number="40">
      <note>
        <pitch>
          <step>E</step>
          <octave>5</octave>
        </pitch>
        <duration>12</duration>
        <type>eighth</type>
        <accidental/>
        <lyric>
          <text>ta</text>
        </lyric>
      </note>
      <note>
        <pitch>
          <step>E</step>
          <octave>5</octave>
        </pitch>
        <duration>6</duration>
        <type>16th</type>
        <accidental/>
        <lyric>
          <text>şı</text>
        </lyric>
      </note>
      <note>
        <pitch>
          <step>G</step>
          <octave>5</octave>
        </pitch>
        <duration>6</duration>
        <type>16th</type>
        <accidental/>
        <lyric>
          <text>na </text>
        </lyric>
      </note>
      <note>
        <pitch>
          <step>F</step>
          <octave>5</octave>
          <alter>1</alter>
        </pitch>
        <duration>18</duration>
        <type>eighth</type>
        <dot/>
        <accidental>sharp</accidental>
        <lyric>
          <text>bak  </text>
        </lyric>
      </note>
      <note>
        <pitch>
          <step>E</step>
          <octave>5</octave>
        </pitch>
        <duration>6</duration>
        <type>16th</type>
        <accidental/>
        <lyric>
          <text></text>
        </lyric>
      </note>
    </measure>
    <measure number="41">
      <note>
        <pitch>
          <step>D</step>
          <octave>5</octave>
        </pitch>
        <duration>12</duration>
        <type>eighth</type>
        <accidental/>
        <lyric>
          <text>Göz</text>
        </lyric>
      </note>
      <note>
        <pitch>
          <step>E</step>
          <octave>5</octave>
        </pitch>
        <duration>6</duration>
        <type>16th</type>
        <accidental/>
        <lyric>
          <text>le</text>
        </lyric>
      </note>
      <note>
        <pitch>
          <step>E</step>
          <octave>5</octave>
        </pitch>
        <duration>6</duration>
        <type>16th</type>
        <accidental/>
        <lyric>
          <text>ri</text>
        </lyric>
      </note>
      <note>
        <pitch>
          <step>E</step>
          <octave>5</octave>
        </pitch>
        <duration>18</duration>
        <type>eighth</type>
        <dot/>
        <accidental/>
        <lyric>
          <text>min </text>
        </lyric>
      </note>
      <note>
        <pitch>
          <step>D</step>
          <octave>5</octave>
        </pitch>
        <duration>6</duration>
        <type>16th</type>
        <accidental/>
        <lyric>
          <text></text>
        </lyric>
      </note>
    </measure>
    <measure number="42">
      <note>
        <pitch>
          <step>D</step>
          <octave>5</octave>
        </pitch>
        <duration>12</duration>
        <type>eighth</type>
        <accidental/>
        <lyric>
          <text>ya</text>
        </lyric>
      </note>
      <note>
        <pitch>
          <step>G</step>
          <octave>5</octave>
        </pitch>
        <duration>6</duration>
        <type>16th</type>
        <accidental/>
        <lyric>
          <text>şı</text>
        </lyric>
      </note>
      <note>
        <pitch>
          <step>G</step>
          <octave>5</octave>
        </pitch>
        <duration>6</duration>
        <type>16th</type>
        <accidental/>
        <lyric>
          <text>na </text>
        </lyric>
      </note>
      <note>
        <pitch>
          <step>D</step>
          <octave>5</octave>
        </pitch>
        <duration>12</duration>
        <type>eighth</type>
        <accidental/>
        <lyric>
          <text>bak  </text>
        </lyric>
      </note>
      <note>
        <rest/>
        <duration>12</duration>
        <type>eighth</type>
        <lyric>
          <text></text>
        </lyric>
      </note>
    </measure>
    <measure number="43">
      <note>
        <pitch>
          <step>D</step>
          <octave>5</octave>
        </pitch>
        <duration>12</duration>
        <type>eighth</type>
        <accidental/>
        <lyric>
          <text>An</text>
        </lyric>
      </note>
      <note>
        <pitch>
          <step>E</step>
          <octave>5</octave>
        </pitch>
        <duration>6</duration>
        <type>16th</type>
        <accidental/>
        <lyric>
          <text>ka</text>
        </lyric>
      </note>
      <note>
        <pitch>
          <step>F</step>
          <octave>5</octave>
          <alter>1</alter>
        </pitch>
        <duration>6</duration>
        <type>16th</type>
        <accidental>sharp</accidental>
        <lyric>
          <text>ra</text>
        </lyric>
      </note>
      <note>
        <pitch>
          <step>G</step>
          <octave>5</octave>
        </pitch>
        <duration>18</duration>
        <type>eighth</type>
        <dot/>
        <accidental/>
        <lyric>
          <text>nın </text>
        </lyric>
      </note>
      <note>
        <pitch>
          <step>F</step>
          <octave>5</octave>
          <alter>1</alter>
        </pitch>
        <duration>6</duration>
        <type>16th</type>
        <accidental>sharp</accidental>
        <lyric>
          <text></text>
        </lyric>
      </note>
    </measure>
    <measure number="44">
      <note>
        <pitch>
          <step>E</step>
          <octave>5</octave>
        </pitch>
        <duration>12</duration>
        <type>eighth</type>
        <accidental/>
        <lyric>
          <text>ta</text>
        </lyric>
      </note>
      <note>
        <pitch>
          <step>E</step>
          <octave>5</octave>
        </pitch>
        <duration>6</duration>
        <type>16th</type>
        <accidental/>
        <lyric>
          <text>şı</text>
        </lyric>
      </note>
      <note>
        <pitch>
          <step>G</step>
          <octave>5</octave>
        </pitch>
        <duration>6</duration>
        <type>16th</type>
        <accidental/>
        <lyric>
          <text>na </text>
        </lyric>
      </note>
      <note>
        <pitch>
          <step>F</step>
          <octave>5</octave>
          <alter>1</alter>
        </pitch>
        <duration>18</duration>
        <type>eighth</type>
        <dot/>
        <accidental>sharp</accidental>
        <lyric>
          <text>bak  </text>
        </lyric>
      </note>
      <note>
        <pitch>
          <step>E</step>
          <octave>5</octave>
        </pitch>
        <duration>6</duration>
        <type>16th</type>
        <accidental/>
        <lyric>
          <text></text>
        </lyric>
      </note>
    </measure>
    <measure number="45">
      <note>
        <pitch>
          <step>D</step>
          <octave>5</octave>
        </pitch>
        <duration>12</duration>
        <type>eighth</type>
        <accidental/>
        <lyric>
          <text>Göz</text>
        </lyric>
      </note>
      <note>
        <pitch>
          <step>E</step>
          <octave>5</octave>
        </pitch>
        <duration>6</duration>
        <type>16th</type>
        <accidental/>
        <lyric>
          <text>le</text>
        </lyric>
      </note>
      <note>
        <pitch>
          <step>E</step>
          <octave>5</octave>
        </pitch>
        <duration>6</duration>
        <type>16th</type>
        <accidental/>
        <lyric>
          <text>ri</text>
        </lyric>
      </note>
      <note>
        <pitch>
          <step>E</step>
          <octave>5</octave>
        </pitch>
        <duration>18</duration>
        <type>eighth</type>
        <dot/>
        <accidental/>
        <lyric>
          <text>min </text>
        </lyric>
      </note>
      <note>
        <pitch>
          <step>D</step>
          <octave>5</octave>
        </pitch>
        <duration>6</duration>
        <type>16th</type>
        <accidental/>
        <lyric>
          <text></text>
        </lyric>
      </note>
    </measure>
    <measure number="46">
      <note>
        <pitch>
          <step>D</step>
          <octave>5</octave>
        </pitch>
        <duration>12</duration>
        <type>eighth</type>
        <accidental/>
        <lyric>
          <text>ya</text>
        </lyric>
      </note>
      <note>
        <pitch>
          <step>G</step>
          <octave>5</octave>
        </pitch>
        <duration>6</duration>
        <type>16th</type>
        <accidental/>
        <lyric>
          <text>şı</text>
        </lyric>
      </note>
      <note>
        <pitch>
          <step>G</step>
          <octave>5</octave>
        </pitch>
        <duration>6</duration>
        <type>16th</type>
        <accidental/>
        <lyric>
          <text>na </text>
        </lyric>
      </note>
      <note>
        <pitch>
          <step>D</step>
          <octave>5</octave>
        </pitch>
        <duration>12</duration>
        <type>eighth</type>
        <accidental/>
        <lyric>
          <text>bak  </text>
        </lyric>
      </note>
      <note>
        <rest/>
        <duration>12</duration>
        <type>eighth</type>
        <lyric>
          <text></text>
        </lyric>
      </note>
    </measure>
    <measure number="47">
      <note>
        <pitch>
          <step>D</step>
          <octave>5</octave>
        </pitch>
        <duration>12</duration>
        <type>eighth</type>
        <accidental/>
        <lyric>
          <text>Biz </text>
        </lyric>
      </note>
      <note>
        <pitch>
          <step>C</step>
          <octave>5</octave>
        </pitch>
        <duration>6</duration>
        <type>16th</type>
        <accidental/>
        <lyric>
          <text>düş</text>
        </lyric>
      </note>
      <note>
        <pitch>
          <step>D</step>
          <octave>5</octave>
        </pitch>
        <duration>6</duration>
        <type>16th</type>
        <accidental/>
        <lyric>
          <text>ma</text>
        </lyric>
      </note>
      <note>
        <pitch>
          <step>E</step>
          <octave>5</octave>
        </pitch>
        <duration>18</duration>
        <type>eighth</type>
        <dot/>
        <accidental/>
        <lyric>
          <text>nı </text>
        </lyric>
      </note>
      <note>
        <pitch>
          <step>D</step>
          <octave>5</octave>
        </pitch>
        <duration>6</duration>
        <type>16th</type>
        <accidental/>
        <lyric>
          <text></text>
        </lyric>
      </note>
    </measure>
    <measure number="48">
      <note>
        <pitch>
          <step>C</step>
          <octave>5</octave>
        </pitch>
        <duration>9</duration>
        <type>16th</type>
        <dot/>
        <accidental/>
        <lyric>
          <text>e</text>
        </lyric>
      </note>
      <note>
        <pitch>
          <step>B</step>
          <octave>4</octave>
          <alter>-0.5</alter>
        </pitch>
        <duration>3</duration>
        <type>32nd</type>
        <accidental>quarter-flat</accidental>
        <lyric>
          <text></text>
        </lyric>
      </note>
      <note>
        <pitch>
          <step>C</step>
          <octave>5</octave>
        </pitch>
        <duration>6</duration>
        <type>16th</type>
        <accidental/>
        <lyric>
          <text>sir </text>
        </lyric>
      </note>
      <note>
        <pitch>
          <step>E</step>
          <octave>5</octave>
        </pitch>
        <duration>6</duration>
        <type>16th</type>
        <accidental/>
        <lyric>
          <text>al</text>
        </lyric>
      </note>
      <note>
        <pitch>
          <step>D</step>
          <octave>5</octave>
        </pitch>
        <duration>18</duration>
        <type>eighth</type>
        <dot/>
        <accidental/>
        <lyric>
          <text>dık  </text>
        </lyric>
      </note>
      <note>
        <pitch>
          <step>C</step>
          <octave>5</octave>
        </pitch>
        <duration>6</duration>
        <type>16th</type>
        <accidental/>
        <lyric>
          <text></text>
        </lyric>
      </note>
    </measure>
    <measure number="49">
      <note>
        <pitch>
          <step>B</step>
          <octave>4</octave>
          <alter>-0.5</alter>
        </pitch>
        <duration>9</duration>
        <type>16th</type>
        <dot/>
        <accidental>quarter-flat</accidental>
        <lyric>
          <text>Şu </text>
        </lyric>
      </note>
      <note>
        <pitch>
          <step>A</step>
          <octave>4</octave>
        </pitch>
        <duration>3</duration>
        <type>32nd</type>
        <accidental/>
        <lyric>
          <text></text>
        </lyric>
      </note>
      <note>
        <pitch>
          <step>B</step>
          <octave>4</octave>
          <alter>-0.5</alter>
        </pitch>
        <duration>6</duration>
        <type>16th</type>
        <accidental>quarter-flat</accidental>
        <lyric>
          <text>fe</text>
        </lyric>
      </note>
      <note>
        <pitch>
          <step>D</step>
          <octave>5</octave>
        </pitch>
        <duration>6</duration>
        <type>16th</type>
        <accidental/>
        <lyric>
          <text>le</text>
        </lyric>
      </note>
      <note>
        <pitch>
          <step>C</step>
          <octave>5</octave>
        </pitch>
        <duration>18</duration>
        <type>eighth</type>
        <dot/>
        <accidental/>
        <lyric>
          <text>ğin </text>
        </lyric>
      </note>
      <note>
        <pitch>
          <step>B</step>
          <octave>4</octave>
          <alter>-0.5</alter>
        </pitch>
        <duration>6</duration>
        <type>16th</type>
        <accidental>quarter-flat</accidental>
        <lyric>
          <text></text>
        </lyric>
      </note>
    </measure>
    <measure number="50">
      <note>
        <pitch>
          <step>A</step>
          <octave>4</octave>
        </pitch>
        <duration>12</duration>
        <type>eighth</type>
        <accidental/>
        <lyric>
          <text>i</text>
        </lyric>
      </note>
      <note>
        <pitch>
          <step>A</step>
          <octave>4</octave>
        </pitch>
        <duration>6</duration>
        <type>16th</type>
        <accidental/>
        <lyric>
          <text>şi</text>
        </lyric>
      </note>
      <note>
        <pitch>
          <step>C</step>
          <octave>5</octave>
        </pitch>
        <duration>6</duration>
        <type>16th</type>
        <accidental/>
        <lyric>
          <text>ne </text>
        </lyric>
      </note>
      <note>
        <pitch>
          <step>B</step>
          <octave>4</octave>
          <alter>-0.5</alter>
        </pitch>
        <duration>18</duration>
        <type>eighth</type>
        <dot/>
        <accidental>quarter-flat</accidental>
        <lyric>
          <text>bak </text>
        </lyric>
      </note>
      <note>
        <pitch>
          <step>A</step>
          <octave>4</octave>
        </pitch>
        <duration>6</duration>
        <type>16th</type>
        <accidental/>
        <lyric>
          <text></text>
        </lyric>
      </note>
    </measure>
    <measure number="51">
      <note>
        <pitch>
          <step>A</step>
          <octave>4</octave>
        </pitch>
        <duration>12</duration>
        <type>eighth</type>
        <accidental/>
        <lyric>
          <text>i</text>
        </lyric>
      </note>
      <note>
        <pitch>
          <step>D</step>
          <octave>5</octave>
        </pitch>
        <duration>6</duration>
        <type>16th</type>
        <accidental/>
        <lyric>
          <text>şi</text>
        </lyric>
      </note>
      <note>
        <pitch>
          <step>D</step>
          <octave>5</octave>
        </pitch>
        <duration>6</duration>
        <type>16th</type>
        <accidental/>
        <lyric>
          <text>ne </text>
        </lyric>
      </note>
      <note>
        <pitch>
          <step>A</step>
          <octave>4</octave>
        </pitch>
        <duration>12</duration>
        <type>eighth</type>
        <accidental/>
        <lyric>
          <text>bak  </text>
        </lyric>
      </note>
      <note>
        <rest/>
        <duration>12</duration>
        <type>eighth</type>
        <lyric>
          <text></text>
        </lyric>
      </note>
    </measure>
    <measure number="52">
      <note>
        <pitch>
          <step>D</step>
          <octave>5</octave>
        </pitch>
        <duration>12</duration>
        <type>eighth</type>
        <accidental/>
        <lyric>
          <text>Biz </text>
        </lyric>
      </note>
      <note>
        <pitch>
          <step>C</step>
          <octave>5</octave>
        </pitch>
        <duration>6</duration>
        <type>16th</type>
        <accidental/>
        <lyric>
          <text>düş</text>
        </lyric>
      </note>
      <note>
        <pitch>
          <step>D</step>
          <octave>5</octave>
        </pitch>
        <duration>6</duration>
        <type>16th</type>
        <accidental/>
        <lyric>
          <text>ma</text>
        </lyric>
      </note>
      <note>
        <pitch>
          <step>E</step>
          <octave>5</octave>
        </pitch>
        <duration>18</duration>
        <type>eighth</type>
        <dot/>
        <accidental/>
        <lyric>
          <text>nı </text>
        </lyric>
      </note>
      <note>
        <pitch>
          <step>D</step>
          <octave>5</octave>
        </pitch>
        <duration>6</duration>
        <type>16th</type>
        <accidental/>
        <lyric>
          <text></text>
        </lyric>
      </note>
    </measure>
    <measure number="53">
      <note>
        <pitch>
          <step>C</step>
          <octave>5</octave>
        </pitch>
        <duration>9</duration>
        <type>16th</type>
        <dot/>
        <accidental/>
        <lyric>
          <text>e</text>
        </lyric>
      </note>
      <note>
        <pitch>
          <step>B</step>
          <octave>4</octave>
          <alter>-0.5</alter>
        </pitch>
        <duration>3</duration>
        <type>32nd</type>
        <accidental>quarter-flat</accidental>
        <lyric>
          <text></text>
        </lyric>
      </note>
      <note>
        <pitch>
          <step>C</step>
          <octave>5</octave>
        </pitch>
        <duration>6</duration>
        <type>16th</type>
        <accidental/>
        <lyric>
          <text>sir </text>
        </lyric>
      </note>
      <note>
        <pitch>
          <step>E</step>
          <octave>5</octave>
        </pitch>
        <duration>6</duration>
        <type>16th</type>
        <accidental/>
        <lyric>
          <text>al</text>
        </lyric>
      </note>
      <note>
        <pitch>
          <step>D</step>
          <octave>5</octave>
        </pitch>
        <duration>18</duration>
        <type>eighth</type>
        <dot/>
        <accidental/>
        <lyric>
          <text>dık  </text>
        </lyric>
      </note>
      <note>
        <pitch>
          <step>C</step>
          <octave>5</octave>
        </pitch>
        <duration>6</duration>
        <type>16th</type>
        <accidental/>
        <lyric>
          <text></text>
        </lyric>
      </note>
    </measure>
    <measure number="54">
      <note>
        <pitch>
          <step>B</step>
          <octave>4</octave>
          <alter>-0.5</alter>
        </pitch>
        <duration>9</duration>
        <type>16th</type>
        <dot/>
        <accidental>quarter-flat</accidental>
        <lyric>
          <text>Şu </text>
        </lyric>
      </note>
      <note>
        <pitch>
          <step>A</step>
          <octave>4</octave>
        </pitch>
        <duration>3</duration>
        <type>32nd</type>
        <accidental/>
        <lyric>
          <text></text>
        </lyric>
      </note>
      <note>
        <pitch>
          <step>B</step>
          <octave>4</octave>
          <alter>-0.5</alter>
        </pitch>
        <duration>6</duration>
        <type>16th</type>
        <accidental>quarter-flat</accidental>
        <lyric>
          <text>fe</text>
        </lyric>
      </note>
      <note>
        <pitch>
          <step>D</step>
          <octave>5</octave>
        </pitch>
        <duration>6</duration>
        <type>16th</type>
        <accidental/>
        <lyric>
          <text>le</text>
        </lyric>
      </note>
      <note>
        <pitch>
          <step>C</step>
          <octave>5</octave>
        </pitch>
        <duration>18</duration>
        <type>eighth</type>
        <dot/>
        <accidental/>
        <lyric>
          <text>ğin </text>
        </lyric>
      </note>
      <note>
        <pitch>
          <step>B</step>
          <octave>4</octave>
          <alter>-0.5</alter>
        </pitch>
        <duration>6</duration>
        <type>16th</type>
        <accidental>quarter-flat</accidental>
        <lyric>
          <text></text>
        </lyric>
      </note>
    </measure>
    <measure number="55">
      <note>
        <pitch>
          <step>A</step>
          <octave>4</octave>
        </pitch>
        <duration>12</duration>
        <type>eighth</type>
        <accidental/>
        <lyric>
          <text>i</text>
        </lyric>
      </note>
      <note>
        <pitch>
          <step>A</step>
          <octave>4</octave>
        </pitch>
        <duration>6</duration>
        <type>16th</type>
        <accidental/>
        <lyric>
          <text>şi</text>
        </lyric>
      </note>
      <note>
        <pitch>
          <step>C</step>
          <octave>5</octave>
        </pitch>
        <duration>6</duration>
        <type>16th</type>
        <accidental/>
        <lyric>
          <text>ne </text>
        </lyric>
      </note>
      <note>
        <pitch>
          <step>B</step>
          <octave>4</octave>
          <alter>-0.5</alter>
        </pitch>
        <duration>18</duration>
        <type>eighth</type>
        <dot/>
        <accidental>quarter-flat</accidental>
        <lyric>
          <text>bak </text>
        </lyric>
      </note>
      <note>
        <pitch>
          <step>A</step>
          <octave>4</octave>
        </pitch>
        <duration>6</duration>
        <type>16th</type>
        <accidental/>
        <lyric>
          <text></text>
        </lyric>
      </note>
    </measure>
    <measure number="56">
      <note>
        <pitch>
          <step>A</step>
          <octave>4</octave>
        </pitch>
        <duration>12</duration>
        <type>eighth</type>
        <accidental/>
        <lyric>
          <text>i</text>
        </lyric>
      </note>
      <note>
        <pitch>
          <step>D</step>
          <octave>5</octave>
        </pitch>
        <duration>6</duration>
        <type>16th</type>
        <accidental/>
        <lyric>
          <text>şi</text>
        </lyric>
      </note>
      <note>
        <pitch>
          <step>D</step>
          <octave>5</octave>
        </pitch>
        <duration>6</duration>
        <type>16th</type>
        <accidental/>
        <lyric>
          <text>ne </text>
        </lyric>
      </note>
      <note>
        <pitch>
          <step>A</step>
          <octave>4</octave>
        </pitch>
        <duration>12</duration>
        <type>eighth</type>
        <accidental/>
        <lyric>
          <text>bak  </text>
        </lyric>
      </note>
      <note>
        <rest/>
        <duration>12</duration>
        <type>eighth</type>
        <lyric>
          <text></text>
        </lyric>
      </note>
    </measure>
    <measure number="57"/>
  </part>
</score-partwise>
