<?xml version='1.0' encoding='UTF-8' standalone='no'?>
<!DOCTYPE score-partwise PUBLIC "-//Recordare//DTD MusicXML 3.0 Partwise//EN" "http://www.musicxml.org/dtds/partwise.dtd">
<score-partwise version="3.0">
  <work>
    <work-title>Bezm-I Meyde Faslı...</work-title>
  </work>
  <identification>
    <creator type="composer">Ahmet Avni Konuk</creator>
    <creator type="poet">Ahmet Avni Konuk</creator>
    <relation>https://musicbrainz.org/work/cc697701-ef86-4888-afb7-0bed813ca300</relation>
  </identification>
  <part-list>
    <score-part id="P1">
      <part-name>Music</part-name>
    </score-part>
  </part-list>
  <part id="P1">
    <measure number="1-0">
      <direction placement="above">
        <direction-type>
          <metronome>
            <beat-unit>quarter</beat-unit>
            <per-minute>48</per-minute>
          </metronome>
        </direction-type>
        <direction-type>
          <words default-y="35">Usul: Müsemmen </words>
        </direction-type>
        <sound tempo="48"/>
      </direction>
      <attributes>
        <divisions>96</divisions>
        <key>
          <key-step>C</key-step>
          <key-alter>+4</key-alter>
          <key-accidental>sharp</key-accidental>
        </key>
        <time>
          <beats>8</beats>
          <beat-type>8</beat-type>
        </time>
      </attributes>
      <note>
        <!--symbtr_txt_note_index 2-->
        <pitch>
          <step>D</step>
          <octave>5</octave>
        </pitch>
        <duration>96</duration>
        <type>quarter</type>
        <lyric name="VOCAL_SECTION">
          <syllabic>begin</syllabic>
          <text>Bezm_</text>
        </lyric>
      </note>
      <note>
        <!--symbtr_txt_note_index 3-->
        <pitch>
          <step>D</step>
          <octave>5</octave>
        </pitch>
        <duration>24</duration>
        <type>16th</type>
        <lyric>
          <syllabic>end</syllabic>
          <text>i </text>
        </lyric>
      </note>
      <note>
        <!--symbtr_txt_note_index 4-->
        <pitch>
          <step>E</step>
          <octave>5</octave>
        </pitch>
        <duration>24</duration>
        <type>16th</type>
        <lyric>
          <text></text>
        </lyric>
      </note>
      <note>
        <!--symbtr_txt_note_index 5-->
        <!--Warning! SymbTr_Kod: 11 Silent grace. MusicXML schema does not have a appropriate mapping, treating the note as a normal note-->
        <pitch>
          <step>F</step>
          <octave>5</octave>
        </pitch>
        <duration>24</duration>
        <type>16th</type>
        <lyric>
          <syllabic>begin</syllabic>
          <text>mey</text>
        </lyric>
      </note>
      <note>
        <!--symbtr_txt_note_index 6-->
        <!--Warning! SymbTr_Kod: 11 Silent grace. MusicXML schema does not have a appropriate mapping, treating the note as a normal note-->
        <pitch>
          <step>E</step>
          <octave>5</octave>
        </pitch>
        <duration>24</duration>
        <type>16th</type>
        <lyric>
          <text></text>
        </lyric>
      </note>
      <note>
        <!--symbtr_txt_note_index 7-->
        <!--Warning! SymbTr_Kod: 11 Silent grace. MusicXML schema does not have a appropriate mapping, treating the note as a normal note-->
        <pitch>
          <step>D</step>
          <octave>5</octave>
        </pitch>
        <duration>24</duration>
        <type>16th</type>
        <lyric>
          <text></text>
        </lyric>
      </note>
      <note>
        <!--symbtr_txt_note_index 8-->
        <pitch>
          <step>C</step>
          <alter>+1</alter>
          <octave>5</octave>
        </pitch>
        <duration>24</duration>
        <type>16th</type>
        <accidental>sharp</accidental>
        <lyric>
          <text></text>
        </lyric>
      </note>
      <note>
        <!--symbtr_txt_note_index 9-->
        <pitch>
          <step>D</step>
          <octave>5</octave>
        </pitch>
        <duration>96</duration>
        <type>quarter</type>
        <lyric>
          <syllabic>end</syllabic>
          <text>de </text>
        </lyric>
      </note>
      <note>
        <!--symbtr_txt_note_index 10-->
        <rest/>
        <duration>48</duration>
        <type>eighth</type>
        <lyric>
          <text></text>
        </lyric>
      </note>
    </measure>
    <measure number="2-0">
      <attributes/>
      <note>
        <!--symbtr_txt_note_index 11-->
        <pitch>
          <step>D</step>
          <octave>5</octave>
        </pitch>
        <duration>96</duration>
        <type>quarter</type>
        <lyric>
          <syllabic>begin</syllabic>
          <text>fas</text>
        </lyric>
      </note>
      <note>
        <!--symbtr_txt_note_index 12-->
        <pitch>
          <step>E</step>
          <octave>5</octave>
        </pitch>
        <duration>24</duration>
        <type>16th</type>
        <lyric>
          <syllabic>end</syllabic>
          <text>lı </text>
        </lyric>
      </note>
      <note>
        <!--symbtr_txt_note_index 13-->
        <pitch>
          <step>F</step>
          <octave>5</octave>
        </pitch>
        <duration>24</duration>
        <type>16th</type>
        <lyric>
          <text></text>
        </lyric>
      </note>
      <note>
        <!--symbtr_txt_note_index 14-->
        <pitch>
          <step>E</step>
          <octave>5</octave>
        </pitch>
        <duration>24</duration>
        <type>16th</type>
        <lyric>
          <syllabic>single</syllabic>
          <text>ol </text>
        </lyric>
      </note>
      <note>
        <!--symbtr_txt_note_index 15-->
        <pitch>
          <step>D</step>
          <octave>5</octave>
        </pitch>
        <duration>24</duration>
        <type>16th</type>
        <lyric>
          <text></text>
        </lyric>
      </note>
      <note>
        <!--symbtr_txt_note_index 16-->
        <pitch>
          <step>D</step>
          <octave>5</octave>
        </pitch>
        <duration>24</duration>
        <type>16th</type>
        <lyric>
          <text></text>
        </lyric>
      </note>
      <note>
        <!--symbtr_txt_note_index 17-->
        <pitch>
          <step>C</step>
          <alter>+1</alter>
          <octave>5</octave>
        </pitch>
        <duration>24</duration>
        <type>16th</type>
        <accidental>sharp</accidental>
        <lyric>
          <text></text>
        </lyric>
      </note>
      <note>
        <!--symbtr_txt_note_index 18-->
        <pitch>
          <step>D</step>
          <octave>5</octave>
        </pitch>
        <duration>24</duration>
        <type>16th</type>
        <lyric>
          <syllabic>begin</syllabic>
          <text>şûh_</text>
        </lyric>
      </note>
      <note>
        <!--symbtr_txt_note_index 19-->
        <pitch>
          <step>C</step>
          <alter>+1</alter>
          <octave>5</octave>
        </pitch>
        <duration>24</duration>
        <type>16th</type>
        <accidental>sharp</accidental>
        <lyric>
          <text></text>
        </lyric>
      </note>
      <note>
        <!--symbtr_txt_note_index 20-->
        <pitch>
          <step>B</step>
          <octave>4</octave>
        </pitch>
        <duration>48</duration>
        <type>eighth</type>
        <lyric>
          <text></text>
        </lyric>
      </note>
      <note>
        <!--symbtr_txt_note_index 21-->
        <rest/>
        <duration>48</duration>
        <type>eighth</type>
        <lyric>
          <text></text>
        </lyric>
      </note>
    </measure>
    <measure number="3-0">
      <attributes/>
      <note>
        <!--symbtr_txt_note_index 22-->
        <!--Warning! SymbTr_Kod: 11 Silent grace. MusicXML schema does not have a appropriate mapping, treating the note as a normal note-->
        <pitch>
          <step>B</step>
          <octave>4</octave>
        </pitch>
        <duration>48</duration>
        <type>eighth</type>
        <lyric>
          <syllabic>end</syllabic>
          <text>ı </text>
        </lyric>
      </note>
      <note>
        <!--symbtr_txt_note_index 23-->
        <pitch>
          <step>B</step>
          <octave>4</octave>
        </pitch>
        <duration>48</duration>
        <type>eighth</type>
        <lyric>
          <text></text>
        </lyric>
      </note>
      <note>
        <!--symbtr_txt_note_index 24-->
        <pitch>
          <step>C</step>
          <alter>+1</alter>
          <octave>5</octave>
        </pitch>
        <duration>48</duration>
        <type>eighth</type>
        <accidental>sharp</accidental>
        <lyric>
          <syllabic>begin</syllabic>
          <text>Ni</text>
        </lyric>
      </note>
      <note>
        <!--symbtr_txt_note_index 25-->
        <pitch>
          <step>A</step>
          <octave>4</octave>
        </pitch>
        <duration>96</duration>
        <type>quarter</type>
        <lyric>
          <syllabic>end</syllabic>
          <text>şâ</text>
        </lyric>
      </note>
      <note>
        <!--symbtr_txt_note_index 26-->
        <pitch>
          <step>B</step>
          <octave>4</octave>
        </pitch>
        <duration>48</duration>
        <type>eighth</type>
        <lyric>
          <syllabic>single</syllabic>
          <text>bur </text>
        </lyric>
      </note>
      <note>
        <!--symbtr_txt_note_index 27-->
        <pitch>
          <step>C</step>
          <alter>+1</alter>
          <octave>5</octave>
        </pitch>
        <duration>48</duration>
        <type>eighth</type>
        <accidental>sharp</accidental>
        <lyric>
          <text></text>
        </lyric>
      </note>
      <note>
        <!--symbtr_txt_note_index 28-->
        <pitch>
          <step>D</step>
          <octave>5</octave>
        </pitch>
        <duration>48</duration>
        <type>eighth</type>
        <lyric>
          <text></text>
        </lyric>
      </note>
    </measure>
    <measure number="4-0">
      <attributes/>
      <note>
        <!--symbtr_txt_note_index 29-->
        <pitch>
          <step>E</step>
          <octave>5</octave>
        </pitch>
        <duration>24</duration>
        <type>16th</type>
        <lyric>
          <syllabic>begin</syllabic>
          <text>ey</text>
        </lyric>
      </note>
      <note>
        <!--symbtr_txt_note_index 30-->
        <pitch>
          <step>G</step>
          <octave>5</octave>
        </pitch>
        <duration>24</duration>
        <type>16th</type>
        <lyric>
          <text></text>
        </lyric>
      </note>
      <note>
        <!--symbtr_txt_note_index 31-->
        <pitch>
          <step>F</step>
          <octave>5</octave>
        </pitch>
        <duration>48</duration>
        <type>eighth</type>
        <lyric>
          <text></text>
        </lyric>
      </note>
      <note>
        <!--symbtr_txt_note_index 32-->
        <pitch>
          <step>E</step>
          <octave>5</octave>
        </pitch>
        <duration>24</duration>
        <type>16th</type>
        <lyric>
          <syllabic>end</syllabic>
          <text>le</text>
        </lyric>
      </note>
      <note>
        <!--symbtr_txt_note_index 33-->
        <pitch>
          <step>F</step>
          <octave>5</octave>
        </pitch>
        <duration>24</duration>
        <type>16th</type>
        <lyric>
          <text></text>
        </lyric>
      </note>
      <note>
        <!--symbtr_txt_note_index 34-->
        <pitch>
          <step>E</step>
          <octave>5</octave>
        </pitch>
        <duration>24</duration>
        <type>16th</type>
        <lyric>
          <syllabic>single</syllabic>
          <text>sin  </text>
          <end-line/>
        </lyric>
      </note>
      <note>
        <!--symbtr_txt_note_index 35-->
        <pitch>
          <step>D</step>
          <octave>5</octave>
        </pitch>
        <duration>24</duration>
        <type>16th</type>
        <lyric>
          <text></text>
        </lyric>
      </note>
      <note>
        <!--symbtr_txt_note_index 36-->
        <pitch>
          <step>D</step>
          <octave>5</octave>
        </pitch>
        <duration>24</duration>
        <type>16th</type>
        <lyric>
          <text></text>
        </lyric>
      </note>
      <note>
        <!--symbtr_txt_note_index 37-->
        <pitch>
          <step>C</step>
          <alter>+1</alter>
          <octave>5</octave>
        </pitch>
        <duration>24</duration>
        <type>16th</type>
        <accidental>sharp</accidental>
        <lyric>
          <text></text>
        </lyric>
      </note>
      <note>
        <!--symbtr_txt_note_index 38-->
        <pitch>
          <step>D</step>
          <octave>5</octave>
        </pitch>
        <duration>96</duration>
        <type>quarter</type>
        <lyric>
          <text></text>
        </lyric>
      </note>
      <note>
        <!--symbtr_txt_note_index 39-->
        <rest/>
        <duration>48</duration>
        <type>eighth</type>
        <lyric>
          <text></text>
        </lyric>
      </note>
    </measure>
    <measure number="5-0">
      <attributes/>
      <note>
        <!--symbtr_txt_note_index 40-->
        <pitch>
          <step>D</step>
          <octave>5</octave>
        </pitch>
        <duration>96</duration>
        <type>quarter</type>
        <lyric name="VOCAL_SECTION">
          <syllabic>begin</syllabic>
          <text>Â</text>
        </lyric>
      </note>
      <note>
        <!--symbtr_txt_note_index 41-->
        <pitch>
          <step>E</step>
          <octave>5</octave>
        </pitch>
        <duration>48</duration>
        <type>eighth</type>
        <lyric>
          <syllabic>end</syllabic>
          <text>şık_</text>
        </lyric>
      </note>
      <note>
        <!--symbtr_txt_note_index 42-->
        <pitch>
          <step>G</step>
          <octave>5</octave>
        </pitch>
        <duration>24</duration>
        <type>16th</type>
        <lyric>
          <syllabic>single</syllabic>
          <text>ı </text>
        </lyric>
      </note>
      <note>
        <!--symbtr_txt_note_index 43-->
        <pitch>
          <step>F</step>
          <alter>+1</alter>
          <octave>5</octave>
        </pitch>
        <duration>24</duration>
        <type>16th</type>
        <accidental>sharp</accidental>
        <lyric>
          <text></text>
        </lyric>
      </note>
      <note>
        <!--symbtr_txt_note_index 44-->
        <pitch>
          <step>E</step>
          <alter>+1</alter>
          <octave>5</octave>
        </pitch>
        <duration>24</duration>
        <type>16th</type>
        <accidental>sharp</accidental>
        <lyric>
          <text></text>
        </lyric>
      </note>
      <note>
        <!--symbtr_txt_note_index 45-->
        <pitch>
          <step>G</step>
          <octave>5</octave>
        </pitch>
        <duration>24</duration>
        <type>16th</type>
        <lyric>
          <text></text>
        </lyric>
      </note>
      <note>
        <!--symbtr_txt_note_index 46-->
        <pitch>
          <step>F</step>
          <alter>+1</alter>
          <octave>5</octave>
        </pitch>
        <duration>96</duration>
        <type>quarter</type>
        <accidental>sharp</accidental>
        <lyric>
          <syllabic>begin</syllabic>
          <text>meh</text>
        </lyric>
      </note>
      <note>
        <!--symbtr_txt_note_index 47-->
        <rest/>
        <duration>48</duration>
        <type>eighth</type>
        <lyric>
          <text></text>
        </lyric>
      </note>
    </measure>
    <measure number="6-0">
      <attributes/>
      <note>
        <!--symbtr_txt_note_index 48-->
        <pitch>
          <step>E</step>
          <octave>5</octave>
        </pitch>
        <duration>24</duration>
        <type>16th</type>
        <lyric>
          <syllabic>end</syllabic>
          <text>cû</text>
        </lyric>
      </note>
      <note>
        <!--symbtr_txt_note_index 49-->
        <pitch>
          <step>F</step>
          <alter>+1</alter>
          <octave>5</octave>
        </pitch>
        <duration>24</duration>
        <type>16th</type>
        <accidental>sharp</accidental>
        <lyric>
          <text></text>
        </lyric>
      </note>
      <note>
        <!--symbtr_txt_note_index 50-->
        <pitch>
          <step>E</step>
          <octave>5</octave>
        </pitch>
        <duration>48</duration>
        <type>eighth</type>
        <lyric>
          <text></text>
        </lyric>
      </note>
      <note>
        <!--symbtr_txt_note_index 51-->
        <pitch>
          <step>F</step>
          <alter>+1</alter>
          <octave>5</octave>
        </pitch>
        <duration>24</duration>
        <type>16th</type>
        <accidental>sharp</accidental>
        <lyric>
          <syllabic>begin</syllabic>
          <text>ru</text>
        </lyric>
      </note>
      <note>
        <!--symbtr_txt_note_index 52-->
        <pitch>
          <step>A</step>
          <octave>5</octave>
        </pitch>
        <duration>24</duration>
        <type>16th</type>
        <lyric>
          <text></text>
        </lyric>
      </note>
      <note>
        <!--symbtr_txt_note_index 53-->
        <pitch>
          <step>A</step>
          <octave>5</octave>
        </pitch>
        <duration>24</duration>
        <type>16th</type>
        <lyric>
          <syllabic>end</syllabic>
          <text>nu </text>
        </lyric>
      </note>
      <note>
        <!--symbtr_txt_note_index 54-->
        <pitch>
          <step>G</step>
          <octave>5</octave>
        </pitch>
        <duration>24</duration>
        <type>16th</type>
        <lyric>
          <text></text>
        </lyric>
      </note>
      <note>
        <!--symbtr_txt_note_index 55-->
        <pitch>
          <step>F</step>
          <octave>5</octave>
        </pitch>
        <duration>24</duration>
        <type>16th</type>
        <lyric>
          <text></text>
        </lyric>
      </note>
      <note>
        <!--symbtr_txt_note_index 56-->
        <pitch>
          <step>E</step>
          <octave>5</octave>
        </pitch>
        <duration>24</duration>
        <type>16th</type>
        <lyric>
          <text></text>
        </lyric>
      </note>
      <note>
        <!--symbtr_txt_note_index 57-->
        <pitch>
          <step>D</step>
          <octave>5</octave>
        </pitch>
        <duration>96</duration>
        <type>quarter</type>
        <lyric>
          <syllabic>begin</syllabic>
          <text>lût</text>
        </lyric>
      </note>
      <note>
        <!--symbtr_txt_note_index 58-->
        <rest/>
        <duration>48</duration>
        <type>eighth</type>
        <lyric>
          <text></text>
        </lyric>
      </note>
    </measure>
    <measure number="7-0">
      <attributes/>
      <note>
        <!--symbtr_txt_note_index 59-->
        <pitch>
          <step>D</step>
          <octave>5</octave>
        </pitch>
        <duration>96</duration>
        <type>quarter</type>
        <lyric>
          <syllabic>end</syllabic>
          <text>fuy</text>
        </lyric>
      </note>
      <note>
        <!--symbtr_txt_note_index 60-->
        <pitch>
          <step>E</step>
          <octave>5</octave>
        </pitch>
        <duration>24</duration>
        <type>16th</type>
        <lyric>
          <syllabic>single</syllabic>
          <text>le </text>
        </lyric>
      </note>
      <note>
        <!--symbtr_txt_note_index 61-->
        <pitch>
          <step>F</step>
          <octave>5</octave>
        </pitch>
        <duration>24</duration>
        <type>16th</type>
        <lyric>
          <text></text>
        </lyric>
      </note>
      <note>
        <!--symbtr_txt_note_index 62-->
        <pitch>
          <step>E</step>
          <octave>5</octave>
        </pitch>
        <duration>24</duration>
        <type>16th</type>
        <lyric>
          <syllabic>begin</syllabic>
          <text>mes</text>
        </lyric>
      </note>
      <note>
        <!--symbtr_txt_note_index 63-->
        <pitch>
          <step>D</step>
          <octave>5</octave>
        </pitch>
        <duration>24</duration>
        <type>16th</type>
        <lyric>
          <text></text>
        </lyric>
      </note>
      <note>
        <!--symbtr_txt_note_index 64-->
        <pitch>
          <step>D</step>
          <octave>5</octave>
        </pitch>
        <duration>24</duration>
        <type>16th</type>
        <lyric>
          <text></text>
        </lyric>
      </note>
      <note>
        <!--symbtr_txt_note_index 65-->
        <pitch>
          <step>C</step>
          <alter>+1</alter>
          <octave>5</octave>
        </pitch>
        <duration>24</duration>
        <type>16th</type>
        <accidental>sharp</accidental>
        <lyric>
          <text></text>
        </lyric>
      </note>
      <note>
        <!--symbtr_txt_note_index 66-->
        <pitch>
          <step>D</step>
          <octave>5</octave>
        </pitch>
        <duration>48</duration>
        <type>eighth</type>
        <lyric>
          <syllabic>end</syllabic>
          <text>rûr </text>
        </lyric>
      </note>
      <note>
        <!--symbtr_txt_note_index 67-->
        <pitch>
          <step>C</step>
          <alter>+1</alter>
          <octave>5</octave>
        </pitch>
        <duration>48</duration>
        <type>eighth</type>
        <accidental>sharp</accidental>
        <lyric>
          <text></text>
        </lyric>
      </note>
      <note>
        <!--symbtr_txt_note_index 68-->
        <pitch>
          <step>E</step>
          <octave>5</octave>
        </pitch>
        <duration>48</duration>
        <type>eighth</type>
        <lyric>
          <text></text>
        </lyric>
      </note>
    </measure>
    <measure number="8-0">
      <attributes/>
      <note>
        <!--symbtr_txt_note_index 69-->
        <pitch>
          <step>D</step>
          <octave>5</octave>
        </pitch>
        <duration>48</duration>
        <type>eighth</type>
        <lyric>
          <syllabic>begin</syllabic>
          <text>ey</text>
        </lyric>
      </note>
      <note>
        <!--symbtr_txt_note_index 70-->
        <pitch>
          <step>C</step>
          <alter>+1</alter>
          <octave>5</octave>
        </pitch>
        <duration>48</duration>
        <type>eighth</type>
        <accidental>sharp</accidental>
        <lyric>
          <text></text>
        </lyric>
      </note>
      <note>
        <!--symbtr_txt_note_index 71-->
        <pitch>
          <step>D</step>
          <octave>5</octave>
        </pitch>
        <duration>48</duration>
        <type>eighth</type>
        <lyric>
          <syllabic>end</syllabic>
          <text>le</text>
        </lyric>
      </note>
      <note>
        <!--symbtr_txt_note_index 72-->
        <pitch>
          <step>C</step>
          <alter>+1</alter>
          <octave>5</octave>
        </pitch>
        <duration>24</duration>
        <type>16th</type>
        <accidental>sharp</accidental>
        <lyric>
          <syllabic>single</syllabic>
          <text>sin  </text>
          <end-line/>
        </lyric>
      </note>
      <note>
        <!--symbtr_txt_note_index 73-->
        <!--Warning! SymbTr_Kod: 11 Silent grace. MusicXML schema does not have a appropriate mapping, treating the note as a normal note-->
        <pitch>
          <step>D</step>
          <octave>5</octave>
        </pitch>
        <duration>24</duration>
        <type>16th</type>
        <lyric>
          <text></text>
        </lyric>
      </note>
      <note>
        <!--symbtr_txt_note_index 74-->
        <!--Warning! SymbTr_Kod: 11 Silent grace. MusicXML schema does not have a appropriate mapping, treating the note as a normal note-->
        <pitch>
          <step>C</step>
          <alter>+1</alter>
          <octave>5</octave>
        </pitch>
        <duration>24</duration>
        <type>16th</type>
        <accidental>sharp</accidental>
        <lyric>
          <text></text>
        </lyric>
      </note>
      <note>
        <!--symbtr_txt_note_index 75-->
        <!--Warning! SymbTr_Kod: 11 Silent grace. MusicXML schema does not have a appropriate mapping, treating the note as a normal note-->
        <pitch>
          <step>B</step>
          <octave>4</octave>
        </pitch>
        <duration>24</duration>
        <type>16th</type>
        <lyric>
          <text></text>
        </lyric>
      </note>
      <note>
        <!--symbtr_txt_note_index 76-->
        <pitch>
          <step>B</step>
          <octave>4</octave>
        </pitch>
        <duration>96</duration>
        <type>quarter</type>
        <lyric>
          <text></text>
        </lyric>
      </note>
      <note>
        <!--symbtr_txt_note_index 77-->
        <rest/>
        <duration>48</duration>
        <type>eighth</type>
        <lyric>
          <text></text>
        </lyric>
      </note>
    </measure>
    <measure number="9-0">
      <attributes/>
    </measure>
  </part>
</score-partwise>
