<?xml version='1.0' encoding='UTF-8'?>
<!DOCTYPE score-partwise PUBLIC "-//Recordare//DTD MusicXML 3.0 Partwise//EN" "http://www.musicxml.org/dtds/partwise.dtd">
<score-partwise version="3.0">
  <work>
    <work-title>Ben Yarali</work-title>
  </work>
  <part-list>
    <score-part id="P1">
      <part-name>Music</part-name>
    </score-part>
  </part-list>
  <part id="P1">
    <measure number="1">
      <direction placement="above">
        <direction-type>
          <words default-y="35">Makam: Rast, Usul: Yuruksemai</words>
        </direction-type>
        <sound tempo="131.96480938416423"/>
      </direction>
      <attributes>
        <divisions>24</divisions>
        <time>
          <beats>6</beats>
          <beat-type>8</beat-type>
        </time>
        <key>
          <key-step>F</key-step>
          <key-accidental>sharp</key-accidental>
          <key-step>B</key-step>
          <key-accidental>quarter-flat</key-accidental>
        </key>
      </attributes>
      <note>
        <pitch>
          <step>C</step>
          <octave>5</octave>
        </pitch>
        <duration>18</duration>
        <type>eighth</type>
        <dot/>
        <accidental/>
        <lyric name="ARANAĞME" id="0">
          <text>ARANAĞME</text>
        </lyric>
      </note>
      <note>
        <pitch>
          <step>B</step>
          <octave>4</octave>
          <alter>-0.5</alter>
        </pitch>
        <duration>6</duration>
        <type>16th</type>
        <accidental>quarter-flat</accidental>
        <lyric>
          <text>.</text>
        </lyric>
      </note>
      <note>
        <pitch>
          <step>C</step>
          <octave>5</octave>
        </pitch>
        <duration>12</duration>
        <type>eighth</type>
        <accidental/>
        <lyric>
          <text>.</text>
        </lyric>
      </note>
      <note>
        <pitch>
          <step>D</step>
          <octave>5</octave>
        </pitch>
        <duration>12</duration>
        <type>eighth</type>
        <accidental/>
        <lyric>
          <text>.</text>
        </lyric>
      </note>
      <note>
        <pitch>
          <step>B</step>
          <octave>4</octave>
          <alter>-0.5</alter>
        </pitch>
        <duration>12</duration>
        <type>eighth</type>
        <accidental>quarter-flat</accidental>
        <lyric>
          <text>.</text>
        </lyric>
      </note>
      <note>
        <pitch>
          <step>A</step>
          <octave>4</octave>
        </pitch>
        <duration>12</duration>
        <type>eighth</type>
        <accidental/>
        <lyric>
          <text>.</text>
        </lyric>
      </note>
    </measure>
    <measure number="2">
      <note>
        <pitch>
          <step>B</step>
          <octave>4</octave>
          <alter>-0.5</alter>
        </pitch>
        <duration>18</duration>
        <type>eighth</type>
        <dot/>
        <accidental>quarter-flat</accidental>
        <lyric>
          <text>.</text>
        </lyric>
      </note>
      <note>
        <pitch>
          <step>A</step>
          <octave>4</octave>
        </pitch>
        <duration>6</duration>
        <type>16th</type>
        <accidental/>
        <lyric>
          <text>.</text>
        </lyric>
      </note>
      <note>
        <pitch>
          <step>B</step>
          <octave>4</octave>
          <alter>-0.5</alter>
        </pitch>
        <duration>12</duration>
        <type>eighth</type>
        <accidental>quarter-flat</accidental>
        <lyric>
          <text>.</text>
        </lyric>
      </note>
      <note>
        <pitch>
          <step>C</step>
          <octave>5</octave>
        </pitch>
        <duration>12</duration>
        <type>eighth</type>
        <accidental/>
        <lyric>
          <text>.</text>
        </lyric>
      </note>
      <note>
        <pitch>
          <step>A</step>
          <octave>4</octave>
        </pitch>
        <duration>12</duration>
        <type>eighth</type>
        <accidental/>
        <lyric>
          <text>.</text>
        </lyric>
      </note>
      <note>
        <pitch>
          <step>G</step>
          <octave>4</octave>
        </pitch>
        <duration>12</duration>
        <type>eighth</type>
        <accidental/>
        <lyric>
          <text>.</text>
        </lyric>
      </note>
    </measure>
    <measure number="3">
      <note>
        <pitch>
          <step>B</step>
          <octave>4</octave>
          <alter>-0.5</alter>
        </pitch>
        <duration>18</duration>
        <type>eighth</type>
        <dot/>
        <accidental>quarter-flat</accidental>
        <lyric>
          <text>.</text>
        </lyric>
      </note>
      <note>
        <pitch>
          <step>A</step>
          <octave>4</octave>
        </pitch>
        <duration>6</duration>
        <type>16th</type>
        <accidental/>
        <lyric>
          <text>.</text>
        </lyric>
      </note>
      <note>
        <pitch>
          <step>G</step>
          <octave>4</octave>
        </pitch>
        <duration>12</duration>
        <type>eighth</type>
        <accidental/>
        <lyric>
          <text>.</text>
        </lyric>
      </note>
      <note>
        <pitch>
          <step>A</step>
          <octave>4</octave>
        </pitch>
        <duration>18</duration>
        <type>eighth</type>
        <dot/>
        <accidental/>
        <lyric>
          <text>.</text>
        </lyric>
      </note>
      <note>
        <pitch>
          <step>G</step>
          <octave>4</octave>
        </pitch>
        <duration>6</duration>
        <type>16th</type>
        <accidental/>
        <lyric>
          <text>.</text>
        </lyric>
      </note>
      <note>
        <pitch>
          <step>F</step>
          <octave>4</octave>
          <alter>1</alter>
        </pitch>
        <duration>12</duration>
        <type>eighth</type>
        <accidental>sharp</accidental>
        <lyric>
          <text>.</text>
        </lyric>
      </note>
    </measure>
    <measure number="4">
      <note>
        <pitch>
          <step>G</step>
          <octave>4</octave>
        </pitch>
        <duration>18</duration>
        <type>eighth</type>
        <dot/>
        <accidental/>
        <lyric>
          <text>.</text>
        </lyric>
      </note>
      <note>
        <pitch>
          <step>F</step>
          <octave>4</octave>
          <alter>1</alter>
        </pitch>
        <duration>6</duration>
        <type>16th</type>
        <accidental>sharp</accidental>
        <lyric>
          <text>.</text>
        </lyric>
      </note>
      <note>
        <pitch>
          <step>G</step>
          <octave>4</octave>
        </pitch>
        <duration>12</duration>
        <type>eighth</type>
        <accidental/>
        <lyric>
          <text>.</text>
        </lyric>
      </note>
      <note>
        <pitch>
          <step>B</step>
          <octave>4</octave>
          <alter>-0.5</alter>
        </pitch>
        <duration>12</duration>
        <type>eighth</type>
        <accidental>quarter-flat</accidental>
        <lyric>
          <text>.</text>
        </lyric>
      </note>
      <note>
        <pitch>
          <step>D</step>
          <octave>5</octave>
        </pitch>
        <duration>24</duration>
        <type>quarter</type>
        <accidental/>
        <lyric>
          <text>.</text>
        </lyric>
      </note>
    </measure>
    <measure number="5">
      <note>
        <pitch>
          <step>C</step>
          <octave>5</octave>
        </pitch>
        <duration>18</duration>
        <type>eighth</type>
        <dot/>
        <accidental/>
        <lyric name="ARANAĞME" id="1">
          <text>ARANAĞME</text>
        </lyric>
      </note>
      <note>
        <pitch>
          <step>B</step>
          <octave>4</octave>
          <alter>-0.5</alter>
        </pitch>
        <duration>6</duration>
        <type>16th</type>
        <accidental>quarter-flat</accidental>
        <lyric>
          <text>.</text>
        </lyric>
      </note>
      <note>
        <pitch>
          <step>C</step>
          <octave>5</octave>
        </pitch>
        <duration>12</duration>
        <type>eighth</type>
        <accidental/>
        <lyric>
          <text>.</text>
        </lyric>
      </note>
      <note>
        <pitch>
          <step>D</step>
          <octave>5</octave>
        </pitch>
        <duration>12</duration>
        <type>eighth</type>
        <accidental/>
        <lyric>
          <text>.</text>
        </lyric>
      </note>
      <note>
        <pitch>
          <step>B</step>
          <octave>4</octave>
          <alter>-0.5</alter>
        </pitch>
        <duration>12</duration>
        <type>eighth</type>
        <accidental>quarter-flat</accidental>
        <lyric>
          <text>.</text>
        </lyric>
      </note>
      <note>
        <pitch>
          <step>A</step>
          <octave>4</octave>
        </pitch>
        <duration>12</duration>
        <type>eighth</type>
        <accidental/>
        <lyric>
          <text>.</text>
        </lyric>
      </note>
    </measure>
    <measure number="6">
      <note>
        <pitch>
          <step>B</step>
          <octave>4</octave>
          <alter>-0.5</alter>
        </pitch>
        <duration>18</duration>
        <type>eighth</type>
        <dot/>
        <accidental>quarter-flat</accidental>
        <lyric>
          <text>.</text>
        </lyric>
      </note>
      <note>
        <pitch>
          <step>A</step>
          <octave>4</octave>
        </pitch>
        <duration>6</duration>
        <type>16th</type>
        <accidental/>
        <lyric>
          <text>.</text>
        </lyric>
      </note>
      <note>
        <pitch>
          <step>B</step>
          <octave>4</octave>
          <alter>-0.5</alter>
        </pitch>
        <duration>12</duration>
        <type>eighth</type>
        <accidental>quarter-flat</accidental>
        <lyric>
          <text>.</text>
        </lyric>
      </note>
      <note>
        <pitch>
          <step>C</step>
          <octave>5</octave>
        </pitch>
        <duration>12</duration>
        <type>eighth</type>
        <accidental/>
        <lyric>
          <text>.</text>
        </lyric>
      </note>
      <note>
        <pitch>
          <step>A</step>
          <octave>4</octave>
        </pitch>
        <duration>12</duration>
        <type>eighth</type>
        <accidental/>
        <lyric>
          <text>.</text>
        </lyric>
      </note>
      <note>
        <pitch>
          <step>G</step>
          <octave>4</octave>
        </pitch>
        <duration>12</duration>
        <type>eighth</type>
        <accidental/>
        <lyric>
          <text>.</text>
        </lyric>
      </note>
    </measure>
    <measure number="7">
      <note>
        <pitch>
          <step>B</step>
          <octave>4</octave>
          <alter>-0.5</alter>
        </pitch>
        <duration>18</duration>
        <type>eighth</type>
        <dot/>
        <accidental>quarter-flat</accidental>
        <lyric>
          <text>.</text>
        </lyric>
      </note>
      <note>
        <pitch>
          <step>A</step>
          <octave>4</octave>
        </pitch>
        <duration>6</duration>
        <type>16th</type>
        <accidental/>
        <lyric>
          <text>.</text>
        </lyric>
      </note>
      <note>
        <pitch>
          <step>G</step>
          <octave>4</octave>
        </pitch>
        <duration>12</duration>
        <type>eighth</type>
        <accidental/>
        <lyric>
          <text>.</text>
        </lyric>
      </note>
      <note>
        <pitch>
          <step>A</step>
          <octave>4</octave>
        </pitch>
        <duration>18</duration>
        <type>eighth</type>
        <dot/>
        <accidental/>
        <lyric>
          <text>.</text>
        </lyric>
      </note>
      <note>
        <pitch>
          <step>G</step>
          <octave>4</octave>
        </pitch>
        <duration>6</duration>
        <type>16th</type>
        <accidental/>
        <lyric>
          <text>.</text>
        </lyric>
      </note>
      <note>
        <pitch>
          <step>F</step>
          <octave>4</octave>
          <alter>1</alter>
        </pitch>
        <duration>12</duration>
        <type>eighth</type>
        <accidental>sharp</accidental>
        <lyric>
          <text>.</text>
        </lyric>
      </note>
    </measure>
    <measure number="8">
      <note>
        <pitch>
          <step>G</step>
          <octave>4</octave>
        </pitch>
        <duration>60</duration>
        <type>half</type>
        <dot/>
        <accidental/>
        <lyric>
          <text>.</text>
        </lyric>
      </note>
      <note>
        <rest/>
        <duration>12</duration>
        <type>eighth</type>
        <lyric>
          <text></text>
        </lyric>
      </note>
    </measure>
    <measure number="9">
      <note>
        <pitch>
          <step>G</step>
          <octave>4</octave>
        </pitch>
        <duration>24</duration>
        <type>quarter</type>
        <accidental/>
        <lyric>
          <text>Ben </text>
        </lyric>
      </note>
      <note>
        <pitch>
          <step>F</step>
          <octave>4</octave>
          <alter>1</alter>
        </pitch>
        <duration>12</duration>
        <type>eighth</type>
        <accidental>sharp</accidental>
        <lyric>
          <text>ya</text>
        </lyric>
      </note>
      <note>
        <pitch>
          <step>G</step>
          <octave>4</octave>
        </pitch>
        <duration>12</duration>
        <type>eighth</type>
        <accidental/>
        <lyric>
          <text>ra</text>
        </lyric>
      </note>
      <note>
        <pitch>
          <step>A</step>
          <octave>4</octave>
        </pitch>
        <duration>24</duration>
        <type>quarter</type>
        <accidental/>
        <lyric>
          <text>lı </text>
        </lyric>
      </note>
    </measure>
    <measure number="10">
      <note>
        <pitch>
          <step>B</step>
          <octave>4</octave>
          <alter>-0.5</alter>
        </pitch>
        <duration>12</duration>
        <type>eighth</type>
        <accidental>quarter-flat</accidental>
        <lyric>
          <text>cey</text>
        </lyric>
      </note>
      <note>
        <pitch>
          <step>A</step>
          <octave>4</octave>
        </pitch>
        <duration>12</duration>
        <type>eighth</type>
        <accidental/>
        <lyric>
          <text></text>
        </lyric>
      </note>
      <note>
        <pitch>
          <step>B</step>
          <octave>4</octave>
          <alter>-0.5</alter>
        </pitch>
        <duration>12</duration>
        <type>eighth</type>
        <accidental>quarter-flat</accidental>
        <lyric>
          <text>la</text>
        </lyric>
      </note>
      <note>
        <pitch>
          <step>G</step>
          <octave>4</octave>
        </pitch>
        <duration>36</duration>
        <type>quarter</type>
        <dot/>
        <accidental/>
        <lyric>
          <text>nım </text>
        </lyric>
      </note>
    </measure>
    <measure number="11">
      <note>
        <pitch>
          <step>C</step>
          <octave>5</octave>
        </pitch>
        <duration>12</duration>
        <type>eighth</type>
        <accidental/>
        <lyric>
          <text>ya</text>
        </lyric>
      </note>
      <note>
        <pitch>
          <step>B</step>
          <octave>4</octave>
          <alter>-0.5</alter>
        </pitch>
        <duration>12</duration>
        <type>eighth</type>
        <accidental>quarter-flat</accidental>
        <lyric>
          <text></text>
        </lyric>
      </note>
      <note>
        <pitch>
          <step>C</step>
          <octave>5</octave>
        </pitch>
        <duration>12</duration>
        <type>eighth</type>
        <accidental/>
        <lyric>
          <text>ra</text>
        </lyric>
      </note>
      <note>
        <pitch>
          <step>B</step>
          <octave>4</octave>
          <alter>-0.5</alter>
        </pitch>
        <duration>12</duration>
        <type>eighth</type>
        <accidental>quarter-flat</accidental>
        <lyric>
          <text>lı </text>
        </lyric>
      </note>
      <note>
        <pitch>
          <step>A</step>
          <octave>4</octave>
        </pitch>
        <duration>12</duration>
        <type>eighth</type>
        <accidental/>
        <lyric>
          <text>cey</text>
        </lyric>
      </note>
      <note>
        <pitch>
          <step>G</step>
          <octave>4</octave>
        </pitch>
        <duration>12</duration>
        <type>eighth</type>
        <accidental/>
        <lyric>
          <text></text>
        </lyric>
      </note>
    </measure>
    <measure number="12">
      <note>
        <pitch>
          <step>A</step>
          <octave>4</octave>
        </pitch>
        <duration>60</duration>
        <type>half</type>
        <dot/>
        <accidental/>
        <lyric>
          <text>lan  </text>
        </lyric>
      </note>
      <note>
        <pitch>
          <step>B</step>
          <octave>4</octave>
          <alter>-0.5</alter>
        </pitch>
        <duration>12</duration>
        <type>eighth</type>
        <accidental>quarter-flat</accidental>
        <lyric>
          <text></text>
        </lyric>
      </note>
    </measure>
    <measure number="13">
      <note>
        <pitch>
          <step>G</step>
          <octave>4</octave>
        </pitch>
        <duration>24</duration>
        <type>quarter</type>
        <accidental/>
        <lyric>
          <text>Ben </text>
        </lyric>
      </note>
      <note>
        <pitch>
          <step>F</step>
          <octave>4</octave>
          <alter>1</alter>
        </pitch>
        <duration>12</duration>
        <type>eighth</type>
        <accidental>sharp</accidental>
        <lyric>
          <text>ya</text>
        </lyric>
      </note>
      <note>
        <pitch>
          <step>G</step>
          <octave>4</octave>
        </pitch>
        <duration>12</duration>
        <type>eighth</type>
        <accidental/>
        <lyric>
          <text>ra</text>
        </lyric>
      </note>
      <note>
        <pitch>
          <step>A</step>
          <octave>4</octave>
        </pitch>
        <duration>24</duration>
        <type>quarter</type>
        <accidental/>
        <lyric>
          <text>lı </text>
        </lyric>
      </note>
    </measure>
    <measure number="14">
      <note>
        <pitch>
          <step>B</step>
          <octave>4</octave>
          <alter>-0.5</alter>
        </pitch>
        <duration>12</duration>
        <type>eighth</type>
        <accidental>quarter-flat</accidental>
        <lyric>
          <text>cey</text>
        </lyric>
      </note>
      <note>
        <pitch>
          <step>A</step>
          <octave>4</octave>
        </pitch>
        <duration>12</duration>
        <type>eighth</type>
        <accidental/>
        <lyric>
          <text></text>
        </lyric>
      </note>
      <note>
        <pitch>
          <step>B</step>
          <octave>4</octave>
          <alter>-0.5</alter>
        </pitch>
        <duration>12</duration>
        <type>eighth</type>
        <accidental>quarter-flat</accidental>
        <lyric>
          <text>la</text>
        </lyric>
      </note>
      <note>
        <pitch>
          <step>G</step>
          <octave>4</octave>
        </pitch>
        <duration>36</duration>
        <type>quarter</type>
        <dot/>
        <accidental/>
        <lyric>
          <text>nım </text>
        </lyric>
      </note>
    </measure>
    <measure number="15">
      <note>
        <pitch>
          <step>C</step>
          <octave>5</octave>
        </pitch>
        <duration>12</duration>
        <type>eighth</type>
        <accidental/>
        <lyric>
          <text>ya</text>
        </lyric>
      </note>
      <note>
        <pitch>
          <step>B</step>
          <octave>4</octave>
          <alter>-0.5</alter>
        </pitch>
        <duration>12</duration>
        <type>eighth</type>
        <accidental>quarter-flat</accidental>
        <lyric>
          <text></text>
        </lyric>
      </note>
      <note>
        <pitch>
          <step>C</step>
          <octave>5</octave>
        </pitch>
        <duration>12</duration>
        <type>eighth</type>
        <accidental/>
        <lyric>
          <text>ra</text>
        </lyric>
      </note>
      <note>
        <pitch>
          <step>B</step>
          <octave>4</octave>
          <alter>-0.5</alter>
        </pitch>
        <duration>12</duration>
        <type>eighth</type>
        <accidental>quarter-flat</accidental>
        <lyric>
          <text>lı </text>
        </lyric>
      </note>
      <note>
        <pitch>
          <step>A</step>
          <octave>4</octave>
        </pitch>
        <duration>12</duration>
        <type>eighth</type>
        <accidental/>
        <lyric>
          <text>cey</text>
        </lyric>
      </note>
      <note>
        <pitch>
          <step>G</step>
          <octave>4</octave>
        </pitch>
        <duration>12</duration>
        <type>eighth</type>
        <accidental/>
        <lyric>
          <text></text>
        </lyric>
      </note>
    </measure>
    <measure number="16">
      <note>
        <pitch>
          <step>A</step>
          <octave>4</octave>
        </pitch>
        <duration>60</duration>
        <type>half</type>
        <dot/>
        <accidental/>
        <lyric>
          <text>lan  </text>
        </lyric>
      </note>
      <note>
        <pitch>
          <step>B</step>
          <octave>4</octave>
          <alter>-0.5</alter>
        </pitch>
        <duration>12</duration>
        <type>eighth</type>
        <accidental>quarter-flat</accidental>
        <lyric>
          <text></text>
        </lyric>
      </note>
    </measure>
    <measure number="17">
      <note>
        <pitch>
          <step>C</step>
          <octave>5</octave>
        </pitch>
        <duration>12</duration>
        <type>eighth</type>
        <accidental/>
        <lyric>
          <text>Be</text>
        </lyric>
      </note>
      <note>
        <pitch>
          <step>B</step>
          <octave>4</octave>
          <alter>-0.5</alter>
        </pitch>
        <duration>12</duration>
        <type>eighth</type>
        <accidental>quarter-flat</accidental>
        <lyric>
          <text>ni </text>
        </lyric>
      </note>
      <note>
        <pitch>
          <step>C</step>
          <octave>5</octave>
        </pitch>
        <duration>12</duration>
        <type>eighth</type>
        <accidental/>
        <lyric>
          <text></text>
        </lyric>
      </note>
      <note>
        <pitch>
          <step>D</step>
          <octave>5</octave>
        </pitch>
        <duration>12</duration>
        <type>eighth</type>
        <accidental/>
        <lyric>
          <text>bir_</text>
        </lyric>
      </note>
      <note>
        <pitch>
          <step>B</step>
          <octave>4</octave>
          <alter>-0.5</alter>
        </pitch>
        <duration>12</duration>
        <type>eighth</type>
        <accidental>quarter-flat</accidental>
        <lyric>
          <text>av</text>
        </lyric>
      </note>
      <note>
        <pitch>
          <step>A</step>
          <octave>4</octave>
        </pitch>
        <duration>12</duration>
        <type>eighth</type>
        <accidental/>
        <lyric>
          <text></text>
        </lyric>
      </note>
    </measure>
    <measure number="18">
      <note>
        <pitch>
          <step>B</step>
          <octave>4</octave>
          <alter>-0.5</alter>
        </pitch>
        <duration>12</duration>
        <type>eighth</type>
        <accidental>quarter-flat</accidental>
        <lyric>
          <text>cı </text>
        </lyric>
      </note>
      <note>
        <pitch>
          <step>A</step>
          <octave>4</octave>
        </pitch>
        <duration>12</duration>
        <type>eighth</type>
        <accidental/>
        <lyric>
          <text>vur</text>
        </lyric>
      </note>
      <note>
        <pitch>
          <step>B</step>
          <octave>4</octave>
          <alter>-0.5</alter>
        </pitch>
        <duration>12</duration>
        <type>eighth</type>
        <accidental>quarter-flat</accidental>
        <lyric>
          <text></text>
        </lyric>
      </note>
      <note>
        <pitch>
          <step>B</step>
          <octave>4</octave>
          <alter>-0.5</alter>
        </pitch>
        <duration>12</duration>
        <type>eighth</type>
        <accidental>quarter-flat</accidental>
        <lyric>
          <text>du </text>
        </lyric>
      </note>
      <note>
        <pitch>
          <step>A</step>
          <octave>4</octave>
        </pitch>
        <duration>12</duration>
        <type>eighth</type>
        <accidental/>
        <lyric>
          <text></text>
        </lyric>
      </note>
      <note>
        <pitch>
          <step>G</step>
          <octave>4</octave>
        </pitch>
        <duration>12</duration>
        <type>eighth</type>
        <accidental/>
        <lyric>
          <text></text>
        </lyric>
      </note>
    </measure>
    <measure number="19">
      <note>
        <pitch>
          <step>B</step>
          <octave>4</octave>
          <alter>-0.5</alter>
        </pitch>
        <duration>12</duration>
        <type>eighth</type>
        <accidental>quarter-flat</accidental>
        <lyric>
          <text>bu</text>
        </lyric>
      </note>
      <note>
        <pitch>
          <step>A</step>
          <octave>4</octave>
        </pitch>
        <duration>12</duration>
        <type>eighth</type>
        <accidental/>
        <lyric>
          <text>ra</text>
        </lyric>
      </note>
      <note>
        <pitch>
          <step>G</step>
          <octave>4</octave>
        </pitch>
        <duration>12</duration>
        <type>eighth</type>
        <accidental/>
        <lyric>
          <text></text>
        </lyric>
      </note>
      <note>
        <pitch>
          <step>A</step>
          <octave>4</octave>
        </pitch>
        <duration>12</duration>
        <type>eighth</type>
        <accidental/>
        <lyric>
          <text>lı </text>
        </lyric>
      </note>
      <note>
        <pitch>
          <step>G</step>
          <octave>4</octave>
        </pitch>
        <duration>12</duration>
        <type>eighth</type>
        <accidental/>
        <lyric>
          <text>cey</text>
        </lyric>
      </note>
      <note>
        <pitch>
          <step>F</step>
          <octave>4</octave>
          <alter>1</alter>
        </pitch>
        <duration>12</duration>
        <type>eighth</type>
        <accidental>sharp</accidental>
        <lyric>
          <text></text>
        </lyric>
      </note>
    </measure>
    <measure number="20">
      <note>
        <pitch>
          <step>G</step>
          <octave>4</octave>
        </pitch>
        <duration>72</duration>
        <type>half</type>
        <dot/>
        <accidental/>
        <lyric>
          <text>lan  </text>
        </lyric>
      </note>
    </measure>
    <measure number="21">
      <note>
        <pitch>
          <step>C</step>
          <octave>5</octave>
        </pitch>
        <duration>12</duration>
        <type>eighth</type>
        <accidental/>
        <lyric>
          <text>Be</text>
        </lyric>
      </note>
      <note>
        <pitch>
          <step>B</step>
          <octave>4</octave>
          <alter>-0.5</alter>
        </pitch>
        <duration>12</duration>
        <type>eighth</type>
        <accidental>quarter-flat</accidental>
        <lyric>
          <text>ni </text>
        </lyric>
      </note>
      <note>
        <pitch>
          <step>C</step>
          <octave>5</octave>
        </pitch>
        <duration>12</duration>
        <type>eighth</type>
        <accidental/>
        <lyric>
          <text></text>
        </lyric>
      </note>
      <note>
        <pitch>
          <step>D</step>
          <octave>5</octave>
        </pitch>
        <duration>12</duration>
        <type>eighth</type>
        <accidental/>
        <lyric>
          <text>bir_</text>
        </lyric>
      </note>
      <note>
        <pitch>
          <step>B</step>
          <octave>4</octave>
          <alter>-0.5</alter>
        </pitch>
        <duration>12</duration>
        <type>eighth</type>
        <accidental>quarter-flat</accidental>
        <lyric>
          <text>av</text>
        </lyric>
      </note>
      <note>
        <pitch>
          <step>A</step>
          <octave>4</octave>
        </pitch>
        <duration>12</duration>
        <type>eighth</type>
        <accidental/>
        <lyric>
          <text></text>
        </lyric>
      </note>
    </measure>
    <measure number="22">
      <note>
        <pitch>
          <step>B</step>
          <octave>4</octave>
          <alter>-0.5</alter>
        </pitch>
        <duration>12</duration>
        <type>eighth</type>
        <accidental>quarter-flat</accidental>
        <lyric>
          <text>cı </text>
        </lyric>
      </note>
      <note>
        <pitch>
          <step>A</step>
          <octave>4</octave>
        </pitch>
        <duration>12</duration>
        <type>eighth</type>
        <accidental/>
        <lyric>
          <text>vur</text>
        </lyric>
      </note>
      <note>
        <pitch>
          <step>B</step>
          <octave>4</octave>
          <alter>-0.5</alter>
        </pitch>
        <duration>12</duration>
        <type>eighth</type>
        <accidental>quarter-flat</accidental>
        <lyric>
          <text></text>
        </lyric>
      </note>
      <note>
        <pitch>
          <step>B</step>
          <octave>4</octave>
          <alter>-0.5</alter>
        </pitch>
        <duration>12</duration>
        <type>eighth</type>
        <accidental>quarter-flat</accidental>
        <lyric>
          <text>du </text>
        </lyric>
      </note>
      <note>
        <pitch>
          <step>A</step>
          <octave>4</octave>
        </pitch>
        <duration>12</duration>
        <type>eighth</type>
        <accidental/>
        <lyric>
          <text></text>
        </lyric>
      </note>
      <note>
        <pitch>
          <step>G</step>
          <octave>4</octave>
        </pitch>
        <duration>12</duration>
        <type>eighth</type>
        <accidental/>
        <lyric>
          <text></text>
        </lyric>
      </note>
    </measure>
    <measure number="23">
      <note>
        <pitch>
          <step>B</step>
          <octave>4</octave>
          <alter>-0.5</alter>
        </pitch>
        <duration>12</duration>
        <type>eighth</type>
        <accidental>quarter-flat</accidental>
        <lyric>
          <text>bu</text>
        </lyric>
      </note>
      <note>
        <pitch>
          <step>A</step>
          <octave>4</octave>
        </pitch>
        <duration>12</duration>
        <type>eighth</type>
        <accidental/>
        <lyric>
          <text>ra</text>
        </lyric>
      </note>
      <note>
        <pitch>
          <step>G</step>
          <octave>4</octave>
        </pitch>
        <duration>12</duration>
        <type>eighth</type>
        <accidental/>
        <lyric>
          <text></text>
        </lyric>
      </note>
      <note>
        <pitch>
          <step>A</step>
          <octave>4</octave>
        </pitch>
        <duration>12</duration>
        <type>eighth</type>
        <accidental/>
        <lyric>
          <text>lı </text>
        </lyric>
      </note>
      <note>
        <pitch>
          <step>G</step>
          <octave>4</octave>
        </pitch>
        <duration>12</duration>
        <type>eighth</type>
        <accidental/>
        <lyric>
          <text>cey</text>
        </lyric>
      </note>
      <note>
        <pitch>
          <step>F</step>
          <octave>4</octave>
          <alter>1</alter>
        </pitch>
        <duration>12</duration>
        <type>eighth</type>
        <accidental>sharp</accidental>
        <lyric>
          <text></text>
        </lyric>
      </note>
    </measure>
    <measure number="24">
      <note>
        <pitch>
          <step>G</step>
          <octave>4</octave>
        </pitch>
        <duration>72</duration>
        <type>half</type>
        <dot/>
        <accidental/>
        <lyric>
          <text>lan  </text>
        </lyric>
      </note>
    </measure>
    <measure number="25">
      <note>
        <pitch>
          <step>D</step>
          <octave>5</octave>
        </pitch>
        <duration>12</duration>
        <type>eighth</type>
        <accidental/>
        <lyric>
          <text>Ka</text>
        </lyric>
      </note>
      <note>
        <pitch>
          <step>D</step>
          <octave>5</octave>
        </pitch>
        <duration>24</duration>
        <type>quarter</type>
        <accidental/>
        <lyric>
          <text>şı </text>
        </lyric>
      </note>
      <note>
        <pitch>
          <step>D</step>
          <octave>5</octave>
        </pitch>
        <duration>12</duration>
        <type>eighth</type>
        <accidental/>
        <lyric>
          <text>gö</text>
        </lyric>
      </note>
      <note>
        <pitch>
          <step>D</step>
          <octave>5</octave>
        </pitch>
        <duration>24</duration>
        <type>quarter</type>
        <accidental/>
        <lyric>
          <text>zü </text>
        </lyric>
      </note>
    </measure>
    <measure number="26">
      <note>
        <pitch>
          <step>E</step>
          <octave>5</octave>
        </pitch>
        <duration>12</duration>
        <type>eighth</type>
        <accidental/>
        <lyric>
          <text>sür</text>
        </lyric>
      </note>
      <note>
        <pitch>
          <step>D</step>
          <octave>5</octave>
        </pitch>
        <duration>12</duration>
        <type>eighth</type>
        <accidental/>
        <lyric>
          <text></text>
        </lyric>
      </note>
      <note>
        <pitch>
          <step>E</step>
          <octave>5</octave>
        </pitch>
        <duration>12</duration>
        <type>eighth</type>
        <accidental/>
        <lyric>
          <text>me</text>
        </lyric>
      </note>
      <note>
        <pitch>
          <step>D</step>
          <octave>5</octave>
        </pitch>
        <duration>36</duration>
        <type>quarter</type>
        <dot/>
        <accidental/>
        <lyric>
          <text>li </text>
        </lyric>
      </note>
    </measure>
    <measure number="27">
      <note>
        <pitch>
          <step>E</step>
          <octave>5</octave>
        </pitch>
        <duration>12</duration>
        <type>eighth</type>
        <accidental/>
        <lyric>
          <text>ka</text>
        </lyric>
      </note>
      <note>
        <pitch>
          <step>D</step>
          <octave>5</octave>
        </pitch>
        <duration>18</duration>
        <type>eighth</type>
        <dot/>
        <accidental/>
        <lyric>
          <text>ra</text>
        </lyric>
      </note>
      <note>
        <pitch>
          <step>E</step>
          <octave>5</octave>
        </pitch>
        <duration>6</duration>
        <type>16th</type>
        <accidental/>
        <lyric>
          <text></text>
        </lyric>
      </note>
      <note>
        <pitch>
          <step>D</step>
          <octave>5</octave>
        </pitch>
        <duration>12</duration>
        <type>eighth</type>
        <accidental/>
        <lyric>
          <text>lı </text>
        </lyric>
      </note>
      <note>
        <pitch>
          <step>C</step>
          <octave>5</octave>
        </pitch>
        <duration>12</duration>
        <type>eighth</type>
        <accidental/>
        <lyric>
          <text></text>
        </lyric>
      </note>
      <note>
        <pitch>
          <step>B</step>
          <octave>4</octave>
          <alter>-0.5</alter>
        </pitch>
        <duration>12</duration>
        <type>eighth</type>
        <accidental>quarter-flat</accidental>
        <lyric>
          <text>cey</text>
        </lyric>
      </note>
    </measure>
    <measure number="28">
      <note>
        <pitch>
          <step>D</step>
          <octave>5</octave>
        </pitch>
        <duration>12</duration>
        <type>eighth</type>
        <accidental/>
        <lyric>
          <text>lan  </text>
        </lyric>
      </note>
      <note>
        <pitch>
          <step>C</step>
          <octave>5</octave>
        </pitch>
        <duration>12</duration>
        <type>eighth</type>
        <accidental/>
        <lyric>
          <text></text>
        </lyric>
      </note>
      <note>
        <pitch>
          <step>D</step>
          <octave>5</octave>
        </pitch>
        <duration>12</duration>
        <type>eighth</type>
        <accidental/>
        <lyric>
          <text></text>
        </lyric>
      </note>
      <note>
        <pitch>
          <step>C</step>
          <octave>5</octave>
        </pitch>
        <duration>24</duration>
        <type>quarter</type>
        <accidental/>
        <lyric>
          <text></text>
        </lyric>
      </note>
      <note>
        <pitch>
          <step>B</step>
          <octave>4</octave>
          <alter>-0.5</alter>
        </pitch>
        <duration>12</duration>
        <type>eighth</type>
        <accidental>quarter-flat</accidental>
        <lyric>
          <text></text>
        </lyric>
      </note>
    </measure>
    <measure number="29">
      <note>
        <pitch>
          <step>D</step>
          <octave>5</octave>
        </pitch>
        <duration>12</duration>
        <type>eighth</type>
        <accidental/>
        <lyric>
          <text>Ka</text>
        </lyric>
      </note>
      <note>
        <pitch>
          <step>D</step>
          <octave>5</octave>
        </pitch>
        <duration>24</duration>
        <type>quarter</type>
        <accidental/>
        <lyric>
          <text>şı </text>
        </lyric>
      </note>
      <note>
        <pitch>
          <step>D</step>
          <octave>5</octave>
        </pitch>
        <duration>12</duration>
        <type>eighth</type>
        <accidental/>
        <lyric>
          <text>gö</text>
        </lyric>
      </note>
      <note>
        <pitch>
          <step>D</step>
          <octave>5</octave>
        </pitch>
        <duration>24</duration>
        <type>quarter</type>
        <accidental/>
        <lyric>
          <text>zü </text>
        </lyric>
      </note>
    </measure>
    <measure number="30">
      <note>
        <pitch>
          <step>E</step>
          <octave>5</octave>
        </pitch>
        <duration>12</duration>
        <type>eighth</type>
        <accidental/>
        <lyric>
          <text>sür</text>
        </lyric>
      </note>
      <note>
        <pitch>
          <step>D</step>
          <octave>5</octave>
        </pitch>
        <duration>12</duration>
        <type>eighth</type>
        <accidental/>
        <lyric>
          <text></text>
        </lyric>
      </note>
      <note>
        <pitch>
          <step>E</step>
          <octave>5</octave>
        </pitch>
        <duration>12</duration>
        <type>eighth</type>
        <accidental/>
        <lyric>
          <text>me</text>
        </lyric>
      </note>
      <note>
        <pitch>
          <step>D</step>
          <octave>5</octave>
        </pitch>
        <duration>36</duration>
        <type>quarter</type>
        <dot/>
        <accidental/>
        <lyric>
          <text>li </text>
        </lyric>
      </note>
    </measure>
    <measure number="31">
      <note>
        <pitch>
          <step>E</step>
          <octave>5</octave>
        </pitch>
        <duration>12</duration>
        <type>eighth</type>
        <accidental/>
        <lyric>
          <text>ka</text>
        </lyric>
      </note>
      <note>
        <pitch>
          <step>D</step>
          <octave>5</octave>
        </pitch>
        <duration>18</duration>
        <type>eighth</type>
        <dot/>
        <accidental/>
        <lyric>
          <text>ra</text>
        </lyric>
      </note>
      <note>
        <pitch>
          <step>E</step>
          <octave>5</octave>
        </pitch>
        <duration>6</duration>
        <type>16th</type>
        <accidental/>
        <lyric>
          <text></text>
        </lyric>
      </note>
      <note>
        <pitch>
          <step>D</step>
          <octave>5</octave>
        </pitch>
        <duration>12</duration>
        <type>eighth</type>
        <accidental/>
        <lyric>
          <text>lı </text>
        </lyric>
      </note>
      <note>
        <pitch>
          <step>C</step>
          <octave>5</octave>
        </pitch>
        <duration>12</duration>
        <type>eighth</type>
        <accidental/>
        <lyric>
          <text></text>
        </lyric>
      </note>
      <note>
        <pitch>
          <step>B</step>
          <octave>4</octave>
          <alter>-0.5</alter>
        </pitch>
        <duration>12</duration>
        <type>eighth</type>
        <accidental>quarter-flat</accidental>
        <lyric>
          <text>cey</text>
        </lyric>
      </note>
    </measure>
    <measure number="32">
      <note>
        <pitch>
          <step>D</step>
          <octave>5</octave>
        </pitch>
        <duration>12</duration>
        <type>eighth</type>
        <accidental/>
        <lyric>
          <text>lan  </text>
        </lyric>
      </note>
      <note>
        <pitch>
          <step>C</step>
          <octave>5</octave>
        </pitch>
        <duration>12</duration>
        <type>eighth</type>
        <accidental/>
        <lyric>
          <text></text>
        </lyric>
      </note>
      <note>
        <pitch>
          <step>D</step>
          <octave>5</octave>
        </pitch>
        <duration>12</duration>
        <type>eighth</type>
        <accidental/>
        <lyric>
          <text></text>
        </lyric>
      </note>
      <note>
        <pitch>
          <step>C</step>
          <octave>5</octave>
        </pitch>
        <duration>24</duration>
        <type>quarter</type>
        <accidental/>
        <lyric>
          <text></text>
        </lyric>
      </note>
      <note>
        <pitch>
          <step>B</step>
          <octave>4</octave>
          <alter>-0.5</alter>
        </pitch>
        <duration>12</duration>
        <type>eighth</type>
        <accidental>quarter-flat</accidental>
        <lyric>
          <text></text>
        </lyric>
      </note>
    </measure>
    <measure number="33">
      <note>
        <pitch>
          <step>C</step>
          <octave>5</octave>
        </pitch>
        <duration>12</duration>
        <type>eighth</type>
        <accidental/>
        <lyric>
          <text>Be</text>
        </lyric>
      </note>
      <note>
        <pitch>
          <step>B</step>
          <octave>4</octave>
          <alter>-0.5</alter>
        </pitch>
        <duration>12</duration>
        <type>eighth</type>
        <accidental>quarter-flat</accidental>
        <lyric>
          <text>ni </text>
        </lyric>
      </note>
      <note>
        <pitch>
          <step>C</step>
          <octave>5</octave>
        </pitch>
        <duration>12</duration>
        <type>eighth</type>
        <accidental/>
        <lyric>
          <text></text>
        </lyric>
      </note>
      <note>
        <pitch>
          <step>D</step>
          <octave>5</octave>
        </pitch>
        <duration>12</duration>
        <type>eighth</type>
        <accidental/>
        <lyric>
          <text>bir_</text>
        </lyric>
      </note>
      <note>
        <pitch>
          <step>B</step>
          <octave>4</octave>
          <alter>-0.5</alter>
        </pitch>
        <duration>12</duration>
        <type>eighth</type>
        <accidental>quarter-flat</accidental>
        <lyric>
          <text>av</text>
        </lyric>
      </note>
      <note>
        <pitch>
          <step>A</step>
          <octave>4</octave>
        </pitch>
        <duration>12</duration>
        <type>eighth</type>
        <accidental/>
        <lyric>
          <text></text>
        </lyric>
      </note>
    </measure>
    <measure number="34">
      <note>
        <pitch>
          <step>B</step>
          <octave>4</octave>
          <alter>-0.5</alter>
        </pitch>
        <duration>12</duration>
        <type>eighth</type>
        <accidental>quarter-flat</accidental>
        <lyric>
          <text>cı </text>
        </lyric>
      </note>
      <note>
        <pitch>
          <step>A</step>
          <octave>4</octave>
        </pitch>
        <duration>12</duration>
        <type>eighth</type>
        <accidental/>
        <lyric>
          <text>vur</text>
        </lyric>
      </note>
      <note>
        <pitch>
          <step>B</step>
          <octave>4</octave>
          <alter>-0.5</alter>
        </pitch>
        <duration>12</duration>
        <type>eighth</type>
        <accidental>quarter-flat</accidental>
        <lyric>
          <text></text>
        </lyric>
      </note>
      <note>
        <pitch>
          <step>B</step>
          <octave>4</octave>
          <alter>-0.5</alter>
        </pitch>
        <duration>12</duration>
        <type>eighth</type>
        <accidental>quarter-flat</accidental>
        <lyric>
          <text>du </text>
        </lyric>
      </note>
      <note>
        <pitch>
          <step>A</step>
          <octave>4</octave>
        </pitch>
        <duration>12</duration>
        <type>eighth</type>
        <accidental/>
        <lyric>
          <text></text>
        </lyric>
      </note>
      <note>
        <pitch>
          <step>G</step>
          <octave>4</octave>
        </pitch>
        <duration>12</duration>
        <type>eighth</type>
        <accidental/>
        <lyric>
          <text></text>
        </lyric>
      </note>
    </measure>
    <measure number="35">
      <note>
        <pitch>
          <step>B</step>
          <octave>4</octave>
          <alter>-0.5</alter>
        </pitch>
        <duration>12</duration>
        <type>eighth</type>
        <accidental>quarter-flat</accidental>
        <lyric>
          <text>bu</text>
        </lyric>
      </note>
      <note>
        <pitch>
          <step>A</step>
          <octave>4</octave>
        </pitch>
        <duration>12</duration>
        <type>eighth</type>
        <accidental/>
        <lyric>
          <text>ra</text>
        </lyric>
      </note>
      <note>
        <pitch>
          <step>G</step>
          <octave>4</octave>
        </pitch>
        <duration>12</duration>
        <type>eighth</type>
        <accidental/>
        <lyric>
          <text></text>
        </lyric>
      </note>
      <note>
        <pitch>
          <step>A</step>
          <octave>4</octave>
        </pitch>
        <duration>12</duration>
        <type>eighth</type>
        <accidental/>
        <lyric>
          <text>lı </text>
        </lyric>
      </note>
      <note>
        <pitch>
          <step>G</step>
          <octave>4</octave>
        </pitch>
        <duration>12</duration>
        <type>eighth</type>
        <accidental/>
        <lyric>
          <text></text>
        </lyric>
      </note>
      <note>
        <pitch>
          <step>F</step>
          <octave>4</octave>
          <alter>1</alter>
        </pitch>
        <duration>12</duration>
        <type>eighth</type>
        <accidental>sharp</accidental>
        <lyric>
          <text>cey</text>
        </lyric>
      </note>
    </measure>
    <measure number="36">
      <note>
        <pitch>
          <step>G</step>
          <octave>4</octave>
        </pitch>
        <duration>72</duration>
        <type>half</type>
        <dot/>
        <accidental/>
        <lyric>
          <text>lan  </text>
        </lyric>
      </note>
    </measure>
    <measure number="37">
      <note>
        <pitch>
          <step>C</step>
          <octave>5</octave>
        </pitch>
        <duration>12</duration>
        <type>eighth</type>
        <accidental/>
        <lyric>
          <text>Be</text>
        </lyric>
      </note>
      <note>
        <pitch>
          <step>B</step>
          <octave>4</octave>
          <alter>-0.5</alter>
        </pitch>
        <duration>12</duration>
        <type>eighth</type>
        <accidental>quarter-flat</accidental>
        <lyric>
          <text>ni </text>
        </lyric>
      </note>
      <note>
        <pitch>
          <step>C</step>
          <octave>5</octave>
        </pitch>
        <duration>12</duration>
        <type>eighth</type>
        <accidental/>
        <lyric>
          <text></text>
        </lyric>
      </note>
      <note>
        <pitch>
          <step>D</step>
          <octave>5</octave>
        </pitch>
        <duration>12</duration>
        <type>eighth</type>
        <accidental/>
        <lyric>
          <text>bir_</text>
        </lyric>
      </note>
      <note>
        <pitch>
          <step>B</step>
          <octave>4</octave>
          <alter>-0.5</alter>
        </pitch>
        <duration>12</duration>
        <type>eighth</type>
        <accidental>quarter-flat</accidental>
        <lyric>
          <text>av</text>
        </lyric>
      </note>
      <note>
        <pitch>
          <step>A</step>
          <octave>4</octave>
        </pitch>
        <duration>12</duration>
        <type>eighth</type>
        <accidental/>
        <lyric>
          <text></text>
        </lyric>
      </note>
    </measure>
    <measure number="38">
      <note>
        <pitch>
          <step>B</step>
          <octave>4</octave>
          <alter>-0.5</alter>
        </pitch>
        <duration>12</duration>
        <type>eighth</type>
        <accidental>quarter-flat</accidental>
        <lyric>
          <text>cı </text>
        </lyric>
      </note>
      <note>
        <pitch>
          <step>A</step>
          <octave>4</octave>
        </pitch>
        <duration>12</duration>
        <type>eighth</type>
        <accidental/>
        <lyric>
          <text>vur</text>
        </lyric>
      </note>
      <note>
        <pitch>
          <step>B</step>
          <octave>4</octave>
          <alter>-0.5</alter>
        </pitch>
        <duration>12</duration>
        <type>eighth</type>
        <accidental>quarter-flat</accidental>
        <lyric>
          <text></text>
        </lyric>
      </note>
      <note>
        <pitch>
          <step>B</step>
          <octave>4</octave>
          <alter>-0.5</alter>
        </pitch>
        <duration>12</duration>
        <type>eighth</type>
        <accidental>quarter-flat</accidental>
        <lyric>
          <text>du </text>
        </lyric>
      </note>
      <note>
        <pitch>
          <step>A</step>
          <octave>4</octave>
        </pitch>
        <duration>12</duration>
        <type>eighth</type>
        <accidental/>
        <lyric>
          <text></text>
        </lyric>
      </note>
      <note>
        <pitch>
          <step>G</step>
          <octave>4</octave>
        </pitch>
        <duration>12</duration>
        <type>eighth</type>
        <accidental/>
        <lyric>
          <text></text>
        </lyric>
      </note>
    </measure>
    <measure number="39">
      <note>
        <pitch>
          <step>B</step>
          <octave>4</octave>
          <alter>-0.5</alter>
        </pitch>
        <duration>12</duration>
        <type>eighth</type>
        <accidental>quarter-flat</accidental>
        <lyric>
          <text>bu</text>
        </lyric>
      </note>
      <note>
        <pitch>
          <step>A</step>
          <octave>4</octave>
        </pitch>
        <duration>12</duration>
        <type>eighth</type>
        <accidental/>
        <lyric>
          <text>ra</text>
        </lyric>
      </note>
      <note>
        <pitch>
          <step>G</step>
          <octave>4</octave>
        </pitch>
        <duration>12</duration>
        <type>eighth</type>
        <accidental/>
        <lyric>
          <text></text>
        </lyric>
      </note>
      <note>
        <pitch>
          <step>A</step>
          <octave>4</octave>
        </pitch>
        <duration>12</duration>
        <type>eighth</type>
        <accidental/>
        <lyric>
          <text>lı </text>
        </lyric>
      </note>
      <note>
        <pitch>
          <step>G</step>
          <octave>4</octave>
        </pitch>
        <duration>12</duration>
        <type>eighth</type>
        <accidental/>
        <lyric>
          <text></text>
        </lyric>
      </note>
      <note>
        <pitch>
          <step>F</step>
          <octave>4</octave>
          <alter>1</alter>
        </pitch>
        <duration>12</duration>
        <type>eighth</type>
        <accidental>sharp</accidental>
        <lyric>
          <text>cey</text>
        </lyric>
      </note>
    </measure>
    <measure number="40">
      <note>
        <pitch>
          <step>G</step>
          <octave>4</octave>
        </pitch>
        <duration>72</duration>
        <type>half</type>
        <dot/>
        <accidental/>
        <lyric>
          <text>lan  </text>
        </lyric>
      </note>
    </measure>
    <measure number="41"/>
  </part>
</score-partwise>
