<?xml version='1.0' encoding='UTF-8'?>
<!DOCTYPE score-partwise PUBLIC "-//Recordare//DTD MusicXML 3.0 Partwise//EN" "http://www.musicxml.org/dtds/partwise.dtd">
<score-partwise version="3.0">
  <work>
    <work-title>Nice Bir</work-title>
  </work>
  <part-list>
    <score-part id="P1">
      <part-name>Music</part-name>
    </score-part>
  </part-list>
  <part id="P1">
    <measure number="1">
      <direction placement="above">
        <direction-type>
          <words default-y="35">Makam: Sazkar, Usul: Aksaksemai</words>
        </direction-type>
        <sound tempo="62.98110566829951"/>
      </direction>
      <attributes>
        <divisions>24</divisions>
        <time>
          <beats>10</beats>
          <beat-type>8</beat-type>
        </time>
        <key>
          <key-step>F</key-step>
          <key-accidental>sharp</key-accidental>
          <key-step>B</key-step>
          <key-accidental>quarter-flat</key-accidental>
        </key>
      </attributes>
      <note>
        <pitch>
          <step>B</step>
          <octave>4</octave>
          <alter>-0.5</alter>
        </pitch>
        <duration>36</duration>
        <type>quarter</type>
        <dot/>
        <accidental>quarter-flat</accidental>
        <lyric>
          <text>Ah </text>
        </lyric>
      </note>
      <note>
        <pitch>
          <step>B</step>
          <octave>4</octave>
          <alter>-0.5</alter>
        </pitch>
        <duration>18</duration>
        <type>eighth</type>
        <dot/>
        <accidental>quarter-flat</accidental>
        <lyric>
          <text></text>
        </lyric>
      </note>
      <note>
        <pitch>
          <step>A</step>
          <octave>4</octave>
          <alter>1</alter>
        </pitch>
        <duration>6</duration>
        <type>16th</type>
        <accidental>sharp</accidental>
        <lyric>
          <text></text>
        </lyric>
      </note>
      <note>
        <rest/>
        <duration>6</duration>
        <type>16th</type>
        <lyric>
          <text></text>
        </lyric>
      </note>
      <note>
        <pitch>
          <step>G</step>
          <octave>4</octave>
        </pitch>
        <duration>12</duration>
        <type>eighth</type>
        <accidental/>
        <lyric>
          <text>ni</text>
        </lyric>
      </note>
      <note>
        <pitch>
          <step>A</step>
          <octave>4</octave>
          <alter>1</alter>
        </pitch>
        <duration>6</duration>
        <type>16th</type>
        <accidental>sharp</accidental>
        <lyric>
          <text>ce </text>
        </lyric>
      </note>
      <note>
        <pitch>
          <step>B</step>
          <octave>4</octave>
          <alter>-0.5</alter>
        </pitch>
        <duration>24</duration>
        <type>quarter</type>
        <accidental>quarter-flat</accidental>
        <lyric>
          <text>bir </text>
        </lyric>
      </note>
      <note>
        <rest/>
        <duration>12</duration>
        <type>eighth</type>
        <lyric>
          <text></text>
        </lyric>
      </note>
    </measure>
    <measure number="2">
      <note>
        <pitch>
          <step>C</step>
          <octave>5</octave>
        </pitch>
        <duration>36</duration>
        <type>quarter</type>
        <dot/>
        <accidental/>
        <lyric>
          <text>bül</text>
        </lyric>
      </note>
      <note>
        <pitch>
          <step>C</step>
          <octave>5</octave>
        </pitch>
        <duration>18</duration>
        <type>eighth</type>
        <dot/>
        <accidental/>
        <lyric>
          <text></text>
        </lyric>
      </note>
      <note>
        <pitch>
          <step>B</step>
          <octave>4</octave>
          <alter>-0.5</alter>
        </pitch>
        <duration>6</duration>
        <type>16th</type>
        <accidental>quarter-flat</accidental>
        <lyric>
          <text></text>
        </lyric>
      </note>
      <note>
        <pitch>
          <step>D</step>
          <octave>5</octave>
        </pitch>
        <duration>12</duration>
        <type>eighth</type>
        <accidental/>
        <lyric>
          <text>bül_</text>
        </lyric>
      </note>
      <note>
        <pitch>
          <step>C</step>
          <octave>5</octave>
        </pitch>
        <duration>6</duration>
        <type>16th</type>
        <accidental/>
        <lyric>
          <text>i </text>
        </lyric>
      </note>
      <note>
        <pitch>
          <step>B</step>
          <octave>4</octave>
          <alter>-0.5</alter>
        </pitch>
        <duration>6</duration>
        <type>16th</type>
        <accidental>quarter-flat</accidental>
        <lyric>
          <text></text>
        </lyric>
      </note>
      <note>
        <pitch>
          <step>A</step>
          <octave>4</octave>
        </pitch>
        <duration>24</duration>
        <type>quarter</type>
        <accidental/>
        <lyric>
          <text>nâ</text>
        </lyric>
      </note>
      <note>
        <pitch>
          <step>B</step>
          <octave>4</octave>
          <alter>-0.5</alter>
        </pitch>
        <duration>12</duration>
        <type>eighth</type>
        <accidental>quarter-flat</accidental>
        <lyric>
          <text></text>
        </lyric>
      </note>
    </measure>
    <measure number="3">
      <note>
        <pitch>
          <step>A</step>
          <octave>4</octave>
        </pitch>
        <duration>24</duration>
        <type>quarter</type>
        <accidental/>
        <lyric>
          <text>lân </text>
        </lyric>
      </note>
      <note>
        <pitch>
          <step>F</step>
          <octave>4</octave>
          <alter>1</alter>
        </pitch>
        <duration>12</duration>
        <type>eighth</type>
        <accidental>sharp</accidental>
        <lyric>
          <text></text>
        </lyric>
      </note>
      <note>
        <pitch>
          <step>G</step>
          <octave>4</octave>
        </pitch>
        <duration>24</duration>
        <type>quarter</type>
        <accidental/>
        <lyric>
          <text></text>
        </lyric>
      </note>
      <note>
        <pitch>
          <step>A</step>
          <octave>4</octave>
        </pitch>
        <duration>24</duration>
        <type>quarter</type>
        <accidental/>
        <lyric>
          <text></text>
        </lyric>
      </note>
      <note>
        <pitch>
          <step>B</step>
          <octave>4</octave>
          <alter>-0.5</alter>
        </pitch>
        <duration>12</duration>
        <type>eighth</type>
        <accidental>quarter-flat</accidental>
        <lyric>
          <text></text>
        </lyric>
      </note>
      <note>
        <pitch>
          <step>B</step>
          <octave>4</octave>
          <alter>-0.5</alter>
        </pitch>
        <duration>12</duration>
        <type>eighth</type>
        <accidental>quarter-flat</accidental>
        <lyric>
          <text></text>
        </lyric>
      </note>
      <note>
        <pitch>
          <step>C</step>
          <octave>5</octave>
        </pitch>
        <duration>12</duration>
        <type>eighth</type>
        <accidental/>
        <lyric>
          <text></text>
        </lyric>
      </note>
    </measure>
    <measure number="4">
      <note>
        <pitch>
          <step>D</step>
          <octave>5</octave>
        </pitch>
        <duration>12</duration>
        <type>eighth</type>
        <accidental/>
        <lyric>
          <text></text>
        </lyric>
      </note>
      <note>
        <pitch>
          <step>E</step>
          <octave>5</octave>
        </pitch>
        <duration>12</duration>
        <type>eighth</type>
        <accidental/>
        <lyric>
          <text></text>
        </lyric>
      </note>
      <note>
        <pitch>
          <step>F</step>
          <octave>5</octave>
          <alter>1</alter>
        </pitch>
        <duration>12</duration>
        <type>eighth</type>
        <accidental>sharp</accidental>
        <lyric>
          <text></text>
        </lyric>
      </note>
      <note>
        <pitch>
          <step>G</step>
          <octave>5</octave>
        </pitch>
        <duration>12</duration>
        <type>eighth</type>
        <accidental/>
        <lyric>
          <text></text>
        </lyric>
      </note>
      <note>
        <pitch>
          <step>F</step>
          <octave>5</octave>
        </pitch>
        <duration>6</duration>
        <type>16th</type>
        <accidental/>
        <lyric>
          <text></text>
        </lyric>
      </note>
      <note>
        <pitch>
          <step>E</step>
          <octave>5</octave>
        </pitch>
        <duration>6</duration>
        <type>16th</type>
        <accidental/>
        <lyric>
          <text></text>
        </lyric>
      </note>
      <note>
        <pitch>
          <step>D</step>
          <octave>5</octave>
        </pitch>
        <duration>12</duration>
        <type>eighth</type>
        <accidental/>
        <lyric>
          <text>gi</text>
        </lyric>
      </note>
      <note>
        <pitch>
          <step>C</step>
          <octave>5</octave>
        </pitch>
        <duration>6</duration>
        <type>16th</type>
        <accidental/>
        <lyric>
          <text>bi </text>
        </lyric>
      </note>
      <note>
        <pitch>
          <step>B</step>
          <octave>4</octave>
          <alter>-0.5</alter>
        </pitch>
        <duration>6</duration>
        <type>16th</type>
        <accidental>quarter-flat</accidental>
        <lyric>
          <text></text>
        </lyric>
      </note>
      <note>
        <pitch>
          <step>C</step>
          <octave>5</octave>
        </pitch>
        <duration>24</duration>
        <type>quarter</type>
        <accidental/>
        <lyric>
          <text>fer</text>
        </lyric>
      </note>
      <note>
        <pitch>
          <step>B</step>
          <octave>4</octave>
          <alter>-0.5</alter>
        </pitch>
        <duration>12</duration>
        <type>eighth</type>
        <accidental>quarter-flat</accidental>
        <lyric>
          <text></text>
        </lyric>
      </note>
    </measure>
    <measure number="5">
      <note>
        <pitch>
          <step>C</step>
          <octave>5</octave>
        </pitch>
        <duration>12</duration>
        <type>eighth</type>
        <accidental/>
        <lyric>
          <text>yâd </text>
        </lyric>
      </note>
      <note>
        <pitch>
          <step>B</step>
          <octave>4</octave>
          <alter>-0.5</alter>
        </pitch>
        <duration>12</duration>
        <type>eighth</type>
        <accidental>quarter-flat</accidental>
        <lyric>
          <text></text>
        </lyric>
      </note>
      <note>
        <pitch>
          <step>C</step>
          <octave>5</octave>
        </pitch>
        <duration>12</duration>
        <type>eighth</type>
        <accidental/>
        <lyric>
          <text></text>
        </lyric>
      </note>
      <note>
        <pitch>
          <step>D</step>
          <octave>5</octave>
        </pitch>
        <duration>18</duration>
        <type>eighth</type>
        <dot/>
        <accidental/>
        <lyric>
          <text>e</text>
        </lyric>
      </note>
      <note>
        <pitch>
          <step>C</step>
          <octave>5</octave>
        </pitch>
        <duration>6</duration>
        <type>16th</type>
        <accidental/>
        <lyric>
          <text></text>
        </lyric>
      </note>
      <note>
        <pitch>
          <step>D</step>
          <octave>5</octave>
        </pitch>
        <duration>6</duration>
        <type>16th</type>
        <accidental/>
        <lyric>
          <text>de</text>
        </lyric>
      </note>
      <note>
        <pitch>
          <step>C</step>
          <octave>5</octave>
        </pitch>
        <duration>6</duration>
        <type>16th</type>
        <accidental/>
        <lyric>
          <text></text>
        </lyric>
      </note>
      <note>
        <pitch>
          <step>D</step>
          <octave>5</octave>
        </pitch>
        <duration>6</duration>
        <type>16th</type>
        <accidental/>
        <lyric>
          <text></text>
        </lyric>
      </note>
      <note>
        <pitch>
          <step>C</step>
          <octave>5</octave>
        </pitch>
        <duration>6</duration>
        <type>16th</type>
        <accidental/>
        <lyric>
          <text></text>
        </lyric>
      </note>
      <note>
        <pitch>
          <step>B</step>
          <octave>4</octave>
          <alter>-0.5</alter>
        </pitch>
        <duration>24</duration>
        <type>quarter</type>
        <accidental>quarter-flat</accidental>
        <lyric>
          <text>yim  </text>
        </lyric>
      </note>
      <note>
        <rest/>
        <duration>12</duration>
        <type>eighth</type>
        <lyric>
          <text></text>
        </lyric>
      </note>
    </measure>
    <measure number="6">
      <note>
        <pitch>
          <step>B</step>
          <octave>4</octave>
          <alter>-0.5</alter>
        </pitch>
        <duration>36</duration>
        <type>quarter</type>
        <dot/>
        <accidental>quarter-flat</accidental>
        <lyric>
          <text>Ah </text>
        </lyric>
      </note>
      <note>
        <pitch>
          <step>B</step>
          <octave>4</octave>
          <alter>-0.5</alter>
        </pitch>
        <duration>18</duration>
        <type>eighth</type>
        <dot/>
        <accidental>quarter-flat</accidental>
        <lyric>
          <text></text>
        </lyric>
      </note>
      <note>
        <pitch>
          <step>A</step>
          <octave>4</octave>
          <alter>1</alter>
        </pitch>
        <duration>6</duration>
        <type>16th</type>
        <accidental>sharp</accidental>
        <lyric>
          <text></text>
        </lyric>
      </note>
      <note>
        <rest/>
        <duration>6</duration>
        <type>16th</type>
        <lyric>
          <text></text>
        </lyric>
      </note>
      <note>
        <pitch>
          <step>G</step>
          <octave>4</octave>
        </pitch>
        <duration>12</duration>
        <type>eighth</type>
        <accidental/>
        <lyric>
          <text>ni</text>
        </lyric>
      </note>
      <note>
        <pitch>
          <step>A</step>
          <octave>4</octave>
          <alter>1</alter>
        </pitch>
        <duration>6</duration>
        <type>16th</type>
        <accidental>sharp</accidental>
        <lyric>
          <text>ce </text>
        </lyric>
      </note>
      <note>
        <pitch>
          <step>B</step>
          <octave>4</octave>
          <alter>-0.5</alter>
        </pitch>
        <duration>24</duration>
        <type>quarter</type>
        <accidental>quarter-flat</accidental>
        <lyric>
          <text>bir </text>
        </lyric>
      </note>
      <note>
        <rest/>
        <duration>12</duration>
        <type>eighth</type>
        <lyric>
          <text></text>
        </lyric>
      </note>
    </measure>
    <measure number="7">
      <note>
        <pitch>
          <step>C</step>
          <octave>5</octave>
        </pitch>
        <duration>36</duration>
        <type>quarter</type>
        <dot/>
        <accidental/>
        <lyric>
          <text>bül</text>
        </lyric>
      </note>
      <note>
        <pitch>
          <step>C</step>
          <octave>5</octave>
        </pitch>
        <duration>18</duration>
        <type>eighth</type>
        <dot/>
        <accidental/>
        <lyric>
          <text></text>
        </lyric>
      </note>
      <note>
        <pitch>
          <step>B</step>
          <octave>4</octave>
          <alter>-0.5</alter>
        </pitch>
        <duration>6</duration>
        <type>16th</type>
        <accidental>quarter-flat</accidental>
        <lyric>
          <text></text>
        </lyric>
      </note>
      <note>
        <pitch>
          <step>D</step>
          <octave>5</octave>
        </pitch>
        <duration>12</duration>
        <type>eighth</type>
        <accidental/>
        <lyric>
          <text>bül_</text>
        </lyric>
      </note>
      <note>
        <pitch>
          <step>C</step>
          <octave>5</octave>
        </pitch>
        <duration>6</duration>
        <type>16th</type>
        <accidental/>
        <lyric>
          <text>i </text>
        </lyric>
      </note>
      <note>
        <pitch>
          <step>B</step>
          <octave>4</octave>
          <alter>-0.5</alter>
        </pitch>
        <duration>6</duration>
        <type>16th</type>
        <accidental>quarter-flat</accidental>
        <lyric>
          <text></text>
        </lyric>
      </note>
      <note>
        <pitch>
          <step>A</step>
          <octave>4</octave>
        </pitch>
        <duration>24</duration>
        <type>quarter</type>
        <accidental/>
        <lyric>
          <text>nâ</text>
        </lyric>
      </note>
      <note>
        <pitch>
          <step>B</step>
          <octave>4</octave>
          <alter>-0.5</alter>
        </pitch>
        <duration>12</duration>
        <type>eighth</type>
        <accidental>quarter-flat</accidental>
        <lyric>
          <text></text>
        </lyric>
      </note>
    </measure>
    <measure number="8">
      <note>
        <pitch>
          <step>A</step>
          <octave>4</octave>
        </pitch>
        <duration>24</duration>
        <type>quarter</type>
        <accidental/>
        <lyric>
          <text>lân </text>
        </lyric>
      </note>
      <note>
        <pitch>
          <step>F</step>
          <octave>4</octave>
          <alter>1</alter>
        </pitch>
        <duration>12</duration>
        <type>eighth</type>
        <accidental>sharp</accidental>
        <lyric>
          <text></text>
        </lyric>
      </note>
      <note>
        <pitch>
          <step>G</step>
          <octave>4</octave>
        </pitch>
        <duration>24</duration>
        <type>quarter</type>
        <accidental/>
        <lyric>
          <text></text>
        </lyric>
      </note>
      <note>
        <pitch>
          <step>A</step>
          <octave>4</octave>
        </pitch>
        <duration>24</duration>
        <type>quarter</type>
        <accidental/>
        <lyric>
          <text></text>
        </lyric>
      </note>
      <note>
        <pitch>
          <step>B</step>
          <octave>4</octave>
          <alter>-0.5</alter>
        </pitch>
        <duration>12</duration>
        <type>eighth</type>
        <accidental>quarter-flat</accidental>
        <lyric>
          <text></text>
        </lyric>
      </note>
      <note>
        <pitch>
          <step>B</step>
          <octave>4</octave>
          <alter>-0.5</alter>
        </pitch>
        <duration>12</duration>
        <type>eighth</type>
        <accidental>quarter-flat</accidental>
        <lyric>
          <text></text>
        </lyric>
      </note>
      <note>
        <pitch>
          <step>C</step>
          <octave>5</octave>
        </pitch>
        <duration>12</duration>
        <type>eighth</type>
        <accidental/>
        <lyric>
          <text></text>
        </lyric>
      </note>
    </measure>
    <measure number="9">
      <note>
        <pitch>
          <step>D</step>
          <octave>5</octave>
        </pitch>
        <duration>12</duration>
        <type>eighth</type>
        <accidental/>
        <lyric>
          <text></text>
        </lyric>
      </note>
      <note>
        <pitch>
          <step>E</step>
          <octave>5</octave>
        </pitch>
        <duration>12</duration>
        <type>eighth</type>
        <accidental/>
        <lyric>
          <text></text>
        </lyric>
      </note>
      <note>
        <pitch>
          <step>F</step>
          <octave>5</octave>
          <alter>1</alter>
        </pitch>
        <duration>12</duration>
        <type>eighth</type>
        <accidental>sharp</accidental>
        <lyric>
          <text></text>
        </lyric>
      </note>
      <note>
        <pitch>
          <step>G</step>
          <octave>5</octave>
        </pitch>
        <duration>12</duration>
        <type>eighth</type>
        <accidental/>
        <lyric>
          <text></text>
        </lyric>
      </note>
      <note>
        <pitch>
          <step>F</step>
          <octave>5</octave>
        </pitch>
        <duration>6</duration>
        <type>16th</type>
        <accidental/>
        <lyric>
          <text></text>
        </lyric>
      </note>
      <note>
        <pitch>
          <step>E</step>
          <octave>5</octave>
        </pitch>
        <duration>6</duration>
        <type>16th</type>
        <accidental/>
        <lyric>
          <text></text>
        </lyric>
      </note>
      <note>
        <pitch>
          <step>D</step>
          <octave>5</octave>
        </pitch>
        <duration>12</duration>
        <type>eighth</type>
        <accidental/>
        <lyric>
          <text>gi</text>
        </lyric>
      </note>
      <note>
        <pitch>
          <step>C</step>
          <octave>5</octave>
        </pitch>
        <duration>6</duration>
        <type>16th</type>
        <accidental/>
        <lyric>
          <text>bi </text>
        </lyric>
      </note>
      <note>
        <pitch>
          <step>B</step>
          <octave>4</octave>
          <alter>-0.5</alter>
        </pitch>
        <duration>6</duration>
        <type>16th</type>
        <accidental>quarter-flat</accidental>
        <lyric>
          <text></text>
        </lyric>
      </note>
      <note>
        <pitch>
          <step>C</step>
          <octave>5</octave>
        </pitch>
        <duration>24</duration>
        <type>quarter</type>
        <accidental/>
        <lyric>
          <text>fer</text>
        </lyric>
      </note>
      <note>
        <pitch>
          <step>B</step>
          <octave>4</octave>
          <alter>-0.5</alter>
        </pitch>
        <duration>12</duration>
        <type>eighth</type>
        <accidental>quarter-flat</accidental>
        <lyric>
          <text></text>
        </lyric>
      </note>
    </measure>
    <measure number="10">
      <note>
        <pitch>
          <step>C</step>
          <octave>5</octave>
        </pitch>
        <duration>12</duration>
        <type>eighth</type>
        <accidental/>
        <lyric>
          <text>yâd </text>
        </lyric>
      </note>
      <note>
        <pitch>
          <step>B</step>
          <octave>4</octave>
          <alter>-0.5</alter>
        </pitch>
        <duration>12</duration>
        <type>eighth</type>
        <accidental>quarter-flat</accidental>
        <lyric>
          <text></text>
        </lyric>
      </note>
      <note>
        <pitch>
          <step>C</step>
          <octave>5</octave>
        </pitch>
        <duration>12</duration>
        <type>eighth</type>
        <accidental/>
        <lyric>
          <text></text>
        </lyric>
      </note>
      <note>
        <pitch>
          <step>D</step>
          <octave>5</octave>
        </pitch>
        <duration>18</duration>
        <type>eighth</type>
        <dot/>
        <accidental/>
        <lyric>
          <text>e</text>
        </lyric>
      </note>
      <note>
        <pitch>
          <step>C</step>
          <octave>5</octave>
        </pitch>
        <duration>6</duration>
        <type>16th</type>
        <accidental/>
        <lyric>
          <text></text>
        </lyric>
      </note>
      <note>
        <pitch>
          <step>D</step>
          <octave>5</octave>
        </pitch>
        <duration>6</duration>
        <type>16th</type>
        <accidental/>
        <lyric>
          <text>de</text>
        </lyric>
      </note>
      <note>
        <pitch>
          <step>C</step>
          <octave>5</octave>
        </pitch>
        <duration>6</duration>
        <type>16th</type>
        <accidental/>
        <lyric>
          <text></text>
        </lyric>
      </note>
      <note>
        <pitch>
          <step>D</step>
          <octave>5</octave>
        </pitch>
        <duration>6</duration>
        <type>16th</type>
        <accidental/>
        <lyric>
          <text></text>
        </lyric>
      </note>
      <note>
        <pitch>
          <step>C</step>
          <octave>5</octave>
        </pitch>
        <duration>6</duration>
        <type>16th</type>
        <accidental/>
        <lyric>
          <text></text>
        </lyric>
      </note>
      <note>
        <pitch>
          <step>B</step>
          <octave>4</octave>
          <alter>-0.5</alter>
        </pitch>
        <duration>24</duration>
        <type>quarter</type>
        <accidental>quarter-flat</accidental>
        <lyric>
          <text>yim  </text>
        </lyric>
      </note>
      <note>
        <rest/>
        <duration>12</duration>
        <type>eighth</type>
        <lyric>
          <text></text>
        </lyric>
      </note>
    </measure>
    <measure number="11">
      <note>
        <pitch>
          <step>G</step>
          <octave>5</octave>
        </pitch>
        <duration>24</duration>
        <type>quarter</type>
        <accidental/>
        <lyric>
          <text>Ca</text>
        </lyric>
      </note>
      <note>
        <pitch>
          <step>F</step>
          <octave>5</octave>
        </pitch>
        <duration>6</duration>
        <type>16th</type>
        <accidental/>
        <lyric>
          <text></text>
        </lyric>
      </note>
      <note>
        <pitch>
          <step>E</step>
          <octave>5</octave>
        </pitch>
        <duration>6</duration>
        <type>16th</type>
        <accidental/>
        <lyric>
          <text></text>
        </lyric>
      </note>
      <note>
        <pitch>
          <step>E</step>
          <octave>5</octave>
        </pitch>
        <duration>18</duration>
        <type>eighth</type>
        <dot/>
        <accidental/>
        <lyric>
          <text>nım </text>
        </lyric>
      </note>
      <note>
        <pitch>
          <step>D</step>
          <octave>5</octave>
        </pitch>
        <duration>6</duration>
        <type>16th</type>
        <accidental/>
        <lyric>
          <text></text>
        </lyric>
      </note>
      <note>
        <pitch>
          <step>D</step>
          <octave>5</octave>
        </pitch>
        <duration>6</duration>
        <type>16th</type>
        <accidental/>
        <lyric>
          <text>yel </text>
        </lyric>
      </note>
      <note>
        <pitch>
          <step>E</step>
          <octave>5</octave>
        </pitch>
        <duration>6</duration>
        <type>16th</type>
        <accidental/>
        <lyric>
          <text></text>
        </lyric>
      </note>
      <note>
        <pitch>
          <step>E</step>
          <octave>5</octave>
        </pitch>
        <duration>6</duration>
        <type>16th</type>
        <accidental/>
        <lyric>
          <text>le </text>
        </lyric>
      </note>
      <note>
        <pitch>
          <step>D</step>
          <octave>5</octave>
        </pitch>
        <duration>6</duration>
        <type>16th</type>
        <accidental/>
        <lyric>
          <text></text>
        </lyric>
      </note>
      <note>
        <pitch>
          <step>D</step>
          <octave>5</octave>
        </pitch>
        <duration>24</duration>
        <type>quarter</type>
        <accidental/>
        <lyric>
          <text>le </text>
        </lyric>
      </note>
      <note>
        <pitch>
          <step>C</step>
          <octave>5</octave>
        </pitch>
        <duration>6</duration>
        <type>16th</type>
        <accidental/>
        <lyric>
          <text>lel </text>
        </lyric>
      </note>
      <note>
        <pitch>
          <step>B</step>
          <octave>4</octave>
          <alter>-0.5</alter>
        </pitch>
        <duration>6</duration>
        <type>16th</type>
        <accidental>quarter-flat</accidental>
        <lyric>
          <text></text>
        </lyric>
      </note>
    </measure>
    <measure number="12">
      <note>
        <pitch>
          <step>A</step>
          <octave>4</octave>
        </pitch>
        <duration>18</duration>
        <type>eighth</type>
        <dot/>
        <accidental/>
        <lyric>
          <text>lel </text>
        </lyric>
      </note>
      <note>
        <pitch>
          <step>B</step>
          <octave>4</octave>
          <alter>-0.5</alter>
        </pitch>
        <duration>6</duration>
        <type>16th</type>
        <accidental>quarter-flat</accidental>
        <lyric>
          <text>le </text>
        </lyric>
      </note>
      <note>
        <pitch>
          <step>C</step>
          <octave>5</octave>
        </pitch>
        <duration>12</duration>
        <type>eighth</type>
        <accidental/>
        <lyric>
          <text>lel </text>
        </lyric>
      </note>
      <note>
        <pitch>
          <step>D</step>
          <octave>5</octave>
        </pitch>
        <duration>18</duration>
        <type>eighth</type>
        <dot/>
        <accidental/>
        <lyric>
          <text>lel </text>
        </lyric>
      </note>
      <note>
        <pitch>
          <step>C</step>
          <octave>5</octave>
        </pitch>
        <duration>6</duration>
        <type>16th</type>
        <accidental/>
        <lyric>
          <text></text>
        </lyric>
      </note>
      <note>
        <pitch>
          <step>D</step>
          <octave>5</octave>
        </pitch>
        <duration>6</duration>
        <type>16th</type>
        <accidental/>
        <lyric>
          <text>lel </text>
        </lyric>
      </note>
      <note>
        <pitch>
          <step>C</step>
          <octave>5</octave>
        </pitch>
        <duration>12</duration>
        <type>eighth</type>
        <accidental/>
        <lyric>
          <text></text>
        </lyric>
      </note>
      <note>
        <pitch>
          <step>B</step>
          <octave>4</octave>
          <alter>-0.5</alter>
        </pitch>
        <duration>6</duration>
        <type>16th</type>
        <accidental>quarter-flat</accidental>
        <lyric>
          <text></text>
        </lyric>
      </note>
      <note>
        <pitch>
          <step>B</step>
          <octave>4</octave>
          <alter>-0.5</alter>
        </pitch>
        <duration>24</duration>
        <type>quarter</type>
        <accidental>quarter-flat</accidental>
        <lyric>
          <text>li </text>
        </lyric>
      </note>
      <note>
        <rest/>
        <duration>12</duration>
        <type>eighth</type>
        <lyric>
          <text></text>
        </lyric>
      </note>
    </measure>
    <measure number="13">
      <note>
        <pitch>
          <step>D</step>
          <octave>5</octave>
        </pitch>
        <duration>24</duration>
        <type>quarter</type>
        <accidental/>
        <lyric>
          <text>öm</text>
        </lyric>
      </note>
      <note>
        <pitch>
          <step>C</step>
          <octave>5</octave>
        </pitch>
        <duration>6</duration>
        <type>16th</type>
        <accidental/>
        <lyric>
          <text></text>
        </lyric>
      </note>
      <note>
        <pitch>
          <step>B</step>
          <octave>4</octave>
          <alter>-0.5</alter>
        </pitch>
        <duration>6</duration>
        <type>16th</type>
        <accidental>quarter-flat</accidental>
        <lyric>
          <text></text>
        </lyric>
      </note>
      <note>
        <pitch>
          <step>A</step>
          <octave>4</octave>
        </pitch>
        <duration>18</duration>
        <type>eighth</type>
        <dot/>
        <accidental/>
        <lyric>
          <text>rüm </text>
        </lyric>
      </note>
      <note>
        <pitch>
          <step>G</step>
          <octave>4</octave>
        </pitch>
        <duration>6</duration>
        <type>16th</type>
        <accidental/>
        <lyric>
          <text></text>
        </lyric>
      </note>
      <note>
        <pitch>
          <step>G</step>
          <octave>4</octave>
        </pitch>
        <duration>6</duration>
        <type>16th</type>
        <accidental/>
        <lyric>
          <text></text>
        </lyric>
      </note>
      <note>
        <pitch>
          <step>C</step>
          <octave>5</octave>
        </pitch>
        <duration>6</duration>
        <type>16th</type>
        <accidental/>
        <lyric>
          <text>te </text>
        </lyric>
      </note>
      <note>
        <pitch>
          <step>B</step>
          <octave>4</octave>
          <alter>-0.5</alter>
        </pitch>
        <duration>6</duration>
        <type>16th</type>
        <accidental>quarter-flat</accidental>
        <lyric>
          <text>re </text>
        </lyric>
      </note>
      <note>
        <pitch>
          <step>C</step>
          <octave>5</octave>
        </pitch>
        <duration>6</duration>
        <type>16th</type>
        <accidental/>
        <lyric>
          <text></text>
        </lyric>
      </note>
      <note>
        <pitch>
          <step>D</step>
          <octave>5</octave>
        </pitch>
        <duration>24</duration>
        <type>quarter</type>
        <accidental/>
        <lyric>
          <text>lel </text>
        </lyric>
      </note>
      <note>
        <rest/>
        <duration>12</duration>
        <type>eighth</type>
        <lyric>
          <text></text>
        </lyric>
      </note>
    </measure>
    <measure number="14">
      <note>
        <pitch>
          <step>A</step>
          <octave>4</octave>
        </pitch>
        <duration>18</duration>
        <type>eighth</type>
        <dot/>
        <accidental/>
        <lyric>
          <text>lel </text>
        </lyric>
      </note>
      <note>
        <pitch>
          <step>B</step>
          <octave>4</octave>
          <alter>-0.5</alter>
        </pitch>
        <duration>6</duration>
        <type>16th</type>
        <accidental>quarter-flat</accidental>
        <lyric>
          <text></text>
        </lyric>
      </note>
      <note>
        <pitch>
          <step>C</step>
          <octave>5</octave>
        </pitch>
        <duration>12</duration>
        <type>eighth</type>
        <accidental/>
        <lyric>
          <text>lel </text>
        </lyric>
      </note>
      <note>
        <pitch>
          <step>D</step>
          <octave>5</octave>
        </pitch>
        <duration>18</duration>
        <type>eighth</type>
        <dot/>
        <accidental/>
        <lyric>
          <text>lel </text>
        </lyric>
      </note>
      <note>
        <pitch>
          <step>C</step>
          <octave>5</octave>
        </pitch>
        <duration>6</duration>
        <type>16th</type>
        <accidental/>
        <lyric>
          <text></text>
        </lyric>
      </note>
      <note>
        <pitch>
          <step>C</step>
          <octave>5</octave>
        </pitch>
        <duration>6</duration>
        <type>16th</type>
        <accidental/>
        <lyric>
          <text>lel </text>
        </lyric>
      </note>
      <note>
        <pitch>
          <step>B</step>
          <octave>4</octave>
          <alter>-0.5</alter>
        </pitch>
        <duration>12</duration>
        <type>eighth</type>
        <accidental>quarter-flat</accidental>
        <lyric>
          <text></text>
        </lyric>
      </note>
      <note>
        <pitch>
          <step>A</step>
          <octave>4</octave>
        </pitch>
        <duration>6</duration>
        <type>16th</type>
        <accidental/>
        <lyric>
          <text></text>
        </lyric>
      </note>
      <note>
        <pitch>
          <step>A</step>
          <octave>4</octave>
        </pitch>
        <duration>24</duration>
        <type>quarter</type>
        <accidental/>
        <lyric>
          <text></text>
        </lyric>
      </note>
      <note>
        <rest/>
        <duration>12</duration>
        <type>eighth</type>
        <lyric>
          <text></text>
        </lyric>
      </note>
    </measure>
    <measure number="15">
      <note>
        <pitch>
          <step>A</step>
          <octave>4</octave>
        </pitch>
        <duration>24</duration>
        <type>quarter</type>
        <accidental/>
        <lyric>
          <text>ya </text>
        </lyric>
      </note>
      <note>
        <pitch>
          <step>G</step>
          <octave>4</octave>
        </pitch>
        <duration>6</duration>
        <type>16th</type>
        <accidental/>
        <lyric>
          <text>lâ </text>
        </lyric>
      </note>
      <note>
        <pitch>
          <step>F</step>
          <octave>4</octave>
          <alter>1</alter>
        </pitch>
        <duration>6</duration>
        <type>16th</type>
        <accidental>sharp</accidental>
        <lyric>
          <text></text>
        </lyric>
      </note>
      <note>
        <pitch>
          <step>E</step>
          <octave>4</octave>
        </pitch>
        <duration>24</duration>
        <type>quarter</type>
        <accidental/>
        <lyric>
          <text>yel </text>
        </lyric>
      </note>
      <note>
        <pitch>
          <step>D</step>
          <octave>4</octave>
        </pitch>
        <duration>24</duration>
        <type>quarter</type>
        <accidental/>
        <lyric>
          <text>lel </text>
        </lyric>
      </note>
      <note>
        <pitch>
          <step>G</step>
          <octave>4</octave>
        </pitch>
        <duration>12</duration>
        <type>eighth</type>
        <accidental/>
        <lyric>
          <text>li </text>
        </lyric>
      </note>
      <note>
        <pitch>
          <step>G</step>
          <octave>4</octave>
        </pitch>
        <duration>12</duration>
        <type>eighth</type>
        <accidental/>
        <lyric>
          <text></text>
        </lyric>
      </note>
      <note>
        <pitch>
          <step>A</step>
          <octave>4</octave>
        </pitch>
        <duration>12</duration>
        <type>eighth</type>
        <accidental/>
        <lyric>
          <text></text>
        </lyric>
      </note>
    </measure>
    <measure number="16">
      <note>
        <pitch>
          <step>B</step>
          <octave>4</octave>
          <alter>-0.5</alter>
        </pitch>
        <duration>12</duration>
        <type>eighth</type>
        <accidental>quarter-flat</accidental>
        <lyric>
          <text>hey </text>
        </lyric>
      </note>
      <note>
        <pitch>
          <step>C</step>
          <octave>5</octave>
        </pitch>
        <duration>12</duration>
        <type>eighth</type>
        <accidental/>
        <lyric>
          <text></text>
        </lyric>
      </note>
      <note>
        <pitch>
          <step>D</step>
          <octave>5</octave>
        </pitch>
        <duration>12</duration>
        <type>eighth</type>
        <accidental/>
        <lyric>
          <text></text>
        </lyric>
      </note>
      <note>
        <pitch>
          <step>E</step>
          <octave>5</octave>
        </pitch>
        <duration>12</duration>
        <type>eighth</type>
        <accidental/>
        <lyric>
          <text></text>
        </lyric>
      </note>
      <note>
        <pitch>
          <step>D</step>
          <octave>5</octave>
        </pitch>
        <duration>12</duration>
        <type>eighth</type>
        <accidental/>
        <lyric>
          <text></text>
        </lyric>
      </note>
      <note>
        <pitch>
          <step>C</step>
          <octave>5</octave>
        </pitch>
        <duration>12</duration>
        <type>eighth</type>
        <accidental/>
        <lyric>
          <text></text>
        </lyric>
      </note>
      <note>
        <pitch>
          <step>B</step>
          <octave>4</octave>
          <alter>-0.5</alter>
        </pitch>
        <duration>12</duration>
        <type>eighth</type>
        <accidental>quarter-flat</accidental>
        <lyric>
          <text></text>
        </lyric>
      </note>
      <note>
        <pitch>
          <step>A</step>
          <octave>4</octave>
        </pitch>
        <duration>12</duration>
        <type>eighth</type>
        <accidental/>
        <lyric>
          <text></text>
        </lyric>
      </note>
      <note>
        <pitch>
          <step>G</step>
          <octave>4</octave>
        </pitch>
        <duration>12</duration>
        <type>eighth</type>
        <accidental/>
        <lyric>
          <text></text>
        </lyric>
      </note>
      <note>
        <pitch>
          <step>E</step>
          <octave>5</octave>
        </pitch>
        <duration>12</duration>
        <type>eighth</type>
        <accidental/>
        <lyric>
          <text></text>
        </lyric>
      </note>
    </measure>
    <measure number="17">
      <note>
        <pitch>
          <step>D</step>
          <octave>5</octave>
        </pitch>
        <duration>36</duration>
        <type>quarter</type>
        <dot/>
        <accidental/>
        <lyric>
          <text>Yâr </text>
        </lyric>
      </note>
      <note>
        <pitch>
          <step>G</step>
          <octave>5</octave>
        </pitch>
        <duration>18</duration>
        <type>eighth</type>
        <dot/>
        <accidental/>
        <lyric>
          <text>yâr </text>
        </lyric>
      </note>
      <note>
        <pitch>
          <step>F</step>
          <octave>5</octave>
        </pitch>
        <duration>6</duration>
        <type>16th</type>
        <accidental/>
        <lyric>
          <text></text>
        </lyric>
      </note>
      <note>
        <pitch>
          <step>F</step>
          <octave>5</octave>
        </pitch>
        <duration>6</duration>
        <type>16th</type>
        <accidental/>
        <lyric>
          <text>gi</text>
        </lyric>
      </note>
      <note>
        <pitch>
          <step>E</step>
          <octave>5</octave>
        </pitch>
        <duration>6</duration>
        <type>16th</type>
        <accidental/>
        <lyric>
          <text></text>
        </lyric>
      </note>
      <note>
        <pitch>
          <step>E</step>
          <octave>5</octave>
        </pitch>
        <duration>6</duration>
        <type>16th</type>
        <accidental/>
        <lyric>
          <text>bi </text>
        </lyric>
      </note>
      <note>
        <pitch>
          <step>D</step>
          <octave>5</octave>
        </pitch>
        <duration>6</duration>
        <type>16th</type>
        <accidental/>
        <lyric>
          <text></text>
        </lyric>
      </note>
      <note>
        <pitch>
          <step>D</step>
          <octave>5</octave>
        </pitch>
        <duration>6</duration>
        <type>16th</type>
        <accidental/>
        <lyric>
          <text>fer</text>
        </lyric>
      </note>
      <note>
        <pitch>
          <step>C</step>
          <octave>5</octave>
        </pitch>
        <duration>6</duration>
        <type>16th</type>
        <accidental/>
        <lyric>
          <text></text>
        </lyric>
      </note>
      <note>
        <pitch>
          <step>B</step>
          <octave>4</octave>
          <alter>-0.5</alter>
        </pitch>
        <duration>6</duration>
        <type>16th</type>
        <accidental>quarter-flat</accidental>
        <lyric>
          <text></text>
        </lyric>
      </note>
      <note>
        <pitch>
          <step>A</step>
          <octave>4</octave>
        </pitch>
        <duration>6</duration>
        <type>16th</type>
        <accidental/>
        <lyric>
          <text></text>
        </lyric>
      </note>
      <note>
        <pitch>
          <step>G</step>
          <octave>4</octave>
        </pitch>
        <duration>12</duration>
        <type>eighth</type>
        <accidental/>
        <lyric>
          <text></text>
        </lyric>
      </note>
    </measure>
    <measure number="18">
      <note>
        <pitch>
          <step>G</step>
          <octave>4</octave>
        </pitch>
        <duration>36</duration>
        <type>quarter</type>
        <dot/>
        <accidental/>
        <lyric>
          <text>yad </text>
        </lyric>
      </note>
      <note>
        <pitch>
          <step>A</step>
          <octave>4</octave>
        </pitch>
        <duration>12</duration>
        <type>eighth</type>
        <accidental/>
        <lyric>
          <text>e</text>
        </lyric>
      </note>
      <note>
        <pitch>
          <step>G</step>
          <octave>4</octave>
        </pitch>
        <duration>6</duration>
        <type>16th</type>
        <accidental/>
        <lyric>
          <text></text>
        </lyric>
      </note>
      <note>
        <pitch>
          <step>A</step>
          <octave>4</octave>
        </pitch>
        <duration>6</duration>
        <type>16th</type>
        <accidental/>
        <lyric>
          <text></text>
        </lyric>
      </note>
      <note>
        <pitch>
          <step>B</step>
          <octave>4</octave>
          <alter>-0.5</alter>
        </pitch>
        <duration>6</duration>
        <type>16th</type>
        <accidental>quarter-flat</accidental>
        <lyric>
          <text>de</text>
        </lyric>
      </note>
      <note>
        <pitch>
          <step>A</step>
          <octave>4</octave>
        </pitch>
        <duration>6</duration>
        <type>16th</type>
        <accidental/>
        <lyric>
          <text></text>
        </lyric>
      </note>
      <note>
        <pitch>
          <step>B</step>
          <octave>4</octave>
          <alter>-0.5</alter>
        </pitch>
        <duration>6</duration>
        <type>16th</type>
        <accidental>quarter-flat</accidental>
        <lyric>
          <text></text>
        </lyric>
      </note>
      <note>
        <pitch>
          <step>A</step>
          <octave>4</octave>
        </pitch>
        <duration>6</duration>
        <type>16th</type>
        <accidental/>
        <lyric>
          <text></text>
        </lyric>
      </note>
      <note>
        <pitch>
          <step>G</step>
          <octave>4</octave>
        </pitch>
        <duration>24</duration>
        <type>quarter</type>
        <accidental/>
        <lyric>
          <text>yim  </text>
        </lyric>
      </note>
      <note>
        <rest/>
        <duration>12</duration>
        <type>eighth</type>
        <lyric>
          <text></text>
        </lyric>
      </note>
    </measure>
    <measure number="19">
      <note>
        <pitch>
          <step>D</step>
          <octave>5</octave>
        </pitch>
        <duration>36</duration>
        <type>quarter</type>
        <dot/>
        <accidental/>
        <lyric>
          <text>Ah </text>
        </lyric>
      </note>
      <note>
        <pitch>
          <step>D</step>
          <octave>5</octave>
        </pitch>
        <duration>18</duration>
        <type>eighth</type>
        <dot/>
        <accidental/>
        <lyric>
          <text></text>
        </lyric>
      </note>
      <note>
        <pitch>
          <step>C</step>
          <octave>5</octave>
          <alter>1</alter>
        </pitch>
        <duration>6</duration>
        <type>16th</type>
        <accidental>sharp</accidental>
        <lyric>
          <text></text>
        </lyric>
      </note>
      <note>
        <rest/>
        <duration>6</duration>
        <type>16th</type>
        <lyric>
          <text></text>
        </lyric>
      </note>
      <note>
        <pitch>
          <step>D</step>
          <octave>5</octave>
        </pitch>
        <duration>6</duration>
        <type>16th</type>
        <accidental/>
        <lyric>
          <text>sen </text>
        </lyric>
      </note>
      <note>
        <pitch>
          <step>C</step>
          <octave>5</octave>
          <alter>1</alter>
        </pitch>
        <duration>6</duration>
        <type>16th</type>
        <accidental>sharp</accidental>
        <lyric>
          <text></text>
        </lyric>
      </note>
      <note>
        <pitch>
          <step>D</step>
          <octave>5</octave>
        </pitch>
        <duration>6</duration>
        <type>16th</type>
        <accidental/>
        <lyric>
          <text>ba</text>
        </lyric>
      </note>
      <note>
        <pitch>
          <step>E</step>
          <octave>5</octave>
        </pitch>
        <duration>24</duration>
        <type>quarter</type>
        <accidental/>
        <lyric>
          <text>na </text>
        </lyric>
      </note>
      <note>
        <rest/>
        <duration>12</duration>
        <type>eighth</type>
        <lyric>
          <text></text>
        </lyric>
      </note>
    </measure>
    <measure number="20">
      <note>
        <pitch>
          <step>D</step>
          <octave>5</octave>
        </pitch>
        <duration>12</duration>
        <type>eighth</type>
        <accidental/>
        <lyric>
          <text>et</text>
        </lyric>
      </note>
      <note>
        <pitch>
          <step>C</step>
          <octave>5</octave>
          <alter>1</alter>
        </pitch>
        <duration>6</duration>
        <type>16th</type>
        <accidental>sharp</accidental>
        <lyric>
          <text></text>
        </lyric>
      </note>
      <note>
        <pitch>
          <step>D</step>
          <octave>5</octave>
        </pitch>
        <duration>6</duration>
        <type>16th</type>
        <accidental/>
        <lyric>
          <text></text>
        </lyric>
      </note>
      <note>
        <pitch>
          <step>E</step>
          <octave>5</octave>
        </pitch>
        <duration>6</duration>
        <type>16th</type>
        <accidental/>
        <lyric>
          <text></text>
        </lyric>
      </note>
      <note>
        <pitch>
          <step>F</step>
          <octave>5</octave>
          <alter>1</alter>
        </pitch>
        <duration>6</duration>
        <type>16th</type>
        <accidental>sharp</accidental>
        <lyric>
          <text></text>
        </lyric>
      </note>
      <note>
        <pitch>
          <step>G</step>
          <octave>5</octave>
        </pitch>
        <duration>18</duration>
        <type>eighth</type>
        <dot/>
        <accidental/>
        <lyric>
          <text></text>
        </lyric>
      </note>
      <note>
        <pitch>
          <step>F</step>
          <octave>5</octave>
          <alter>1</alter>
        </pitch>
        <duration>6</duration>
        <type>16th</type>
        <accidental>sharp</accidental>
        <lyric>
          <text></text>
        </lyric>
      </note>
      <note>
        <pitch>
          <step>G</step>
          <octave>5</octave>
        </pitch>
        <duration>6</duration>
        <type>16th</type>
        <accidental/>
        <lyric>
          <text>me</text>
        </lyric>
      </note>
      <note>
        <pitch>
          <step>F</step>
          <octave>5</octave>
          <alter>1</alter>
        </pitch>
        <duration>6</duration>
        <type>16th</type>
        <accidental>sharp</accidental>
        <lyric>
          <text></text>
        </lyric>
      </note>
      <note>
        <pitch>
          <step>F</step>
          <octave>5</octave>
          <alter>1</alter>
        </pitch>
        <duration>6</duration>
        <type>16th</type>
        <accidental>sharp</accidental>
        <lyric>
          <text>ye</text>
        </lyric>
      </note>
      <note>
        <pitch>
          <step>E</step>
          <octave>5</octave>
        </pitch>
        <duration>6</duration>
        <type>16th</type>
        <accidental/>
        <lyric>
          <text></text>
        </lyric>
      </note>
      <note>
        <pitch>
          <step>E</step>
          <octave>5</octave>
        </pitch>
        <duration>24</duration>
        <type>quarter</type>
        <accidental/>
        <lyric>
          <text>cek </text>
        </lyric>
      </note>
      <note>
        <rest/>
        <duration>12</duration>
        <type>eighth</type>
        <lyric>
          <text></text>
        </lyric>
      </note>
    </measure>
    <measure number="21">
      <note>
        <pitch>
          <step>G</step>
          <octave>5</octave>
        </pitch>
        <duration>12</duration>
        <type>eighth</type>
        <accidental/>
        <lyric>
          <text>rah</text>
        </lyric>
      </note>
      <note>
        <pitch>
          <step>F</step>
          <octave>5</octave>
          <alter>1</alter>
        </pitch>
        <duration>6</duration>
        <type>16th</type>
        <accidental>sharp</accidental>
        <lyric>
          <text></text>
        </lyric>
      </note>
      <note>
        <pitch>
          <step>E</step>
          <octave>5</octave>
        </pitch>
        <duration>6</duration>
        <type>16th</type>
        <accidental/>
        <lyric>
          <text></text>
        </lyric>
      </note>
      <note>
        <pitch>
          <step>D</step>
          <octave>5</octave>
        </pitch>
        <duration>6</duration>
        <type>16th</type>
        <accidental/>
        <lyric>
          <text></text>
        </lyric>
      </note>
      <note>
        <pitch>
          <step>C</step>
          <octave>5</octave>
          <alter>1</alter>
        </pitch>
        <duration>6</duration>
        <type>16th</type>
        <accidental>sharp</accidental>
        <lyric>
          <text></text>
        </lyric>
      </note>
      <note>
        <pitch>
          <step>B</step>
          <octave>4</octave>
        </pitch>
        <duration>24</duration>
        <type>quarter</type>
        <accidental/>
        <lyric>
          <text></text>
        </lyric>
      </note>
      <note>
        <pitch>
          <step>C</step>
          <octave>5</octave>
          <alter>1</alter>
        </pitch>
        <duration>6</duration>
        <type>16th</type>
        <accidental>sharp</accidental>
        <lyric>
          <text></text>
        </lyric>
      </note>
      <note>
        <pitch>
          <step>D</step>
          <octave>5</octave>
        </pitch>
        <duration>6</duration>
        <type>16th</type>
        <accidental/>
        <lyric>
          <text></text>
        </lyric>
      </note>
      <note>
        <pitch>
          <step>C</step>
          <octave>5</octave>
          <alter>1</alter>
        </pitch>
        <duration>12</duration>
        <type>eighth</type>
        <accidental>sharp</accidental>
        <lyric>
          <text></text>
        </lyric>
      </note>
      <note>
        <pitch>
          <step>D</step>
          <octave>5</octave>
        </pitch>
        <duration>6</duration>
        <type>16th</type>
        <accidental/>
        <lyric>
          <text></text>
        </lyric>
      </note>
      <note>
        <pitch>
          <step>E</step>
          <octave>5</octave>
        </pitch>
        <duration>6</duration>
        <type>16th</type>
        <accidental/>
        <lyric>
          <text></text>
        </lyric>
      </note>
      <note>
        <pitch>
          <step>D</step>
          <octave>5</octave>
        </pitch>
        <duration>12</duration>
        <type>eighth</type>
        <accidental/>
        <lyric>
          <text></text>
        </lyric>
      </note>
      <note>
        <pitch>
          <step>E</step>
          <octave>5</octave>
          <alter>1</alter>
        </pitch>
        <duration>12</duration>
        <type>eighth</type>
        <accidental>sharp</accidental>
        <lyric>
          <text></text>
        </lyric>
      </note>
    </measure>
    <measure number="22">
      <note>
        <pitch>
          <step>F</step>
          <octave>5</octave>
          <alter>1</alter>
        </pitch>
        <duration>36</duration>
        <type>quarter</type>
        <dot/>
        <accidental>sharp</accidental>
        <lyric>
          <text></text>
        </lyric>
      </note>
      <note>
        <pitch>
          <step>F</step>
          <octave>5</octave>
          <alter>1</alter>
        </pitch>
        <duration>12</duration>
        <type>eighth</type>
        <accidental>sharp</accidental>
        <lyric>
          <text></text>
        </lyric>
      </note>
      <note>
        <pitch>
          <step>E</step>
          <octave>5</octave>
          <alter>1</alter>
        </pitch>
        <duration>12</duration>
        <type>eighth</type>
        <accidental>sharp</accidental>
        <lyric>
          <text></text>
        </lyric>
      </note>
      <note>
        <pitch>
          <step>F</step>
          <octave>5</octave>
          <alter>1</alter>
        </pitch>
        <duration>12</duration>
        <type>eighth</type>
        <accidental>sharp</accidental>
        <lyric>
          <text>mü</text>
        </lyric>
      </note>
      <note>
        <pitch>
          <step>A</step>
          <octave>5</octave>
        </pitch>
        <duration>12</duration>
        <type>eighth</type>
        <accidental/>
        <lyric>
          <text>te</text>
        </lyric>
      </note>
      <note>
        <pitch>
          <step>G</step>
          <octave>5</octave>
        </pitch>
        <duration>12</duration>
        <type>eighth</type>
        <accidental/>
        <lyric>
          <text>rah</text>
        </lyric>
      </note>
      <note>
        <pitch>
          <step>F</step>
          <octave>5</octave>
        </pitch>
        <duration>12</duration>
        <type>eighth</type>
        <accidental/>
        <lyric>
          <text></text>
        </lyric>
      </note>
      <note>
        <pitch>
          <step>E</step>
          <octave>5</octave>
        </pitch>
        <duration>12</duration>
        <type>eighth</type>
        <accidental/>
        <lyric>
          <text></text>
        </lyric>
      </note>
    </measure>
    <measure number="23">
      <note>
        <pitch>
          <step>D</step>
          <octave>5</octave>
        </pitch>
        <duration>24</duration>
        <type>quarter</type>
        <accidental/>
        <lyric>
          <text>hüm</text>
        </lyric>
      </note>
      <note>
        <pitch>
          <step>C</step>
          <octave>5</octave>
          <alter>1</alter>
        </pitch>
        <duration>12</duration>
        <type>eighth</type>
        <accidental>sharp</accidental>
        <lyric>
          <text></text>
        </lyric>
      </note>
      <note>
        <pitch>
          <step>D</step>
          <octave>5</octave>
        </pitch>
        <duration>6</duration>
        <type>16th</type>
        <accidental/>
        <lyric>
          <text>ler </text>
        </lyric>
      </note>
      <note>
        <pitch>
          <step>C</step>
          <octave>5</octave>
          <alter>1</alter>
        </pitch>
        <duration>6</duration>
        <type>16th</type>
        <accidental>sharp</accidental>
        <lyric>
          <text></text>
        </lyric>
      </note>
      <note>
        <pitch>
          <step>D</step>
          <octave>5</octave>
        </pitch>
        <duration>6</duration>
        <type>16th</type>
        <accidental/>
        <lyric>
          <text></text>
        </lyric>
      </note>
      <note>
        <pitch>
          <step>C</step>
          <octave>5</octave>
          <alter>1</alter>
        </pitch>
        <duration>6</duration>
        <type>16th</type>
        <accidental>sharp</accidental>
        <lyric>
          <text></text>
        </lyric>
      </note>
      <note>
        <pitch>
          <step>C</step>
          <octave>5</octave>
          <alter>1</alter>
        </pitch>
        <duration>6</duration>
        <type>16th</type>
        <accidental>sharp</accidental>
        <lyric>
          <text>e</text>
        </lyric>
      </note>
      <note>
        <pitch>
          <step>B</step>
          <octave>4</octave>
        </pitch>
        <duration>6</duration>
        <type>16th</type>
        <accidental/>
        <lyric>
          <text></text>
        </lyric>
      </note>
      <note>
        <pitch>
          <step>B</step>
          <octave>4</octave>
        </pitch>
        <duration>6</duration>
        <type>16th</type>
        <accidental/>
        <lyric>
          <text></text>
        </lyric>
      </note>
      <note>
        <pitch>
          <step>A</step>
          <octave>4</octave>
          <alter>1</alter>
        </pitch>
        <duration>6</duration>
        <type>16th</type>
        <accidental>sharp</accidental>
        <lyric>
          <text></text>
        </lyric>
      </note>
      <note>
        <pitch>
          <step>B</step>
          <octave>4</octave>
          <alter>-0.5</alter>
        </pitch>
        <duration>24</duration>
        <type>quarter</type>
        <accidental>quarter-flat</accidental>
        <lyric>
          <text>dip </text>
        </lyric>
      </note>
      <note>
        <rest/>
        <duration>12</duration>
        <type>eighth</type>
        <lyric>
          <text></text>
        </lyric>
      </note>
    </measure>
    <measure number="24">
      <note>
        <pitch>
          <step>G</step>
          <octave>5</octave>
        </pitch>
        <duration>24</duration>
        <type>quarter</type>
        <accidental/>
        <lyric>
          <text>Ca</text>
        </lyric>
      </note>
      <note>
        <pitch>
          <step>F</step>
          <octave>5</octave>
        </pitch>
        <duration>6</duration>
        <type>16th</type>
        <accidental/>
        <lyric>
          <text></text>
        </lyric>
      </note>
      <note>
        <pitch>
          <step>E</step>
          <octave>5</octave>
        </pitch>
        <duration>6</duration>
        <type>16th</type>
        <accidental/>
        <lyric>
          <text></text>
        </lyric>
      </note>
      <note>
        <pitch>
          <step>E</step>
          <octave>5</octave>
        </pitch>
        <duration>18</duration>
        <type>eighth</type>
        <dot/>
        <accidental/>
        <lyric>
          <text>nım </text>
        </lyric>
      </note>
      <note>
        <pitch>
          <step>D</step>
          <octave>5</octave>
        </pitch>
        <duration>6</duration>
        <type>16th</type>
        <accidental/>
        <lyric>
          <text></text>
        </lyric>
      </note>
      <note>
        <pitch>
          <step>D</step>
          <octave>5</octave>
        </pitch>
        <duration>6</duration>
        <type>16th</type>
        <accidental/>
        <lyric>
          <text>yel </text>
        </lyric>
      </note>
      <note>
        <pitch>
          <step>E</step>
          <octave>5</octave>
        </pitch>
        <duration>6</duration>
        <type>16th</type>
        <accidental/>
        <lyric>
          <text></text>
        </lyric>
      </note>
      <note>
        <pitch>
          <step>E</step>
          <octave>5</octave>
        </pitch>
        <duration>6</duration>
        <type>16th</type>
        <accidental/>
        <lyric>
          <text>le </text>
        </lyric>
      </note>
      <note>
        <pitch>
          <step>D</step>
          <octave>5</octave>
        </pitch>
        <duration>6</duration>
        <type>16th</type>
        <accidental/>
        <lyric>
          <text></text>
        </lyric>
      </note>
      <note>
        <pitch>
          <step>D</step>
          <octave>5</octave>
        </pitch>
        <duration>24</duration>
        <type>quarter</type>
        <accidental/>
        <lyric>
          <text>le </text>
        </lyric>
      </note>
      <note>
        <pitch>
          <step>C</step>
          <octave>5</octave>
        </pitch>
        <duration>6</duration>
        <type>16th</type>
        <accidental/>
        <lyric>
          <text>lel </text>
        </lyric>
      </note>
      <note>
        <pitch>
          <step>B</step>
          <octave>4</octave>
          <alter>-0.5</alter>
        </pitch>
        <duration>6</duration>
        <type>16th</type>
        <accidental>quarter-flat</accidental>
        <lyric>
          <text></text>
        </lyric>
      </note>
    </measure>
    <measure number="25">
      <note>
        <pitch>
          <step>A</step>
          <octave>4</octave>
        </pitch>
        <duration>18</duration>
        <type>eighth</type>
        <dot/>
        <accidental/>
        <lyric>
          <text>lel </text>
        </lyric>
      </note>
      <note>
        <pitch>
          <step>B</step>
          <octave>4</octave>
          <alter>-0.5</alter>
        </pitch>
        <duration>6</duration>
        <type>16th</type>
        <accidental>quarter-flat</accidental>
        <lyric>
          <text>le </text>
        </lyric>
      </note>
      <note>
        <pitch>
          <step>C</step>
          <octave>5</octave>
        </pitch>
        <duration>12</duration>
        <type>eighth</type>
        <accidental/>
        <lyric>
          <text>lel </text>
        </lyric>
      </note>
      <note>
        <pitch>
          <step>D</step>
          <octave>5</octave>
        </pitch>
        <duration>18</duration>
        <type>eighth</type>
        <dot/>
        <accidental/>
        <lyric>
          <text>lel </text>
        </lyric>
      </note>
      <note>
        <pitch>
          <step>C</step>
          <octave>5</octave>
        </pitch>
        <duration>6</duration>
        <type>16th</type>
        <accidental/>
        <lyric>
          <text></text>
        </lyric>
      </note>
      <note>
        <pitch>
          <step>D</step>
          <octave>5</octave>
        </pitch>
        <duration>6</duration>
        <type>16th</type>
        <accidental/>
        <lyric>
          <text>lel </text>
        </lyric>
      </note>
      <note>
        <pitch>
          <step>C</step>
          <octave>5</octave>
        </pitch>
        <duration>12</duration>
        <type>eighth</type>
        <accidental/>
        <lyric>
          <text></text>
        </lyric>
      </note>
      <note>
        <pitch>
          <step>B</step>
          <octave>4</octave>
          <alter>-0.5</alter>
        </pitch>
        <duration>6</duration>
        <type>16th</type>
        <accidental>quarter-flat</accidental>
        <lyric>
          <text></text>
        </lyric>
      </note>
      <note>
        <pitch>
          <step>B</step>
          <octave>4</octave>
          <alter>-0.5</alter>
        </pitch>
        <duration>24</duration>
        <type>quarter</type>
        <accidental>quarter-flat</accidental>
        <lyric>
          <text>li </text>
        </lyric>
      </note>
      <note>
        <rest/>
        <duration>12</duration>
        <type>eighth</type>
        <lyric>
          <text></text>
        </lyric>
      </note>
    </measure>
    <measure number="26">
      <note>
        <pitch>
          <step>D</step>
          <octave>5</octave>
        </pitch>
        <duration>24</duration>
        <type>quarter</type>
        <accidental/>
        <lyric>
          <text>öm</text>
        </lyric>
      </note>
      <note>
        <pitch>
          <step>C</step>
          <octave>5</octave>
        </pitch>
        <duration>6</duration>
        <type>16th</type>
        <accidental/>
        <lyric>
          <text></text>
        </lyric>
      </note>
      <note>
        <pitch>
          <step>B</step>
          <octave>4</octave>
          <alter>-0.5</alter>
        </pitch>
        <duration>6</duration>
        <type>16th</type>
        <accidental>quarter-flat</accidental>
        <lyric>
          <text></text>
        </lyric>
      </note>
      <note>
        <pitch>
          <step>A</step>
          <octave>4</octave>
        </pitch>
        <duration>18</duration>
        <type>eighth</type>
        <dot/>
        <accidental/>
        <lyric>
          <text>rüm </text>
        </lyric>
      </note>
      <note>
        <pitch>
          <step>G</step>
          <octave>4</octave>
        </pitch>
        <duration>6</duration>
        <type>16th</type>
        <accidental/>
        <lyric>
          <text></text>
        </lyric>
      </note>
      <note>
        <pitch>
          <step>G</step>
          <octave>4</octave>
        </pitch>
        <duration>6</duration>
        <type>16th</type>
        <accidental/>
        <lyric>
          <text></text>
        </lyric>
      </note>
      <note>
        <pitch>
          <step>C</step>
          <octave>5</octave>
        </pitch>
        <duration>6</duration>
        <type>16th</type>
        <accidental/>
        <lyric>
          <text>te </text>
        </lyric>
      </note>
      <note>
        <pitch>
          <step>B</step>
          <octave>4</octave>
          <alter>-0.5</alter>
        </pitch>
        <duration>6</duration>
        <type>16th</type>
        <accidental>quarter-flat</accidental>
        <lyric>
          <text>re </text>
        </lyric>
      </note>
      <note>
        <pitch>
          <step>C</step>
          <octave>5</octave>
        </pitch>
        <duration>6</duration>
        <type>16th</type>
        <accidental/>
        <lyric>
          <text></text>
        </lyric>
      </note>
      <note>
        <pitch>
          <step>D</step>
          <octave>5</octave>
        </pitch>
        <duration>24</duration>
        <type>quarter</type>
        <accidental/>
        <lyric>
          <text>lel </text>
        </lyric>
      </note>
      <note>
        <rest/>
        <duration>12</duration>
        <type>eighth</type>
        <lyric>
          <text></text>
        </lyric>
      </note>
    </measure>
    <measure number="27">
      <note>
        <pitch>
          <step>A</step>
          <octave>4</octave>
        </pitch>
        <duration>18</duration>
        <type>eighth</type>
        <dot/>
        <accidental/>
        <lyric>
          <text>lel </text>
        </lyric>
      </note>
      <note>
        <pitch>
          <step>B</step>
          <octave>4</octave>
          <alter>-0.5</alter>
        </pitch>
        <duration>6</duration>
        <type>16th</type>
        <accidental>quarter-flat</accidental>
        <lyric>
          <text></text>
        </lyric>
      </note>
      <note>
        <pitch>
          <step>C</step>
          <octave>5</octave>
        </pitch>
        <duration>12</duration>
        <type>eighth</type>
        <accidental/>
        <lyric>
          <text>lel </text>
        </lyric>
      </note>
      <note>
        <pitch>
          <step>D</step>
          <octave>5</octave>
        </pitch>
        <duration>18</duration>
        <type>eighth</type>
        <dot/>
        <accidental/>
        <lyric>
          <text>lel </text>
        </lyric>
      </note>
      <note>
        <pitch>
          <step>C</step>
          <octave>5</octave>
        </pitch>
        <duration>6</duration>
        <type>16th</type>
        <accidental/>
        <lyric>
          <text></text>
        </lyric>
      </note>
      <note>
        <pitch>
          <step>C</step>
          <octave>5</octave>
        </pitch>
        <duration>6</duration>
        <type>16th</type>
        <accidental/>
        <lyric>
          <text>lel </text>
        </lyric>
      </note>
      <note>
        <pitch>
          <step>B</step>
          <octave>4</octave>
          <alter>-0.5</alter>
        </pitch>
        <duration>12</duration>
        <type>eighth</type>
        <accidental>quarter-flat</accidental>
        <lyric>
          <text></text>
        </lyric>
      </note>
      <note>
        <pitch>
          <step>A</step>
          <octave>4</octave>
        </pitch>
        <duration>6</duration>
        <type>16th</type>
        <accidental/>
        <lyric>
          <text></text>
        </lyric>
      </note>
      <note>
        <pitch>
          <step>A</step>
          <octave>4</octave>
        </pitch>
        <duration>24</duration>
        <type>quarter</type>
        <accidental/>
        <lyric>
          <text></text>
        </lyric>
      </note>
      <note>
        <rest/>
        <duration>12</duration>
        <type>eighth</type>
        <lyric>
          <text></text>
        </lyric>
      </note>
    </measure>
    <measure number="28">
      <note>
        <pitch>
          <step>A</step>
          <octave>4</octave>
        </pitch>
        <duration>24</duration>
        <type>quarter</type>
        <accidental/>
        <lyric>
          <text>ya </text>
        </lyric>
      </note>
      <note>
        <pitch>
          <step>G</step>
          <octave>4</octave>
        </pitch>
        <duration>6</duration>
        <type>16th</type>
        <accidental/>
        <lyric>
          <text>lâ </text>
        </lyric>
      </note>
      <note>
        <pitch>
          <step>F</step>
          <octave>4</octave>
          <alter>1</alter>
        </pitch>
        <duration>6</duration>
        <type>16th</type>
        <accidental>sharp</accidental>
        <lyric>
          <text></text>
        </lyric>
      </note>
      <note>
        <pitch>
          <step>E</step>
          <octave>4</octave>
        </pitch>
        <duration>24</duration>
        <type>quarter</type>
        <accidental/>
        <lyric>
          <text>yel </text>
        </lyric>
      </note>
      <note>
        <pitch>
          <step>D</step>
          <octave>4</octave>
        </pitch>
        <duration>24</duration>
        <type>quarter</type>
        <accidental/>
        <lyric>
          <text>lel </text>
        </lyric>
      </note>
      <note>
        <pitch>
          <step>G</step>
          <octave>4</octave>
        </pitch>
        <duration>12</duration>
        <type>eighth</type>
        <accidental/>
        <lyric>
          <text>li </text>
        </lyric>
      </note>
      <note>
        <pitch>
          <step>G</step>
          <octave>4</octave>
        </pitch>
        <duration>12</duration>
        <type>eighth</type>
        <accidental/>
        <lyric>
          <text></text>
        </lyric>
      </note>
      <note>
        <pitch>
          <step>A</step>
          <octave>4</octave>
        </pitch>
        <duration>12</duration>
        <type>eighth</type>
        <accidental/>
        <lyric>
          <text></text>
        </lyric>
      </note>
    </measure>
    <measure number="29">
      <note>
        <pitch>
          <step>B</step>
          <octave>4</octave>
          <alter>-0.5</alter>
        </pitch>
        <duration>12</duration>
        <type>eighth</type>
        <accidental>quarter-flat</accidental>
        <lyric>
          <text>hey </text>
        </lyric>
      </note>
      <note>
        <pitch>
          <step>C</step>
          <octave>5</octave>
        </pitch>
        <duration>12</duration>
        <type>eighth</type>
        <accidental/>
        <lyric>
          <text></text>
        </lyric>
      </note>
      <note>
        <pitch>
          <step>D</step>
          <octave>5</octave>
        </pitch>
        <duration>12</duration>
        <type>eighth</type>
        <accidental/>
        <lyric>
          <text></text>
        </lyric>
      </note>
      <note>
        <pitch>
          <step>E</step>
          <octave>5</octave>
        </pitch>
        <duration>12</duration>
        <type>eighth</type>
        <accidental/>
        <lyric>
          <text></text>
        </lyric>
      </note>
      <note>
        <pitch>
          <step>D</step>
          <octave>5</octave>
        </pitch>
        <duration>12</duration>
        <type>eighth</type>
        <accidental/>
        <lyric>
          <text></text>
        </lyric>
      </note>
      <note>
        <pitch>
          <step>C</step>
          <octave>5</octave>
        </pitch>
        <duration>12</duration>
        <type>eighth</type>
        <accidental/>
        <lyric>
          <text></text>
        </lyric>
      </note>
      <note>
        <pitch>
          <step>B</step>
          <octave>4</octave>
          <alter>-0.5</alter>
        </pitch>
        <duration>12</duration>
        <type>eighth</type>
        <accidental>quarter-flat</accidental>
        <lyric>
          <text></text>
        </lyric>
      </note>
      <note>
        <pitch>
          <step>A</step>
          <octave>4</octave>
        </pitch>
        <duration>12</duration>
        <type>eighth</type>
        <accidental/>
        <lyric>
          <text></text>
        </lyric>
      </note>
      <note>
        <pitch>
          <step>G</step>
          <octave>4</octave>
        </pitch>
        <duration>12</duration>
        <type>eighth</type>
        <accidental/>
        <lyric>
          <text></text>
        </lyric>
      </note>
      <note>
        <pitch>
          <step>E</step>
          <octave>5</octave>
        </pitch>
        <duration>12</duration>
        <type>eighth</type>
        <accidental/>
        <lyric>
          <text></text>
        </lyric>
      </note>
    </measure>
    <measure number="30">
      <note>
        <pitch>
          <step>D</step>
          <octave>5</octave>
        </pitch>
        <duration>36</duration>
        <type>quarter</type>
        <dot/>
        <accidental/>
        <lyric>
          <text>Yâr </text>
        </lyric>
      </note>
      <note>
        <pitch>
          <step>G</step>
          <octave>5</octave>
        </pitch>
        <duration>18</duration>
        <type>eighth</type>
        <dot/>
        <accidental/>
        <lyric>
          <text>yâr </text>
        </lyric>
      </note>
      <note>
        <pitch>
          <step>F</step>
          <octave>5</octave>
        </pitch>
        <duration>6</duration>
        <type>16th</type>
        <accidental/>
        <lyric>
          <text></text>
        </lyric>
      </note>
      <note>
        <pitch>
          <step>F</step>
          <octave>5</octave>
        </pitch>
        <duration>6</duration>
        <type>16th</type>
        <accidental/>
        <lyric>
          <text>gi</text>
        </lyric>
      </note>
      <note>
        <pitch>
          <step>E</step>
          <octave>5</octave>
        </pitch>
        <duration>6</duration>
        <type>16th</type>
        <accidental/>
        <lyric>
          <text></text>
        </lyric>
      </note>
      <note>
        <pitch>
          <step>E</step>
          <octave>5</octave>
        </pitch>
        <duration>6</duration>
        <type>16th</type>
        <accidental/>
        <lyric>
          <text>bi </text>
        </lyric>
      </note>
      <note>
        <pitch>
          <step>D</step>
          <octave>5</octave>
        </pitch>
        <duration>6</duration>
        <type>16th</type>
        <accidental/>
        <lyric>
          <text></text>
        </lyric>
      </note>
      <note>
        <pitch>
          <step>D</step>
          <octave>5</octave>
        </pitch>
        <duration>6</duration>
        <type>16th</type>
        <accidental/>
        <lyric>
          <text>fer</text>
        </lyric>
      </note>
      <note>
        <pitch>
          <step>C</step>
          <octave>5</octave>
        </pitch>
        <duration>6</duration>
        <type>16th</type>
        <accidental/>
        <lyric>
          <text></text>
        </lyric>
      </note>
      <note>
        <pitch>
          <step>B</step>
          <octave>4</octave>
          <alter>-0.5</alter>
        </pitch>
        <duration>6</duration>
        <type>16th</type>
        <accidental>quarter-flat</accidental>
        <lyric>
          <text></text>
        </lyric>
      </note>
      <note>
        <pitch>
          <step>A</step>
          <octave>4</octave>
        </pitch>
        <duration>6</duration>
        <type>16th</type>
        <accidental/>
        <lyric>
          <text></text>
        </lyric>
      </note>
      <note>
        <pitch>
          <step>G</step>
          <octave>4</octave>
        </pitch>
        <duration>12</duration>
        <type>eighth</type>
        <accidental/>
        <lyric>
          <text></text>
        </lyric>
      </note>
    </measure>
    <measure number="31">
      <note>
        <pitch>
          <step>G</step>
          <octave>4</octave>
        </pitch>
        <duration>36</duration>
        <type>quarter</type>
        <dot/>
        <accidental/>
        <lyric>
          <text>yad </text>
        </lyric>
      </note>
      <note>
        <pitch>
          <step>A</step>
          <octave>4</octave>
        </pitch>
        <duration>12</duration>
        <type>eighth</type>
        <accidental/>
        <lyric>
          <text>e</text>
        </lyric>
      </note>
      <note>
        <pitch>
          <step>G</step>
          <octave>4</octave>
        </pitch>
        <duration>6</duration>
        <type>16th</type>
        <accidental/>
        <lyric>
          <text></text>
        </lyric>
      </note>
      <note>
        <pitch>
          <step>A</step>
          <octave>4</octave>
        </pitch>
        <duration>6</duration>
        <type>16th</type>
        <accidental/>
        <lyric>
          <text></text>
        </lyric>
      </note>
      <note>
        <pitch>
          <step>B</step>
          <octave>4</octave>
          <alter>-0.5</alter>
        </pitch>
        <duration>6</duration>
        <type>16th</type>
        <accidental>quarter-flat</accidental>
        <lyric>
          <text>de</text>
        </lyric>
      </note>
      <note>
        <pitch>
          <step>A</step>
          <octave>4</octave>
        </pitch>
        <duration>6</duration>
        <type>16th</type>
        <accidental/>
        <lyric>
          <text></text>
        </lyric>
      </note>
      <note>
        <pitch>
          <step>B</step>
          <octave>4</octave>
          <alter>-0.5</alter>
        </pitch>
        <duration>6</duration>
        <type>16th</type>
        <accidental>quarter-flat</accidental>
        <lyric>
          <text></text>
        </lyric>
      </note>
      <note>
        <pitch>
          <step>A</step>
          <octave>4</octave>
        </pitch>
        <duration>6</duration>
        <type>16th</type>
        <accidental/>
        <lyric>
          <text></text>
        </lyric>
      </note>
      <note>
        <pitch>
          <step>G</step>
          <octave>4</octave>
        </pitch>
        <duration>24</duration>
        <type>quarter</type>
        <accidental/>
        <lyric>
          <text>yim  </text>
        </lyric>
      </note>
      <note>
        <rest/>
        <duration>12</duration>
        <type>eighth</type>
        <lyric>
          <text></text>
        </lyric>
      </note>
    </measure>
    <measure number="32"/>
  </part>
</score-partwise>
