<?xml version='1.0' encoding='UTF-8'?>
<!DOCTYPE score-partwise PUBLIC "-//Recordare//DTD MusicXML 3.0 Partwise//EN" "http://www.musicxml.org/dtds/partwise.dtd">
<score-partwise version="3.0">
  <work>
    <work-title>Sordum Sari</work-title>
  </work>
  <part-list>
    <score-part id="P1">
      <part-name>Music</part-name>
    </score-part>
  </part-list>
  <part id="P1">
    <measure number="1">
      <direction placement="above">
        <direction-type>
          <words default-y="35">Makam: Segah, Usul: Sofyan</words>
        </direction-type>
        <sound tempo="60.0"/>
      </direction>
      <attributes>
        <divisions>24</divisions>
        <time>
          <beats>4</beats>
          <beat-type>4</beat-type>
        </time>
        <key>
          <key-step>F</key-step>
          <key-accidental>sharp</key-accidental>
          <key-step>E</key-step>
          <key-accidental>quarter-flat</key-accidental>
          <key-step>B</key-step>
          <key-accidental>quarter-flat</key-accidental>
        </key>
      </attributes>
      <note>
        <pitch>
          <step>B</step>
          <octave>4</octave>
          <alter>-0.5</alter>
        </pitch>
        <duration>12</duration>
        <type>eighth</type>
        <accidental>quarter-flat</accidental>
        <lyric>
          <text>Sor</text>
        </lyric>
      </note>
      <note>
        <pitch>
          <step>B</step>
          <octave>4</octave>
          <alter>-0.5</alter>
        </pitch>
        <duration>6</duration>
        <type>16th</type>
        <accidental>quarter-flat</accidental>
        <lyric>
          <text>dum </text>
        </lyric>
      </note>
      <note>
        <pitch>
          <step>C</step>
          <octave>5</octave>
        </pitch>
        <duration>6</duration>
        <type>16th</type>
        <accidental/>
        <lyric>
          <text></text>
        </lyric>
      </note>
      <note>
        <pitch>
          <step>D</step>
          <octave>5</octave>
        </pitch>
        <duration>12</duration>
        <type>eighth</type>
        <accidental/>
        <lyric>
          <text>sa</text>
        </lyric>
      </note>
      <note>
        <pitch>
          <step>D</step>
          <octave>5</octave>
        </pitch>
        <duration>12</duration>
        <type>eighth</type>
        <accidental/>
        <lyric>
          <text>rı </text>
        </lyric>
      </note>
      <note>
        <pitch>
          <step>E</step>
          <octave>5</octave>
          <alter>-0.5</alter>
        </pitch>
        <duration>6</duration>
        <type>16th</type>
        <accidental>quarter-flat</accidental>
        <lyric>
          <text>çi</text>
        </lyric>
      </note>
      <note>
        <pitch>
          <step>D</step>
          <octave>5</octave>
        </pitch>
        <duration>6</duration>
        <type>16th</type>
        <accidental/>
        <lyric>
          <text></text>
        </lyric>
      </note>
      <note>
        <pitch>
          <step>E</step>
          <octave>5</octave>
          <alter>-0.5</alter>
        </pitch>
        <duration>6</duration>
        <type>16th</type>
        <accidental>quarter-flat</accidental>
        <lyric>
          <text>çe</text>
        </lyric>
      </note>
      <note>
        <pitch>
          <step>F</step>
          <octave>5</octave>
          <alter>1</alter>
        </pitch>
        <duration>6</duration>
        <type>16th</type>
        <accidental>sharp</accidental>
        <lyric>
          <text></text>
        </lyric>
      </note>
      <note>
        <pitch>
          <step>D</step>
          <octave>5</octave>
        </pitch>
        <duration>24</duration>
        <type>quarter</type>
        <accidental/>
        <lyric>
          <text>ğe </text>
        </lyric>
      </note>
    </measure>
    <measure number="2">
      <note>
        <pitch>
          <step>G</step>
          <octave>5</octave>
        </pitch>
        <duration>12</duration>
        <type>eighth</type>
        <accidental/>
        <lyric>
          <text>an</text>
        </lyric>
      </note>
      <note>
        <pitch>
          <step>G</step>
          <octave>5</octave>
        </pitch>
        <duration>12</duration>
        <type>eighth</type>
        <accidental/>
        <lyric>
          <text>nen </text>
        </lyric>
      </note>
      <note>
        <pitch>
          <step>F</step>
          <octave>5</octave>
          <alter>1</alter>
        </pitch>
        <duration>12</duration>
        <type>eighth</type>
        <accidental>sharp</accidental>
        <lyric>
          <text>ba</text>
        </lyric>
      </note>
      <note>
        <pitch>
          <step>E</step>
          <octave>5</octave>
          <alter>-0.5</alter>
        </pitch>
        <duration>12</duration>
        <type>eighth</type>
        <accidental>quarter-flat</accidental>
        <lyric>
          <text>ban </text>
        </lyric>
      </note>
      <note>
        <pitch>
          <step>D</step>
          <octave>5</octave>
        </pitch>
        <duration>12</duration>
        <type>eighth</type>
        <accidental/>
        <lyric>
          <text>var </text>
        </lyric>
      </note>
      <note>
        <pitch>
          <step>D</step>
          <octave>5</octave>
        </pitch>
        <duration>6</duration>
        <type>16th</type>
        <accidental/>
        <lyric>
          <text>mı</text>
        </lyric>
      </note>
      <note>
        <pitch>
          <step>E</step>
          <octave>5</octave>
          <alter>-0.5</alter>
        </pitch>
        <duration>6</duration>
        <type>16th</type>
        <accidental>quarter-flat</accidental>
        <lyric>
          <text></text>
        </lyric>
      </note>
      <note>
        <pitch>
          <step>D</step>
          <octave>5</octave>
        </pitch>
        <duration>6</duration>
        <type>16th</type>
        <accidental/>
        <lyric>
          <text>dır  </text>
        </lyric>
      </note>
      <note>
        <pitch>
          <step>C</step>
          <octave>5</octave>
        </pitch>
        <duration>6</duration>
        <type>16th</type>
        <accidental/>
        <lyric>
          <text></text>
        </lyric>
      </note>
      <note>
        <pitch>
          <step>B</step>
          <octave>4</octave>
          <alter>-0.5</alter>
        </pitch>
        <duration>12</duration>
        <type>eighth</type>
        <accidental>quarter-flat</accidental>
        <lyric>
          <text></text>
        </lyric>
      </note>
    </measure>
    <measure number="3">
      <note>
        <pitch>
          <step>B</step>
          <octave>4</octave>
          <alter>-0.5</alter>
        </pitch>
        <duration>12</duration>
        <type>eighth</type>
        <accidental>quarter-flat</accidental>
        <lyric>
          <text>Sor</text>
        </lyric>
      </note>
      <note>
        <pitch>
          <step>B</step>
          <octave>4</octave>
          <alter>-0.5</alter>
        </pitch>
        <duration>6</duration>
        <type>16th</type>
        <accidental>quarter-flat</accidental>
        <lyric>
          <text>dum </text>
        </lyric>
      </note>
      <note>
        <pitch>
          <step>C</step>
          <octave>5</octave>
        </pitch>
        <duration>6</duration>
        <type>16th</type>
        <accidental/>
        <lyric>
          <text></text>
        </lyric>
      </note>
      <note>
        <pitch>
          <step>D</step>
          <octave>5</octave>
        </pitch>
        <duration>12</duration>
        <type>eighth</type>
        <accidental/>
        <lyric>
          <text>sa</text>
        </lyric>
      </note>
      <note>
        <pitch>
          <step>D</step>
          <octave>5</octave>
        </pitch>
        <duration>12</duration>
        <type>eighth</type>
        <accidental/>
        <lyric>
          <text>rı </text>
        </lyric>
      </note>
      <note>
        <pitch>
          <step>E</step>
          <octave>5</octave>
          <alter>-0.5</alter>
        </pitch>
        <duration>6</duration>
        <type>16th</type>
        <accidental>quarter-flat</accidental>
        <lyric>
          <text>çi</text>
        </lyric>
      </note>
      <note>
        <pitch>
          <step>D</step>
          <octave>5</octave>
        </pitch>
        <duration>6</duration>
        <type>16th</type>
        <accidental/>
        <lyric>
          <text></text>
        </lyric>
      </note>
      <note>
        <pitch>
          <step>E</step>
          <octave>5</octave>
          <alter>-0.5</alter>
        </pitch>
        <duration>6</duration>
        <type>16th</type>
        <accidental>quarter-flat</accidental>
        <lyric>
          <text>çe</text>
        </lyric>
      </note>
      <note>
        <pitch>
          <step>F</step>
          <octave>5</octave>
          <alter>1</alter>
        </pitch>
        <duration>6</duration>
        <type>16th</type>
        <accidental>sharp</accidental>
        <lyric>
          <text></text>
        </lyric>
      </note>
      <note>
        <pitch>
          <step>D</step>
          <octave>5</octave>
        </pitch>
        <duration>24</duration>
        <type>quarter</type>
        <accidental/>
        <lyric>
          <text>ğe </text>
        </lyric>
      </note>
    </measure>
    <measure number="4">
      <note>
        <pitch>
          <step>G</step>
          <octave>5</octave>
        </pitch>
        <duration>12</duration>
        <type>eighth</type>
        <accidental/>
        <lyric>
          <text>an</text>
        </lyric>
      </note>
      <note>
        <pitch>
          <step>G</step>
          <octave>5</octave>
        </pitch>
        <duration>12</duration>
        <type>eighth</type>
        <accidental/>
        <lyric>
          <text>nen </text>
        </lyric>
      </note>
      <note>
        <pitch>
          <step>F</step>
          <octave>5</octave>
          <alter>1</alter>
        </pitch>
        <duration>12</duration>
        <type>eighth</type>
        <accidental>sharp</accidental>
        <lyric>
          <text>ba</text>
        </lyric>
      </note>
      <note>
        <pitch>
          <step>E</step>
          <octave>5</octave>
          <alter>-0.5</alter>
        </pitch>
        <duration>12</duration>
        <type>eighth</type>
        <accidental>quarter-flat</accidental>
        <lyric>
          <text>ban </text>
        </lyric>
      </note>
      <note>
        <pitch>
          <step>D</step>
          <octave>5</octave>
        </pitch>
        <duration>12</duration>
        <type>eighth</type>
        <accidental/>
        <lyric>
          <text>var </text>
        </lyric>
      </note>
      <note>
        <pitch>
          <step>D</step>
          <octave>5</octave>
        </pitch>
        <duration>6</duration>
        <type>16th</type>
        <accidental/>
        <lyric>
          <text>mı</text>
        </lyric>
      </note>
      <note>
        <pitch>
          <step>E</step>
          <octave>5</octave>
          <alter>-0.5</alter>
        </pitch>
        <duration>6</duration>
        <type>16th</type>
        <accidental>quarter-flat</accidental>
        <lyric>
          <text></text>
        </lyric>
      </note>
      <note>
        <pitch>
          <step>D</step>
          <octave>5</octave>
        </pitch>
        <duration>6</duration>
        <type>16th</type>
        <accidental/>
        <lyric>
          <text>dır  </text>
        </lyric>
      </note>
      <note>
        <pitch>
          <step>C</step>
          <octave>5</octave>
        </pitch>
        <duration>6</duration>
        <type>16th</type>
        <accidental/>
        <lyric>
          <text></text>
        </lyric>
      </note>
      <note>
        <pitch>
          <step>B</step>
          <octave>4</octave>
          <alter>-0.5</alter>
        </pitch>
        <duration>12</duration>
        <type>eighth</type>
        <accidental>quarter-flat</accidental>
        <lyric>
          <text></text>
        </lyric>
      </note>
    </measure>
    <measure number="5">
      <note>
        <rest/>
        <duration>12</duration>
        <type>eighth</type>
        <lyric>
          <text></text>
        </lyric>
      </note>
      <note>
        <pitch>
          <step>E</step>
          <octave>5</octave>
          <alter>-0.5</alter>
        </pitch>
        <duration>6</duration>
        <type>16th</type>
        <accidental>quarter-flat</accidental>
        <lyric>
          <text>Çi</text>
        </lyric>
      </note>
      <note>
        <pitch>
          <step>E</step>
          <octave>5</octave>
          <alter>-0.5</alter>
        </pitch>
        <duration>6</duration>
        <type>16th</type>
        <accidental>quarter-flat</accidental>
        <lyric>
          <text>çek </text>
        </lyric>
      </note>
      <note>
        <pitch>
          <step>E</step>
          <octave>5</octave>
          <alter>-0.5</alter>
        </pitch>
        <duration>12</duration>
        <type>eighth</type>
        <accidental>quarter-flat</accidental>
        <lyric>
          <text>ey</text>
        </lyric>
      </note>
      <note>
        <pitch>
          <step>C</step>
          <octave>5</octave>
        </pitch>
        <duration>12</duration>
        <type>eighth</type>
        <accidental/>
        <lyric>
          <text>dür </text>
        </lyric>
      </note>
      <note>
        <pitch>
          <step>D</step>
          <octave>5</octave>
        </pitch>
        <duration>12</duration>
        <type>eighth</type>
        <accidental/>
        <lyric>
          <text>Der</text>
        </lyric>
      </note>
      <note>
        <pitch>
          <step>D</step>
          <octave>5</octave>
        </pitch>
        <duration>12</duration>
        <type>eighth</type>
        <accidental/>
        <lyric>
          <text>viş </text>
        </lyric>
      </note>
      <note>
        <pitch>
          <step>D</step>
          <octave>5</octave>
        </pitch>
        <duration>6</duration>
        <type>16th</type>
        <accidental/>
        <lyric>
          <text>Ba</text>
        </lyric>
      </note>
      <note>
        <pitch>
          <step>C</step>
          <octave>5</octave>
        </pitch>
        <duration>6</duration>
        <type>16th</type>
        <accidental/>
        <lyric>
          <text></text>
        </lyric>
      </note>
      <note>
        <pitch>
          <step>B</step>
          <octave>4</octave>
          <alter>-0.5</alter>
        </pitch>
        <duration>12</duration>
        <type>eighth</type>
        <accidental>quarter-flat</accidental>
        <lyric>
          <text>ba </text>
        </lyric>
      </note>
    </measure>
    <measure number="6">
      <note>
        <pitch>
          <step>C</step>
          <octave>5</octave>
        </pitch>
        <duration>12</duration>
        <type>eighth</type>
        <accidental/>
        <lyric>
          <text>an</text>
        </lyric>
      </note>
      <note>
        <pitch>
          <step>C</step>
          <octave>5</octave>
        </pitch>
        <duration>12</duration>
        <type>eighth</type>
        <accidental/>
        <lyric>
          <text>nem </text>
        </lyric>
      </note>
      <note>
        <pitch>
          <step>B</step>
          <octave>4</octave>
          <alter>-0.5</alter>
        </pitch>
        <duration>12</duration>
        <type>eighth</type>
        <accidental>quarter-flat</accidental>
        <lyric>
          <text>ba</text>
        </lyric>
      </note>
      <note>
        <pitch>
          <step>A</step>
          <octave>4</octave>
          <alter>1</alter>
        </pitch>
        <duration>12</duration>
        <type>eighth</type>
        <accidental>sharp</accidental>
        <lyric>
          <text>bam </text>
        </lyric>
      </note>
      <note>
        <pitch>
          <step>B</step>
          <octave>4</octave>
          <alter>-0.5</alter>
        </pitch>
        <duration>12</duration>
        <type>eighth</type>
        <accidental>quarter-flat</accidental>
        <lyric>
          <text>top</text>
        </lyric>
      </note>
      <note>
        <pitch>
          <step>B</step>
          <octave>4</octave>
          <alter>-0.5</alter>
        </pitch>
        <duration>12</duration>
        <type>eighth</type>
        <accidental>quarter-flat</accidental>
        <lyric>
          <text>rak</text>
        </lyric>
      </note>
      <note>
        <pitch>
          <step>B</step>
          <octave>4</octave>
          <alter>-0.5</alter>
        </pitch>
        <duration>24</duration>
        <type>quarter</type>
        <accidental>quarter-flat</accidental>
        <lyric>
          <text>tır  </text>
        </lyric>
      </note>
    </measure>
    <measure number="7">
      <note>
        <rest/>
        <duration>12</duration>
        <type>eighth</type>
        <lyric>
          <text></text>
        </lyric>
      </note>
      <note>
        <pitch>
          <step>E</step>
          <octave>5</octave>
          <alter>-0.5</alter>
        </pitch>
        <duration>6</duration>
        <type>16th</type>
        <accidental>quarter-flat</accidental>
        <lyric>
          <text>Çi</text>
        </lyric>
      </note>
      <note>
        <pitch>
          <step>E</step>
          <octave>5</octave>
          <alter>-0.5</alter>
        </pitch>
        <duration>6</duration>
        <type>16th</type>
        <accidental>quarter-flat</accidental>
        <lyric>
          <text>çek </text>
        </lyric>
      </note>
      <note>
        <pitch>
          <step>E</step>
          <octave>5</octave>
          <alter>-0.5</alter>
        </pitch>
        <duration>12</duration>
        <type>eighth</type>
        <accidental>quarter-flat</accidental>
        <lyric>
          <text>ey</text>
        </lyric>
      </note>
      <note>
        <pitch>
          <step>C</step>
          <octave>5</octave>
        </pitch>
        <duration>12</duration>
        <type>eighth</type>
        <accidental/>
        <lyric>
          <text>dür </text>
        </lyric>
      </note>
      <note>
        <pitch>
          <step>D</step>
          <octave>5</octave>
        </pitch>
        <duration>12</duration>
        <type>eighth</type>
        <accidental/>
        <lyric>
          <text>Der</text>
        </lyric>
      </note>
      <note>
        <pitch>
          <step>D</step>
          <octave>5</octave>
        </pitch>
        <duration>12</duration>
        <type>eighth</type>
        <accidental/>
        <lyric>
          <text>viş </text>
        </lyric>
      </note>
      <note>
        <pitch>
          <step>D</step>
          <octave>5</octave>
        </pitch>
        <duration>6</duration>
        <type>16th</type>
        <accidental/>
        <lyric>
          <text>Ba</text>
        </lyric>
      </note>
      <note>
        <pitch>
          <step>C</step>
          <octave>5</octave>
        </pitch>
        <duration>6</duration>
        <type>16th</type>
        <accidental/>
        <lyric>
          <text></text>
        </lyric>
      </note>
      <note>
        <pitch>
          <step>B</step>
          <octave>4</octave>
          <alter>-0.5</alter>
        </pitch>
        <duration>12</duration>
        <type>eighth</type>
        <accidental>quarter-flat</accidental>
        <lyric>
          <text>ba </text>
        </lyric>
      </note>
    </measure>
    <measure number="8">
      <note>
        <pitch>
          <step>C</step>
          <octave>5</octave>
        </pitch>
        <duration>12</duration>
        <type>eighth</type>
        <accidental/>
        <lyric>
          <text>an</text>
        </lyric>
      </note>
      <note>
        <pitch>
          <step>C</step>
          <octave>5</octave>
        </pitch>
        <duration>12</duration>
        <type>eighth</type>
        <accidental/>
        <lyric>
          <text>nem </text>
        </lyric>
      </note>
      <note>
        <pitch>
          <step>B</step>
          <octave>4</octave>
          <alter>-0.5</alter>
        </pitch>
        <duration>12</duration>
        <type>eighth</type>
        <accidental>quarter-flat</accidental>
        <lyric>
          <text>ba</text>
        </lyric>
      </note>
      <note>
        <pitch>
          <step>A</step>
          <octave>4</octave>
          <alter>1</alter>
        </pitch>
        <duration>12</duration>
        <type>eighth</type>
        <accidental>sharp</accidental>
        <lyric>
          <text>bam </text>
        </lyric>
      </note>
      <note>
        <pitch>
          <step>B</step>
          <octave>4</octave>
          <alter>-0.5</alter>
        </pitch>
        <duration>12</duration>
        <type>eighth</type>
        <accidental>quarter-flat</accidental>
        <lyric>
          <text>top</text>
        </lyric>
      </note>
      <note>
        <pitch>
          <step>B</step>
          <octave>4</octave>
          <alter>-0.5</alter>
        </pitch>
        <duration>12</duration>
        <type>eighth</type>
        <accidental>quarter-flat</accidental>
        <lyric>
          <text>rak</text>
        </lyric>
      </note>
      <note>
        <pitch>
          <step>B</step>
          <octave>4</octave>
          <alter>-0.5</alter>
        </pitch>
        <duration>24</duration>
        <type>quarter</type>
        <accidental>quarter-flat</accidental>
        <lyric>
          <text>tır  </text>
        </lyric>
      </note>
    </measure>
    <measure number="9">
      <note>
        <pitch>
          <step>B</step>
          <octave>4</octave>
          <alter>-0.5</alter>
        </pitch>
        <duration>12</duration>
        <type>eighth</type>
        <accidental>quarter-flat</accidental>
        <lyric>
          <text>Hak </text>
        </lyric>
      </note>
      <note>
        <pitch>
          <step>D</step>
          <octave>5</octave>
        </pitch>
        <duration>6</duration>
        <type>16th</type>
        <accidental/>
        <lyric>
          <text>lâ</text>
        </lyric>
      </note>
      <note>
        <pitch>
          <step>C</step>
          <octave>5</octave>
        </pitch>
        <duration>6</duration>
        <type>16th</type>
        <accidental/>
        <lyric>
          <text></text>
        </lyric>
      </note>
      <note>
        <pitch>
          <step>B</step>
          <octave>4</octave>
          <alter>-0.5</alter>
        </pitch>
        <duration>12</duration>
        <type>eighth</type>
        <accidental>quarter-flat</accidental>
        <lyric>
          <text></text>
        </lyric>
      </note>
      <note>
        <pitch>
          <step>C</step>
          <octave>5</octave>
        </pitch>
        <duration>12</duration>
        <type>eighth</type>
        <accidental/>
        <lyric>
          <text>i</text>
        </lyric>
      </note>
      <note>
        <pitch>
          <step>D</step>
          <octave>5</octave>
        </pitch>
        <duration>24</duration>
        <type>quarter</type>
        <accidental/>
        <lyric>
          <text>lâ</text>
        </lyric>
      </note>
      <note>
        <pitch>
          <step>D</step>
          <octave>5</octave>
        </pitch>
        <duration>24</duration>
        <type>quarter</type>
        <accidental/>
        <lyric>
          <text>he </text>
        </lyric>
      </note>
    </measure>
    <measure number="10">
      <note>
        <pitch>
          <step>G</step>
          <octave>5</octave>
        </pitch>
        <duration>24</duration>
        <type>quarter</type>
        <accidental/>
        <lyric>
          <text>il</text>
        </lyric>
      </note>
      <note>
        <pitch>
          <step>F</step>
          <octave>5</octave>
          <alter>1</alter>
        </pitch>
        <duration>12</duration>
        <type>eighth</type>
        <accidental>sharp</accidental>
        <lyric>
          <text>lal</text>
        </lyric>
      </note>
      <note>
        <pitch>
          <step>E</step>
          <octave>5</octave>
          <alter>-0.5</alter>
        </pitch>
        <duration>12</duration>
        <type>eighth</type>
        <accidental>quarter-flat</accidental>
        <lyric>
          <text></text>
        </lyric>
      </note>
      <note>
        <pitch>
          <step>D</step>
          <octave>5</octave>
        </pitch>
        <duration>24</duration>
        <type>quarter</type>
        <accidental/>
        <lyric>
          <text>lah </text>
        </lyric>
      </note>
      <note>
        <pitch>
          <step>G</step>
          <octave>5</octave>
        </pitch>
        <duration>12</duration>
        <type>eighth</type>
        <accidental/>
        <lyric>
          <text>Al</text>
        </lyric>
      </note>
      <note>
        <pitch>
          <step>G</step>
          <octave>5</octave>
        </pitch>
        <duration>12</duration>
        <type>eighth</type>
        <accidental/>
        <lyric>
          <text>lah </text>
        </lyric>
      </note>
    </measure>
    <measure number="11">
      <note>
        <rest/>
        <duration>12</duration>
        <type>eighth</type>
        <lyric>
          <text></text>
        </lyric>
      </note>
      <note>
        <pitch>
          <step>G</step>
          <octave>5</octave>
        </pitch>
        <duration>6</duration>
        <type>16th</type>
        <accidental/>
        <lyric>
          <text>lâ</text>
        </lyric>
      </note>
      <note>
        <pitch>
          <step>F</step>
          <octave>5</octave>
          <alter>1</alter>
        </pitch>
        <duration>6</duration>
        <type>16th</type>
        <accidental>sharp</accidental>
        <lyric>
          <text></text>
        </lyric>
      </note>
      <note>
        <pitch>
          <step>E</step>
          <octave>5</octave>
          <alter>-0.5</alter>
        </pitch>
        <duration>12</duration>
        <type>eighth</type>
        <accidental>quarter-flat</accidental>
        <lyric>
          <text></text>
        </lyric>
      </note>
      <note>
        <pitch>
          <step>G</step>
          <octave>5</octave>
        </pitch>
        <duration>12</duration>
        <type>eighth</type>
        <accidental/>
        <lyric>
          <text>i</text>
        </lyric>
      </note>
      <note>
        <pitch>
          <step>F</step>
          <octave>5</octave>
          <alter>1</alter>
        </pitch>
        <duration>12</duration>
        <type>eighth</type>
        <accidental>sharp</accidental>
        <lyric>
          <text>lâ</text>
        </lyric>
      </note>
      <note>
        <pitch>
          <step>E</step>
          <octave>5</octave>
          <alter>-0.5</alter>
        </pitch>
        <duration>12</duration>
        <type>eighth</type>
        <accidental>quarter-flat</accidental>
        <lyric>
          <text></text>
        </lyric>
      </note>
      <note>
        <pitch>
          <step>D</step>
          <octave>5</octave>
        </pitch>
        <duration>12</duration>
        <type>eighth</type>
        <accidental/>
        <lyric>
          <text>he </text>
        </lyric>
      </note>
      <note>
        <pitch>
          <step>C</step>
          <octave>5</octave>
        </pitch>
        <duration>12</duration>
        <type>eighth</type>
        <accidental/>
        <lyric>
          <text></text>
        </lyric>
      </note>
    </measure>
    <measure number="12">
      <note>
        <pitch>
          <step>E</step>
          <octave>5</octave>
          <alter>-0.5</alter>
        </pitch>
        <duration>18</duration>
        <type>eighth</type>
        <dot/>
        <accidental>quarter-flat</accidental>
        <lyric>
          <text>il</text>
        </lyric>
      </note>
      <note>
        <pitch>
          <step>D</step>
          <octave>5</octave>
        </pitch>
        <duration>6</duration>
        <type>16th</type>
        <accidental/>
        <lyric>
          <text></text>
        </lyric>
      </note>
      <note>
        <pitch>
          <step>C</step>
          <octave>5</octave>
        </pitch>
        <duration>12</duration>
        <type>eighth</type>
        <accidental/>
        <lyric>
          <text>lal</text>
        </lyric>
      </note>
      <note>
        <pitch>
          <step>C</step>
          <octave>5</octave>
        </pitch>
        <duration>6</duration>
        <type>16th</type>
        <accidental/>
        <lyric>
          <text></text>
        </lyric>
      </note>
      <note>
        <pitch>
          <step>B</step>
          <octave>4</octave>
          <alter>-0.5</alter>
        </pitch>
        <duration>6</duration>
        <type>16th</type>
        <accidental>quarter-flat</accidental>
        <lyric>
          <text></text>
        </lyric>
      </note>
      <note>
        <pitch>
          <step>B</step>
          <octave>4</octave>
          <alter>-0.5</alter>
        </pitch>
        <duration>48</duration>
        <type>half</type>
        <accidental>quarter-flat</accidental>
        <lyric>
          <text>lah </text>
        </lyric>
      </note>
    </measure>
    <measure number="13">
      <note>
        <pitch>
          <step>B</step>
          <octave>4</octave>
          <alter>-0.5</alter>
        </pitch>
        <duration>12</duration>
        <type>eighth</type>
        <accidental>quarter-flat</accidental>
        <lyric>
          <text>Hak </text>
        </lyric>
      </note>
      <note>
        <pitch>
          <step>D</step>
          <octave>5</octave>
        </pitch>
        <duration>6</duration>
        <type>16th</type>
        <accidental/>
        <lyric>
          <text>lâ</text>
        </lyric>
      </note>
      <note>
        <pitch>
          <step>C</step>
          <octave>5</octave>
        </pitch>
        <duration>6</duration>
        <type>16th</type>
        <accidental/>
        <lyric>
          <text></text>
        </lyric>
      </note>
      <note>
        <pitch>
          <step>B</step>
          <octave>4</octave>
          <alter>-0.5</alter>
        </pitch>
        <duration>12</duration>
        <type>eighth</type>
        <accidental>quarter-flat</accidental>
        <lyric>
          <text></text>
        </lyric>
      </note>
      <note>
        <pitch>
          <step>C</step>
          <octave>5</octave>
        </pitch>
        <duration>12</duration>
        <type>eighth</type>
        <accidental/>
        <lyric>
          <text>i</text>
        </lyric>
      </note>
      <note>
        <pitch>
          <step>D</step>
          <octave>5</octave>
        </pitch>
        <duration>24</duration>
        <type>quarter</type>
        <accidental/>
        <lyric>
          <text>lâ</text>
        </lyric>
      </note>
      <note>
        <pitch>
          <step>D</step>
          <octave>5</octave>
        </pitch>
        <duration>24</duration>
        <type>quarter</type>
        <accidental/>
        <lyric>
          <text>he </text>
        </lyric>
      </note>
    </measure>
    <measure number="14">
      <note>
        <pitch>
          <step>G</step>
          <octave>5</octave>
        </pitch>
        <duration>24</duration>
        <type>quarter</type>
        <accidental/>
        <lyric>
          <text>il</text>
        </lyric>
      </note>
      <note>
        <pitch>
          <step>F</step>
          <octave>5</octave>
          <alter>1</alter>
        </pitch>
        <duration>12</duration>
        <type>eighth</type>
        <accidental>sharp</accidental>
        <lyric>
          <text>lal</text>
        </lyric>
      </note>
      <note>
        <pitch>
          <step>E</step>
          <octave>5</octave>
          <alter>-0.5</alter>
        </pitch>
        <duration>12</duration>
        <type>eighth</type>
        <accidental>quarter-flat</accidental>
        <lyric>
          <text></text>
        </lyric>
      </note>
      <note>
        <pitch>
          <step>D</step>
          <octave>5</octave>
        </pitch>
        <duration>24</duration>
        <type>quarter</type>
        <accidental/>
        <lyric>
          <text>lah </text>
        </lyric>
      </note>
      <note>
        <pitch>
          <step>G</step>
          <octave>5</octave>
        </pitch>
        <duration>12</duration>
        <type>eighth</type>
        <accidental/>
        <lyric>
          <text>Al</text>
        </lyric>
      </note>
      <note>
        <pitch>
          <step>G</step>
          <octave>5</octave>
        </pitch>
        <duration>12</duration>
        <type>eighth</type>
        <accidental/>
        <lyric>
          <text>lah </text>
        </lyric>
      </note>
    </measure>
    <measure number="15">
      <note>
        <rest/>
        <duration>12</duration>
        <type>eighth</type>
        <lyric>
          <text></text>
        </lyric>
      </note>
      <note>
        <pitch>
          <step>G</step>
          <octave>5</octave>
        </pitch>
        <duration>6</duration>
        <type>16th</type>
        <accidental/>
        <lyric>
          <text>lâ</text>
        </lyric>
      </note>
      <note>
        <pitch>
          <step>F</step>
          <octave>5</octave>
          <alter>1</alter>
        </pitch>
        <duration>6</duration>
        <type>16th</type>
        <accidental>sharp</accidental>
        <lyric>
          <text></text>
        </lyric>
      </note>
      <note>
        <pitch>
          <step>E</step>
          <octave>5</octave>
          <alter>-0.5</alter>
        </pitch>
        <duration>12</duration>
        <type>eighth</type>
        <accidental>quarter-flat</accidental>
        <lyric>
          <text></text>
        </lyric>
      </note>
      <note>
        <pitch>
          <step>G</step>
          <octave>5</octave>
        </pitch>
        <duration>12</duration>
        <type>eighth</type>
        <accidental/>
        <lyric>
          <text>i</text>
        </lyric>
      </note>
      <note>
        <pitch>
          <step>F</step>
          <octave>5</octave>
          <alter>1</alter>
        </pitch>
        <duration>12</duration>
        <type>eighth</type>
        <accidental>sharp</accidental>
        <lyric>
          <text>lâ</text>
        </lyric>
      </note>
      <note>
        <pitch>
          <step>E</step>
          <octave>5</octave>
          <alter>-0.5</alter>
        </pitch>
        <duration>12</duration>
        <type>eighth</type>
        <accidental>quarter-flat</accidental>
        <lyric>
          <text></text>
        </lyric>
      </note>
      <note>
        <pitch>
          <step>D</step>
          <octave>5</octave>
        </pitch>
        <duration>12</duration>
        <type>eighth</type>
        <accidental/>
        <lyric>
          <text>he </text>
        </lyric>
      </note>
      <note>
        <pitch>
          <step>C</step>
          <octave>5</octave>
        </pitch>
        <duration>12</duration>
        <type>eighth</type>
        <accidental/>
        <lyric>
          <text></text>
        </lyric>
      </note>
    </measure>
    <measure number="16">
      <note>
        <pitch>
          <step>E</step>
          <octave>5</octave>
          <alter>-0.5</alter>
        </pitch>
        <duration>18</duration>
        <type>eighth</type>
        <dot/>
        <accidental>quarter-flat</accidental>
        <lyric>
          <text>il</text>
        </lyric>
      </note>
      <note>
        <pitch>
          <step>D</step>
          <octave>5</octave>
        </pitch>
        <duration>6</duration>
        <type>16th</type>
        <accidental/>
        <lyric>
          <text></text>
        </lyric>
      </note>
      <note>
        <pitch>
          <step>C</step>
          <octave>5</octave>
        </pitch>
        <duration>12</duration>
        <type>eighth</type>
        <accidental/>
        <lyric>
          <text>lal</text>
        </lyric>
      </note>
      <note>
        <pitch>
          <step>C</step>
          <octave>5</octave>
        </pitch>
        <duration>6</duration>
        <type>16th</type>
        <accidental/>
        <lyric>
          <text></text>
        </lyric>
      </note>
      <note>
        <pitch>
          <step>B</step>
          <octave>4</octave>
          <alter>-0.5</alter>
        </pitch>
        <duration>6</duration>
        <type>16th</type>
        <accidental>quarter-flat</accidental>
        <lyric>
          <text></text>
        </lyric>
      </note>
      <note>
        <pitch>
          <step>B</step>
          <octave>4</octave>
          <alter>-0.5</alter>
        </pitch>
        <duration>48</duration>
        <type>half</type>
        <accidental>quarter-flat</accidental>
        <lyric>
          <text>lah </text>
        </lyric>
      </note>
    </measure>
    <measure number="17">
      <note>
        <pitch>
          <step>B</step>
          <octave>4</octave>
          <alter>-0.5</alter>
        </pitch>
        <duration>12</duration>
        <type>eighth</type>
        <accidental>quarter-flat</accidental>
        <lyric>
          <text>Sor</text>
        </lyric>
      </note>
      <note>
        <pitch>
          <step>B</step>
          <octave>4</octave>
          <alter>-0.5</alter>
        </pitch>
        <duration>6</duration>
        <type>16th</type>
        <accidental>quarter-flat</accidental>
        <lyric>
          <text>dum </text>
        </lyric>
      </note>
      <note>
        <pitch>
          <step>C</step>
          <octave>5</octave>
        </pitch>
        <duration>6</duration>
        <type>16th</type>
        <accidental/>
        <lyric>
          <text></text>
        </lyric>
      </note>
      <note>
        <pitch>
          <step>D</step>
          <octave>5</octave>
        </pitch>
        <duration>12</duration>
        <type>eighth</type>
        <accidental/>
        <lyric>
          <text>sa</text>
        </lyric>
      </note>
      <note>
        <pitch>
          <step>D</step>
          <octave>5</octave>
        </pitch>
        <duration>12</duration>
        <type>eighth</type>
        <accidental/>
        <lyric>
          <text>rı </text>
        </lyric>
      </note>
      <note>
        <pitch>
          <step>E</step>
          <octave>5</octave>
          <alter>-0.5</alter>
        </pitch>
        <duration>6</duration>
        <type>16th</type>
        <accidental>quarter-flat</accidental>
        <lyric>
          <text>çi</text>
        </lyric>
      </note>
      <note>
        <pitch>
          <step>D</step>
          <octave>5</octave>
        </pitch>
        <duration>6</duration>
        <type>16th</type>
        <accidental/>
        <lyric>
          <text></text>
        </lyric>
      </note>
      <note>
        <pitch>
          <step>E</step>
          <octave>5</octave>
          <alter>-0.5</alter>
        </pitch>
        <duration>6</duration>
        <type>16th</type>
        <accidental>quarter-flat</accidental>
        <lyric>
          <text>çe</text>
        </lyric>
      </note>
      <note>
        <pitch>
          <step>F</step>
          <octave>5</octave>
          <alter>1</alter>
        </pitch>
        <duration>6</duration>
        <type>16th</type>
        <accidental>sharp</accidental>
        <lyric>
          <text></text>
        </lyric>
      </note>
      <note>
        <pitch>
          <step>D</step>
          <octave>5</octave>
        </pitch>
        <duration>24</duration>
        <type>quarter</type>
        <accidental/>
        <lyric>
          <text>ğe </text>
        </lyric>
      </note>
    </measure>
    <measure number="18">
      <note>
        <pitch>
          <step>G</step>
          <octave>5</octave>
        </pitch>
        <duration>12</duration>
        <type>eighth</type>
        <accidental/>
        <lyric>
          <text>an</text>
        </lyric>
      </note>
      <note>
        <pitch>
          <step>G</step>
          <octave>5</octave>
        </pitch>
        <duration>12</duration>
        <type>eighth</type>
        <accidental/>
        <lyric>
          <text>nen </text>
        </lyric>
      </note>
      <note>
        <pitch>
          <step>F</step>
          <octave>5</octave>
          <alter>1</alter>
        </pitch>
        <duration>12</duration>
        <type>eighth</type>
        <accidental>sharp</accidental>
        <lyric>
          <text>ba</text>
        </lyric>
      </note>
      <note>
        <pitch>
          <step>E</step>
          <octave>5</octave>
          <alter>-0.5</alter>
        </pitch>
        <duration>12</duration>
        <type>eighth</type>
        <accidental>quarter-flat</accidental>
        <lyric>
          <text>ban </text>
        </lyric>
      </note>
      <note>
        <pitch>
          <step>D</step>
          <octave>5</octave>
        </pitch>
        <duration>12</duration>
        <type>eighth</type>
        <accidental/>
        <lyric>
          <text>var </text>
        </lyric>
      </note>
      <note>
        <pitch>
          <step>D</step>
          <octave>5</octave>
        </pitch>
        <duration>6</duration>
        <type>16th</type>
        <accidental/>
        <lyric>
          <text>mı</text>
        </lyric>
      </note>
      <note>
        <pitch>
          <step>E</step>
          <octave>5</octave>
          <alter>-0.5</alter>
        </pitch>
        <duration>6</duration>
        <type>16th</type>
        <accidental>quarter-flat</accidental>
        <lyric>
          <text></text>
        </lyric>
      </note>
      <note>
        <pitch>
          <step>D</step>
          <octave>5</octave>
        </pitch>
        <duration>6</duration>
        <type>16th</type>
        <accidental/>
        <lyric>
          <text>dır  </text>
        </lyric>
      </note>
      <note>
        <pitch>
          <step>C</step>
          <octave>5</octave>
        </pitch>
        <duration>6</duration>
        <type>16th</type>
        <accidental/>
        <lyric>
          <text></text>
        </lyric>
      </note>
      <note>
        <pitch>
          <step>B</step>
          <octave>4</octave>
          <alter>-0.5</alter>
        </pitch>
        <duration>12</duration>
        <type>eighth</type>
        <accidental>quarter-flat</accidental>
        <lyric>
          <text></text>
        </lyric>
      </note>
    </measure>
    <measure number="19">
      <note>
        <pitch>
          <step>B</step>
          <octave>4</octave>
          <alter>-0.5</alter>
        </pitch>
        <duration>12</duration>
        <type>eighth</type>
        <accidental>quarter-flat</accidental>
        <lyric>
          <text>Sor</text>
        </lyric>
      </note>
      <note>
        <pitch>
          <step>B</step>
          <octave>4</octave>
          <alter>-0.5</alter>
        </pitch>
        <duration>6</duration>
        <type>16th</type>
        <accidental>quarter-flat</accidental>
        <lyric>
          <text>dum </text>
        </lyric>
      </note>
      <note>
        <pitch>
          <step>C</step>
          <octave>5</octave>
        </pitch>
        <duration>6</duration>
        <type>16th</type>
        <accidental/>
        <lyric>
          <text></text>
        </lyric>
      </note>
      <note>
        <pitch>
          <step>D</step>
          <octave>5</octave>
        </pitch>
        <duration>12</duration>
        <type>eighth</type>
        <accidental/>
        <lyric>
          <text>sa</text>
        </lyric>
      </note>
      <note>
        <pitch>
          <step>D</step>
          <octave>5</octave>
        </pitch>
        <duration>12</duration>
        <type>eighth</type>
        <accidental/>
        <lyric>
          <text>rı </text>
        </lyric>
      </note>
      <note>
        <pitch>
          <step>E</step>
          <octave>5</octave>
          <alter>-0.5</alter>
        </pitch>
        <duration>6</duration>
        <type>16th</type>
        <accidental>quarter-flat</accidental>
        <lyric>
          <text>çi</text>
        </lyric>
      </note>
      <note>
        <pitch>
          <step>D</step>
          <octave>5</octave>
        </pitch>
        <duration>6</duration>
        <type>16th</type>
        <accidental/>
        <lyric>
          <text></text>
        </lyric>
      </note>
      <note>
        <pitch>
          <step>E</step>
          <octave>5</octave>
          <alter>-0.5</alter>
        </pitch>
        <duration>6</duration>
        <type>16th</type>
        <accidental>quarter-flat</accidental>
        <lyric>
          <text>çe</text>
        </lyric>
      </note>
      <note>
        <pitch>
          <step>F</step>
          <octave>5</octave>
          <alter>1</alter>
        </pitch>
        <duration>6</duration>
        <type>16th</type>
        <accidental>sharp</accidental>
        <lyric>
          <text></text>
        </lyric>
      </note>
      <note>
        <pitch>
          <step>D</step>
          <octave>5</octave>
        </pitch>
        <duration>24</duration>
        <type>quarter</type>
        <accidental/>
        <lyric>
          <text>ğe </text>
        </lyric>
      </note>
    </measure>
    <measure number="20">
      <note>
        <pitch>
          <step>G</step>
          <octave>5</octave>
        </pitch>
        <duration>12</duration>
        <type>eighth</type>
        <accidental/>
        <lyric>
          <text>an</text>
        </lyric>
      </note>
      <note>
        <pitch>
          <step>G</step>
          <octave>5</octave>
        </pitch>
        <duration>12</duration>
        <type>eighth</type>
        <accidental/>
        <lyric>
          <text>nen </text>
        </lyric>
      </note>
      <note>
        <pitch>
          <step>F</step>
          <octave>5</octave>
          <alter>1</alter>
        </pitch>
        <duration>12</duration>
        <type>eighth</type>
        <accidental>sharp</accidental>
        <lyric>
          <text>ba</text>
        </lyric>
      </note>
      <note>
        <pitch>
          <step>E</step>
          <octave>5</octave>
          <alter>-0.5</alter>
        </pitch>
        <duration>12</duration>
        <type>eighth</type>
        <accidental>quarter-flat</accidental>
        <lyric>
          <text>ban </text>
        </lyric>
      </note>
      <note>
        <pitch>
          <step>D</step>
          <octave>5</octave>
        </pitch>
        <duration>12</duration>
        <type>eighth</type>
        <accidental/>
        <lyric>
          <text>var </text>
        </lyric>
      </note>
      <note>
        <pitch>
          <step>D</step>
          <octave>5</octave>
        </pitch>
        <duration>6</duration>
        <type>16th</type>
        <accidental/>
        <lyric>
          <text>mı</text>
        </lyric>
      </note>
      <note>
        <pitch>
          <step>E</step>
          <octave>5</octave>
          <alter>-0.5</alter>
        </pitch>
        <duration>6</duration>
        <type>16th</type>
        <accidental>quarter-flat</accidental>
        <lyric>
          <text></text>
        </lyric>
      </note>
      <note>
        <pitch>
          <step>D</step>
          <octave>5</octave>
        </pitch>
        <duration>6</duration>
        <type>16th</type>
        <accidental/>
        <lyric>
          <text>dır  </text>
        </lyric>
      </note>
      <note>
        <pitch>
          <step>C</step>
          <octave>5</octave>
        </pitch>
        <duration>6</duration>
        <type>16th</type>
        <accidental/>
        <lyric>
          <text></text>
        </lyric>
      </note>
      <note>
        <pitch>
          <step>B</step>
          <octave>4</octave>
          <alter>-0.5</alter>
        </pitch>
        <duration>12</duration>
        <type>eighth</type>
        <accidental>quarter-flat</accidental>
        <lyric>
          <text></text>
        </lyric>
      </note>
    </measure>
    <measure number="21">
      <note>
        <rest/>
        <duration>12</duration>
        <type>eighth</type>
        <lyric>
          <text></text>
        </lyric>
      </note>
      <note>
        <pitch>
          <step>E</step>
          <octave>5</octave>
          <alter>-0.5</alter>
        </pitch>
        <duration>6</duration>
        <type>16th</type>
        <accidental>quarter-flat</accidental>
        <lyric>
          <text>Çi</text>
        </lyric>
      </note>
      <note>
        <pitch>
          <step>E</step>
          <octave>5</octave>
          <alter>-0.5</alter>
        </pitch>
        <duration>6</duration>
        <type>16th</type>
        <accidental>quarter-flat</accidental>
        <lyric>
          <text>çek </text>
        </lyric>
      </note>
      <note>
        <pitch>
          <step>E</step>
          <octave>5</octave>
          <alter>-0.5</alter>
        </pitch>
        <duration>12</duration>
        <type>eighth</type>
        <accidental>quarter-flat</accidental>
        <lyric>
          <text>ey</text>
        </lyric>
      </note>
      <note>
        <pitch>
          <step>C</step>
          <octave>5</octave>
        </pitch>
        <duration>12</duration>
        <type>eighth</type>
        <accidental/>
        <lyric>
          <text>dür </text>
        </lyric>
      </note>
      <note>
        <pitch>
          <step>D</step>
          <octave>5</octave>
        </pitch>
        <duration>12</duration>
        <type>eighth</type>
        <accidental/>
        <lyric>
          <text>Der</text>
        </lyric>
      </note>
      <note>
        <pitch>
          <step>D</step>
          <octave>5</octave>
        </pitch>
        <duration>12</duration>
        <type>eighth</type>
        <accidental/>
        <lyric>
          <text>viş </text>
        </lyric>
      </note>
      <note>
        <pitch>
          <step>D</step>
          <octave>5</octave>
        </pitch>
        <duration>6</duration>
        <type>16th</type>
        <accidental/>
        <lyric>
          <text>Ba</text>
        </lyric>
      </note>
      <note>
        <pitch>
          <step>C</step>
          <octave>5</octave>
        </pitch>
        <duration>6</duration>
        <type>16th</type>
        <accidental/>
        <lyric>
          <text></text>
        </lyric>
      </note>
      <note>
        <pitch>
          <step>B</step>
          <octave>4</octave>
          <alter>-0.5</alter>
        </pitch>
        <duration>12</duration>
        <type>eighth</type>
        <accidental>quarter-flat</accidental>
        <lyric>
          <text>ba </text>
        </lyric>
      </note>
    </measure>
    <measure number="22">
      <note>
        <pitch>
          <step>C</step>
          <octave>5</octave>
        </pitch>
        <duration>12</duration>
        <type>eighth</type>
        <accidental/>
        <lyric>
          <text>an</text>
        </lyric>
      </note>
      <note>
        <pitch>
          <step>C</step>
          <octave>5</octave>
        </pitch>
        <duration>12</duration>
        <type>eighth</type>
        <accidental/>
        <lyric>
          <text>nem </text>
        </lyric>
      </note>
      <note>
        <pitch>
          <step>B</step>
          <octave>4</octave>
          <alter>-0.5</alter>
        </pitch>
        <duration>12</duration>
        <type>eighth</type>
        <accidental>quarter-flat</accidental>
        <lyric>
          <text>ba</text>
        </lyric>
      </note>
      <note>
        <pitch>
          <step>A</step>
          <octave>4</octave>
          <alter>1</alter>
        </pitch>
        <duration>12</duration>
        <type>eighth</type>
        <accidental>sharp</accidental>
        <lyric>
          <text>bam </text>
        </lyric>
      </note>
      <note>
        <pitch>
          <step>B</step>
          <octave>4</octave>
          <alter>-0.5</alter>
        </pitch>
        <duration>12</duration>
        <type>eighth</type>
        <accidental>quarter-flat</accidental>
        <lyric>
          <text>top</text>
        </lyric>
      </note>
      <note>
        <pitch>
          <step>B</step>
          <octave>4</octave>
          <alter>-0.5</alter>
        </pitch>
        <duration>12</duration>
        <type>eighth</type>
        <accidental>quarter-flat</accidental>
        <lyric>
          <text>rak</text>
        </lyric>
      </note>
      <note>
        <pitch>
          <step>B</step>
          <octave>4</octave>
          <alter>-0.5</alter>
        </pitch>
        <duration>24</duration>
        <type>quarter</type>
        <accidental>quarter-flat</accidental>
        <lyric>
          <text>tır  </text>
        </lyric>
      </note>
    </measure>
    <measure number="23">
      <note>
        <rest/>
        <duration>12</duration>
        <type>eighth</type>
        <lyric>
          <text></text>
        </lyric>
      </note>
      <note>
        <pitch>
          <step>E</step>
          <octave>5</octave>
          <alter>-0.5</alter>
        </pitch>
        <duration>6</duration>
        <type>16th</type>
        <accidental>quarter-flat</accidental>
        <lyric>
          <text>Çi</text>
        </lyric>
      </note>
      <note>
        <pitch>
          <step>E</step>
          <octave>5</octave>
          <alter>-0.5</alter>
        </pitch>
        <duration>6</duration>
        <type>16th</type>
        <accidental>quarter-flat</accidental>
        <lyric>
          <text>çek </text>
        </lyric>
      </note>
      <note>
        <pitch>
          <step>E</step>
          <octave>5</octave>
          <alter>-0.5</alter>
        </pitch>
        <duration>12</duration>
        <type>eighth</type>
        <accidental>quarter-flat</accidental>
        <lyric>
          <text>ey</text>
        </lyric>
      </note>
      <note>
        <pitch>
          <step>C</step>
          <octave>5</octave>
        </pitch>
        <duration>12</duration>
        <type>eighth</type>
        <accidental/>
        <lyric>
          <text>dür </text>
        </lyric>
      </note>
      <note>
        <pitch>
          <step>D</step>
          <octave>5</octave>
        </pitch>
        <duration>12</duration>
        <type>eighth</type>
        <accidental/>
        <lyric>
          <text>Der</text>
        </lyric>
      </note>
      <note>
        <pitch>
          <step>D</step>
          <octave>5</octave>
        </pitch>
        <duration>12</duration>
        <type>eighth</type>
        <accidental/>
        <lyric>
          <text>viş </text>
        </lyric>
      </note>
      <note>
        <pitch>
          <step>D</step>
          <octave>5</octave>
        </pitch>
        <duration>6</duration>
        <type>16th</type>
        <accidental/>
        <lyric>
          <text>Ba</text>
        </lyric>
      </note>
      <note>
        <pitch>
          <step>C</step>
          <octave>5</octave>
        </pitch>
        <duration>6</duration>
        <type>16th</type>
        <accidental/>
        <lyric>
          <text></text>
        </lyric>
      </note>
      <note>
        <pitch>
          <step>B</step>
          <octave>4</octave>
          <alter>-0.5</alter>
        </pitch>
        <duration>12</duration>
        <type>eighth</type>
        <accidental>quarter-flat</accidental>
        <lyric>
          <text>ba </text>
        </lyric>
      </note>
    </measure>
    <measure number="24">
      <note>
        <pitch>
          <step>C</step>
          <octave>5</octave>
        </pitch>
        <duration>12</duration>
        <type>eighth</type>
        <accidental/>
        <lyric>
          <text>an</text>
        </lyric>
      </note>
      <note>
        <pitch>
          <step>C</step>
          <octave>5</octave>
        </pitch>
        <duration>12</duration>
        <type>eighth</type>
        <accidental/>
        <lyric>
          <text>nem </text>
        </lyric>
      </note>
      <note>
        <pitch>
          <step>B</step>
          <octave>4</octave>
          <alter>-0.5</alter>
        </pitch>
        <duration>12</duration>
        <type>eighth</type>
        <accidental>quarter-flat</accidental>
        <lyric>
          <text>ba</text>
        </lyric>
      </note>
      <note>
        <pitch>
          <step>A</step>
          <octave>4</octave>
          <alter>1</alter>
        </pitch>
        <duration>12</duration>
        <type>eighth</type>
        <accidental>sharp</accidental>
        <lyric>
          <text>bam </text>
        </lyric>
      </note>
      <note>
        <pitch>
          <step>B</step>
          <octave>4</octave>
          <alter>-0.5</alter>
        </pitch>
        <duration>12</duration>
        <type>eighth</type>
        <accidental>quarter-flat</accidental>
        <lyric>
          <text>top</text>
        </lyric>
      </note>
      <note>
        <pitch>
          <step>B</step>
          <octave>4</octave>
          <alter>-0.5</alter>
        </pitch>
        <duration>12</duration>
        <type>eighth</type>
        <accidental>quarter-flat</accidental>
        <lyric>
          <text>rak</text>
        </lyric>
      </note>
      <note>
        <pitch>
          <step>B</step>
          <octave>4</octave>
          <alter>-0.5</alter>
        </pitch>
        <duration>24</duration>
        <type>quarter</type>
        <accidental>quarter-flat</accidental>
        <lyric>
          <text>tır  </text>
        </lyric>
      </note>
    </measure>
    <measure number="25">
      <note>
        <pitch>
          <step>B</step>
          <octave>4</octave>
          <alter>-0.5</alter>
        </pitch>
        <duration>12</duration>
        <type>eighth</type>
        <accidental>quarter-flat</accidental>
        <lyric>
          <text>Hak </text>
        </lyric>
      </note>
      <note>
        <pitch>
          <step>D</step>
          <octave>5</octave>
        </pitch>
        <duration>6</duration>
        <type>16th</type>
        <accidental/>
        <lyric>
          <text>lâ</text>
        </lyric>
      </note>
      <note>
        <pitch>
          <step>C</step>
          <octave>5</octave>
        </pitch>
        <duration>6</duration>
        <type>16th</type>
        <accidental/>
        <lyric>
          <text></text>
        </lyric>
      </note>
      <note>
        <pitch>
          <step>B</step>
          <octave>4</octave>
          <alter>-0.5</alter>
        </pitch>
        <duration>12</duration>
        <type>eighth</type>
        <accidental>quarter-flat</accidental>
        <lyric>
          <text></text>
        </lyric>
      </note>
      <note>
        <pitch>
          <step>C</step>
          <octave>5</octave>
        </pitch>
        <duration>12</duration>
        <type>eighth</type>
        <accidental/>
        <lyric>
          <text>i</text>
        </lyric>
      </note>
      <note>
        <pitch>
          <step>D</step>
          <octave>5</octave>
        </pitch>
        <duration>24</duration>
        <type>quarter</type>
        <accidental/>
        <lyric>
          <text>lâ</text>
        </lyric>
      </note>
      <note>
        <pitch>
          <step>D</step>
          <octave>5</octave>
        </pitch>
        <duration>24</duration>
        <type>quarter</type>
        <accidental/>
        <lyric>
          <text>he </text>
        </lyric>
      </note>
    </measure>
    <measure number="26">
      <note>
        <pitch>
          <step>G</step>
          <octave>5</octave>
        </pitch>
        <duration>24</duration>
        <type>quarter</type>
        <accidental/>
        <lyric>
          <text>il</text>
        </lyric>
      </note>
      <note>
        <pitch>
          <step>F</step>
          <octave>5</octave>
          <alter>1</alter>
        </pitch>
        <duration>12</duration>
        <type>eighth</type>
        <accidental>sharp</accidental>
        <lyric>
          <text>lal</text>
        </lyric>
      </note>
      <note>
        <pitch>
          <step>E</step>
          <octave>5</octave>
          <alter>-0.5</alter>
        </pitch>
        <duration>12</duration>
        <type>eighth</type>
        <accidental>quarter-flat</accidental>
        <lyric>
          <text></text>
        </lyric>
      </note>
      <note>
        <pitch>
          <step>D</step>
          <octave>5</octave>
        </pitch>
        <duration>24</duration>
        <type>quarter</type>
        <accidental/>
        <lyric>
          <text>lah </text>
        </lyric>
      </note>
      <note>
        <pitch>
          <step>G</step>
          <octave>5</octave>
        </pitch>
        <duration>12</duration>
        <type>eighth</type>
        <accidental/>
        <lyric>
          <text>Al</text>
        </lyric>
      </note>
      <note>
        <pitch>
          <step>G</step>
          <octave>5</octave>
        </pitch>
        <duration>12</duration>
        <type>eighth</type>
        <accidental/>
        <lyric>
          <text>lah </text>
        </lyric>
      </note>
    </measure>
    <measure number="27">
      <note>
        <rest/>
        <duration>12</duration>
        <type>eighth</type>
        <lyric>
          <text></text>
        </lyric>
      </note>
      <note>
        <pitch>
          <step>G</step>
          <octave>5</octave>
        </pitch>
        <duration>6</duration>
        <type>16th</type>
        <accidental/>
        <lyric>
          <text>lâ</text>
        </lyric>
      </note>
      <note>
        <pitch>
          <step>F</step>
          <octave>5</octave>
          <alter>1</alter>
        </pitch>
        <duration>6</duration>
        <type>16th</type>
        <accidental>sharp</accidental>
        <lyric>
          <text></text>
        </lyric>
      </note>
      <note>
        <pitch>
          <step>E</step>
          <octave>5</octave>
          <alter>-0.5</alter>
        </pitch>
        <duration>12</duration>
        <type>eighth</type>
        <accidental>quarter-flat</accidental>
        <lyric>
          <text></text>
        </lyric>
      </note>
      <note>
        <pitch>
          <step>G</step>
          <octave>5</octave>
        </pitch>
        <duration>12</duration>
        <type>eighth</type>
        <accidental/>
        <lyric>
          <text>i</text>
        </lyric>
      </note>
      <note>
        <pitch>
          <step>F</step>
          <octave>5</octave>
          <alter>1</alter>
        </pitch>
        <duration>12</duration>
        <type>eighth</type>
        <accidental>sharp</accidental>
        <lyric>
          <text>lâ</text>
        </lyric>
      </note>
      <note>
        <pitch>
          <step>E</step>
          <octave>5</octave>
          <alter>-0.5</alter>
        </pitch>
        <duration>12</duration>
        <type>eighth</type>
        <accidental>quarter-flat</accidental>
        <lyric>
          <text></text>
        </lyric>
      </note>
      <note>
        <pitch>
          <step>D</step>
          <octave>5</octave>
        </pitch>
        <duration>12</duration>
        <type>eighth</type>
        <accidental/>
        <lyric>
          <text>he </text>
        </lyric>
      </note>
      <note>
        <pitch>
          <step>C</step>
          <octave>5</octave>
        </pitch>
        <duration>12</duration>
        <type>eighth</type>
        <accidental/>
        <lyric>
          <text></text>
        </lyric>
      </note>
    </measure>
    <measure number="28">
      <note>
        <pitch>
          <step>E</step>
          <octave>5</octave>
          <alter>-0.5</alter>
        </pitch>
        <duration>18</duration>
        <type>eighth</type>
        <dot/>
        <accidental>quarter-flat</accidental>
        <lyric>
          <text>il</text>
        </lyric>
      </note>
      <note>
        <pitch>
          <step>D</step>
          <octave>5</octave>
        </pitch>
        <duration>6</duration>
        <type>16th</type>
        <accidental/>
        <lyric>
          <text></text>
        </lyric>
      </note>
      <note>
        <pitch>
          <step>C</step>
          <octave>5</octave>
        </pitch>
        <duration>12</duration>
        <type>eighth</type>
        <accidental/>
        <lyric>
          <text>lal</text>
        </lyric>
      </note>
      <note>
        <pitch>
          <step>C</step>
          <octave>5</octave>
        </pitch>
        <duration>6</duration>
        <type>16th</type>
        <accidental/>
        <lyric>
          <text></text>
        </lyric>
      </note>
      <note>
        <pitch>
          <step>B</step>
          <octave>4</octave>
          <alter>-0.5</alter>
        </pitch>
        <duration>6</duration>
        <type>16th</type>
        <accidental>quarter-flat</accidental>
        <lyric>
          <text></text>
        </lyric>
      </note>
      <note>
        <pitch>
          <step>B</step>
          <octave>4</octave>
          <alter>-0.5</alter>
        </pitch>
        <duration>48</duration>
        <type>half</type>
        <accidental>quarter-flat</accidental>
        <lyric>
          <text>lah </text>
        </lyric>
      </note>
    </measure>
    <measure number="29">
      <note>
        <pitch>
          <step>B</step>
          <octave>4</octave>
          <alter>-0.5</alter>
        </pitch>
        <duration>12</duration>
        <type>eighth</type>
        <accidental>quarter-flat</accidental>
        <lyric>
          <text>Hak </text>
        </lyric>
      </note>
      <note>
        <pitch>
          <step>D</step>
          <octave>5</octave>
        </pitch>
        <duration>6</duration>
        <type>16th</type>
        <accidental/>
        <lyric>
          <text>lâ</text>
        </lyric>
      </note>
      <note>
        <pitch>
          <step>C</step>
          <octave>5</octave>
        </pitch>
        <duration>6</duration>
        <type>16th</type>
        <accidental/>
        <lyric>
          <text></text>
        </lyric>
      </note>
      <note>
        <pitch>
          <step>B</step>
          <octave>4</octave>
          <alter>-0.5</alter>
        </pitch>
        <duration>12</duration>
        <type>eighth</type>
        <accidental>quarter-flat</accidental>
        <lyric>
          <text></text>
        </lyric>
      </note>
      <note>
        <pitch>
          <step>C</step>
          <octave>5</octave>
        </pitch>
        <duration>12</duration>
        <type>eighth</type>
        <accidental/>
        <lyric>
          <text>i</text>
        </lyric>
      </note>
      <note>
        <pitch>
          <step>D</step>
          <octave>5</octave>
        </pitch>
        <duration>24</duration>
        <type>quarter</type>
        <accidental/>
        <lyric>
          <text>lâ</text>
        </lyric>
      </note>
      <note>
        <pitch>
          <step>D</step>
          <octave>5</octave>
        </pitch>
        <duration>24</duration>
        <type>quarter</type>
        <accidental/>
        <lyric>
          <text>he </text>
        </lyric>
      </note>
    </measure>
    <measure number="30">
      <note>
        <pitch>
          <step>G</step>
          <octave>5</octave>
        </pitch>
        <duration>24</duration>
        <type>quarter</type>
        <accidental/>
        <lyric>
          <text>il</text>
        </lyric>
      </note>
      <note>
        <pitch>
          <step>F</step>
          <octave>5</octave>
          <alter>1</alter>
        </pitch>
        <duration>12</duration>
        <type>eighth</type>
        <accidental>sharp</accidental>
        <lyric>
          <text>lal</text>
        </lyric>
      </note>
      <note>
        <pitch>
          <step>E</step>
          <octave>5</octave>
          <alter>-0.5</alter>
        </pitch>
        <duration>12</duration>
        <type>eighth</type>
        <accidental>quarter-flat</accidental>
        <lyric>
          <text></text>
        </lyric>
      </note>
      <note>
        <pitch>
          <step>D</step>
          <octave>5</octave>
        </pitch>
        <duration>24</duration>
        <type>quarter</type>
        <accidental/>
        <lyric>
          <text>lah </text>
        </lyric>
      </note>
      <note>
        <pitch>
          <step>G</step>
          <octave>5</octave>
        </pitch>
        <duration>12</duration>
        <type>eighth</type>
        <accidental/>
        <lyric>
          <text>Al</text>
        </lyric>
      </note>
      <note>
        <pitch>
          <step>G</step>
          <octave>5</octave>
        </pitch>
        <duration>12</duration>
        <type>eighth</type>
        <accidental/>
        <lyric>
          <text>lah </text>
        </lyric>
      </note>
    </measure>
    <measure number="31">
      <note>
        <rest/>
        <duration>12</duration>
        <type>eighth</type>
        <lyric>
          <text></text>
        </lyric>
      </note>
      <note>
        <pitch>
          <step>G</step>
          <octave>5</octave>
        </pitch>
        <duration>6</duration>
        <type>16th</type>
        <accidental/>
        <lyric>
          <text>lâ</text>
        </lyric>
      </note>
      <note>
        <pitch>
          <step>F</step>
          <octave>5</octave>
          <alter>1</alter>
        </pitch>
        <duration>6</duration>
        <type>16th</type>
        <accidental>sharp</accidental>
        <lyric>
          <text></text>
        </lyric>
      </note>
      <note>
        <pitch>
          <step>E</step>
          <octave>5</octave>
          <alter>-0.5</alter>
        </pitch>
        <duration>12</duration>
        <type>eighth</type>
        <accidental>quarter-flat</accidental>
        <lyric>
          <text></text>
        </lyric>
      </note>
      <note>
        <pitch>
          <step>G</step>
          <octave>5</octave>
        </pitch>
        <duration>12</duration>
        <type>eighth</type>
        <accidental/>
        <lyric>
          <text>i</text>
        </lyric>
      </note>
      <note>
        <pitch>
          <step>F</step>
          <octave>5</octave>
          <alter>1</alter>
        </pitch>
        <duration>12</duration>
        <type>eighth</type>
        <accidental>sharp</accidental>
        <lyric>
          <text>lâ</text>
        </lyric>
      </note>
      <note>
        <pitch>
          <step>E</step>
          <octave>5</octave>
          <alter>-0.5</alter>
        </pitch>
        <duration>12</duration>
        <type>eighth</type>
        <accidental>quarter-flat</accidental>
        <lyric>
          <text></text>
        </lyric>
      </note>
      <note>
        <pitch>
          <step>D</step>
          <octave>5</octave>
        </pitch>
        <duration>12</duration>
        <type>eighth</type>
        <accidental/>
        <lyric>
          <text>he </text>
        </lyric>
      </note>
      <note>
        <pitch>
          <step>C</step>
          <octave>5</octave>
        </pitch>
        <duration>12</duration>
        <type>eighth</type>
        <accidental/>
        <lyric>
          <text></text>
        </lyric>
      </note>
    </measure>
    <measure number="32">
      <note>
        <pitch>
          <step>E</step>
          <octave>5</octave>
          <alter>-0.5</alter>
        </pitch>
        <duration>18</duration>
        <type>eighth</type>
        <dot/>
        <accidental>quarter-flat</accidental>
        <lyric>
          <text>il</text>
        </lyric>
      </note>
      <note>
        <pitch>
          <step>D</step>
          <octave>5</octave>
        </pitch>
        <duration>6</duration>
        <type>16th</type>
        <accidental/>
        <lyric>
          <text></text>
        </lyric>
      </note>
      <note>
        <pitch>
          <step>C</step>
          <octave>5</octave>
        </pitch>
        <duration>12</duration>
        <type>eighth</type>
        <accidental/>
        <lyric>
          <text>lal</text>
        </lyric>
      </note>
      <note>
        <pitch>
          <step>C</step>
          <octave>5</octave>
        </pitch>
        <duration>6</duration>
        <type>16th</type>
        <accidental/>
        <lyric>
          <text></text>
        </lyric>
      </note>
      <note>
        <pitch>
          <step>B</step>
          <octave>4</octave>
          <alter>-0.5</alter>
        </pitch>
        <duration>6</duration>
        <type>16th</type>
        <accidental>quarter-flat</accidental>
        <lyric>
          <text></text>
        </lyric>
      </note>
      <note>
        <pitch>
          <step>B</step>
          <octave>4</octave>
          <alter>-0.5</alter>
        </pitch>
        <duration>48</duration>
        <type>half</type>
        <accidental>quarter-flat</accidental>
        <lyric>
          <text>lah </text>
        </lyric>
      </note>
    </measure>
    <measure number="33"/>
  </part>
</score-partwise>
