<?xml version='1.0' encoding='UTF-8' standalone='no'?>
<!DOCTYPE score-partwise PUBLIC "-//Recordare//DTD MusicXML 3.0 Partwise//EN" "http://www.musicxml.org/dtds/partwise.dtd">
<score-partwise version="3.0">
  <work>
    <work-title>Vechi Var</work-title>
  </work>
  <identification>
    <relation>https://musicbrainz.org/work/5add4a47-515e-41ff-b8e7-19aa53a2917f</relation>
  </identification>
  <part-list>
    <score-part id="P1">
      <part-name>Music</part-name>
    </score-part>
  </part-list>
  <part id="P1">
    <measure number="1">
      <direction placement="above">
        <direction-type>
          <words default-y="35">Makam: Vech-i-Arazbâr, Usul: Darb</words>
        </direction-type>
        <sound tempo="84"/>
      </direction>
      <attributes>
        <divisions>96</divisions>
        <key/>
        <time>
          <beats>6</beats>
          <beat-type>4</beat-type>
        </time>
      </attributes>
      <note>
        <!--symbtr_txt_note_index 2-->
        <pitch>
          <step>E</step>
          <alter>-0.5</alter>
          <octave>5</octave>
        </pitch>
        <duration>96</duration>
        <type>quarter</type>
        <accidental>quarter-flat</accidental>
        <lyric>
          <syllabic>begin</syllabic>
          <text>Vec</text>
        </lyric>
      </note>
      <note>
        <!--symbtr_txt_note_index 3-->
        <pitch>
          <step>F</step>
          <octave>5</octave>
        </pitch>
        <duration>96</duration>
        <type>quarter</type>
        <lyric>
          <text></text>
        </lyric>
      </note>
      <note>
        <!--symbtr_txt_note_index 4-->
        <pitch>
          <step>G</step>
          <octave>5</octave>
        </pitch>
        <duration>192</duration>
        <type>half</type>
        <lyric>
          <syllabic>end</syllabic>
          <text>hi </text>
        </lyric>
      </note>
      <note>
        <!--symbtr_txt_note_index 5-->
        <!--Warning! SymbTr_Kod: 11 Silent grace. MusicXML schema does not have a appropriate mapping, treating the note as a normal note-->
        <pitch>
          <step>F</step>
          <octave>5</octave>
        </pitch>
        <duration>96</duration>
        <type>quarter</type>
        <lyric>
          <text></text>
        </lyric>
      </note>
      <note>
        <!--symbtr_txt_note_index 6-->
        <pitch>
          <step>F</step>
          <octave>5</octave>
        </pitch>
        <duration>48</duration>
        <type>eighth</type>
        <lyric>
          <text></text>
        </lyric>
      </note>
      <note>
        <!--symbtr_txt_note_index 7-->
        <pitch>
          <step>E</step>
          <alter>-0.5</alter>
          <octave>5</octave>
        </pitch>
        <duration>48</duration>
        <type>eighth</type>
        <accidental>quarter-flat</accidental>
        <lyric>
          <text></text>
        </lyric>
      </note>
    </measure>
    <measure number="2">
      <attributes/>
      <note>
        <!--symbtr_txt_note_index 8-->
        <pitch>
          <step>G</step>
          <octave>5</octave>
        </pitch>
        <duration>48</duration>
        <type>eighth</type>
        <lyric>
          <syllabic>single</syllabic>
          <text>var </text>
        </lyric>
      </note>
      <note>
        <!--symbtr_txt_note_index 9-->
        <pitch>
          <step>B</step>
          <alter>-1</alter>
          <octave>5</octave>
        </pitch>
        <duration>48</duration>
        <type>eighth</type>
        <accidental>flat</accidental>
        <lyric>
          <text></text>
        </lyric>
      </note>
      <note>
        <!--symbtr_txt_note_index 10-->
        <pitch>
          <step>A</step>
          <octave>5</octave>
        </pitch>
        <duration>48</duration>
        <type>eighth</type>
        <lyric>
          <text></text>
        </lyric>
      </note>
      <note>
        <!--symbtr_txt_note_index 11-->
        <pitch>
          <step>G</step>
          <octave>5</octave>
        </pitch>
        <duration>48</duration>
        <type>eighth</type>
        <lyric>
          <text></text>
        </lyric>
      </note>
      <note>
        <!--symbtr_txt_note_index 12-->
        <pitch>
          <step>F</step>
          <octave>5</octave>
        </pitch>
        <duration>144</duration>
        <type>quarter</type>
        <dot/>
        <lyric>
          <syllabic>begin</syllabic>
          <text>Vech_</text>
        </lyric>
      </note>
      <note>
        <!--symbtr_txt_note_index 13-->
        <!--Warning! SymbTr_Kod: 11 Silent grace. MusicXML schema does not have a appropriate mapping, treating the note as a normal note-->
        <pitch>
          <step>G</step>
          <octave>5</octave>
        </pitch>
        <duration>48</duration>
        <type>eighth</type>
        <lyric>
          <text></text>
        </lyric>
      </note>
      <note>
        <!--symbtr_txt_note_index 14-->
        <pitch>
          <step>G</step>
          <octave>5</octave>
        </pitch>
        <duration>144</duration>
        <type>quarter</type>
        <dot/>
        <lyric>
          <text></text>
        </lyric>
      </note>
      <note>
        <!--symbtr_txt_note_index 15-->
        <rest/>
        <duration>48</duration>
        <type>eighth</type>
        <lyric>
          <text></text>
        </lyric>
      </note>
    </measure>
    <measure number="3">
      <attributes/>
      <note>
        <!--symbtr_txt_note_index 16-->
        <pitch>
          <step>C</step>
          <octave>6</octave>
        </pitch>
        <duration>96</duration>
        <type>quarter</type>
        <lyric>
          <syllabic>end</syllabic>
          <text>i </text>
        </lyric>
      </note>
      <note>
        <!--symbtr_txt_note_index 17-->
        <pitch>
          <step>B</step>
          <alter>-1</alter>
          <octave>5</octave>
        </pitch>
        <duration>192</duration>
        <type>half</type>
        <accidental>flat</accidental>
        <lyric>
          <syllabic>begin</syllabic>
          <text>A</text>
        </lyric>
      </note>
      <note>
        <!--symbtr_txt_note_index 18-->
        <pitch>
          <step>A</step>
          <octave>5</octave>
        </pitch>
        <duration>192</duration>
        <type>half</type>
        <lyric>
          <text></text>
        </lyric>
      </note>
      <note>
        <!--symbtr_txt_note_index 19-->
        <pitch>
          <step>A</step>
          <octave>5</octave>
        </pitch>
        <duration>48</duration>
        <type>eighth</type>
        <lyric>
          <text></text>
        </lyric>
      </note>
      <note>
        <!--symbtr_txt_note_index 20-->
        <!--Warning! SymbTr_Kod: 11 Silent grace. MusicXML schema does not have a appropriate mapping, treating the note as a normal note-->
        <pitch>
          <step>G</step>
          <octave>5</octave>
        </pitch>
        <duration>48</duration>
        <type>eighth</type>
        <lyric>
          <text></text>
        </lyric>
      </note>
    </measure>
    <measure number="4">
      <attributes/>
      <note>
        <!--symbtr_txt_note_index 21-->
        <!--Warning! SymbTr_Kod: 11 Silent grace. MusicXML schema does not have a appropriate mapping, treating the note as a normal note-->
        <pitch>
          <step>G</step>
          <octave>5</octave>
        </pitch>
        <duration>96</duration>
        <type>quarter</type>
        <lyric>
          <syllabic>end</syllabic>
          <text>raz</text>
        </lyric>
      </note>
      <note>
        <!--symbtr_txt_note_index 22-->
        <pitch>
          <step>G</step>
          <octave>5</octave>
        </pitch>
        <duration>48</duration>
        <type>eighth</type>
        <lyric>
          <text></text>
        </lyric>
      </note>
      <note>
        <!--symbtr_txt_note_index 23-->
        <pitch>
          <step>A</step>
          <octave>5</octave>
        </pitch>
        <duration>48</duration>
        <type>eighth</type>
        <lyric>
          <text></text>
        </lyric>
      </note>
      <note>
        <!--symbtr_txt_note_index 24-->
        <pitch>
          <step>G</step>
          <octave>5</octave>
        </pitch>
        <duration>48</duration>
        <type>eighth</type>
        <lyric>
          <syllabic>single</syllabic>
          <text>bâr </text>
        </lyric>
      </note>
      <note>
        <!--symbtr_txt_note_index 25-->
        <pitch>
          <step>F</step>
          <octave>5</octave>
        </pitch>
        <duration>48</duration>
        <type>eighth</type>
        <lyric>
          <text></text>
        </lyric>
      </note>
      <note>
        <!--symbtr_txt_note_index 26-->
        <pitch>
          <step>E</step>
          <alter>-0.5</alter>
          <octave>5</octave>
        </pitch>
        <duration>48</duration>
        <type>eighth</type>
        <accidental>quarter-flat</accidental>
        <lyric>
          <text></text>
        </lyric>
      </note>
      <note>
        <!--symbtr_txt_note_index 27-->
        <pitch>
          <step>D</step>
          <octave>5</octave>
        </pitch>
        <duration>48</duration>
        <type>eighth</type>
        <lyric>
          <text></text>
        </lyric>
      </note>
      <note>
        <!--symbtr_txt_note_index 28-->
        <pitch>
          <step>E</step>
          <alter>-0.5</alter>
          <octave>5</octave>
        </pitch>
        <duration>48</duration>
        <type>eighth</type>
        <accidental>quarter-flat</accidental>
        <lyric>
          <text></text>
        </lyric>
      </note>
      <note>
        <!--symbtr_txt_note_index 29-->
        <pitch>
          <step>F</step>
          <octave>5</octave>
        </pitch>
        <duration>48</duration>
        <type>eighth</type>
        <lyric>
          <text></text>
        </lyric>
      </note>
      <note>
        <!--symbtr_txt_note_index 30-->
        <pitch>
          <step>E</step>
          <alter>-0.5</alter>
          <octave>5</octave>
        </pitch>
        <duration>96</duration>
        <type>quarter</type>
        <accidental>quarter-flat</accidental>
        <lyric>
          <text></text>
        </lyric>
      </note>
    </measure>
    <measure number="5">
      <attributes/>
      <note>
        <!--symbtr_txt_note_index 31-->
        <pitch>
          <step>D</step>
          <octave>5</octave>
        </pitch>
        <duration>96</duration>
        <type>quarter</type>
        <lyric>
          <syllabic>begin</syllabic>
          <text>et</text>
        </lyric>
      </note>
      <note>
        <!--symbtr_txt_note_index 32-->
        <pitch>
          <step>E</step>
          <alter>-0.5</alter>
          <octave>5</octave>
        </pitch>
        <duration>96</duration>
        <type>quarter</type>
        <accidental>quarter-flat</accidental>
        <lyric>
          <text></text>
        </lyric>
      </note>
      <note>
        <!--symbtr_txt_note_index 33-->
        <pitch>
          <step>F</step>
          <octave>5</octave>
        </pitch>
        <duration>288</duration>
        <type>half</type>
        <dot/>
        <lyric>
          <syllabic>end</syllabic>
          <text>se </text>
        </lyric>
      </note>
      <note>
        <!--symbtr_txt_note_index 34-->
        <pitch>
          <step>E</step>
          <alter>-0.5</alter>
          <octave>5</octave>
        </pitch>
        <duration>48</duration>
        <type>eighth</type>
        <accidental>quarter-flat</accidental>
        <lyric>
          <text></text>
        </lyric>
      </note>
      <note>
        <!--symbtr_txt_note_index 35-->
        <!--Warning! SymbTr_Kod: 11 Silent grace. MusicXML schema does not have a appropriate mapping, treating the note as a normal note-->
        <pitch>
          <step>D</step>
          <octave>5</octave>
        </pitch>
        <duration>48</duration>
        <type>eighth</type>
        <lyric>
          <text></text>
        </lyric>
      </note>
    </measure>
    <measure number="6">
      <attributes/>
      <note>
        <!--symbtr_txt_note_index 36-->
        <!--Warning! SymbTr_Kod: 11 Silent grace. MusicXML schema does not have a appropriate mapping, treating the note as a normal note-->
        <pitch>
          <step>D</step>
          <octave>5</octave>
        </pitch>
        <duration>96</duration>
        <type>quarter</type>
        <lyric>
          <syllabic>begin</syllabic>
          <text>şûh_</text>
        </lyric>
      </note>
      <note>
        <!--symbtr_txt_note_index 37-->
        <pitch>
          <step>D</step>
          <octave>5</octave>
        </pitch>
        <duration>48</duration>
        <type>eighth</type>
        <lyric>
          <text></text>
        </lyric>
      </note>
      <note>
        <!--symbtr_txt_note_index 38-->
        <pitch>
          <step>E</step>
          <alter>-0.5</alter>
          <octave>5</octave>
        </pitch>
        <duration>48</duration>
        <type>eighth</type>
        <accidental>quarter-flat</accidental>
        <lyric>
          <text></text>
        </lyric>
      </note>
      <note>
        <!--symbtr_txt_note_index 39-->
        <pitch>
          <step>G</step>
          <octave>5</octave>
        </pitch>
        <duration>72</duration>
        <type>eighth</type>
        <dot/>
        <lyric>
          <syllabic>end</syllabic>
          <text>ı </text>
        </lyric>
      </note>
      <note>
        <!--symbtr_txt_note_index 40-->
        <pitch>
          <step>F</step>
          <alter>+1</alter>
          <octave>5</octave>
        </pitch>
        <duration>24</duration>
        <type>16th</type>
        <accidental>sharp</accidental>
        <lyric>
          <text></text>
        </lyric>
      </note>
      <note>
        <!--symbtr_txt_note_index 41-->
        <pitch>
          <step>E</step>
          <alter>-0.5</alter>
          <octave>5</octave>
        </pitch>
        <duration>48</duration>
        <type>eighth</type>
        <accidental>quarter-flat</accidental>
        <lyric>
          <text></text>
        </lyric>
      </note>
      <note>
        <!--symbtr_txt_note_index 42-->
        <pitch>
          <step>D</step>
          <octave>5</octave>
        </pitch>
        <duration>48</duration>
        <type>eighth</type>
        <lyric>
          <text></text>
        </lyric>
      </note>
      <note>
        <!--symbtr_txt_note_index 43-->
        <pitch>
          <step>C</step>
          <octave>5</octave>
        </pitch>
        <duration>72</duration>
        <type>eighth</type>
        <dot/>
        <lyric>
          <text></text>
        </lyric>
      </note>
      <note>
        <!--symbtr_txt_note_index 44-->
        <pitch>
          <step>B</step>
          <alter>-0.5</alter>
          <octave>4</octave>
        </pitch>
        <duration>24</duration>
        <type>16th</type>
        <accidental>quarter-flat</accidental>
        <lyric>
          <text></text>
        </lyric>
      </note>
      <note>
        <!--symbtr_txt_note_index 45-->
        <pitch>
          <step>C</step>
          <octave>5</octave>
        </pitch>
        <duration>96</duration>
        <type>quarter</type>
        <lyric>
          <text></text>
        </lyric>
      </note>
    </measure>
    <measure number="7">
      <attributes/>
      <note>
        <!--symbtr_txt_note_index 46-->
        <pitch>
          <step>D</step>
          <octave>5</octave>
        </pitch>
        <duration>96</duration>
        <type>quarter</type>
        <lyric>
          <syllabic>begin</syllabic>
          <text>mut</text>
        </lyric>
      </note>
      <note>
        <!--symbtr_txt_note_index 47-->
        <pitch>
          <step>E</step>
          <alter>-0.5</alter>
          <octave>5</octave>
        </pitch>
        <duration>96</duration>
        <type>quarter</type>
        <accidental>quarter-flat</accidental>
        <lyric>
          <text></text>
        </lyric>
      </note>
      <note>
        <!--symbtr_txt_note_index 48-->
        <pitch>
          <step>F</step>
          <octave>5</octave>
        </pitch>
        <duration>192</duration>
        <type>half</type>
        <lyric>
          <syllabic>end</syllabic>
          <text>rı</text>
        </lyric>
      </note>
      <note>
        <!--symbtr_txt_note_index 49-->
        <pitch>
          <step>E</step>
          <alter>-0.5</alter>
          <octave>5</octave>
        </pitch>
        <duration>96</duration>
        <type>quarter</type>
        <accidental>quarter-flat</accidental>
        <lyric>
          <text></text>
        </lyric>
      </note>
      <note>
        <!--symbtr_txt_note_index 50-->
        <pitch>
          <step>D</step>
          <octave>5</octave>
        </pitch>
        <duration>96</duration>
        <type>quarter</type>
        <lyric>
          <text></text>
        </lyric>
      </note>
    </measure>
    <measure number="8">
      <attributes/>
      <note>
        <!--symbtr_txt_note_index 51-->
        <pitch>
          <step>D</step>
          <octave>5</octave>
        </pitch>
        <duration>48</duration>
        <type>eighth</type>
        <lyric>
          <syllabic>single</syllabic>
          <text>bân  </text>
          <end-line/>
        </lyric>
      </note>
      <note>
        <!--symbtr_txt_note_index 52-->
        <pitch>
          <step>C</step>
          <octave>5</octave>
        </pitch>
        <duration>48</duration>
        <type>eighth</type>
        <lyric>
          <text></text>
        </lyric>
      </note>
      <note>
        <!--symbtr_txt_note_index 53-->
        <pitch>
          <step>B</step>
          <alter>-0.5</alter>
          <octave>4</octave>
        </pitch>
        <duration>48</duration>
        <type>eighth</type>
        <accidental>quarter-flat</accidental>
        <lyric>
          <text></text>
        </lyric>
      </note>
      <note>
        <!--symbtr_txt_note_index 54-->
        <pitch>
          <step>D</step>
          <octave>5</octave>
        </pitch>
        <duration>48</duration>
        <type>eighth</type>
        <lyric>
          <text></text>
        </lyric>
      </note>
      <note>
        <!--symbtr_txt_note_index 55-->
        <pitch>
          <step>C</step>
          <octave>5</octave>
        </pitch>
        <duration>336</duration>
        <type>half</type>
        <dot/>
        <dot/>
        <lyric>
          <text></text>
        </lyric>
      </note>
      <note>
        <!--symbtr_txt_note_index 56-->
        <rest/>
        <duration>48</duration>
        <type>eighth</type>
        <lyric>
          <text></text>
        </lyric>
      </note>
    </measure>
    <measure number="9">
      <attributes/>
      <note>
        <!--symbtr_txt_note_index 57-->
        <pitch>
          <step>D</step>
          <octave>5</octave>
        </pitch>
        <duration>96</duration>
        <type>quarter</type>
        <lyric name="VOCAL_SECTION">
          <syllabic>begin</syllabic>
          <text>Din</text>
        </lyric>
      </note>
      <note>
        <!--symbtr_txt_note_index 58-->
        <pitch>
          <step>F</step>
          <octave>5</octave>
        </pitch>
        <duration>96</duration>
        <type>quarter</type>
        <lyric>
          <text></text>
        </lyric>
      </note>
      <note>
        <!--symbtr_txt_note_index 59-->
        <pitch>
          <step>G</step>
          <octave>5</octave>
        </pitch>
        <duration>288</duration>
        <type>half</type>
        <dot/>
        <lyric>
          <syllabic>end</syllabic>
          <text>le</text>
        </lyric>
      </note>
      <note>
        <!--symbtr_txt_note_index 60-->
        <pitch>
          <step>G</step>
          <octave>5</octave>
        </pitch>
        <duration>48</duration>
        <type>eighth</type>
        <lyric>
          <text></text>
        </lyric>
      </note>
      <note>
        <!--symbtr_txt_note_index 61-->
        <pitch>
          <step>A</step>
          <octave>5</octave>
        </pitch>
        <duration>48</duration>
        <type>eighth</type>
        <lyric>
          <text></text>
        </lyric>
      </note>
    </measure>
    <measure number="10">
      <attributes/>
      <note>
        <!--symbtr_txt_note_index 62-->
        <pitch>
          <step>A</step>
          <octave>5</octave>
        </pitch>
        <duration>48</duration>
        <type>eighth</type>
        <lyric>
          <syllabic>begin</syllabic>
          <text>yen</text>
        </lyric>
      </note>
      <note>
        <!--symbtr_txt_note_index 63-->
        <pitch>
          <step>G</step>
          <octave>5</octave>
        </pitch>
        <duration>48</duration>
        <type>eighth</type>
        <lyric>
          <text></text>
        </lyric>
      </note>
      <note>
        <!--symbtr_txt_note_index 64-->
        <pitch>
          <step>F</step>
          <octave>5</octave>
        </pitch>
        <duration>48</duration>
        <type>eighth</type>
        <lyric>
          <text></text>
        </lyric>
      </note>
      <note>
        <!--symbtr_txt_note_index 65-->
        <pitch>
          <step>E</step>
          <alter>-0.5</alter>
          <octave>5</octave>
        </pitch>
        <duration>48</duration>
        <type>eighth</type>
        <accidental>quarter-flat</accidental>
        <lyric>
          <text></text>
        </lyric>
      </note>
      <note>
        <!--symbtr_txt_note_index 66-->
        <pitch>
          <step>D</step>
          <octave>5</octave>
        </pitch>
        <duration>288</duration>
        <type>half</type>
        <dot/>
        <lyric>
          <syllabic>end</syllabic>
          <text>ler </text>
        </lyric>
      </note>
      <note>
        <!--symbtr_txt_note_index 67-->
        <pitch>
          <step>A</step>
          <octave>5</octave>
        </pitch>
        <duration>96</duration>
        <type>quarter</type>
        <lyric>
          <text></text>
        </lyric>
      </note>
    </measure>
    <measure number="11">
      <attributes/>
      <note>
        <!--symbtr_txt_note_index 68-->
        <!--Warning! SymbTr_Kod: 11 Silent grace. MusicXML schema does not have a appropriate mapping, treating the note as a normal note-->
        <pitch>
          <step>A</step>
          <octave>5</octave>
        </pitch>
        <duration>96</duration>
        <type>quarter</type>
        <lyric>
          <syllabic>single</syllabic>
          <text>mest </text>
        </lyric>
      </note>
      <note>
        <!--symbtr_txt_note_index 69-->
        <pitch>
          <step>A</step>
          <octave>5</octave>
        </pitch>
        <duration>48</duration>
        <type>eighth</type>
        <lyric>
          <text></text>
        </lyric>
      </note>
      <note>
        <!--symbtr_txt_note_index 70-->
        <pitch>
          <step>G</step>
          <octave>5</octave>
        </pitch>
        <duration>48</duration>
        <type>eighth</type>
        <lyric>
          <text></text>
        </lyric>
      </note>
      <note>
        <!--symbtr_txt_note_index 71-->
        <!--Warning! SymbTr_Kod: 11 Silent grace. MusicXML schema does not have a appropriate mapping, treating the note as a normal note-->
        <pitch>
          <step>G</step>
          <octave>5</octave>
        </pitch>
        <duration>96</duration>
        <type>quarter</type>
        <lyric>
          <syllabic>begin</syllabic>
          <text>o</text>
        </lyric>
      </note>
      <note>
        <!--symbtr_txt_note_index 72-->
        <pitch>
          <step>G</step>
          <octave>5</octave>
        </pitch>
        <duration>48</duration>
        <type>eighth</type>
        <lyric>
          <text></text>
        </lyric>
      </note>
      <note>
        <!--symbtr_txt_note_index 73-->
        <pitch>
          <step>F</step>
          <octave>5</octave>
        </pitch>
        <duration>48</duration>
        <type>eighth</type>
        <lyric>
          <text></text>
        </lyric>
      </note>
      <note>
        <!--symbtr_txt_note_index 74-->
        <pitch>
          <step>F</step>
          <octave>5</octave>
        </pitch>
        <duration>96</duration>
        <type>quarter</type>
        <notations>
          <ornaments>
            <trill-mark placement="above"/>
          </ornaments>
        </notations>
        <lyric>
          <text></text>
        </lyric>
      </note>
      <note>
        <!--symbtr_txt_note_index 75-->
        <pitch>
          <step>F</step>
          <octave>5</octave>
        </pitch>
        <duration>48</duration>
        <type>eighth</type>
        <lyric>
          <text></text>
        </lyric>
      </note>
      <note>
        <!--symbtr_txt_note_index 76-->
        <pitch>
          <step>E</step>
          <alter>-0.5</alter>
          <octave>5</octave>
        </pitch>
        <duration>48</duration>
        <type>eighth</type>
        <accidental>quarter-flat</accidental>
        <lyric>
          <text></text>
        </lyric>
      </note>
    </measure>
    <measure number="12">
      <attributes/>
      <note>
        <!--symbtr_txt_note_index 77-->
        <pitch>
          <step>E</step>
          <alter>-0.5</alter>
          <octave>5</octave>
        </pitch>
        <duration>96</duration>
        <type>quarter</type>
        <accidental>quarter-flat</accidental>
        <notations>
          <ornaments>
            <trill-mark placement="above"/>
          </ornaments>
        </notations>
        <lyric>
          <syllabic>end</syllabic>
          <text>lur </text>
        </lyric>
      </note>
      <note>
        <!--symbtr_txt_note_index 78-->
        <pitch>
          <step>E</step>
          <alter>-0.5</alter>
          <octave>5</octave>
        </pitch>
        <duration>48</duration>
        <type>eighth</type>
        <accidental>quarter-flat</accidental>
        <lyric>
          <text></text>
        </lyric>
      </note>
      <note>
        <!--symbtr_txt_note_index 79-->
        <pitch>
          <step>D</step>
          <octave>5</octave>
        </pitch>
        <duration>48</duration>
        <type>eighth</type>
        <lyric>
          <text></text>
        </lyric>
      </note>
      <note>
        <!--symbtr_txt_note_index 80-->
        <pitch>
          <step>G</step>
          <octave>5</octave>
        </pitch>
        <duration>72</duration>
        <type>eighth</type>
        <dot/>
        <lyric>
          <syllabic>begin</syllabic>
          <text>seyr_</text>
        </lyric>
      </note>
      <note>
        <!--symbtr_txt_note_index 81-->
        <pitch>
          <step>F</step>
          <alter>+1</alter>
          <octave>5</octave>
        </pitch>
        <duration>24</duration>
        <type>16th</type>
        <accidental>sharp</accidental>
        <lyric>
          <text></text>
        </lyric>
      </note>
      <note>
        <!--symbtr_txt_note_index 82-->
        <pitch>
          <step>E</step>
          <alter>-0.5</alter>
          <octave>5</octave>
        </pitch>
        <duration>48</duration>
        <type>eighth</type>
        <accidental>quarter-flat</accidental>
        <lyric>
          <text></text>
        </lyric>
      </note>
      <note>
        <!--symbtr_txt_note_index 83-->
        <pitch>
          <step>D</step>
          <octave>5</octave>
        </pitch>
        <duration>48</duration>
        <type>eighth</type>
        <lyric>
          <text></text>
        </lyric>
      </note>
      <note>
        <!--symbtr_txt_note_index 84-->
        <pitch>
          <step>C</step>
          <octave>5</octave>
        </pitch>
        <duration>72</duration>
        <type>eighth</type>
        <dot/>
        <lyric>
          <text></text>
        </lyric>
      </note>
      <note>
        <!--symbtr_txt_note_index 85-->
        <pitch>
          <step>B</step>
          <alter>-0.5</alter>
          <octave>4</octave>
        </pitch>
        <duration>24</duration>
        <type>16th</type>
        <accidental>quarter-flat</accidental>
        <lyric>
          <text></text>
        </lyric>
      </note>
      <note>
        <!--symbtr_txt_note_index 86-->
        <pitch>
          <step>C</step>
          <octave>5</octave>
        </pitch>
        <duration>96</duration>
        <type>quarter</type>
        <lyric>
          <text></text>
        </lyric>
      </note>
    </measure>
    <measure number="13">
      <attributes/>
      <note>
        <!--symbtr_txt_note_index 87-->
        <pitch>
          <step>D</step>
          <octave>5</octave>
        </pitch>
        <duration>48</duration>
        <type>eighth</type>
        <lyric>
          <syllabic>end</syllabic>
          <text>et</text>
        </lyric>
      </note>
      <note>
        <!--symbtr_txt_note_index 88-->
        <pitch>
          <step>C</step>
          <octave>5</octave>
        </pitch>
        <duration>48</duration>
        <type>eighth</type>
        <lyric>
          <text></text>
        </lyric>
      </note>
      <note>
        <!--symbtr_txt_note_index 89-->
        <pitch>
          <step>B</step>
          <alter>-0.5</alter>
          <octave>4</octave>
        </pitch>
        <duration>48</duration>
        <type>eighth</type>
        <accidental>quarter-flat</accidental>
        <lyric>
          <text></text>
        </lyric>
      </note>
      <note>
        <!--symbtr_txt_note_index 90-->
        <pitch>
          <step>C</step>
          <octave>5</octave>
        </pitch>
        <duration>48</duration>
        <type>eighth</type>
        <lyric>
          <text></text>
        </lyric>
      </note>
      <note>
        <!--symbtr_txt_note_index 91-->
        <pitch>
          <step>D</step>
          <octave>5</octave>
        </pitch>
        <duration>336</duration>
        <type>half</type>
        <dot/>
        <dot/>
        <lyric>
          <syllabic>begin</syllabic>
          <text>me</text>
        </lyric>
      </note>
      <note>
        <!--symbtr_txt_note_index 92-->
        <rest/>
        <duration>48</duration>
        <type>eighth</type>
        <lyric>
          <text></text>
        </lyric>
      </note>
    </measure>
    <measure number="14">
      <attributes/>
      <note>
        <!--symbtr_txt_note_index 93-->
        <pitch>
          <step>E</step>
          <alter>-0.5</alter>
          <octave>5</octave>
        </pitch>
        <duration>192</duration>
        <type>half</type>
        <accidental>quarter-flat</accidental>
        <lyric>
          <syllabic>end</syllabic>
          <text>den </text>
        </lyric>
      </note>
      <note>
        <!--symbtr_txt_note_index 94-->
        <pitch>
          <step>E</step>
          <alter>-0.5</alter>
          <octave>5</octave>
        </pitch>
        <duration>96</duration>
        <type>quarter</type>
        <accidental>quarter-flat</accidental>
        <lyric>
          <syllabic>begin</syllabic>
          <text>vec</text>
        </lyric>
      </note>
      <note>
        <!--symbtr_txt_note_index 95-->
        <pitch>
          <step>F</step>
          <alter>+1</alter>
          <octave>5</octave>
        </pitch>
        <duration>96</duration>
        <type>quarter</type>
        <accidental>sharp</accidental>
        <lyric>
          <text></text>
        </lyric>
      </note>
      <note>
        <!--symbtr_txt_note_index 96-->
        <pitch>
          <step>E</step>
          <alter>-0.5</alter>
          <octave>5</octave>
        </pitch>
        <duration>96</duration>
        <type>quarter</type>
        <accidental>quarter-flat</accidental>
        <lyric>
          <text></text>
        </lyric>
      </note>
      <note>
        <!--symbtr_txt_note_index 97-->
        <pitch>
          <step>D</step>
          <octave>5</octave>
        </pitch>
        <duration>96</duration>
        <type>quarter</type>
        <lyric>
          <text></text>
        </lyric>
      </note>
    </measure>
    <measure number="15">
      <attributes/>
      <note>
        <!--symbtr_txt_note_index 98-->
        <pitch>
          <step>D</step>
          <octave>5</octave>
        </pitch>
        <duration>96</duration>
        <type>quarter</type>
        <lyric>
          <syllabic>end</syllabic>
          <text>hin </text>
        </lyric>
      </note>
      <note>
        <!--symbtr_txt_note_index 99-->
        <pitch>
          <step>C</step>
          <octave>5</octave>
        </pitch>
        <duration>48</duration>
        <type>eighth</type>
        <lyric>
          <text></text>
        </lyric>
      </note>
      <note>
        <!--symbtr_txt_note_index 100-->
        <pitch>
          <step>B</step>
          <alter>-0.5</alter>
          <octave>4</octave>
        </pitch>
        <duration>48</duration>
        <type>eighth</type>
        <accidental>quarter-flat</accidental>
        <lyric>
          <text></text>
        </lyric>
      </note>
      <note>
        <!--symbtr_txt_note_index 101-->
        <pitch>
          <step>B</step>
          <alter>-0.5</alter>
          <octave>4</octave>
        </pitch>
        <duration>48</duration>
        <type>eighth</type>
        <accidental>quarter-flat</accidental>
        <lyric>
          <syllabic>begin</syllabic>
          <text>he</text>
        </lyric>
      </note>
      <note>
        <!--symbtr_txt_note_index 102-->
        <pitch>
          <step>C</step>
          <octave>5</octave>
        </pitch>
        <duration>48</duration>
        <type>eighth</type>
        <lyric>
          <text></text>
        </lyric>
      </note>
      <note>
        <!--symbtr_txt_note_index 103-->
        <pitch>
          <step>D</step>
          <octave>5</octave>
        </pitch>
        <duration>48</duration>
        <type>eighth</type>
        <lyric>
          <text></text>
        </lyric>
      </note>
      <note>
        <!--symbtr_txt_note_index 104-->
        <pitch>
          <step>E</step>
          <alter>-0.5</alter>
          <octave>5</octave>
        </pitch>
        <duration>48</duration>
        <type>eighth</type>
        <accidental>quarter-flat</accidental>
        <lyric>
          <text></text>
        </lyric>
      </note>
      <note>
        <!--symbtr_txt_note_index 105-->
        <pitch>
          <step>F</step>
          <alter>+1</alter>
          <octave>5</octave>
        </pitch>
        <duration>96</duration>
        <type>quarter</type>
        <accidental>sharp</accidental>
        <lyric>
          <text></text>
        </lyric>
      </note>
      <note>
        <!--symbtr_txt_note_index 106-->
        <pitch>
          <step>E</step>
          <octave>5</octave>
        </pitch>
        <duration>48</duration>
        <type>eighth</type>
        <accidental>slash-flat</accidental>
        <lyric>
          <text></text>
        </lyric>
      </note>
      <note>
        <!--symbtr_txt_note_index 107-->
        <pitch>
          <step>D</step>
          <octave>5</octave>
        </pitch>
        <duration>48</duration>
        <type>eighth</type>
        <lyric>
          <text></text>
        </lyric>
      </note>
    </measure>
    <measure number="16">
      <attributes/>
      <note>
        <!--symbtr_txt_note_index 108-->
        <pitch>
          <step>D</step>
          <octave>5</octave>
        </pitch>
        <duration>48</duration>
        <type>eighth</type>
        <lyric>
          <syllabic>end</syllabic>
          <text>mân  </text>
          <end-line/>
        </lyric>
      </note>
      <note>
        <!--symbtr_txt_note_index 109-->
        <pitch>
          <step>C</step>
          <octave>5</octave>
        </pitch>
        <duration>48</duration>
        <type>eighth</type>
        <lyric>
          <text></text>
        </lyric>
      </note>
      <note>
        <!--symbtr_txt_note_index 110-->
        <grace steal-time-following="10"/>
        <pitch>
          <step>D</step>
          <octave>5</octave>
        </pitch>
        <lyric>
          <text></text>
        </lyric>
      </note>
      <note>
        <!--symbtr_txt_note_index 111-->
        <pitch>
          <step>C</step>
          <octave>5</octave>
        </pitch>
        <duration>48</duration>
        <type>eighth</type>
        <lyric>
          <text></text>
        </lyric>
      </note>
      <note>
        <!--symbtr_txt_note_index 112-->
        <!--Warning! SymbTr_Kod: 11 Silent grace. MusicXML schema does not have a appropriate mapping, treating the note as a normal note-->
        <pitch>
          <step>B</step>
          <alter>-0.5</alter>
          <octave>4</octave>
        </pitch>
        <duration>48</duration>
        <type>eighth</type>
        <accidental>quarter-flat</accidental>
        <lyric>
          <text></text>
        </lyric>
      </note>
      <note>
        <!--symbtr_txt_note_index 113-->
        <pitch>
          <step>B</step>
          <alter>-0.5</alter>
          <octave>4</octave>
        </pitch>
        <duration>336</duration>
        <type>half</type>
        <dot/>
        <dot/>
        <accidental>quarter-flat</accidental>
        <lyric>
          <text></text>
        </lyric>
      </note>
      <note>
        <!--symbtr_txt_note_index 114-->
        <rest/>
        <duration>48</duration>
        <type>eighth</type>
        <lyric>
          <text></text>
        </lyric>
      </note>
    </measure>
    <measure number="17">
      <attributes/>
    </measure>
  </part>
</score-partwise>
