<?xml version='1.0' encoding='UTF-8' standalone='no'?>
<!DOCTYPE score-partwise PUBLIC "-//Recordare//DTD MusicXML 3.0 Partwise//EN" "http://www.musicxml.org/dtds/partwise.dtd">
<score-partwise version="3.0">
  <work>
    <work-title>Meclisi Zevk-I Tarab'Dır</work-title>
  </work>
  <identification>
    <creator type="composer">Ahmet Avni Konuk</creator>
    <creator type="poet">Ahmet Avni Konuk</creator>
    <encoding>
      <encoder>Burak Uyar</encoder>
      <software>https://github.com/burakuyar/MusicXMLConverter</software>
    </encoding>
    <relation>https://musicbrainz.org/work/e91f654e-0eb6-4991-9f1b-1ce88bcb4913</relation>
  </identification>
  <part-list>
    <score-part id="P1">
      <part-name>Music</part-name>
    </score-part>
  </part-list>
  <part id="P1">
    <measure number="1-0">
      <direction placement="above">
        <direction-type>
          <metronome>
            <beat-unit>quarter</beat-unit>
            <per-minute>48</per-minute>
          </metronome>
        </direction-type>
        <direction-type>
          <words default-y="35">Makam: Zevk-i-Tarab, Form: Küpe, Usul: Müsemmen </words>
        </direction-type>
        <sound tempo="48"/>
      </direction>
      <attributes>
        <divisions>96</divisions>
        <key/>
        <time>
          <beats>8</beats>
          <beat-type>8</beat-type>
        </time>
      </attributes>
      <note>
        <!--symbtr_txt_note_index 2-->
        <pitch>
          <step>G</step>
          <octave>5</octave>
        </pitch>
        <duration>96</duration>
        <type>quarter</type>
        <lyric name="VOCAL_SECTION">
          <syllabic>begin</syllabic>
          <text>Mec</text>
        </lyric>
      </note>
      <note>
        <!--symbtr_txt_note_index 3-->
        <pitch>
          <step>A</step>
          <octave>5</octave>
        </pitch>
        <duration>48</duration>
        <type>eighth</type>
        <lyric>
          <syllabic>end</syllabic>
          <text>li</text>
        </lyric>
      </note>
      <note>
        <!--symbtr_txt_note_index 4-->
        <pitch>
          <step>A</step>
          <octave>5</octave>
        </pitch>
        <duration>96</duration>
        <type>quarter</type>
        <lyric>
          <syllabic>single</syllabic>
          <text>si </text>
        </lyric>
      </note>
      <note>
        <!--symbtr_txt_note_index 5-->
        <pitch>
          <step>A</step>
          <octave>5</octave>
        </pitch>
        <duration>24</duration>
        <type>16th</type>
        <lyric>
          <syllabic>begin</syllabic>
          <text>Zevk_</text>
        </lyric>
      </note>
      <note>
        <!--symbtr_txt_note_index 6-->
        <pitch>
          <step>B</step>
          <alter>-1</alter>
          <octave>5</octave>
        </pitch>
        <duration>24</duration>
        <type>16th</type>
        <accidental>flat</accidental>
        <lyric>
          <text></text>
        </lyric>
      </note>
      <note>
        <!--symbtr_txt_note_index 7-->
        <pitch>
          <step>A</step>
          <octave>5</octave>
        </pitch>
        <duration>24</duration>
        <type>16th</type>
        <lyric>
          <text></text>
        </lyric>
      </note>
      <note>
        <!--symbtr_txt_note_index 8-->
        <pitch>
          <step>B</step>
          <alter>-1</alter>
          <octave>5</octave>
        </pitch>
        <duration>24</duration>
        <type>16th</type>
        <accidental>flat</accidental>
        <lyric>
          <text></text>
        </lyric>
      </note>
      <note>
        <!--symbtr_txt_note_index 9-->
        <pitch>
          <step>A</step>
          <octave>5</octave>
        </pitch>
        <duration>24</duration>
        <type>16th</type>
        <lyric>
          <text></text>
        </lyric>
      </note>
      <note>
        <!--symbtr_txt_note_index 10-->
        <pitch>
          <step>G</step>
          <octave>5</octave>
        </pitch>
        <duration>24</duration>
        <type>16th</type>
        <lyric>
          <text></text>
        </lyric>
      </note>
    </measure>
    <measure number="2-0">
      <attributes/>
      <note>
        <!--symbtr_txt_note_index 11-->
        <pitch>
          <step>A</step>
          <octave>5</octave>
        </pitch>
        <duration>24</duration>
        <type>16th</type>
        <lyric>
          <syllabic>end</syllabic>
          <text>ı </text>
        </lyric>
      </note>
      <note>
        <!--symbtr_txt_note_index 12-->
        <pitch>
          <step>C</step>
          <octave>6</octave>
        </pitch>
        <duration>24</duration>
        <type>16th</type>
        <lyric>
          <text></text>
        </lyric>
      </note>
      <note>
        <!--symbtr_txt_note_index 13-->
        <pitch>
          <step>B</step>
          <alter>-1</alter>
          <octave>5</octave>
        </pitch>
        <duration>48</duration>
        <type>eighth</type>
        <accidental>flat</accidental>
        <lyric>
          <text></text>
        </lyric>
      </note>
      <note>
        <!--symbtr_txt_note_index 14-->
        <pitch>
          <step>A</step>
          <octave>5</octave>
        </pitch>
        <duration>24</duration>
        <type>16th</type>
        <lyric>
          <syllabic>begin</syllabic>
          <text>Ta</text>
        </lyric>
      </note>
      <note>
        <!--symbtr_txt_note_index 15-->
        <pitch>
          <step>B</step>
          <alter>-1</alter>
          <octave>5</octave>
        </pitch>
        <duration>24</duration>
        <type>16th</type>
        <accidental>flat</accidental>
        <lyric>
          <text></text>
        </lyric>
      </note>
      <note>
        <!--symbtr_txt_note_index 16-->
        <pitch>
          <step>A</step>
          <octave>5</octave>
        </pitch>
        <duration>24</duration>
        <type>16th</type>
        <lyric>
          <syllabic>end</syllabic>
          <text>rab</text>
        </lyric>
      </note>
      <note>
        <!--symbtr_txt_note_index 17-->
        <pitch>
          <step>G</step>
          <octave>5</octave>
        </pitch>
        <duration>48</duration>
        <type>eighth</type>
        <notations>
          <ornaments>
            <mordent placement="above"/>
          </ornaments>
        </notations>
        <lyric>
          <text></text>
        </lyric>
      </note>
      <note>
        <!--symbtr_txt_note_index 18-->
        <pitch>
          <step>B</step>
          <alter>-1</alter>
          <octave>5</octave>
        </pitch>
        <duration>24</duration>
        <type>16th</type>
        <accidental>flat</accidental>
        <lyric>
          <text></text>
        </lyric>
      </note>
      <note>
        <!--symbtr_txt_note_index 19-->
        <pitch>
          <step>A</step>
          <octave>5</octave>
        </pitch>
        <duration>24</duration>
        <type>16th</type>
        <lyric>
          <syllabic>single</syllabic>
          <text>dır </text>
        </lyric>
      </note>
      <note>
        <!--symbtr_txt_note_index 20-->
        <pitch>
          <step>G</step>
          <octave>5</octave>
        </pitch>
        <duration>24</duration>
        <type>16th</type>
        <lyric>
          <text></text>
        </lyric>
      </note>
      <note>
        <!--symbtr_txt_note_index 21-->
        <pitch>
          <step>F</step>
          <alter>+1</alter>
          <octave>5</octave>
        </pitch>
        <duration>24</duration>
        <type>16th</type>
        <accidental>sharp</accidental>
        <lyric>
          <text></text>
        </lyric>
      </note>
      <note>
        <!--symbtr_txt_note_index 22-->
        <pitch>
          <step>E</step>
          <octave>5</octave>
        </pitch>
        <duration>24</duration>
        <type>16th</type>
        <accidental>slash-flat</accidental>
        <lyric>
          <text></text>
        </lyric>
      </note>
      <note>
        <!--symbtr_txt_note_index 23-->
        <pitch>
          <step>D</step>
          <octave>5</octave>
        </pitch>
        <duration>48</duration>
        <type>eighth</type>
        <lyric>
          <text></text>
        </lyric>
      </note>
    </measure>
    <measure number="3-0">
      <attributes/>
      <note>
        <!--symbtr_txt_note_index 24-->
        <pitch>
          <step>D</step>
          <octave>5</octave>
        </pitch>
        <duration>96</duration>
        <type>quarter</type>
        <lyric>
          <syllabic>begin</syllabic>
          <text>mu</text>
        </lyric>
      </note>
      <note>
        <!--symbtr_txt_note_index 25-->
        <pitch>
          <step>D</step>
          <octave>5</octave>
        </pitch>
        <duration>48</duration>
        <type>eighth</type>
        <lyric>
          <syllabic>end</syllabic>
          <text>si</text>
        </lyric>
      </note>
      <note>
        <!--symbtr_txt_note_index 26-->
        <pitch>
          <step>F</step>
          <alter>+1</alter>
          <octave>5</octave>
        </pitch>
        <duration>48</duration>
        <type>eighth</type>
        <accidental>sharp</accidental>
        <lyric>
          <syllabic>single</syllabic>
          <text>ki </text>
        </lyric>
      </note>
      <note>
        <!--symbtr_txt_note_index 27-->
        <pitch>
          <step>E</step>
          <octave>5</octave>
        </pitch>
        <duration>24</duration>
        <type>16th</type>
        <accidental>slash-flat</accidental>
        <lyric>
          <text></text>
        </lyric>
      </note>
      <note>
        <!--symbtr_txt_note_index 28-->
        <pitch>
          <step>D</step>
          <octave>5</octave>
        </pitch>
        <duration>24</duration>
        <type>16th</type>
        <lyric>
          <text></text>
        </lyric>
      </note>
      <note>
        <!--symbtr_txt_note_index 29-->
        <pitch>
          <step>E</step>
          <octave>5</octave>
        </pitch>
        <duration>24</duration>
        <type>16th</type>
        <accidental>slash-flat</accidental>
        <lyric>
          <syllabic>begin</syllabic>
          <text>er</text>
        </lyric>
      </note>
      <note>
        <!--symbtr_txt_note_index 30-->
        <pitch>
          <step>D</step>
          <octave>5</octave>
        </pitch>
        <duration>24</duration>
        <type>16th</type>
        <lyric>
          <text></text>
        </lyric>
      </note>
      <note>
        <!--symbtr_txt_note_index 31-->
        <pitch>
          <step>C</step>
          <alter>+1</alter>
          <octave>5</octave>
        </pitch>
        <duration>24</duration>
        <type>16th</type>
        <accidental>sharp</accidental>
        <lyric>
          <text></text>
        </lyric>
      </note>
      <note>
        <!--symbtr_txt_note_index 32-->
        <pitch>
          <step>D</step>
          <octave>5</octave>
        </pitch>
        <duration>24</duration>
        <type>16th</type>
        <lyric>
          <text></text>
        </lyric>
      </note>
      <note>
        <!--symbtr_txt_note_index 33-->
        <pitch>
          <step>C</step>
          <alter>+1</alter>
          <octave>5</octave>
        </pitch>
        <duration>48</duration>
        <type>eighth</type>
        <accidental>sharp</accidental>
        <lyric>
          <text></text>
        </lyric>
      </note>
    </measure>
    <measure number="4-0">
      <attributes/>
      <note>
        <!--symbtr_txt_note_index 34-->
        <pitch>
          <step>F</step>
          <alter>+1</alter>
          <octave>5</octave>
        </pitch>
        <duration>24</duration>
        <type>16th</type>
        <accidental>sharp</accidental>
        <lyric>
          <syllabic>end</syllabic>
          <text>bâ</text>
        </lyric>
      </note>
      <note>
        <!--symbtr_txt_note_index 35-->
        <pitch>
          <step>G</step>
          <octave>5</octave>
        </pitch>
        <duration>24</duration>
        <type>16th</type>
        <lyric>
          <text></text>
        </lyric>
      </note>
      <note>
        <!--symbtr_txt_note_index 36-->
        <pitch>
          <step>A</step>
          <octave>5</octave>
        </pitch>
        <duration>48</duration>
        <type>eighth</type>
        <lyric>
          <text></text>
        </lyric>
      </note>
      <note>
        <!--symbtr_txt_note_index 37-->
        <pitch>
          <step>G</step>
          <octave>5</octave>
        </pitch>
        <duration>24</duration>
        <type>16th</type>
        <lyric>
          <syllabic>begin</syllabic>
          <text>bı</text>
        </lyric>
      </note>
      <note>
        <!--symbtr_txt_note_index 38-->
        <pitch>
          <step>F</step>
          <alter>+1</alter>
          <octave>5</octave>
        </pitch>
        <duration>24</duration>
        <type>16th</type>
        <accidental>sharp</accidental>
        <lyric>
          <text></text>
        </lyric>
      </note>
      <note>
        <!--symbtr_txt_note_index 39-->
        <pitch>
          <step>F</step>
          <alter>+1</alter>
          <octave>5</octave>
        </pitch>
        <duration>24</duration>
        <type>16th</type>
        <accidental>sharp</accidental>
        <lyric>
          <syllabic>end</syllabic>
          <text>nın  </text>
          <end-line/>
        </lyric>
      </note>
      <note>
        <!--symbtr_txt_note_index 40-->
        <pitch>
          <step>E</step>
          <octave>5</octave>
        </pitch>
        <duration>24</duration>
        <type>16th</type>
        <accidental>slash-flat</accidental>
        <lyric>
          <text></text>
        </lyric>
      </note>
      <note>
        <!--symbtr_txt_note_index 41-->
        <pitch>
          <step>E</step>
          <octave>5</octave>
        </pitch>
        <duration>24</duration>
        <type>16th</type>
        <accidental>slash-flat</accidental>
        <lyric>
          <text></text>
        </lyric>
      </note>
      <note>
        <!--symbtr_txt_note_index 42-->
        <!--Warning! SymbTr_Kod: 11 Silent grace. MusicXML schema does not have a appropriate mapping, treating the note as a normal note-->
        <pitch>
          <step>D</step>
          <octave>5</octave>
        </pitch>
        <duration>24</duration>
        <type>16th</type>
        <lyric>
          <text></text>
        </lyric>
      </note>
      <note>
        <!--symbtr_txt_note_index 43-->
        <pitch>
          <step>D</step>
          <octave>5</octave>
        </pitch>
        <duration>96</duration>
        <type>quarter</type>
        <lyric>
          <text></text>
        </lyric>
      </note>
      <note>
        <!--symbtr_txt_note_index 44-->
        <rest/>
        <duration>48</duration>
        <type>eighth</type>
        <lyric>
          <text></text>
        </lyric>
      </note>
    </measure>
    <measure number="5-0">
      <attributes/>
      <note>
        <!--symbtr_txt_note_index 45-->
        <pitch>
          <step>C</step>
          <octave>5</octave>
        </pitch>
        <duration>96</duration>
        <type>quarter</type>
        <lyric name="VOCAL_SECTION">
          <syllabic>begin</syllabic>
          <text>Dâ</text>
        </lyric>
      </note>
      <note>
        <!--symbtr_txt_note_index 46-->
        <pitch>
          <step>C</step>
          <octave>5</octave>
        </pitch>
        <duration>48</duration>
        <type>eighth</type>
        <lyric>
          <syllabic>end</syllabic>
          <text>im </text>
        </lyric>
      </note>
      <note>
        <!--symbtr_txt_note_index 47-->
        <pitch>
          <step>C</step>
          <octave>5</octave>
        </pitch>
        <duration>48</duration>
        <type>eighth</type>
        <lyric>
          <syllabic>begin</syllabic>
          <text>ol</text>
        </lyric>
      </note>
      <note>
        <!--symbtr_txt_note_index 48-->
        <pitch>
          <step>E</step>
          <alter>-1</alter>
          <octave>5</octave>
        </pitch>
        <duration>48</duration>
        <type>eighth</type>
        <accidental>flat</accidental>
        <lyric>
          <text></text>
        </lyric>
      </note>
      <note>
        <!--symbtr_txt_note_index 49-->
        <pitch>
          <step>D</step>
          <octave>5</octave>
        </pitch>
        <duration>48</duration>
        <type>eighth</type>
        <lyric>
          <syllabic>end</syllabic>
          <text>sun </text>
        </lyric>
      </note>
      <note>
        <!--symbtr_txt_note_index 50-->
        <pitch>
          <step>C</step>
          <octave>5</octave>
        </pitch>
        <duration>48</duration>
        <type>eighth</type>
        <lyric>
          <text></text>
        </lyric>
      </note>
      <note>
        <!--symbtr_txt_note_index 51-->
        <pitch>
          <step>B</step>
          <alter>-1</alter>
          <octave>4</octave>
        </pitch>
        <duration>48</duration>
        <type>eighth</type>
        <accidental>flat</accidental>
        <lyric>
          <text></text>
        </lyric>
      </note>
    </measure>
    <measure number="6-0">
      <attributes/>
      <note>
        <!--symbtr_txt_note_index 52-->
        <pitch>
          <step>C</step>
          <octave>5</octave>
        </pitch>
        <duration>24</duration>
        <type>16th</type>
        <lyric>
          <syllabic>begin</syllabic>
          <text>zev</text>
        </lyric>
      </note>
      <note>
        <!--symbtr_txt_note_index 53-->
        <pitch>
          <step>E</step>
          <alter>-1</alter>
          <octave>5</octave>
        </pitch>
        <duration>24</duration>
        <type>16th</type>
        <accidental>flat</accidental>
        <lyric>
          <text></text>
        </lyric>
      </note>
      <note>
        <!--symbtr_txt_note_index 54-->
        <pitch>
          <step>D</step>
          <octave>5</octave>
        </pitch>
        <duration>48</duration>
        <type>eighth</type>
        <lyric>
          <text></text>
        </lyric>
      </note>
      <note>
        <!--symbtr_txt_note_index 55-->
        <pitch>
          <step>C</step>
          <octave>5</octave>
        </pitch>
        <duration>48</duration>
        <type>eighth</type>
        <lyric>
          <syllabic>end</syllabic>
          <text>ki </text>
        </lyric>
      </note>
      <note>
        <!--symbtr_txt_note_index 56-->
        <pitch>
          <step>C</step>
          <octave>5</octave>
        </pitch>
        <duration>24</duration>
        <type>16th</type>
        <lyric>
          <syllabic>single</syllabic>
          <text>her </text>
        </lyric>
      </note>
      <note>
        <!--symbtr_txt_note_index 57-->
        <pitch>
          <step>B</step>
          <alter>-1</alter>
          <octave>4</octave>
        </pitch>
        <duration>24</duration>
        <type>16th</type>
        <accidental>flat</accidental>
        <lyric>
          <text></text>
        </lyric>
      </note>
      <note>
        <!--symbtr_txt_note_index 58-->
        <pitch>
          <step>B</step>
          <alter>-1</alter>
          <octave>4</octave>
        </pitch>
        <duration>24</duration>
        <type>16th</type>
        <accidental>flat</accidental>
        <lyric>
          <text></text>
        </lyric>
      </note>
      <note>
        <!--symbtr_txt_note_index 59-->
        <pitch>
          <step>A</step>
          <octave>4</octave>
        </pitch>
        <duration>24</duration>
        <type>16th</type>
        <lyric>
          <text></text>
        </lyric>
      </note>
      <note>
        <!--symbtr_txt_note_index 60-->
        <pitch>
          <step>G</step>
          <octave>4</octave>
        </pitch>
        <duration>96</duration>
        <type>quarter</type>
        <lyric>
          <syllabic>single</syllabic>
          <text>an </text>
        </lyric>
      </note>
      <note>
        <!--symbtr_txt_note_index 61-->
        <rest/>
        <duration>48</duration>
        <type>eighth</type>
        <lyric>
          <text></text>
        </lyric>
      </note>
    </measure>
    <measure number="7-0">
      <attributes/>
      <note>
        <!--symbtr_txt_note_index 62-->
        <pitch>
          <step>G</step>
          <octave>4</octave>
        </pitch>
        <duration>96</duration>
        <type>quarter</type>
        <lyric>
          <syllabic>begin</syllabic>
          <text>ehl_</text>
        </lyric>
      </note>
      <note>
        <!--symbtr_txt_note_index 63-->
        <pitch>
          <step>A</step>
          <octave>4</octave>
        </pitch>
        <duration>48</duration>
        <type>eighth</type>
        <lyric>
          <syllabic>end</syllabic>
          <text>i </text>
        </lyric>
      </note>
      <note>
        <!--symbtr_txt_note_index 64-->
        <pitch>
          <step>B</step>
          <alter>-1</alter>
          <octave>4</octave>
        </pitch>
        <duration>48</duration>
        <type>eighth</type>
        <accidental>flat</accidental>
        <lyric>
          <syllabic>single</syllabic>
          <text>dil </text>
        </lyric>
      </note>
      <note>
        <!--symbtr_txt_note_index 65-->
        <pitch>
          <step>D</step>
          <octave>5</octave>
        </pitch>
        <duration>48</duration>
        <type>eighth</type>
        <lyric>
          <text></text>
        </lyric>
      </note>
      <note>
        <!--symbtr_txt_note_index 66-->
        <pitch>
          <step>C</step>
          <octave>5</octave>
        </pitch>
        <duration>48</duration>
        <type>eighth</type>
        <lyric>
          <syllabic>begin</syllabic>
          <text>es</text>
        </lyric>
      </note>
      <note>
        <!--symbtr_txt_note_index 67-->
        <pitch>
          <step>B</step>
          <alter>-1</alter>
          <octave>4</octave>
        </pitch>
        <duration>96</duration>
        <type>quarter</type>
        <accidental>flat</accidental>
        <lyric>
          <text></text>
        </lyric>
      </note>
    </measure>
    <measure number="8-0">
      <attributes/>
      <note>
        <!--symbtr_txt_note_index 68-->
        <pitch>
          <step>B</step>
          <alter>-1</alter>
          <octave>4</octave>
        </pitch>
        <duration>48</duration>
        <type>eighth</type>
        <accidental>flat</accidental>
        <lyric>
          <syllabic>end</syllabic>
          <text>hâ</text>
        </lyric>
      </note>
      <note>
        <!--symbtr_txt_note_index 69-->
        <pitch>
          <step>A</step>
          <octave>4</octave>
        </pitch>
        <duration>48</duration>
        <type>eighth</type>
        <lyric>
          <text></text>
        </lyric>
      </note>
      <note>
        <!--symbtr_txt_note_index 70-->
        <pitch>
          <step>G</step>
          <octave>4</octave>
        </pitch>
        <duration>48</duration>
        <type>eighth</type>
        <lyric>
          <syllabic>begin</syllabic>
          <text>bı</text>
        </lyric>
      </note>
      <note>
        <!--symbtr_txt_note_index 71-->
        <pitch>
          <step>A</step>
          <octave>4</octave>
        </pitch>
        <duration>24</duration>
        <type>16th</type>
        <lyric>
          <syllabic>end</syllabic>
          <text>nın  </text>
          <end-line/>
        </lyric>
      </note>
      <note>
        <!--symbtr_txt_note_index 72-->
        <pitch>
          <step>B</step>
          <alter>-1</alter>
          <octave>4</octave>
        </pitch>
        <duration>24</duration>
        <type>16th</type>
        <accidental>flat</accidental>
        <lyric>
          <text></text>
        </lyric>
      </note>
      <note>
        <!--symbtr_txt_note_index 73-->
        <grace steal-time-previous="10"/>
        <pitch>
          <step>C</step>
          <octave>5</octave>
        </pitch>
        <lyric>
          <text></text>
        </lyric>
      </note>
      <note>
        <!--symbtr_txt_note_index 74-->
        <pitch>
          <step>B</step>
          <alter>-1</alter>
          <octave>4</octave>
        </pitch>
        <duration>24</duration>
        <type>16th</type>
        <accidental>flat</accidental>
        <lyric>
          <text></text>
        </lyric>
      </note>
      <note>
        <!--symbtr_txt_note_index 75-->
        <!--Warning! SymbTr_Kod: 11 Silent grace. MusicXML schema does not have a appropriate mapping, treating the note as a normal note-->
        <pitch>
          <step>A</step>
          <octave>4</octave>
        </pitch>
        <duration>24</duration>
        <type>16th</type>
        <lyric>
          <text></text>
        </lyric>
      </note>
      <note>
        <!--symbtr_txt_note_index 76-->
        <pitch>
          <step>A</step>
          <octave>4</octave>
        </pitch>
        <duration>96</duration>
        <type>quarter</type>
        <lyric>
          <text></text>
        </lyric>
      </note>
      <note>
        <!--symbtr_txt_note_index 77-->
        <rest/>
        <duration>48</duration>
        <type>eighth</type>
        <lyric>
          <text></text>
        </lyric>
      </note>
    </measure>
    <measure number="9-0">
      <attributes/>
    </measure>
  </part>
</score-partwise>
